<svg xmlns="http://www.w3.org/2000/svg" xmlns:xlink="http://www.w3.org/1999/xlink" viewBox="0 0 29.1 29.1"><defs><style>.cls-1{fill:url(#Degradado_sin_nombre_48);}.cls-2{fill:url(#Degradado_sin_nombre_41);}.cls-3{fill:url(#Degradado_sin_nombre_13);}.cls-4{fill:url(#Degradado_sin_nombre_12);}.cls-5{fill:url(#Degradado_sin_nombre_11);}.cls-6{fill:url(#Degradado_sin_nombre_10);}</style><linearGradient id="Degradado_sin_nombre_48" x1="1.23" y1="14.57" x2="27.91" y2="14.57" gradientUnits="userSpaceOnUse"><stop offset="0.24" stop-color="#fff"/><stop offset="0.62" stop-color="#fff"/></linearGradient><linearGradient id="Degradado_sin_nombre_41" x1="3.61" y1="4.97" x2="25.53" y2="24.17" gradientUnits="userSpaceOnUse"><stop offset="0.24" stop-color="#e2a052"/><stop offset="0.42" stop-color="#995f68"/><stop offset="0.56" stop-color="#6b3677"/><stop offset="0.62" stop-color="#59267c"/></linearGradient><linearGradient id="Degradado_sin_nombre_13" x1="9.95" y1="7.97" x2="18.92" y2="18.43" xlink:href="#Degradado_sin_nombre_41"/><linearGradient id="Degradado_sin_nombre_12" x1="9.48" y1="9.49" x2="14.88" y2="14.77" gradientUnits="userSpaceOnUse"><stop offset="0.37" stop-color="#e2a052"/><stop offset="0.41" stop-color="#d59456"/><stop offset="0.67" stop-color="#7c4571"/><stop offset="0.79" stop-color="#59267c"/></linearGradient><linearGradient id="Degradado_sin_nombre_11" x1="10.32" y1="14.67" x2="20.2" y2="21.4" gradientUnits="userSpaceOnUse"><stop offset="0.22" stop-color="#e2a052"/><stop offset="0.3" stop-color="#be805d"/><stop offset="0.42" stop-color="#93596a"/><stop offset="0.52" stop-color="#733d74"/><stop offset="0.61" stop-color="#602c7a"/><stop offset="0.67" stop-color="#59267c"/></linearGradient><linearGradient id="Degradado_sin_nombre_10" x1="13.66" y1="15.65" x2="19.98" y2="19.21" gradientUnits="userSpaceOnUse"><stop offset="0.27" stop-color="#e2a052"/><stop offset="0.33" stop-color="#be805d"/><stop offset="0.41" stop-color="#93596a"/><stop offset="0.49" stop-color="#733d74"/><stop offset="0.55" stop-color="#602c7a"/><stop offset="0.59" stop-color="#59267c"/></linearGradient></defs><title>logo_comfeco</title><g id="Capa_2" data-name="Capa 2"><g id="cambio"><circle class="cls-1" cx="14.6" cy="14.6" r="13.3"/><path class="cls-2" d="M14.6,0A14.6,14.6,0,1,0,29.1,14.6,14.6,14.6,0,0,0,14.6,0Zm0,27.9A13.4,13.4,0,1,1,27.9,14.6,13.4,13.4,0,0,1,14.6,27.9Z"/><polygon class="cls-3" points="15.3 8.8 15.4 5.1 6.7 10.8 6.7 13.4 15.3 19 15.2 15.5 13.7 14.6 13.7 16.7 8.2 13.2 8.3 11.3 13.7 7.9 13.7 9.7 15.3 8.8"/><polygon class="cls-4" points="12.9 10.7 12.9 9.1 9 11.5 9 12.8 12.9 15.4 12.9 13.7 10.3 12.3 12.9 10.7"/><polygon class="cls-5" points="13.7 13.7 15.3 14.6 15.3 12.4 20.8 16.1 20.8 17.8 15.3 21.3 15.3 19.6 13.7 20.6 13.7 24 22.4 18.4 22.4 15.9 13.7 10.2 13.7 13.7"/><polygon class="cls-6" points="16.1 13.9 16.1 15.5 18.9 17.1 16.1 18.8 16.1 20.1 20 17.6 20 16.4 16.1 13.9"/></g></g></svg>