<svg xmlns="http://www.w3.org/2000/svg" viewBox="0 0 106.9 108.6"><defs><style>.cls-1{fill:#fbbc09;}.cls-2{fill:#517bbe;}.cls-3{fill:#e84335;}.cls-4{fill:#31a853;}</style></defs><title>logo_google</title><g id="Capa_2" data-name="Capa 2"><g id="logo_google"><path class="cls-1" d="M20.6,54.3A32.7,32.7,0,0,1,23,41.8L5.8,29.7a55.1,55.1,0,0,0-.2,48.8L22.5,65.7A35.9,35.9,0,0,1,20.6,54.3Z"/><path class="cls-2" d="M106,44v-.4H54.5V64.8H84.6A32.9,32.9,0,0,1,72.9,81.2L89.3,94.5a54.4,54.4,0,0,0,16.6-29.7h0a60.3,60.3,0,0,0,1-10.5A58.9,58.9,0,0,0,106,44Z"/><path class="cls-3" d="M53.4,0A52.3,52.3,0,0,0,20.6,11.5,54.5,54.5,0,0,0,5.8,29.7L23,41.8A32.8,32.8,0,0,1,53.4,20.9a32,32,0,0,1,20.9,7.7l.9.6,7.2-6.9,7.8-7.4A53,53,0,0,0,53.4,0Z"/><path class="cls-4" d="M72.9,81.2a31.2,31.2,0,0,1-14.6,6.1,26.3,26.3,0,0,1-4.9.4,32.6,32.6,0,0,1-15.8-4.1A33.8,33.8,0,0,1,22.5,65.7L5.6,78.5A53.3,53.3,0,0,0,20.2,96.8a52.5,52.5,0,0,0,33.2,11.8,53.7,53.7,0,0,0,14-1.8A52.8,52.8,0,0,0,89.3,94.5Z"/></g></g></svg>