<svg xmlns="http://www.w3.org/2000/svg" xmlns:xlink="http://www.w3.org/1999/xlink" viewBox="0 0 385.8 555.8"><defs><style>.cls-1,.cls-3{opacity:0.8;}.cls-1{fill:url(#Degradado_sin_nombre_5);}.cls-2,.cls-4,.cls-5,.cls-6{opacity:0.6;}.cls-2{fill:url(#Degradado_sin_nombre_5-2);}.cls-3{fill:url(#Degradado_sin_nombre_5-3);}.cls-4{fill:url(#Degradado_sin_nombre_5-4);}.cls-5{fill:url(#Degradado_sin_nombre_5-5);}.cls-6{fill:url(#Degradado_sin_nombre_5-6);}</style><linearGradient id="Degradado_sin_nombre_5" x1="149.09" y1="461.49" x2="151.36" y2="595.25" gradientUnits="userSpaceOnUse"><stop offset="0" stop-color="#c184b8"/><stop offset="0.73" stop-color="#a1559d"/></linearGradient><linearGradient id="Degradado_sin_nombre_5-2" x1="1280.97" y1="-2698.88" x2="1283.24" y2="-2565.13" gradientTransform="translate(1663.9 -2519.4) rotate(-176.6)" xlink:href="#Degradado_sin_nombre_5"/><linearGradient id="Degradado_sin_nombre_5-3" x1="1213.44" y1="-2672.8" x2="1215.71" y2="-2539.05" gradientTransform="translate(1663.9 -2519.4) rotate(-176.6)" xlink:href="#Degradado_sin_nombre_5"/><linearGradient id="Degradado_sin_nombre_5-4" x1="1271.97" y1="-2668.77" x2="1274.25" y2="-2535.01" gradientTransform="translate(1663.9 -2519.4) rotate(-176.6)" xlink:href="#Degradado_sin_nombre_5"/><linearGradient id="Degradado_sin_nombre_5-5" x1="104.6" y1="485.59" x2="106.87" y2="619.34" xlink:href="#Degradado_sin_nombre_5"/><linearGradient id="Degradado_sin_nombre_5-6" x1="303.89" y1="538.29" x2="306.16" y2="672.05" gradientTransform="translate(-107.2 -79.3) rotate(5.7)" xlink:href="#Degradado_sin_nombre_5"/></defs><title>shapes_form</title><g id="Capa_2" data-name="Capa 2"><g id="cambio"><polygon class="cls-1" points="289.6 539.8 65.2 481.9 11.5 552.3 289.6 539.8"/><polygon class="cls-2" points="88.7 11.8 309.2 83 367.1 15.9 88.7 11.8"/><polygon class="cls-3" points="204.7 0 385.8 58.5 385.8 0 204.7 0"/><polygon class="cls-4" points="342 0 134.1 0 296.7 52.5 342 0"/><polygon class="cls-5" points="0 530.6 0 555.8 211.6 555.8 18.8 506 0 530.6"/><polygon class="cls-6" points="35.8 555.8 235.1 555.8 86.9 501.2 35.8 555.8"/></g></g></svg>