<svg xmlns="http://www.w3.org/2000/svg" viewBox="0 0 120.5 120.5"><defs><style>.cls-1{fill:#e5e7eb;}.cls-2{fill:#9ca3af;}</style></defs><title>avatar_user</title><g id="Capa_2" data-name="Capa 2"><g id="avatar_user_gray_bg"><path class="cls-1" d="M60.3,120.5a60.3,60.3,0,1,1,60.2-60.2A60.3,60.3,0,0,1,60.3,120.5Z"/><path class="cls-2" d="M60.3,6.7A53.6,53.6,0,0,0,6.7,60.3a53.1,53.1,0,0,0,7.9,27.9c3.5-4.7,9.3-7.4,11.7-8.7,6.4-3.6,10.9-4.4,15.5-6.9,5.6,5.4,12.1,8.6,18.4,8.6S73,78,78.6,72.6c4.7,2.5,9.2,3.3,15.7,6.9,2.4,1.2,8.2,4,11.7,8.6A53.6,53.6,0,0,0,60.3,6.7ZM82.1,54.9a31.7,31.7,0,0,1-11.4,17,17.3,17.3,0,0,1-10.6,3.9,17.1,17.1,0,0,1-10.9-4.2A31.8,31.8,0,0,1,38.1,54.9a34.2,34.2,0,0,1-1.2-10v-.7a23.2,23.2,0,1,1,46.4,0v.2A31.7,31.7,0,0,1,82.1,54.9Z"/></g></g></svg>