<svg xmlns="http://www.w3.org/2000/svg" xmlns:xlink="http://www.w3.org/1999/xlink" viewBox="0 0 276.6 337.7"><defs><style>.cls-1{fill:#515f67;}.cls-2{fill:#edeef2;}.cls-3{fill:#3c474d;}.cls-4{fill:#b4c2ca;}.cls-5{fill:#7f8fc6;}.cls-6{fill:#566292;}.cls-7{fill:#fdfefc;}.cls-8{fill:none;stroke:#fdfefc;}.cls-11,.cls-12,.cls-13,.cls-14,.cls-15,.cls-16,.cls-18,.cls-19,.cls-20,.cls-21,.cls-22,.cls-23,.cls-24,.cls-25,.cls-26,.cls-27,.cls-28,.cls-29,.cls-8{stroke-miterlimit:10;}.cls-9{fill:#4a73b2;}.cls-10{fill:#4669a9;}.cls-11,.cls-12,.cls-13,.cls-14,.cls-15,.cls-16,.cls-18,.cls-19,.cls-20,.cls-21,.cls-22,.cls-23,.cls-24,.cls-25,.cls-26,.cls-27,.cls-28,.cls-29{stroke:#000;}.cls-11{fill:url(#Degradado_sin_nombre_205);}.cls-12{fill:url(#Degradado_sin_nombre_208);}.cls-13{fill:#d8eaee;}.cls-14{fill:url(#Degradado_sin_nombre_205-2);}.cls-15{fill:url(#Degradado_sin_nombre_208-2);}.cls-16{fill:#44a9e0;}.cls-17{fill:#2b506f;}.cls-18{fill:url(#Degradado_sin_nombre_220);}.cls-19{fill:#5a717d;}.cls-20{fill:#516d85;}.cls-21{fill:url(#Degradado_sin_nombre_208-3);}.cls-22{fill:url(#Degradado_sin_nombre_208-4);}.cls-23{fill:url(#Degradado_sin_nombre_208-5);}.cls-24{fill:url(#Degradado_sin_nombre_205-3);}.cls-25{fill:url(#Degradado_sin_nombre_208-6);}.cls-26{fill:url(#Degradado_sin_nombre_208-7);}.cls-27{fill:url(#Degradado_sin_nombre_208-8);}.cls-28{fill:url(#Degradado_sin_nombre_205-4);}.cls-29{fill:#f4ceb2;}.cls-30{fill:url(#Degradado_sin_nombre_6);}.cls-31{fill:url(#Degradado_sin_nombre_6-2);}.cls-32{fill:url(#Degradado_sin_nombre_3);}.cls-33{fill:url(#Degradado_sin_nombre_4);}.cls-34{fill:url(#Degradado_sin_nombre_5);}.cls-35{fill:#822684;}.cls-36{fill:#fab51e;}.cls-37{fill:url(#Degradado_sin_nombre_6-3);}.cls-38{fill:#1d1d1b;}.cls-39{fill:#fff;}</style><linearGradient id="Degradado_sin_nombre_205" x1="206.15" y1="175.23" x2="206.23" y2="183.95" gradientUnits="userSpaceOnUse"><stop offset="0.07" stop-color="#44aee0"/><stop offset="0.4" stop-color="#3ea4da"/><stop offset="0.91" stop-color="#318bcb"/></linearGradient><linearGradient id="Degradado_sin_nombre_208" x1="203.75" y1="174.35" x2="203.78" y2="184.52" gradientUnits="userSpaceOnUse"><stop offset="0.03" stop-color="#9bbfd1"/><stop offset="0.43" stop-color="#91b8cb"/><stop offset="0.91" stop-color="#7eabc0"/></linearGradient><linearGradient id="Degradado_sin_nombre_205-2" x1="238.12" y1="175.23" x2="238.19" y2="183.95" gradientTransform="matrix(-0.94, 0, 0, 1, 400.31, 0)" xlink:href="#Degradado_sin_nombre_205"/><linearGradient id="Degradado_sin_nombre_208-2" x1="235.71" y1="174.35" x2="235.74" y2="184.52" gradientTransform="matrix(-0.94, 0, 0, 1, 400.31, 0)" xlink:href="#Degradado_sin_nombre_208"/><linearGradient id="Degradado_sin_nombre_220" x1="191.69" y1="190.51" x2="191.8" y2="211.11" gradientUnits="userSpaceOnUse"><stop offset="0.03" stop-color="#bad8e2"/><stop offset="0.54" stop-color="#81a4ad"/><stop offset="0.66" stop-color="#86aab4"/><stop offset="0.84" stop-color="#94bac8"/><stop offset="0.91" stop-color="#9bc2d1"/></linearGradient><linearGradient id="Degradado_sin_nombre_208-3" x1="207.24" y1="201.85" x2="207.23" y2="201.85" xlink:href="#Degradado_sin_nombre_208"/><linearGradient id="Degradado_sin_nombre_208-4" x1="211.43" y1="204.4" x2="205.6" y2="204.35" xlink:href="#Degradado_sin_nombre_208"/><linearGradient id="Degradado_sin_nombre_208-5" x1="205.41" y1="192.02" x2="205.47" y2="204.04" xlink:href="#Degradado_sin_nombre_208"/><linearGradient id="Degradado_sin_nombre_205-3" x1="208.89" y1="193.55" x2="208.94" y2="202.83" xlink:href="#Degradado_sin_nombre_205"/><linearGradient id="Degradado_sin_nombre_208-6" x1="249.29" y1="201.85" x2="249.28" y2="201.85" gradientTransform="matrix(-0.99, 0, 0, 1, 423.07, 0)" xlink:href="#Degradado_sin_nombre_208"/><linearGradient id="Degradado_sin_nombre_208-7" x1="253.48" y1="204.4" x2="247.65" y2="204.35" gradientTransform="matrix(-0.99, 0, 0, 1, 423.07, 0)" xlink:href="#Degradado_sin_nombre_208"/><linearGradient id="Degradado_sin_nombre_208-8" x1="247.46" y1="192.02" x2="247.53" y2="204.04" gradientTransform="matrix(-0.99, 0, 0, 1, 423.07, 0)" xlink:href="#Degradado_sin_nombre_208"/><linearGradient id="Degradado_sin_nombre_205-4" x1="250.94" y1="193.55" x2="250.99" y2="202.83" gradientTransform="matrix(-0.99, 0, 0, 1, 423.07, 0)" xlink:href="#Degradado_sin_nombre_205"/><linearGradient id="Degradado_sin_nombre_6" x1="10.64" y1="-859.05" x2="69.69" y2="-910.79" gradientTransform="matrix(1, 0, 0, -1, 0, -844.87)" gradientUnits="userSpaceOnUse"><stop offset="0.24" stop-color="#e2a052"/><stop offset="0.42" stop-color="#9a6069"/><stop offset="0.56" stop-color="#6c3778"/><stop offset="0.62" stop-color="#59267a"/></linearGradient><linearGradient id="Degradado_sin_nombre_6-2" x1="26.8" y1="-866.35" x2="50.99" y2="-894.53" xlink:href="#Degradado_sin_nombre_6"/><linearGradient id="Degradado_sin_nombre_3" x1="25.55" y1="-870.44" x2="40.09" y2="-884.68" gradientTransform="matrix(1, 0, 0, -1, 0, -844.87)" gradientUnits="userSpaceOnUse"><stop offset="0.37" stop-color="#e2a052"/><stop offset="0.41" stop-color="#d59456"/><stop offset="0.67" stop-color="#7d4672"/><stop offset="0.79" stop-color="#59267a"/></linearGradient><linearGradient id="Degradado_sin_nombre_4" x1="27.82" y1="-884.39" x2="54.44" y2="-902.55" gradientTransform="matrix(1, 0, 0, -1, 0, -844.87)" gradientUnits="userSpaceOnUse"><stop offset="0.22" stop-color="#e2a052"/><stop offset="0.3" stop-color="#be815d"/><stop offset="0.42" stop-color="#945a6b"/><stop offset="0.52" stop-color="#743e75"/><stop offset="0.61" stop-color="#612c7a"/><stop offset="0.67" stop-color="#59267a"/></linearGradient><linearGradient id="Degradado_sin_nombre_5" x1="36.82" y1="-887.03" x2="53.85" y2="-896.65" gradientTransform="matrix(1, 0, 0, -1, 0, -844.87)" gradientUnits="userSpaceOnUse"><stop offset="0.27" stop-color="#e2a052"/><stop offset="0.33" stop-color="#be815d"/><stop offset="0.41" stop-color="#945a6b"/><stop offset="0.49" stop-color="#743e75"/><stop offset="0.55" stop-color="#612c7a"/><stop offset="0.59" stop-color="#59267a"/></linearGradient><linearGradient id="Degradado_sin_nombre_6-3" x1="-71.79" y1="51.63" x2="88.61" y2="51.63" gradientTransform="matrix(1, 0, 0, -1, 157.75, 103.27)" xlink:href="#Degradado_sin_nombre_6"/></defs><title>events_chatbot</title><g id="Capa_2" data-name="Capa 2"><g id="events_chatbot"><rect class="cls-1" x="106.2" y="82.7" width="80.5" height="165.94" rx="19"/><rect class="cls-2" x="109.7" y="96.1" width="73.1" height="133.9"/><rect class="cls-3" x="134.5" y="233.4" width="23.1" height="7.74" rx="3.6"/><rect class="cls-4" x="109.7" y="217.5" width="73.1" height="12.46"/><rect class="cls-5" x="109.7" y="102.1" width="73.1" height="12.91"/><rect class="cls-6" x="109.7" y="95.9" width="73.1" height="6.23"/><rect class="cls-7" x="118.8" y="105.2" width="26.8" height="5.29" rx="2.4"/><line class="cls-8" x1="111.9" y1="107.8" x2="115.3" y2="107.8"/><polyline class="cls-8" points="113.2 106.6 111.9 107.8 113.2 109.1"/><polygon class="cls-7" points="170.6 109.2 169 110.1 169.3 108.3 168 107 169.8 106.7 170.6 105 171.5 106.7 173.3 107 172 108.3 172.3 110.1 170.6 109.2"/><circle class="cls-7" cx="178.2" cy="105.4" r="0.6"/><circle class="cls-7" cx="178.2" cy="107.6" r="0.6"/><circle class="cls-7" cx="178.2" cy="109.9" r="0.6"/><circle class="cls-7" cx="145.7" cy="223.8" r="2.8"/><polygon class="cls-7" points="124.3 221.3 124.3 226.3 120.4 223.8 124.3 221.3"/><rect class="cls-7" x="166.1" y="221.3" width="5.2" height="5.16"/><path class="cls-9" d="M217.5,209.1V164.5a3.1,3.1,0,0,0-3.1-3.1H117.9a3.1,3.1,0,0,0-3.1,3.1v44.6Z"/><path class="cls-10" d="M203.8,201.5v0Z"/><path class="cls-10" d="M206.9,199.4h-.1a3.3,3.3,0,0,1-3,2.3,3.1,3.1,0,0,1-1.6.9h0l.3,6.3H208Z"/><path class="cls-10" d="M200.2,192.7s3.5-1,3.6,1.7,0,7.3,0,7.3a2.8,2.8,0,0,1-3.6.5A65,65,0,0,0,200.2,192.7Z"/><path class="cls-10" d="M203.8,193.9a3.5,3.5,0,0,1,3.4,4c-.3,3.8-3.4,3.8-3.4,3.8A53.9,53.9,0,0,0,203.8,193.9Z"/><path class="cls-10" d="M172.9,201.5v0Z"/><path class="cls-10" d="M191.5,191.6V191h0a12.1,12.1,0,0,0,4.3-21.2,1.4,1.4,0,0,0-.3-1.7s-5.7-5.4-13.7-.4a1.7,1.7,0,0,0-.6,1.9,11.9,11.9,0,0,0-3.4,4,2.6,2.6,0,0,0-2.6,2.6h0a4,4,0,0,0-2,3.5,3.6,3.6,0,0,0,.8,2.3h-.1c-.7,2.1,1.9,3.9,1.9,3.9a7.4,7.4,0,0,0,4.1,1.8,11.2,11.2,0,0,0,5.7,3.2h0v.6a59.3,59.3,0,0,0-8.9,1.2h-.2s-3.1-.9-3.5,1.3h-.1a3.5,3.5,0,0,0-3.3,4,5.4,5.4,0,0,0,.4,1.5h-.1l-1,9.5h5.3l.4-6.3h0a2.4,2.4,0,0,0,1.9-.4h.2a45.1,45.1,0,0,0,.7,6.8h21.5c2-4.7,1.3-16.2,1.3-16.2A45,45,0,0,0,191.5,191.6Zm-15.6-5.9a3.9,3.9,0,0,1-1.7-3.1h.1l.7.5v.6s-.1,1.7,3,1.7a8,8,0,0,0,1.5,2.1A8.6,8.6,0,0,1,175.9,185.7Z"/><path class="cls-11" d="M207.2,179.9a3.7,3.7,0,0,0-2.1-3.6h0c.2,2.2.2,5.9.2,7A3.9,3.9,0,0,0,207.2,179.9Z"/><path class="cls-12" d="M205.3,183.8s0-4.8-.2-7.4a2.7,2.7,0,0,0-2.7-2.6,12.4,12.4,0,0,1,1.5,5.7,11.7,11.7,0,0,1-1.7,6.1h0C205.5,185.6,205.3,183.8,205.3,183.8Z"/><circle class="cls-13" cx="191.8" cy="179.5" r="12"/><path class="cls-14" d="M176.6,179.9a3.7,3.7,0,0,1,2-3.6h0c-.1,2.2-.2,5.9-.2,7A4.1,4.1,0,0,1,176.6,179.9Z"/><path class="cls-15" d="M178.4,183.8s.1-4.8.2-7.4a2.5,2.5,0,0,1,2.5-2.6,13.6,13.6,0,0,0-1.3,5.7,12.5,12.5,0,0,0,1.5,6.1h0C178.3,185.6,178.4,183.8,178.4,183.8Z"/><path class="cls-16" d="M199,168.3s-5.8-5.4-13.8-.3c0,0-1.3.8-.2,2.5a34.7,34.7,0,0,0,2,3,2.7,2.7,0,0,0,2,1h6a2.2,2.2,0,0,0,2-.9c.8-1.1,2-3.2,2-3.2A1.8,1.8,0,0,0,199,168.3Z"/><circle class="cls-17" cx="186.8" cy="180.5" r="1.6"/><circle class="cls-17" cx="196.9" cy="180.5" r="1.6"/><path class="cls-17" d="M188.6,185.6h6.5s-1.6,3.3-3.3,3.3S188.6,185.6,188.6,185.6Z"/><path class="cls-17" d="M188.3,187.6a.8.8,0,0,0-.8-.8h-1.6a.8.8,0,0,0-.7.8,7.4,7.4,0,0,1-5.8-1.8,3.6,3.6,0,0,1-1.7-3.1l-.4-.4c-.7,2,1.9,3.8,1.9,3.8a8.1,8.1,0,0,0,6,1.9.8.8,0,0,0,.8.6h1.6a.9.9,0,0,0,.8-.9Z"/><path class="cls-18" d="M179.9,193.1a54.6,54.6,0,0,1,23.6-.2s.8,11.5-1.3,16.2H180.7S179.6,203.7,179.9,193.1Z"/><rect class="cls-19" x="187.4" y="192.5" width="8.6" height="2.62" rx="1.2"/><path class="cls-20" d="M188.4,194.4l.6-3.2a10.7,10.7,0,0,0,5.9,0v3.4Z"/><path class="cls-21" d="M207.2,201.7v0Z"/><path class="cls-22" d="M210.3,199.7h0a3.7,3.7,0,0,1-3.1,2.3,3.1,3.1,0,0,1-1.6.9h0l.4,6.2h5.4Z"/><path class="cls-23" d="M203.6,192.9s3.5-1,3.6,1.7,0,7.4,0,7.4a2.8,2.8,0,0,1-3.6.4A64.5,64.5,0,0,0,203.6,192.9Z"/><path class="cls-24" d="M207.3,194.1a3.4,3.4,0,0,1,3.3,4c-.3,3.8-3.4,3.9-3.4,3.9A64.3,64.3,0,0,0,207.3,194.1Z"/><path class="cls-25" d="M176.3,201.7v0Z"/><path class="cls-26" d="M173.3,199.7h0a3.5,3.5,0,0,0,3,2.3,3.1,3.1,0,0,0,1.6.9h0l-.4,6.2h-5.3Z"/><path class="cls-27" d="M179.9,192.9s-3.5-1-3.6,1.7,0,7.4,0,7.4a2.8,2.8,0,0,0,3.6.4A64.5,64.5,0,0,1,179.9,192.9Z"/><path class="cls-28" d="M176.3,194.1a3.4,3.4,0,0,0-3.3,4c.2,3.8,3.3,3.9,3.3,3.9A55.6,55.6,0,0,1,176.3,194.1Z"/><rect class="cls-7" x="119.7" y="171.3" width="33" height="3.97" rx="1.8"/><rect class="cls-7" x="119.7" y="177.7" width="14.7" height="3.97" rx="1.8"/><rect class="cls-7" x="135.8" y="177.7" width="18.8" height="3.97" rx="1.8"/><rect class="cls-7" x="119.7" y="184.1" width="20.3" height="3.97" rx="1.8"/><rect class="cls-7" x="142.6" y="184.1" width="18.6" height="3.97" rx="1.8"/><rect class="cls-7" x="119.7" y="191.2" width="17.1" height="3.97" rx="1.8"/><rect class="cls-7" x="138.8" y="191.2" width="20.8" height="3.97" rx="1.8"/><rect class="cls-7" x="119.7" y="197.6" width="20.3" height="3.97" rx="1.8"/><rect class="cls-7" x="142.6" y="197.6" width="22.9" height="3.97" rx="1.8"/><path class="cls-29" d="M120.1,143.2a6.2,6.2,0,0,0,5.7-4.1,25,25,0,0,0,.9-9.1s-1.1-3.1-5.4-3.3a6.8,6.8,0,0,0-6,3.3s-.9,7.7.7,9.8S118.7,143,120.1,143.2Z"/><circle cx="123.4" cy="134" r="0.7"/><circle cx="118.8" cy="134" r="0.7"/><path d="M119.5,138.6h3.3s-.6,1.8-1.8,1.7S119.5,138.6,119.5,138.6Z"/><path d="M126.7,134.4s1.6-1.6,1.1-5.9-2.5-5-4.7-4.4-1.5-1.4-4.1-.8-5.6,3.4-5.3,7,1.3,3.3,1.3,3.3-.3-4.8,1.5-4.8,3.2,1.1,5.5.8,3.5-.8,4,1.2S126.7,134.4,126.7,134.4Z"/><path class="cls-29" d="M126.2,137.4s.4.7,1.1-.5.6-1.6,1.1-1.9-.1-2.6-1.4-1C127,134,126.6,134.5,126.2,137.4Z"/><path class="cls-29" d="M115.1,136.7s-.4.7-1-.7-.5-1.6-.9-2,.3-2.5,1.4-.8C114.6,133.2,115,133.7,115.1,136.7Z"/><path class="cls-29" d="M121.4,135.3s1,1.9,0,2.3"/><path class="cls-9" d="M175,122.7H133.2a2.6,2.6,0,0,0-2.6,2.6v25.9a2.6,2.6,0,0,0,2.6,2.6h44.4V125.3A2.6,2.6,0,0,0,175,122.7Z"/><rect class="cls-7" x="133.5" y="126.4" width="21.1" height="3.97" rx="1.8"/><rect class="cls-7" x="156.5" y="126.4" width="16.9" height="3.97" rx="1.8"/><rect class="cls-7" x="133.5" y="133.3" width="15.1" height="3.97" rx="1.8"/><rect class="cls-7" x="150.4" y="133.3" width="19" height="3.97" rx="1.8"/><rect class="cls-7" x="133.5" y="139.9" width="21.1" height="3.97" rx="1.8"/><rect class="cls-7" x="157" y="139.9" width="13.7" height="3.97" rx="1.8"/><rect class="cls-7" x="133.5" y="146.6" width="33.3" height="3.97" rx="1.8"/><g id="Capa_2-2" data-name="Capa 2"><g id="Capa_2-2-2" data-name="Capa 2-2"><path class="cls-30" d="M39.3,0A39.3,39.3,0,1,0,78.5,39.3,39.3,39.3,0,0,0,39.3,0Zm0,75.2A36,36,0,1,1,75.2,39.3,36,36,0,0,1,39.3,75.2Z"/><polygon class="cls-31" points="41.3 23.6 41.6 13.8 17.9 29 17.9 36.1 41.1 51.2 41 41.8 37 39.3 37 45 22.2 35.5 22.2 30.4 36.9 21.4 36.8 26.2 41.3 23.6"/><polygon class="cls-32" points="34.9 28.7 34.9 24.6 24.3 31.1 24.3 34.5 34.9 41.6 34.9 37 27.6 33.1 34.9 28.7"/><polygon class="cls-33" points="37 36.8 41.1 39.3 41.1 33.4 56.1 43.5 56.1 48 41.2 57.4 41.2 52.7 37 55.6 37 64.8 60.4 49.5 60.4 42.7 37 27.6 37 36.8"/><polygon class="cls-34" points="43.3 37.5 43.3 41.7 50.8 46.1 43.3 50.6 43.3 54.1 53.9 47.5 53.9 44.3 43.3 37.5"/></g></g><path class="cls-35" d="M100.5,42.6a7.5,7.5,0,0,1-10.6,0C87.3,39.9,86,35.8,86,30.1s1.4-11.3,4.3-14.2a7,7,0,0,1,5.1-2.2,6.9,6.9,0,0,1,4.8,1.7,12.1,12.1,0,0,1,3.2,9.1H99.8c-.1-3.4-.7-5.6-1.9-6.8a3.2,3.2,0,0,0-2.5-1,3.8,3.8,0,0,0-2.6,1.1c-2.1,2.2-3.2,6.2-3.2,12s.9,8.6,2.7,10.4a4.5,4.5,0,0,0,2.9,1.3,3.9,3.9,0,0,0,2.7-1.3c1.1-1.1,1.7-3.5,1.8-7.4h3.8C103.2,37.6,102.2,40.9,100.5,42.6Z"/><path class="cls-35" d="M119.2,47.4l1-9h-5.5l-.8,9h-2.5l.9-9h-3.1v-3h3.5L113.8,25h-4.6V22h4.9l.8-8.8h2.6l-1,8.8h5.4l.8-8.8h2.6l-1,8.8h3.2v3H124l-1.1,10.4h4.6v3h-4.9l-.8,9Zm1.3-12L121.6,25h-5.4l-1.1,10.4Z"/><path class="cls-35" d="M136.8,21.5V44.8h-3.2V13.7h5.1L142.1,34h.3l3.4-20.3h5.1V44.8h-3.2V21.5h-.3l-3.9,23.3H141l-3.9-23.3Z"/><path class="cls-36" d="M157.9,44.8V13.7h16.8v3H161.6V27.1h9.9v3h-9.9V44.8Z"/><path class="cls-36" d="M185.8,26.8h10.8v3H185.8v12h12.6v3H182.1V13.7h15.5v3H185.8Z"/><path class="cls-35" d="M219.7,42.6a7.5,7.5,0,0,1-10.6,0c-2.6-2.7-4-6.8-4-12.5s1.5-11.3,4.3-14.2a7,7,0,0,1,5.1-2.2,6.5,6.5,0,0,1,4.8,1.7c2.3,2.3,3.3,5.3,3.2,9.1H219c-.1-3.4-.7-5.6-1.9-6.8a3.3,3.3,0,0,0-2.6-1,3.6,3.6,0,0,0-2.5,1.1c-2.1,2.2-3.2,6.2-3.2,12s.9,8.6,2.7,10.4a3.7,3.7,0,0,0,5.6,0c1.1-1.1,1.6-3.5,1.8-7.4h3.8C222.4,37.6,221.4,40.9,219.7,42.6Z"/><path class="cls-35" d="M246.4,29.2q0,10.1-3.6,13.5a6.9,6.9,0,0,1-5.2,2.1,7,7,0,0,1-5.4-2.1q-3.6-3.5-3.6-13.5c0-6.6,1.2-11.1,3.6-13.4a7,7,0,0,1,5.4-2.1,6.9,6.9,0,0,1,5.2,2.1C245.2,18.1,246.4,22.6,246.4,29.2Zm-14.1,0c0,6,.7,9.8,2.1,11.1a4.2,4.2,0,0,0,3.2,1.5,4.1,4.1,0,0,0,3-1.5c1.4-1.3,2.1-5.1,2.1-11.1s-.7-9.7-2.1-11a4.1,4.1,0,0,0-3-1.5,4.2,4.2,0,0,0-3.2,1.5C233,19.5,232.3,23.2,232.3,29.2Z"/><path class="cls-35" d="M93.1,67.1a2.4,2.4,0,0,1-1.6.7,2.6,2.6,0,0,1-1.6-.7,5.2,5.2,0,0,1-1.2-3.8A6.3,6.3,0,0,1,90,59a2.6,2.6,0,0,1,1.6-.7,1.7,1.7,0,0,1,1.4.6,3.5,3.5,0,0,1,1,2.7H92.9a3.6,3.6,0,0,0-.5-2.1,1.1,1.1,0,0,0-.8-.2,1.1,1.1,0,0,0-.8.3,5.1,5.1,0,0,0-1,3.6,4.4,4.4,0,0,0,.9,3.2,1.1,1.1,0,0,0,.8.3l.9-.3a3.9,3.9,0,0,0,.5-2.3H94A4.3,4.3,0,0,1,93.1,67.1Z"/><path class="cls-35" d="M101.2,63c0,2.1-.3,3.4-1,4.1a2.6,2.6,0,0,1-1.6.7,2.4,2.4,0,0,1-1.7-.7c-.7-.7-1-2-1-4.1s.3-3.3,1-4a2.1,2.1,0,0,1,1.7-.7,2.1,2.1,0,0,1,1.6.7C100.9,59.7,101.2,61,101.2,63ZM97,63c0,1.9.2,3,.6,3.4a1.3,1.3,0,0,0,1,.4,1.2,1.2,0,0,0,.9-.4c.4-.4.6-1.5.6-3.4s-.2-2.9-.6-3.3a1.2,1.2,0,0,0-.9-.4,1.3,1.3,0,0,0-1,.4Q97,60.3,97,63Z"/><path class="cls-35" d="M104.1,60.7v7.1h-.9V58.3h1.5l1,6.2h.1l1-6.2h1.6v9.5h-1V60.7h-.1l-1.1,7.1h-.8l-1.2-7.1Z"/><path class="cls-35" d="M111.3,60.7v7.1h-.9V58.3h1.5l1,6.2h.1l1.1-6.2h1.5v9.5h-1V60.7h-.1l-1.1,7.1h-.8l-1.2-7.1Z"/><path class="cls-35" d="M117.7,58.3h1.1v6.9a1.9,1.9,0,0,0,.3,1.2,1.8,1.8,0,0,0,1.1.3h0a1.7,1.7,0,0,0,1-.3,2.1,2.1,0,0,0,.4-1.2V58.3h1.1v6.9a2.6,2.6,0,0,1-.8,2,2.1,2.1,0,0,1-1.7.6h0a2.3,2.3,0,0,1-1.8-.6,2.6,2.6,0,0,1-.7-2Z"/><path class="cls-35" d="M129.9,58.3v9.5h-1.4L126,60.7h0v7.1h-1.1V58.3h1.3l2.5,7.1h.1V58.3Z"/><path class="cls-35" d="M134.1,66.7h.6v1.1h-2.2V66.7h.5V59.4h-.5V58.3h2.2v1.1h-.6Z"/><path class="cls-35" d="M139.2,67.8V59.3h-1.9v-1h5v1h-2v8.5Z"/><path class="cls-35" d="M145.3,58.3l1.7,3.9h0l1.7-3.9h1.1l-2.3,5.2v4.3h-1.1V63.5l-2.2-5.2Z"/><path class="cls-36" d="M156.9,67.8V58.3H162v1h-4v3.1h3v.9h-3v4.5Z"/><path class="cls-36" d="M165.3,62.3h3.3v.9h-3.3v3.6h3.8v1h-4.9V58.3h4.7v1h-3.6Z"/><path class="cls-36" d="M175.3,63.3a2,2,0,0,1,1.1,1.8,2.6,2.6,0,0,1-.8,2,2.6,2.6,0,0,1-4.4-1.8v-.5h1.1v.4a1.5,1.5,0,0,0,.4,1.2,1.3,1.3,0,0,0,1,.4,1.2,1.2,0,0,0,1.1-.4,1.6,1.6,0,0,0,.5-1.1,1.5,1.5,0,0,0-.7-1.2,18.8,18.8,0,0,1-2.3-1.6,2.1,2.1,0,0,1-.8-1.7,2.4,2.4,0,0,1,.7-1.8,2.6,2.6,0,0,1,1.6-.7,2,2,0,0,1,1.6.6,2.4,2.4,0,0,1,.7,2H175a1.6,1.6,0,0,0-.4-1.3,1.2,1.2,0,0,0-1.6,0,1.6,1.6,0,0,0-.5,1.1,1.9,1.9,0,0,0,.7,1.2Z"/><path class="cls-36" d="M180.4,67.8V59.3h-1.9v-1h5v1h-2v8.5Z"/><path class="cls-35" d="M191.6,67.8h-1.1l2.4-9.5h1l2.4,9.5h-1.2l-.6-2.8h-2.2Zm1.8-6.9h-.1l-.7,3.2h1.6Z"/><path class="cls-35" d="M203.1,58.3v9.5h-1.4l-2.5-7.1h0v7.1H198V58.3h1.4l2.5,7.1h.1V58.3Z"/><path class="cls-35" d="M209.3,59.2c.8.7,1.1,2,1.1,3.9s-.3,3-1,3.7a3.5,3.5,0,0,1-2.4,1h-1.7V58.3H207A3.2,3.2,0,0,1,209.3,59.2ZM207,66.8a2.4,2.4,0,0,0,1.5-.6c.5-.5.7-1.6.7-3.1s-.2-2.7-.8-3.2a2,2,0,0,0-1.4-.6h-.6v7.5Z"/><path class="cls-35" d="M222,67.1a2.6,2.6,0,0,1-1.6.7,2.4,2.4,0,0,1-1.6-.7,5.2,5.2,0,0,1-1.2-3.8c0-2,.4-3.4,1.3-4.3a2.3,2.3,0,0,1,1.5-.7,2,2,0,0,1,1.5.6,3.1,3.1,0,0,1,.9,2.7h-1a2.9,2.9,0,0,0-.6-2.1c-.2-.2-.4-.2-.8-.2a.9.9,0,0,0-.7.3c-.7.6-1,1.8-1,3.6a4.9,4.9,0,0,0,.8,3.2,1.6,1.6,0,0,0,.9.3,1.3,1.3,0,0,0,.8-.3,3.9,3.9,0,0,0,.5-2.3h1.2A4.8,4.8,0,0,1,222,67.1Z"/><path class="cls-35" d="M230.1,63c0,2.1-.4,3.4-1.1,4.1a2.4,2.4,0,0,1-1.6.7,2.2,2.2,0,0,1-1.6-.7c-.7-.7-1.1-2-1.1-4.1s.4-3.3,1.1-4a1.9,1.9,0,0,1,1.6-.7,2,2,0,0,1,1.6.7C229.7,59.7,230.1,61,230.1,63Zm-4.3,0c0,1.9.2,3,.6,3.4a1.4,1.4,0,0,0,1,.4,1.2,1.2,0,0,0,.9-.4c.4-.4.7-1.5.7-3.4s-.3-2.9-.7-3.3a1.2,1.2,0,0,0-.9-.4,1.4,1.4,0,0,0-1,.4Q225.8,60.3,225.8,63Z"/><path class="cls-35" d="M236.1,59.2c.8.7,1.1,2,1.1,3.9s-.3,3-1,3.7a3.5,3.5,0,0,1-2.4,1h-1.7V58.3h1.7A3.2,3.2,0,0,1,236.1,59.2Zm-2.3,7.6a2.4,2.4,0,0,0,1.5-.6c.5-.5.7-1.6.7-3.1s-.2-2.7-.8-3.2a2,2,0,0,0-1.4-.6h-.6v7.5Z"/><path class="cls-35" d="M240.6,62.3h3.3v.9h-3.3v3.6h3.8v1h-4.9V58.3h4.7v1h-3.6Z"/><rect class="cls-37" x="86" y="50.5" width="160.4" height="2.2" transform="translate(332.3 103.3) rotate(180)"/><polygon class="cls-35" points="247.6 273.5 247.6 313.7 24.2 337.7 24.1 297.5 247.6 273.5"/><polygon class="cls-36" points="276.6 239.4 276.6 279.6 53.1 303.6 53.1 263.4 276.6 239.4"/><path class="cls-38" d="M119.8,275.2h7.4v2.1h-7.4v8.2h8.6v2.1H117.3V266.3h10.6v2h-8.1Z"/><path class="cls-38" d="M135.7,265.3l3.7,16.1h.2l3.8-16.1h2.5l-5.2,21.3h-2.4l-5.1-21.3Z"/><path class="cls-38" d="M153.8,273.2h7.4v2.1h-7.4v8.2h8.6v2.1H151.3V264.3h10.6v2h-8.1Z"/><path class="cls-38" d="M179.2,262.3v21.3h-3l-5.7-16h-.1v16h-2.6V262.3h3.1l5.7,15.9h.1V262.3Z"/><path class="cls-38" d="M188.2,282.6V263.3H184v-2h11.2v2h-4.5v19.3Z"/><path class="cls-38" d="M211.7,269.9c0,4.6-.8,7.7-2.5,9.3a4.9,4.9,0,0,1-3.6,1.4,5.3,5.3,0,0,1-3.7-1.4q-2.4-2.4-2.4-9.3c0-4.6.8-7.6,2.4-9.2a4.9,4.9,0,0,1,3.7-1.4,4.5,4.5,0,0,1,3.6,1.4C210.9,262.3,211.7,265.3,211.7,269.9Zm-9.7,0c0,4.1.5,6.7,1.5,7.6a2.7,2.7,0,0,0,4.2,0c1-.9,1.4-3.5,1.4-7.6s-.4-6.6-1.4-7.6a2.7,2.7,0,0,0-4.2,0C202.5,263.3,202,265.8,202,269.9Z"/><path class="cls-39" d="M68.8,329.1a5.1,5.1,0,0,1-7.2,0c-1.9-1.8-2.8-4.7-2.8-8.6s1-7.7,3-9.7a4.9,4.9,0,0,1,3.5-1.5,4.5,4.5,0,0,1,3.3,1.2,8.4,8.4,0,0,1,2.2,6.2H68.4c-.1-2.3-.6-3.9-1.4-4.7a2.4,2.4,0,0,0-1.7-.6,2.6,2.6,0,0,0-1.8.7c-1.4,1.5-2.1,4.2-2.1,8.2s.6,5.9,1.8,7.1a2.8,2.8,0,0,0,2,.9,2.4,2.4,0,0,0,1.8-.9c.8-.7,1.2-2.4,1.2-5h2.7C70.7,325.7,70,327.9,68.8,329.1Z"/><path class="cls-39" d="M81.1,327.6V306.3h2.5v8.5h6.2v-8.5h2.5v21.3H89.8V316.9H83.6v10.7Z"/><path class="cls-39" d="M104.8,325.6h-2.6l5.5-21.3h2.1l5.5,21.3h-2.6l-1.5-6.2h-4.9Zm4.1-15.5h-.3l-1.7,7.2h3.7Z"/><path class="cls-39" d="M129.3,323.6V304.4h-4.2v-2.1h11.2v2.1h-4.5v19.2Z"/><path class="cls-39" d="M156.6,301.6a5.3,5.3,0,0,1,1.6,3.9,4.5,4.5,0,0,1-1.2,3.3,3.6,3.6,0,0,1-1.6,1.2,10.4,10.4,0,0,1,1.9,1.4,5.4,5.4,0,0,1,1.5,4,5.3,5.3,0,0,1-1.5,4.1,6.4,6.4,0,0,1-4.8,2.1h-5.4V300.3h5.6A5.3,5.3,0,0,1,156.6,301.6Zm-1.7,6.3a3,3,0,0,0,1-2.4,2.8,2.8,0,0,0-2.7-3.1h-3.6v6.4h3.3A2.7,2.7,0,0,0,154.9,307.9Zm-5.3,3v8.6h2.5a4.4,4.4,0,0,0,3.2-1.3,3.9,3.9,0,0,0,1.1-2.8,4.4,4.4,0,0,0-1.2-3.2,3.8,3.8,0,0,0-2.7-1.3Z"/><path class="cls-39" d="M180.8,307.9q0,6.9-2.4,9.3a5.6,5.6,0,0,1-7.4,0q-2.4-2.4-2.4-9.3c0-4.5.8-7.6,2.4-9.2a5.6,5.6,0,0,1,7.4,0C180,300.3,180.8,303.4,180.8,307.9Zm-9.7,0c0,4.1.5,6.7,1.5,7.6a2.7,2.7,0,0,0,4.2,0c1-.9,1.4-3.5,1.4-7.6s-.4-6.6-1.4-7.6a2.9,2.9,0,0,0-4.2,0C171.6,301.3,171.1,303.8,171.1,307.9Z"/><path class="cls-39" d="M195.3,316.6V297.4h-4.2v-2.1h11.2v2.1h-4.5v19.2Z"/></g></g></svg>