<svg xmlns="http://www.w3.org/2000/svg" xmlns:xlink="http://www.w3.org/1999/xlink" viewBox="0 0 276.6 337.7"><defs><style>.cls-1{stroke:#000;stroke-miterlimit:10;fill:url(#Degradado_sin_nombre_222);}.cls-2{fill:#282828;}.cls-3{fill:#dcdbe2;}.cls-4{fill:#87859a;}.cls-5{fill:#e3e3eb;}.cls-6{fill:#d5d5d5;}.cls-7{fill:#e3e2e5;}.cls-8{fill:#cccbcb;}.cls-9{fill:#0b0a10;}.cls-10{fill:#8c647b;}.cls-11{fill:#526370;}.cls-12{fill:#6a6c7b;}.cls-13{fill:url(#Degradado_sin_nombre_6);}.cls-14{fill:url(#Degradado_sin_nombre_6-2);}.cls-15{fill:url(#Degradado_sin_nombre_3);}.cls-16{fill:url(#Degradado_sin_nombre_4);}.cls-17{fill:url(#Degradado_sin_nombre_5);}.cls-18{fill:#822684;}.cls-19{fill:#fab51e;}.cls-20{fill:url(#Degradado_sin_nombre_6-3);}.cls-21{fill:#1d1d1b;}.cls-22{fill:#fff;}</style><linearGradient id="Degradado_sin_nombre_222" x1="70.29" y1="112.34" x2="207.48" y2="258.15" gradientUnits="userSpaceOnUse"><stop offset="0" stop-color="#fff"/><stop offset="1" stop-color="#606060"/></linearGradient><linearGradient id="Degradado_sin_nombre_6" x1="10.64" y1="-839.11" x2="69.69" y2="-890.85" gradientTransform="matrix(1, 0, 0, -1, 0, -824.93)" gradientUnits="userSpaceOnUse"><stop offset="0.24" stop-color="#e2a052"/><stop offset="0.42" stop-color="#9a6069"/><stop offset="0.56" stop-color="#6c3778"/><stop offset="0.62" stop-color="#59267a"/></linearGradient><linearGradient id="Degradado_sin_nombre_6-2" x1="26.8" y1="-846.42" x2="50.99" y2="-874.59" xlink:href="#Degradado_sin_nombre_6"/><linearGradient id="Degradado_sin_nombre_3" x1="25.55" y1="-850.5" x2="40.09" y2="-864.74" gradientTransform="matrix(1, 0, 0, -1, 0, -824.93)" gradientUnits="userSpaceOnUse"><stop offset="0.37" stop-color="#e2a052"/><stop offset="0.41" stop-color="#d59456"/><stop offset="0.67" stop-color="#7d4672"/><stop offset="0.79" stop-color="#59267a"/></linearGradient><linearGradient id="Degradado_sin_nombre_4" x1="27.82" y1="-864.45" x2="54.44" y2="-882.61" gradientTransform="matrix(1, 0, 0, -1, 0, -824.93)" gradientUnits="userSpaceOnUse"><stop offset="0.22" stop-color="#e2a052"/><stop offset="0.3" stop-color="#be815d"/><stop offset="0.42" stop-color="#945a6b"/><stop offset="0.52" stop-color="#743e75"/><stop offset="0.61" stop-color="#612c7a"/><stop offset="0.67" stop-color="#59267a"/></linearGradient><linearGradient id="Degradado_sin_nombre_5" x1="36.82" y1="-867.09" x2="53.85" y2="-876.71" gradientTransform="matrix(1, 0, 0, -1, 0, -824.93)" gradientUnits="userSpaceOnUse"><stop offset="0.27" stop-color="#e2a052"/><stop offset="0.33" stop-color="#be815d"/><stop offset="0.41" stop-color="#945a6b"/><stop offset="0.49" stop-color="#743e75"/><stop offset="0.55" stop-color="#612c7a"/><stop offset="0.59" stop-color="#59267a"/></linearGradient><linearGradient id="Degradado_sin_nombre_6-3" x1="620.98" y1="51.63" x2="781.38" y2="51.63" gradientTransform="matrix(1, 0, 0, -1, -535.02, 103.27)" xlink:href="#Degradado_sin_nombre_6"/></defs><title>events_videogame</title><g id="Capa_2" data-name="Capa 2"><g id="events_videogame"><rect class="cls-1" x="17.1" y="118.8" width="225.6" height="113.83" rx="43.6"/><path d="M179.7,135H147.3a128.1,128.1,0,0,1-13,23.7c-16,23.3-38,39.2-60.8,46.5v3.9a8.5,8.5,0,0,0,8.6,8.6h97.6a8.5,8.5,0,0,0,8.6-8.6V143.5A8.5,8.5,0,0,0,179.7,135Z"/><path class="cls-2" d="M134.3,158.7a128.1,128.1,0,0,0,13-23.7H82.1a8.5,8.5,0,0,0-8.6,8.5v61.7C96.3,197.9,118.3,182,134.3,158.7Z"/><circle class="cls-3" cx="213.6" cy="198" r="13.2"/><circle class="cls-4" cx="213.6" cy="198" r="10.1"/><circle class="cls-5" cx="213.6" cy="198" r="6.9"/><circle class="cls-6" cx="214.5" cy="167.5" r="6.1"/><circle class="cls-7" cx="214.5" cy="167.5" r="4.8"/><path class="cls-8" d="M217.8,165s-4.6-4-7.3,1.1c0,0-.9,2.2.4,3.5A4.5,4.5,0,0,1,214,166Z"/><circle class="cls-6" cx="227" cy="155.9" r="6.1"/><circle class="cls-7" cx="227" cy="155.9" r="4.8"/><path class="cls-8" d="M230.3,153.4s-4.5-4-7.3,1.1c0,0-.9,2.2.4,3.5a4.5,4.5,0,0,1,3.1-3.6Z"/><circle class="cls-6" cx="202.2" cy="155.9" r="6.1"/><circle class="cls-7" cx="202.2" cy="155.9" r="4.8"/><path class="cls-8" d="M205.5,153.4s-4.6-4-7.3,1.1c0,0-.9,2.2.4,3.5a4.5,4.5,0,0,1,3.1-3.6Z"/><circle class="cls-6" cx="214.5" cy="142.5" r="6.1"/><circle class="cls-7" cx="214.5" cy="142.5" r="4.8"/><path class="cls-8" d="M217.8,140s-4.6-4-7.3,1.1c0,0-.9,2.2.4,3.6s.4-3,3.1-3.7Z"/><circle cx="222.7" cy="175.7" r="1.3"/><circle cx="226.1" cy="175.9" r="1.3"/><circle cx="229.7" cy="175.9" r="1.3"/><circle cx="233.1" cy="175.9" r="1.3"/><circle cx="224.6" cy="178.8" r="1.3"/><circle cx="228.2" cy="178.8" r="1.3"/><circle cx="231.7" cy="178.8" r="1.3"/><circle class="cls-6" cx="162.7" cy="127.3" r="4.3"/><circle class="cls-7" cx="162.7" cy="127.3" r="3.4"/><path class="cls-8" d="M165,125.5s-3.2-2.8-5.1.8a2.8,2.8,0,0,0,.2,2.5,3.3,3.3,0,0,1,2.2-2.6Z"/><circle class="cls-9" cx="130.8" cy="126.3" r="3.4"/><circle class="cls-10" cx="129.8" cy="125.2" r="1.1"/><circle class="cls-11" cx="132.4" cy="127.4" r="1"/><circle class="cls-12" cx="131.8" cy="124.9" r="0.8"/><circle class="cls-6" cx="48.6" cy="168" r="6.1"/><circle class="cls-7" cx="48.6" cy="168" r="4.8"/><path class="cls-8" d="M51.9,165.5s-4.5-4-7.3,1.1c0,0-.8,2.2.4,3.6s.4-3,3.1-3.7Z"/><circle class="cls-6" cx="61.1" cy="156.4" r="6.1"/><circle class="cls-7" cx="61.1" cy="156.4" r="4.8"/><path class="cls-8" d="M64.5,153.9s-4.6-4-7.4,1.1c0,0-.8,2.2.4,3.6a4.6,4.6,0,0,1,3.2-3.7Z"/><circle class="cls-6" cx="36.3" cy="156.4" r="6.1"/><circle class="cls-7" cx="36.3" cy="156.4" r="4.8"/><path class="cls-8" d="M39.7,153.9s-4.6-4-7.4,1.1c0,0-.8,2.2.4,3.6s.4-3,3.1-3.7Z"/><circle class="cls-6" cx="48.6" cy="143" r="6.1"/><circle class="cls-7" cx="48.6" cy="143" r="4.8"/><path class="cls-8" d="M51.9,140.5s-4.5-4-7.3,1.1c0,0-.8,2.2.4,3.6s.4-3,3.1-3.7Z"/><polygon class="cls-9" points="36.8 155 36.8 157.8 34.5 156.4 36.8 155"/><polygon class="cls-9" points="60.3 157.8 60.3 155 62.7 156.4 60.3 157.8"/><polygon class="cls-9" points="49.8 143.4 47 143.4 48.4 141 49.8 143.4"/><polygon class="cls-9" points="47.2 167.1 50 167.1 48.6 169.5 47.2 167.1"/><circle class="cls-3" cx="48.5" cy="198.4" r="13.2"/><circle class="cls-4" cx="48.5" cy="198.4" r="10.1"/><circle class="cls-5" cx="48.5" cy="198.4" r="6.9"/><circle cx="25.8" cy="175.2" r="1.3"/><circle cx="29.2" cy="175.4" r="1.3"/><circle cx="32.7" cy="175.4" r="1.3"/><circle cx="36.2" cy="175.4" r="1.3"/><circle cx="27.7" cy="178.3" r="1.3"/><circle cx="31.3" cy="178.3" r="1.3"/><circle cx="34.7" cy="178.3" r="1.3"/><g id="Capa_2-2" data-name="Capa 2"><g id="Capa_2-2-2" data-name="Capa 2-2"><path class="cls-13" d="M39.3,0A39.3,39.3,0,1,0,78.5,39.3,39.3,39.3,0,0,0,39.3,0Zm0,75.2A36,36,0,1,1,75.2,39.3,36,36,0,0,1,39.3,75.2Z"/><polygon class="cls-14" points="41.3 23.6 41.6 13.8 17.9 29 17.9 36.1 41.1 51.2 41 41.8 37 39.3 37 45 22.2 35.5 22.2 30.4 36.9 21.4 36.8 26.2 41.3 23.6"/><polygon class="cls-15" points="34.9 28.7 34.9 24.6 24.3 31.1 24.3 34.5 34.9 41.6 34.9 37 27.6 33.1 34.9 28.7"/><polygon class="cls-16" points="37 36.8 41.1 39.3 41.1 33.4 56.1 43.5 56.1 48 41.2 57.4 41.2 52.7 37 55.6 37 64.8 60.4 49.5 60.4 42.7 37 27.6 37 36.8"/><polygon class="cls-17" points="43.3 37.5 43.3 41.7 50.8 46.1 43.3 50.6 43.3 54.1 53.9 47.5 53.9 44.3 43.3 37.5"/></g></g><path class="cls-18" d="M100.5,42.6a7.5,7.5,0,0,1-10.6,0C87.3,39.9,86,35.8,86,30.1s1.4-11.3,4.3-14.2a7,7,0,0,1,5.1-2.2,6.9,6.9,0,0,1,4.8,1.7,12.1,12.1,0,0,1,3.2,9.1H99.8c-.1-3.4-.7-5.6-1.9-6.8a3.2,3.2,0,0,0-2.5-1,3.8,3.8,0,0,0-2.6,1.1c-2.1,2.2-3.2,6.2-3.2,12s.9,8.6,2.7,10.4a4.5,4.5,0,0,0,2.9,1.3,3.9,3.9,0,0,0,2.7-1.3c1.1-1.1,1.7-3.5,1.8-7.4h3.8C103.2,37.6,102.2,40.9,100.5,42.6Z"/><path class="cls-18" d="M119.2,47.4l1-9h-5.5l-.8,9h-2.5l.9-9h-3.1v-3h3.5L113.8,25h-4.6V22h4.9l.8-8.8h2.6l-1,8.8h5.4l.8-8.8h2.6l-1,8.8h3.2v3H124l-1.1,10.4h4.6v3h-4.9l-.8,9Zm1.3-12L121.6,25h-5.4l-1.1,10.4Z"/><path class="cls-18" d="M136.8,21.5V44.8h-3.2V13.7h5.1L142.1,34h.3l3.4-20.3h5.1V44.8h-3.2V21.5h-.3l-3.9,23.3H141l-3.9-23.3Z"/><path class="cls-19" d="M157.9,44.8V13.7h16.8v3H161.6V27.1h9.9v3h-9.9V44.8Z"/><path class="cls-19" d="M185.8,26.8h10.8v3H185.8v12h12.6v3H182.1V13.7h15.5v3H185.8Z"/><path class="cls-18" d="M219.7,42.6a7.5,7.5,0,0,1-10.6,0c-2.6-2.7-4-6.8-4-12.5s1.5-11.3,4.3-14.2a7,7,0,0,1,5.1-2.2,6.5,6.5,0,0,1,4.8,1.7c2.3,2.3,3.3,5.3,3.2,9.1H219c-.1-3.4-.7-5.6-1.9-6.8a3.3,3.3,0,0,0-2.6-1,3.6,3.6,0,0,0-2.5,1.1c-2.1,2.2-3.2,6.2-3.2,12s.9,8.6,2.7,10.4a3.7,3.7,0,0,0,5.6,0c1.1-1.1,1.6-3.5,1.8-7.4h3.8C222.4,37.6,221.4,40.9,219.7,42.6Z"/><path class="cls-18" d="M246.4,29.2q0,10.1-3.6,13.5a6.9,6.9,0,0,1-5.2,2.1,7,7,0,0,1-5.4-2.1q-3.6-3.5-3.6-13.5c0-6.6,1.2-11.1,3.6-13.4a7,7,0,0,1,5.4-2.1,6.9,6.9,0,0,1,5.2,2.1C245.2,18.1,246.4,22.6,246.4,29.2Zm-14.1,0c0,6,.7,9.8,2.1,11.1a4.2,4.2,0,0,0,3.2,1.5,4.1,4.1,0,0,0,3-1.5c1.4-1.3,2.1-5.1,2.1-11.1s-.7-9.7-2.1-11a4.1,4.1,0,0,0-3-1.5,4.2,4.2,0,0,0-3.2,1.5C233,19.5,232.3,23.2,232.3,29.2Z"/><path class="cls-18" d="M93.1,67.1a2.4,2.4,0,0,1-1.6.7,2.6,2.6,0,0,1-1.6-.7,5.2,5.2,0,0,1-1.2-3.8A6.3,6.3,0,0,1,90,59a2.6,2.6,0,0,1,1.6-.7,1.7,1.7,0,0,1,1.4.6,3.5,3.5,0,0,1,1,2.7H92.9a3.6,3.6,0,0,0-.5-2.1,1.1,1.1,0,0,0-.8-.2,1.1,1.1,0,0,0-.8.3,5.1,5.1,0,0,0-1,3.6,4.4,4.4,0,0,0,.9,3.2,1.1,1.1,0,0,0,.8.3l.9-.3a3.9,3.9,0,0,0,.5-2.3H94A4.3,4.3,0,0,1,93.1,67.1Z"/><path class="cls-18" d="M101.2,63c0,2.1-.3,3.4-1,4.1a2.6,2.6,0,0,1-1.6.7,2.4,2.4,0,0,1-1.7-.7c-.7-.7-1-2-1-4.1s.3-3.3,1-4a2.1,2.1,0,0,1,1.7-.7,2.1,2.1,0,0,1,1.6.7C100.9,59.7,101.2,61,101.2,63ZM97,63c0,1.9.2,3,.6,3.4a1.3,1.3,0,0,0,1,.4,1.2,1.2,0,0,0,.9-.4c.4-.4.6-1.5.6-3.4s-.2-2.9-.6-3.3a1.2,1.2,0,0,0-.9-.4,1.3,1.3,0,0,0-1,.4Q97,60.3,97,63Z"/><path class="cls-18" d="M104.1,60.7v7.1h-.9V58.3h1.5l1,6.2h.1l1-6.2h1.6v9.5h-1V60.7h-.1l-1.1,7.1h-.8l-1.2-7.1Z"/><path class="cls-18" d="M111.3,60.7v7.1h-.9V58.3h1.5l1,6.2h.1l1.1-6.2h1.5v9.5h-1V60.7h-.1l-1.1,7.1h-.8l-1.2-7.1Z"/><path class="cls-18" d="M117.7,58.3h1.1v6.9a1.9,1.9,0,0,0,.3,1.2,1.8,1.8,0,0,0,1.1.3h0a1.7,1.7,0,0,0,1-.3,2.1,2.1,0,0,0,.4-1.2V58.3h1.1v6.9a2.6,2.6,0,0,1-.8,2,2.1,2.1,0,0,1-1.7.6h0a2.3,2.3,0,0,1-1.8-.6,2.6,2.6,0,0,1-.7-2Z"/><path class="cls-18" d="M129.9,58.3v9.5h-1.4L126,60.7h0v7.1h-1.1V58.3h1.3l2.5,7.1h.1V58.3Z"/><path class="cls-18" d="M134.1,66.7h.6v1.1h-2.2V66.7h.5V59.4h-.5V58.3h2.2v1.1h-.6Z"/><path class="cls-18" d="M139.2,67.8V59.3h-1.9v-1h5v1h-2v8.5Z"/><path class="cls-18" d="M145.3,58.3l1.7,3.9h0l1.7-3.9h1.1l-2.3,5.2v4.3h-1.1V63.5l-2.2-5.2Z"/><path class="cls-19" d="M156.9,67.8V58.3H162v1h-4v3.1h3v.9h-3v4.5Z"/><path class="cls-19" d="M165.3,62.3h3.3v.9h-3.3v3.6h3.8v1h-4.9V58.3h4.7v1h-3.6Z"/><path class="cls-19" d="M175.3,63.3a2,2,0,0,1,1.1,1.8,2.6,2.6,0,0,1-.8,2,2.6,2.6,0,0,1-4.4-1.8v-.5h1.1v.4a1.5,1.5,0,0,0,.4,1.2,1.3,1.3,0,0,0,1,.4,1.2,1.2,0,0,0,1.1-.4,1.6,1.6,0,0,0,.5-1.1,1.5,1.5,0,0,0-.7-1.2,18.8,18.8,0,0,1-2.3-1.6,2.1,2.1,0,0,1-.8-1.7,2.4,2.4,0,0,1,.7-1.8,2.6,2.6,0,0,1,1.6-.7,2,2,0,0,1,1.6.6,2.4,2.4,0,0,1,.7,2H175a1.6,1.6,0,0,0-.4-1.3,1.2,1.2,0,0,0-1.6,0,1.6,1.6,0,0,0-.5,1.1,1.9,1.9,0,0,0,.7,1.2Z"/><path class="cls-19" d="M180.4,67.8V59.3h-1.9v-1h5v1h-2v8.5Z"/><path class="cls-18" d="M191.6,67.8h-1.1l2.4-9.5h1l2.4,9.5h-1.2l-.6-2.8h-2.2Zm1.8-6.9h-.1l-.7,3.2h1.6Z"/><path class="cls-18" d="M203.1,58.3v9.5h-1.4l-2.5-7.1h0v7.1H198V58.3h1.4l2.5,7.1h.1V58.3Z"/><path class="cls-18" d="M209.3,59.2c.8.7,1.1,2,1.1,3.9s-.3,3-1,3.7a3.5,3.5,0,0,1-2.4,1h-1.7V58.3H207A3.2,3.2,0,0,1,209.3,59.2ZM207,66.8a2.4,2.4,0,0,0,1.5-.6c.5-.5.7-1.6.7-3.1s-.2-2.7-.8-3.2a2,2,0,0,0-1.4-.6h-.6v7.5Z"/><path class="cls-18" d="M222,67.1a2.6,2.6,0,0,1-1.6.7,2.4,2.4,0,0,1-1.6-.7,5.2,5.2,0,0,1-1.2-3.8c0-2,.4-3.4,1.3-4.3a2.3,2.3,0,0,1,1.5-.7,2,2,0,0,1,1.5.6,3.1,3.1,0,0,1,.9,2.7h-1a2.9,2.9,0,0,0-.6-2.1c-.2-.2-.4-.2-.8-.2a.9.9,0,0,0-.7.3c-.7.6-1,1.8-1,3.6a4.9,4.9,0,0,0,.8,3.2,1.6,1.6,0,0,0,.9.3,1.3,1.3,0,0,0,.8-.3,3.9,3.9,0,0,0,.5-2.3h1.2A4.8,4.8,0,0,1,222,67.1Z"/><path class="cls-18" d="M230.1,63c0,2.1-.4,3.4-1.1,4.1a2.4,2.4,0,0,1-1.6.7,2.2,2.2,0,0,1-1.6-.7c-.7-.7-1.1-2-1.1-4.1s.4-3.3,1.1-4a1.9,1.9,0,0,1,1.6-.7,2,2,0,0,1,1.6.7C229.7,59.7,230.1,61,230.1,63Zm-4.3,0c0,1.9.2,3,.6,3.4a1.4,1.4,0,0,0,1,.4,1.2,1.2,0,0,0,.9-.4c.4-.4.7-1.5.7-3.4s-.3-2.9-.7-3.3a1.2,1.2,0,0,0-.9-.4,1.4,1.4,0,0,0-1,.4Q225.8,60.3,225.8,63Z"/><path class="cls-18" d="M236.1,59.2c.8.7,1.1,2,1.1,3.9s-.3,3-1,3.7a3.5,3.5,0,0,1-2.4,1h-1.7V58.3h1.7A3.2,3.2,0,0,1,236.1,59.2Zm-2.3,7.6a2.4,2.4,0,0,0,1.5-.6c.5-.5.7-1.6.7-3.1s-.2-2.7-.8-3.2a2,2,0,0,0-1.4-.6h-.6v7.5Z"/><path class="cls-18" d="M240.6,62.3h3.3v.9h-3.3v3.6h3.8v1h-4.9V58.3h4.7v1h-3.6Z"/><rect class="cls-20" x="86" y="50.5" width="160.4" height="2.2" transform="translate(332.3 103.3) rotate(180)"/><polygon class="cls-18" points="247.6 273.5 247.6 313.7 24.2 337.7 24.1 297.5 247.6 273.5"/><polygon class="cls-19" points="276.6 239.4 276.6 279.6 53.1 303.6 53.1 263.4 276.6 239.4"/><path class="cls-21" d="M119.8,275.2h7.4v2.1h-7.4v8.2h8.6v2.1H117.3V266.3h10.6v2h-8.1Z"/><path class="cls-21" d="M135.7,265.3l3.7,16.1h.2l3.8-16.1h2.5l-5.2,21.3h-2.4l-5.1-21.3Z"/><path class="cls-21" d="M153.8,273.2h7.4v2.1h-7.4v8.2h8.6v2.1H151.3V264.3h10.6v2h-8.1Z"/><path class="cls-21" d="M179.2,262.3v21.3h-3l-5.7-16h-.1v16h-2.6V262.3h3.1l5.7,15.9h.1V262.3Z"/><path class="cls-21" d="M188.2,282.6V263.3H184v-2h11.2v2h-4.5v19.3Z"/><path class="cls-21" d="M211.7,269.9c0,4.6-.8,7.7-2.5,9.3a4.9,4.9,0,0,1-3.6,1.4,5.3,5.3,0,0,1-3.7-1.4q-2.4-2.4-2.4-9.3c0-4.6.8-7.6,2.4-9.2a4.9,4.9,0,0,1,3.7-1.4,4.5,4.5,0,0,1,3.6,1.4C210.9,262.3,211.7,265.3,211.7,269.9Zm-9.7,0c0,4.1.5,6.7,1.5,7.6a2.7,2.7,0,0,0,4.2,0c1-.9,1.4-3.5,1.4-7.6s-.4-6.6-1.4-7.6a2.7,2.7,0,0,0-4.2,0C202.5,263.3,202,265.8,202,269.9Z"/><path class="cls-22" d="M45.6,310.3l3.7,16.2h.2l3.7-16.2h2.5l-5.1,21.3H48.2l-5.1-21.3Z"/><path class="cls-22" d="M66.7,327.2h1.2v2.4H63v-2.4h1.2V310.7H63v-2.4h4.9v2.4H66.7Z"/><path class="cls-22" d="M84.9,309.2c1.7,1.7,2.5,4.6,2.5,8.8s-.7,6.9-2.3,8.4a7.3,7.3,0,0,1-5.6,2.2H75.8V307.3h3.7A7.3,7.3,0,0,1,84.9,309.2Zm-5.4,17.3A4.7,4.7,0,0,0,83,325c1.1-1.1,1.7-3.4,1.7-7s-.6-6.1-1.8-7.2a4.2,4.2,0,0,0-3.4-1.4H78.3v17.1Z"/><path class="cls-22" d="M95.7,313.2h7.4v2.1H95.7v8.2h8.6v2.1H93.2V304.3h10.6v2.1H95.7Z"/><path class="cls-22" d="M121.5,313.9q0,6.9-2.4,9.3a4.9,4.9,0,0,1-3.6,1.4,5.1,5.1,0,0,1-3.7-1.4q-2.4-2.4-2.4-9.3c0-4.5.8-7.6,2.4-9.2a5.1,5.1,0,0,1,3.7-1.4,4.9,4.9,0,0,1,3.6,1.4C120.7,306.3,121.5,309.4,121.5,313.9Zm-9.6,0c0,4.1.5,6.7,1.4,7.6a3,3,0,0,0,2.2,1,2.9,2.9,0,0,0,2.1-1c.9-.9,1.4-3.5,1.4-7.6s-.5-6.6-1.4-7.6a3.2,3.2,0,0,0-2.1-.9,3.3,3.3,0,0,0-2.2.9C112.4,307.3,111.9,309.8,111.9,313.9Z"/><path class="cls-22" d="M136.9,315.6c0,2.6-.6,4.4-1.7,5.5a5.2,5.2,0,0,1-3.8,1.5,5,5,0,0,1-3.7-1.5c-1.1-1.1-1.7-2.9-1.7-5.5v-1.5h2.6v2.1a5.1,5.1,0,0,0,.8,3.3,2.4,2.4,0,0,0,1.9.8,2.5,2.5,0,0,0,2.1-.8c.6-.6,1-1.9,1-3.8V301.3h2.5Z"/><path class="cls-22" d="M143.8,299.3h2.5v15.6a3.4,3.4,0,0,0,.8,2.5,3.2,3.2,0,0,0,2.3.8h.1a2.9,2.9,0,0,0,2.2-.8,3.2,3.2,0,0,0,.9-2.5V299.3h2.5v15.6a6.5,6.5,0,0,1-1.6,4.5,5.8,5.8,0,0,1-4,1.2h-.1a5.4,5.4,0,0,1-3.9-1.2,6.1,6.1,0,0,1-1.7-4.5Z"/><path class="cls-22" d="M164.7,306.2h7.4v2.1h-7.4v8.2h8.6v2.1H162.2V297.3h10.6v2.1h-8.1Z"/><path class="cls-22" d="M185.7,298.1a2.3,2.3,0,0,0-1.7-.7,2,2,0,0,0-1.5.5c-1.6,1.6-2.4,4.5-2.4,8.5s.6,6,1.8,7.1a2.4,2.4,0,0,0,1.7.9,2.7,2.7,0,0,0,2-.9c.9-.8,1.3-2.3,1.3-4.3v-2.1h-3.4V305h5.6v11.6h-1.9l-.3-2a4.2,4.2,0,0,1-3.6,2,4.4,4.4,0,0,1-3.2-1.3c-1.7-1.7-2.5-4.6-2.5-8.9s.9-7.7,2.7-9.5a5,5,0,0,1,3.7-1.6,4.4,4.4,0,0,1,3.2,1.2c1.3,1.2,1.9,3,1.9,5.5h-2.3C186.7,300.1,186.4,298.8,185.7,298.1Z"/><path class="cls-22" d="M206.5,304.9q0,6.9-2.4,9.3a4.9,4.9,0,0,1-3.6,1.4,5.1,5.1,0,0,1-3.7-1.4q-2.4-2.4-2.4-9.3c0-4.5.8-7.6,2.4-9.2a5.1,5.1,0,0,1,3.7-1.4,4.9,4.9,0,0,1,3.6,1.4C205.7,297.3,206.5,300.4,206.5,304.9Zm-9.6,0c0,4.1.5,6.7,1.4,7.6a3,3,0,0,0,2.2,1,2.9,2.9,0,0,0,2.1-1c.9-.9,1.4-3.5,1.4-7.6s-.5-6.6-1.4-7.6a3.2,3.2,0,0,0-2.1-.9,3.3,3.3,0,0,0-2.2.9C197.4,298.3,196.9,300.8,196.9,304.9Z"/><path class="cls-22" d="M220.8,303.5a4.6,4.6,0,0,1,2.5,4.2,6,6,0,0,1-1.6,4.4,6.1,6.1,0,0,1-4.3,1.5,5.6,5.6,0,0,1-4-1.4,5.8,5.8,0,0,1-1.8-4.2v-1.1h2.5v1a3.3,3.3,0,0,0,.9,2.6,2.9,2.9,0,0,0,2.2.9,3.4,3.4,0,0,0,2.6-.9,3.3,3.3,0,0,0-.5-5.1,53.2,53.2,0,0,1-5.2-3.7,5.4,5.4,0,0,1-.2-7.9,5.3,5.3,0,0,1,3.6-1.5,4.8,4.8,0,0,1,3.7,1.3,6.1,6.1,0,0,1,1.6,4.6h-2.6a3.4,3.4,0,0,0-.8-3,2.6,2.6,0,0,0-1.9-.7,2.4,2.4,0,0,0-1.8.7,3.2,3.2,0,0,0-1,2.3,3.8,3.8,0,0,0,1.5,2.8A25.5,25.5,0,0,0,220.8,303.5Z"/></g></g></svg>