<svg xmlns="http://www.w3.org/2000/svg" xmlns:xlink="http://www.w3.org/1999/xlink" viewBox="0 0 276.6 337.7"><defs><style>.cls-1{fill:#94959a;}.cls-2{fill:#58595d;}.cls-3{fill:#414045;}.cls-4,.cls-5{fill:#f2f2f2;}.cls-5{stroke:#293358;stroke-miterlimit:10;}.cls-6{fill:#1ba0a7;}.cls-7{fill:#c45230;}.cls-8{fill:#fff;}.cls-9{fill:#38a8db;}.cls-10{fill:#f6a318;}.cls-11{fill:url(#Degradado_sin_nombre_6);}.cls-12{fill:url(#Degradado_sin_nombre_6-2);}.cls-13{fill:url(#Degradado_sin_nombre_3);}.cls-14{fill:url(#Degradado_sin_nombre_4);}.cls-15{fill:url(#Degradado_sin_nombre_5);}.cls-16{fill:#822684;}.cls-17{fill:#fab51e;}.cls-18{fill:url(#Degradado_sin_nombre_6-3);}.cls-19{fill:#1d1d1b;}</style><linearGradient id="Degradado_sin_nombre_6" x1="10.64" y1="80.94" x2="69.69" y2="29.2" gradientTransform="matrix(1, 0, 0, -1, 0, 95.12)" gradientUnits="userSpaceOnUse"><stop offset="0.24" stop-color="#e2a052"/><stop offset="0.42" stop-color="#9a6069"/><stop offset="0.56" stop-color="#6c3778"/><stop offset="0.62" stop-color="#59267a"/></linearGradient><linearGradient id="Degradado_sin_nombre_6-2" x1="26.8" y1="73.63" x2="50.99" y2="45.46" xlink:href="#Degradado_sin_nombre_6"/><linearGradient id="Degradado_sin_nombre_3" x1="25.55" y1="69.55" x2="40.09" y2="55.31" gradientTransform="matrix(1, 0, 0, -1, 0, 95.12)" gradientUnits="userSpaceOnUse"><stop offset="0.37" stop-color="#e2a052"/><stop offset="0.41" stop-color="#d59456"/><stop offset="0.67" stop-color="#7d4672"/><stop offset="0.79" stop-color="#59267a"/></linearGradient><linearGradient id="Degradado_sin_nombre_4" x1="27.82" y1="55.6" x2="54.44" y2="37.44" gradientTransform="matrix(1, 0, 0, -1, 0, 95.12)" gradientUnits="userSpaceOnUse"><stop offset="0.22" stop-color="#e2a052"/><stop offset="0.3" stop-color="#be815d"/><stop offset="0.42" stop-color="#945a6b"/><stop offset="0.52" stop-color="#743e75"/><stop offset="0.61" stop-color="#612c7a"/><stop offset="0.67" stop-color="#59267a"/></linearGradient><linearGradient id="Degradado_sin_nombre_5" x1="36.82" y1="52.96" x2="53.85" y2="43.34" gradientTransform="matrix(1, 0, 0, -1, 0, 95.12)" gradientUnits="userSpaceOnUse"><stop offset="0.27" stop-color="#e2a052"/><stop offset="0.33" stop-color="#be815d"/><stop offset="0.41" stop-color="#945a6b"/><stop offset="0.49" stop-color="#743e75"/><stop offset="0.55" stop-color="#612c7a"/><stop offset="0.59" stop-color="#59267a"/></linearGradient><linearGradient id="Degradado_sin_nombre_6-3" x1="640.96" y1="51.63" x2="801.36" y2="51.63" gradientTransform="matrix(1, 0, 0, -1, -555, 103.27)" xlink:href="#Degradado_sin_nombre_6"/></defs><title>events_iot</title><g id="Capa_2" data-name="Capa 2"><g id="events_iot"><circle class="cls-1" cx="171.5" cy="236.8" r="1.5"/><circle class="cls-2" cx="173.8" cy="146.8" r="4.6"/><circle class="cls-1" cx="150.4" cy="127.3" r="3.6"/><rect class="cls-1" x="55.5" y="95.8" width="0.2" height="19.68" transform="translate(-63.7 102) rotate(-60.5)"/><rect class="cls-1" x="77.2" y="96.6" width="0.2" height="25.14" transform="translate(-2.1 216.8) rotate(-108.3)"/><rect class="cls-1" x="65.9" y="112.3" width="0.2" height="25.14" transform="translate(15 -6.8) rotate(6.7)"/><rect class="cls-1" x="103.2" y="109.1" width="0.2" height="19.49"/><rect class="cls-1" x="108" y="118.9" width="0.2" height="22.36" transform="translate(-58.2 99.5) rotate(-39.9)"/><rect class="cls-1" x="93.2" y="112.4" width="0.2" height="47.47" transform="translate(-69.8 110.8) rotate(-46.8)"/><rect class="cls-1" x="81.8" y="129.8" width="0.2" height="18.92" transform="translate(-49 44.6) rotate(-23.7)"/><rect class="cls-1" x="92" y="143.1" width="0.2" height="18.52" transform="translate(-83.9 125.7) rotate(-50.2)"/><rect class="cls-1" x="78" y="145.2" width="0.2" height="14.38" transform="translate(5 307.2) rotate(-127.6)"/><rect class="cls-1" x="51.4" y="140.8" width="0.2" height="25.14" transform="translate(-85.2 66.9) rotate(-39.1)"/><rect class="cls-1" x="47.2" y="173.1" width="0.2" height="15.44" transform="translate(-40.2 346) rotate(-137.4)"/><rect class="cls-1" x="77.6" y="171.7" width="0.2" height="15.44" transform="translate(-108.2 119.1) rotate(-48.6)"/><rect class="cls-1" x="90.9" y="174.2" width="0.2" height="15.44" transform="translate(2.1 364.9) rotate(-127.5)"/><rect class="cls-1" x="79.3" y="188.3" width="0.2" height="15.44" transform="translate(42.4 404.2) rotate(-147.9)"/><rect class="cls-1" x="89.9" y="153.8" width="0.2" height="27.33" transform="translate(-83.6 244.9) rotate(-85.8)"/><rect class="cls-1" x="59.3" y="202.1" width="0.2" height="15.44" transform="translate(-119.8 85.5) rotate(-39.4)"/><rect class="cls-1" x="52.9" y="222" width="0.2" height="15.44" transform="translate(-134.6 372.4) rotate(-114.3)"/><rect class="cls-1" x="71.9" y="228.5" width="0.2" height="15.44" transform="translate(-35.5 13.9) rotate(-8.9)"/><rect class="cls-1" x="93.5" y="179.9" width="0.2" height="42.52" transform="translate(1.6 403.1) rotate(-130.5)"/><rect class="cls-1" x="93.7" y="215.2" width="0.2" height="18.14" transform="translate(-12.2 442.9) rotate(-131.4)"/><rect class="cls-1" x="106.9" y="198.8" width="0.2" height="16.75" transform="translate(103.2 440.3) rotate(-151.7)"/><rect class="cls-1" x="112.1" y="213.7" width="0.2" height="15.44" transform="translate(-136 218.9) rotate(-62.5)"/><rect class="cls-1" x="112.1" y="234" width="0.2" height="15.44" transform="translate(-14.9 476) rotate(-126.6)"/><rect class="cls-1" x="145.9" y="233.1" width="0.2" height="15.44" transform="translate(-135.6 234.5) rotate(-57.5)"/><rect class="cls-1" x="128.6" y="195.6" width="0.2" height="20"/><rect class="cls-1" x="147.6" y="213.7" width="0.2" height="15.44" transform="translate(2.8 444.6) rotate(-113.3)"/><rect class="cls-1" x="149" y="200.8" width="0.2" height="15.44" transform="translate(-82.1 97.9) rotate(-28.9)"/><rect class="cls-1" x="164.9" y="214.4" width="0.2" height="15.44" transform="translate(-97.9 308.3) rotate(-71.5)"/><rect class="cls-1" x="178.5" y="224.9" width="0.2" height="15.44" transform="translate(66.5 503.6) rotate(-120)"/><rect class="cls-1" x="199.3" y="229.1" width="0.2" height="15.44" transform="translate(-110 225.3) rotate(-47.8)"/><rect class="cls-1" x="192.5" y="203.4" width="0.2" height="15.44" transform="translate(54 -38.8) rotate(13.4)"/><rect class="cls-1" x="163.7" y="178.7" width="0.2" height="49.98" transform="translate(-96.9 184.8) rotate(-47)"/><rect class="cls-1" x="167.6" y="175.4" width="0.2" height="15.44" transform="translate(-79.7 162.5) rotate(-42.8)"/><rect class="cls-1" x="185.2" y="173.4" width="0.2" height="15.44" transform="matrix(0.79, 0.61, -0.61, 0.79, 148.7, -75.38)"/><rect class="cls-1" x="192.3" y="184.8" width="0.2" height="15.44" transform="translate(-0.1 384.9) rotate(-90)"/><rect class="cls-1" x="212.4" y="172.2" width="0.2" height="15.44" transform="translate(-64.9 203) rotate(-45)"/><rect class="cls-1" x="209.8" y="137.9" width="0.2" height="17.42" transform="translate(318.4 378.5) rotate(-150)"/><rect class="cls-1" x="169.2" y="153" width="0.2" height="29.2" transform="translate(14.5 348.7) rotate(-94.2)"/><rect class="cls-1" x="167.5" y="143.3" width="0.2" height="15.44" transform="translate(142.6 375.2) rotate(-125.7)"/><rect class="cls-1" x="182.3" y="145.6" width="0.2" height="15.44" transform="translate(-51.1 201) rotate(-51.6)"/><rect class="cls-1" x="178.7" y="131.6" width="0.2" height="15.44" transform="translate(243.1 356.8) rotate(-144.4)"/><rect class="cls-1" x="195.4" y="116.7" width="0.2" height="15.44" transform="translate(-28.7 182.8) rotate(-47.1)"/><rect class="cls-1" x="198.3" y="96.2" width="0.2" height="15.44" transform="translate(244.5 323.2) rotate(-129.5)"/><rect class="cls-1" x="171" y="102.6" width="0.2" height="15.44" transform="translate(19.4 246.1) rotate(-74.7)"/><rect class="cls-1" x="162.2" y="115.7" width="0.2" height="43.68" transform="translate(179.8 349.6) rotate(-135)"/><rect class="cls-1" x="147.7" y="126.9" width="0.2" height="15.44" transform="translate(245.2 309.2) rotate(-161.5)"/><rect class="cls-1" x="159.5" y="115.3" width="0.2" height="15.44" transform="translate(112.1 318.8) rotate(-114)"/><rect class="cls-1" x="144.6" y="114.9" width="0.2" height="15.44" transform="translate(-42.5 153.1) rotate(-49.5)"/><rect class="cls-1" x="128.6" y="123.2" width="0.2" height="21.15" transform="translate(-1.4 1.4) rotate(-0.6)"/><rect class="cls-1" x="149" y="90.4" width="0.2" height="18.2" transform="translate(113.5 275.3) rotate(-112.3)"/><rect class="cls-1" x="113.8" y="90" width="0.2" height="15.44" transform="translate(-31.4 135.3) rotate(-55.1)"/><rect class="cls-1" x="113.3" y="110.7" width="0.2" height="15.44" transform="translate(67.6 275.9) rotate(-120)"/><circle class="cls-3" cx="128.4" cy="170.6" r="26.6"/><path class="cls-4" d="M127.4,156.5a9.9,9.9,0,1,0,9.8,9.8A9.8,9.8,0,0,0,127.4,156.5Zm.9,6.4a25.8,25.8,0,0,0,2.9-.3l.3,2.8h-3.2Zm-1.7,2.5h-3.3l.3-2.8,3,.3Zm-4.6,0h-3a7,7,0,0,1,1.2-3.5l2,.5C122.1,163.4,122,164.5,122,165.4Zm-.1,1.4c.1,1.3.2,2.4.3,3.4l-2.1.5a8.9,8.9,0,0,1-1.2-3.9Zm1.4,0h3.3v2.9l-3,.2A16.3,16.3,0,0,1,123.3,166.8Zm5,0h3.2c0,1-.1,2-.2,3.1l-3-.2Zm4.6,0h3a8.1,8.1,0,0,1-1.2,3.8l-2.1-.5A16.9,16.9,0,0,0,132.9,166.8Zm0-1.4a16.9,16.9,0,0,0-.3-3l2.1-.4a8,8,0,0,1,1.1,3.4Zm.8-4.8-1.3.3c-.1-.5-.3-1.1-.4-1.7Zm-3.6-2.3a10.5,10.5,0,0,1,.8,2.9l-2.6.3v-3.6Zm-3.5-.4v3.6l-2.7-.2a15.1,15.1,0,0,1,.8-3Zm-3.7,1.3a12.1,12.1,0,0,0-.5,1.8l-1.3-.3A6.5,6.5,0,0,1,122.9,159.2ZM121,171.9a3.9,3.9,0,0,1,1.4-.4c.2.9.4,1.5.5,2A10,10,0,0,1,121,171.9Zm3.7,2.4a17.1,17.1,0,0,1-.9-3,20,20,0,0,1,2.8-.3v3.8Zm3.6.5v-3.7a13.1,13.1,0,0,1,2.7.3,18.2,18.2,0,0,1-.8,2.9Zm3.7-1.3c.1-.5.2-1.1.4-1.9l1.3.3A12.9,12.9,0,0,1,132,173.5Z"/><path class="cls-5" d="M138.4,184.4l1.3-4.1v-4.4s-.8-2.9-2.5-1.1v2h-.1v-2.2s-.4-1.8-1.8-.9v2.5h-.1v-2.9s-.7-1.2-1.9,0v2.9h-.1v-6s-.7-1.9-1.8,0v7.3a2.6,2.6,0,0,0-2.4-1.9s-1,.1-.3,1.3a4.4,4.4,0,0,1,2.2,3.5,11.3,11.3,0,0,1,1.1,4Z"/><circle class="cls-6" cx="128.9" cy="110" r="14.1"/><path class="cls-4" d="M134.3,105.7H123.1v8.6h10.8l-.8.9.5.4,1.6-1.9-.4-.4h0l-1.5-1.2-.4.4.8.7h-9.5v-5.1l5.1,3.6h0l5-3.4v3.1h1.1v-5.7Zm0,1.4-5,3.4-5.1-3.7h10.1Z"/><circle class="cls-7" cx="185.7" cy="114.3" r="11.8"/><path class="cls-8" d="M180,109v7.9h11.6V109Zm10.6,7h-9.7v-6h9.7Z"/><rect class="cls-8" x="178.4" y="117.3" width="14.7" height="1.22"/><rect class="cls-8" x="182.9" y="111.1" width="5.6" height="0.45"/><path class="cls-8" d="M187.6,113.9v-.2h-1.8v-.2h1.8l.9-1.8h-.7l-.4,1.2H187v-1.3h-.4V113h-.7v-1.2h-.5v1.4l-.7-1.5h-.6l.9,1.8v1.4l.3.2h.6l.2-.3v-.7l-.2-.3v-.2H187v1l.3.4h.4l.3-.5v-.5Zm-1.7.6c0,.2-.1.3-.2.3s-.2-.1-.2-.3a.2.2,0,0,1,.4,0Zm1.6.3c-.1,0-.2-.1-.2-.3a.2.2,0,0,1,.2-.2l.3.2A.3.3,0,0,1,187.5,114.8Z"/><circle class="cls-6" cx="197.4" cy="165.1" r="14.1"/><path class="cls-8" d="M197.8,159.3c-4.3,0-7.8,2.5-7.8,5.5a4.8,4.8,0,0,0,2.1,3.7,8.1,8.1,0,0,1-1.7,3.2s2.7-1.8,4.8-1.8h0a10.9,10.9,0,0,0,2.6.3c4.3,0,7.7-2.4,7.7-5.4S202.1,159.3,197.8,159.3Zm-2.1,8h-1.5V164h1.5Zm5.7-2.8s.2.8-.4.9.2.9-.5.8a.6.6,0,0,1-.7.9h-3.4V164a4.3,4.3,0,0,0,1.6-2.7s.5-.5.9.3a2,2,0,0,1-.6,1.9h3.3S202,164.2,201.4,164.5Z"/><circle class="cls-9" cx="176.3" cy="192.4" r="10.5"/><path class="cls-8" d="M182.3,188.1l-1-.9a1.9,1.9,0,0,0-2.7.2l-2.1,2.4.9.5,1.7-1.9a1,1,0,0,1,1.5-.1l.7.6a1,1,0,0,1,.1,1.5l-2,2.4-.5.5a1.2,1.2,0,0,1-1.4.3l-.2-.2-.6-.6a1,1,0,0,1-.4-.5,1.3,1.3,0,0,0-1.2-.2,1.5,1.5,0,0,0,.6,1.5l1,.9.7.4a2,2,0,0,0,1.3-.1l.7-.5,3.1-3.5A1.9,1.9,0,0,0,182.3,188.1Z"/><path class="cls-8" d="M176.6,194.8l-1.8,2.1a1.2,1.2,0,0,1-1.6.1l-.7-.6a1.2,1.2,0,0,1-.1-1.6l2.1-2.4.5-.5a1.1,1.1,0,0,1,.8-.3,1,1,0,0,1,.7.2l.7.6a1.2,1.2,0,0,1,.4.8,1.3,1.3,0,0,0,1.2-.3,1.8,1.8,0,0,0-.6-1.3l-1-.8a1.6,1.6,0,0,0-1.1-.5,1.8,1.8,0,0,0-1.3.4l-.3.2-3.1,3.6a1.9,1.9,0,0,0,.2,2.7l.9.8a2,2,0,0,0,2.7-.1l2.4-2.7A1.8,1.8,0,0,1,176.6,194.8Z"/><circle class="cls-10" cx="189" cy="226.9" r="9.9"/><path class="cls-8" d="M192.8,223.3H188v-.4a.6.6,0,0,0-.6-.5h-2.5a.5.5,0,0,0-.5.5v.6h0a1.4,1.4,0,0,0-.2.6v6.7a.9.9,0,0,0,.8.8h7.8a.9.9,0,0,0,.9-.8v-6.7A.9.9,0,0,0,192.8,223.3Zm-7.9.5v-.9h1v.9Zm3.7,6.5h-3.1v-.4h3.1Zm0-1.1h-3.1v-2.3h3.1Zm4,1.1h-3.3v-.4h3.3Zm0-1h-3.3v-.4h3.3Zm0-1h-3.3v-.5h3.3Zm0-1h-3.3v-.4h3.3Zm0-1.3h-7.1v-.6h7.1Z"/><circle class="cls-6" cx="128.7" cy="229.4" r="14.3"/><path class="cls-8" d="M122.8,222.4v13.9h11.9V222.4Zm10.9,12.9h-9.6V223.5h9.6Z"/><path class="cls-8" d="M124.4,223.9v3.4h9v-3.4Zm4,2.2c-.2,0-.4-.3-.4-.5a.5.5,0,0,1,.4-.5.5.5,0,0,1,.5.5A.5.5,0,0,1,128.4,226.1Zm1.7,0a.5.5,0,0,1-.5-.5.5.5,0,0,1,.5-.5.5.5,0,0,1,.4.5C130.5,225.8,130.3,226.1,130.1,226.1Zm1.6,0c-.2,0-.4-.3-.4-.5a.5.5,0,0,1,.4-.5.5.5,0,0,1,.5.5A.5.5,0,0,1,131.7,226.1Z"/><path class="cls-8" d="M124.4,227.6v3.5h9v-3.5Zm4,2.3a.4.4,0,0,1-.4-.4.5.5,0,0,1,.4-.5.5.5,0,0,1,.5.5A.5.5,0,0,1,128.4,229.9Zm1.7,0a.5.5,0,0,1-.5-.4.5.5,0,0,1,.5-.5.5.5,0,0,1,.4.5A.4.4,0,0,1,130.1,229.9Zm1.6,0a.4.4,0,0,1-.4-.4.5.5,0,0,1,.4-.5.5.5,0,0,1,.5.5A.5.5,0,0,1,131.7,229.9Z"/><path class="cls-8" d="M124.4,231.5v3.4h9v-3.4Zm4,2.1a.4.4,0,0,1-.4-.4.5.5,0,0,1,.4-.5.5.5,0,0,1,.5.5A.5.5,0,0,1,128.4,233.6Zm1.7,0a.5.5,0,0,1-.5-.4.5.5,0,0,1,.5-.5.5.5,0,0,1,.4.5A.4.4,0,0,1,130.1,233.6Zm1.6,0a.4.4,0,0,1-.4-.4.5.5,0,0,1,.4-.5.5.5,0,0,1,.5.5A.5.5,0,0,1,131.7,233.6Z"/><circle class="cls-7" cx="69.5" cy="222.1" r="12.3"/><path class="cls-8" d="M73.1,217H68.6v-.4a.5.5,0,0,0-.5-.5H65.8a.6.6,0,0,0-.6.5v.6h0a.8.8,0,0,0-.2.5V224a.9.9,0,0,0,.9.8h7.2a.9.9,0,0,0,.8-.8v-6.2A.9.9,0,0,0,73.1,217Zm-7.4.4v-.8h.9v.8Zm3.5,6.1H66.3v-.4h2.9Zm0-1H66.3v-2.2h2.9Zm3.7,1H69.8v-.4h3.1Zm0-1H69.8v-.4h3.1Zm0-.9H69.8v-.4h3.1Zm0-.9H69.8v-.4h3.1Zm0-1.2H66.3v-.6h6.6Z"/><path class="cls-5" d="M72.5,228.5l.6-1.9v-2s-.4-1.3-1.1-.5v1h-.1v-1s-.2-.9-.8-.4v1.1H71v-1.3s-.3-.6-.8,0v1.3h-.1v-2.7s-.3-.9-.8,0v3.3a1.2,1.2,0,0,0-1.1-.9s-.4,0-.1.6a2.2,2.2,0,0,1,1,1.6,7,7,0,0,1,.5,1.8Z"/><circle class="cls-10" cx="61.5" cy="165.1" r="16.2"/><path class="cls-8" d="M57.6,169.6s1.3.1,1.3-1v-3.5q.1-.3.3,0v3.6a1.4,1.4,0,0,1-1.6,1.2A.2.2,0,0,1,57.6,169.6Z"/><path class="cls-8" d="M67.6,169.8s-2.2.3-2.2-1.2,0-3.5,0-3.5-.2-.2-.3,0v3.6s-.2,1.5,2.5,1.3C67.7,170,67.8,169.8,67.6,169.8Z"/><path class="cls-8" d="M57.5,170c-.2-.2-.2-.3,0-.4l.8-.2-1.7-1.2L54,170.1h.7v2.3h3.8v-2.3h.7l-.4-.3Z"/><path class="cls-8" d="M61.9,163.6v6.2h.3v-6.2Q62.1,163.2,61.9,163.6Z"/><path class="cls-8" d="M63.9,171.7v-3.2H62.3v1.4c-.2.2-.4.1-.6,0v-1.4H60.4v3.2h1.4v.5h-.5v.3h1.6v-.3h-.5v-.5Z"/><path class="cls-8" d="M65,166v-1.1h.5V166h1.4a2.7,2.7,0,0,0,2.2-2.6,3,3,0,0,0-3.2-2.8h-.6a.4.4,0,0,0,.1-.3c0-1.2-1.3-2.2-2.8-2.2a2.5,2.5,0,0,0-2.7,1.9l-1-.2a1.7,1.7,0,0,0-1.7,1.7v.3a2.1,2.1,0,0,0,0,4.2h1.6v-1a.3.3,0,0,1,.5,0v1h2.4v-2.5q.3-.5.6,0V166Z"/><path class="cls-8" d="M66.2,168.2v1.3h.6V169h1.6v2.5H66.8v-1.3h-.6v2.4h2.7v-4.3Z"/><circle class="cls-9" cx="67.9" cy="112.1" r="11.7"/><path class="cls-8" d="M62.5,107.1v7.5H72.9v-7.5Zm9.5,6.6H63.5v-5.5H72Z"/><path class="cls-8" d="M69.4,111.4c1-.9,0-1.5,0-1.5s-.4-.4-.4-.4-.5-.4-.5-.4a1.2,1.2,0,0,0-1.6.1h-.1c-.3,0-.4.4-.4.4s-.4.5-.4.5-.4.1-.3.9.6.6.6.6.1,1,.1,1l.3.3c.7-1.5.7.3.7.3l.7-.2v-.7a1.1,1.1,0,0,0,.7-.1c.4.1.3.7.3.7s-.2-1.2-.2-1.2S69.4,111.4,69.4,111.4Zm-1,.2c-.4.4-1.2.3-1.3-.1s-.7-.4-.7-.4.2-1,.2-1,.5-.5.5-.5,1.5-.1,1.4.1.6.3.6.3.5,1.1.1,1S68.8,111.2,68.4,111.6Z"/><ellipse class="cls-8" cx="67.9" cy="110.5" rx="0.6" ry="0.3"/><polygon class="cls-8" points="74.1 114.8 69.1 114.8 69.1 115.2 66.5 115.2 66.5 114.8 61 114.8 61 115.3 61.9 115.3 61.9 115.7 73.4 115.7 73.4 115.3 74.1 115.3 74.1 114.8"/><circle class="cls-1" cx="45.4" cy="99.8" r="2.4"/><circle class="cls-1" cx="90.4" cy="105.1" r="1.7"/><circle class="cls-1" cx="64.2" cy="137.6" r="1.7"/><circle class="cls-1" cx="42.6" cy="142.8" r="2.4"/><circle class="cls-1" cx="42.6" cy="186.1" r="1.7"/><circle class="cls-1" cx="98.9" cy="157.8" r="1.7"/><circle class="cls-1" cx="85.6" cy="146.9" r="3.7"/><circle class="cls-1" cx="85.3" cy="186.1" r="4.7"/><circle class="cls-1" cx="97.8" cy="176.8" r="1.7"/><circle class="cls-1" cx="54" cy="203.2" r="1.7"/><circle class="cls-2" cx="75.2" cy="203.2" r="1.7"/><circle class="cls-1" cx="111.6" cy="198.6" r="1.7"/><circle class="cls-2" cx="102.2" cy="216.6" r="3.7"/><circle class="cls-1" cx="44.3" cy="233.6" r="2.5"/><circle class="cls-2" cx="73.5" cy="244.9" r="1.7"/><circle class="cls-1" cx="86.4" cy="231.1" r="1.7"/><circle class="cls-1" cx="105.6" cy="246.6" r="1.7"/><circle class="cls-2" cx="144.8" cy="200.4" r="3"/><circle class="cls-1" cx="154.5" cy="218.2" r="4.2"/><circle class="cls-2" cx="152.1" cy="244.9" r="1.7"/><circle class="cls-1" cx="173" cy="224.4" r="1.5"/><circle class="cls-1" cx="171.8" cy="236.8" r="1.5"/><circle class="cls-1" cx="194.6" cy="202.9" r="1.5"/><circle class="cls-1" cx="205.2" cy="242.1" r="1.5"/><circle class="cls-1" cx="201.2" cy="192.4" r="1.5"/><circle class="cls-1" cx="162" cy="176.9" r="1.5"/><circle class="cls-2" cx="218.9" cy="186" r="2.1"/><circle class="cls-1" cx="160.2" cy="156.1" r="1.5"/><circle class="cls-1" cx="183.3" cy="133.1" r="1.5"/><circle class="cls-1" cx="215" cy="138.1" r="1.5"/><circle class="cls-1" cx="201.3" cy="129.8" r="1.5"/><circle class="cls-1" cx="205.3" cy="98.2" r="1.5"/><circle class="cls-1" cx="144.9" cy="142.5" r="1.5"/><circle class="cls-1" cx="167.6" cy="119.4" r="1.5"/><circle class="cls-2" cx="162.4" cy="108" r="1.6"/><circle class="cls-1" cx="158.2" cy="95.9" r="1.5"/><circle class="cls-1" cx="107.2" cy="93.4" r="1.5"/><circle class="cls-1" cx="103.4" cy="107.9" r="1.5"/><circle class="cls-1" cx="115.9" cy="139.6" r="2"/><circle class="cls-2" cx="103.4" cy="124.1" r="4.9"/><circle class="cls-2" cx="77.8" cy="130.2" r="1.5"/><g id="Capa_2-2" data-name="Capa 2"><g id="Capa_2-2-2" data-name="Capa 2-2"><path class="cls-11" d="M39.3,0A39.3,39.3,0,1,0,78.5,39.3,39.3,39.3,0,0,0,39.3,0Zm0,75.2A36,36,0,1,1,75.2,39.3,36,36,0,0,1,39.3,75.2Z"/><polygon class="cls-12" points="41.3 23.6 41.6 13.8 17.9 29 17.9 36.1 41.1 51.2 41 41.8 37 39.3 37 45 22.2 35.5 22.2 30.4 36.9 21.4 36.8 26.2 41.3 23.6"/><polygon class="cls-13" points="34.9 28.7 34.9 24.6 24.3 31.1 24.3 34.5 34.9 41.6 34.9 37 27.6 33.1 34.9 28.7"/><polygon class="cls-14" points="37 36.8 41.1 39.3 41.1 33.4 56.1 43.5 56.1 48 41.2 57.4 41.2 52.7 37 55.6 37 64.8 60.4 49.5 60.4 42.7 37 27.6 37 36.8"/><polygon class="cls-15" points="43.3 37.5 43.3 41.7 50.8 46.1 43.3 50.6 43.3 54.1 53.9 47.5 53.9 44.3 43.3 37.5"/></g></g><path class="cls-16" d="M100.5,42.6a7.5,7.5,0,0,1-10.6,0C87.3,39.9,86,35.8,86,30.1s1.4-11.3,4.3-14.2a7,7,0,0,1,5.1-2.2,6.9,6.9,0,0,1,4.8,1.7,12.1,12.1,0,0,1,3.2,9.1H99.8c-.1-3.4-.7-5.6-1.9-6.8a3.2,3.2,0,0,0-2.5-1,3.8,3.8,0,0,0-2.6,1.1c-2.1,2.2-3.2,6.2-3.2,12s.9,8.6,2.7,10.4a4.5,4.5,0,0,0,2.9,1.3,3.9,3.9,0,0,0,2.7-1.3c1.1-1.1,1.7-3.5,1.8-7.4h3.8C103.2,37.6,102.2,40.9,100.5,42.6Z"/><path class="cls-16" d="M119.2,47.4l1-9h-5.5l-.8,9h-2.5l.9-9h-3.1v-3h3.5L113.8,25h-4.6V22h4.9l.8-8.8h2.6l-1,8.8h5.4l.8-8.8h2.6l-1,8.8h3.2v3H124l-1.1,10.4h4.6v3h-4.9l-.8,9Zm1.3-12L121.6,25h-5.4l-1.1,10.4Z"/><path class="cls-16" d="M136.8,21.5V44.8h-3.2V13.7h5.1L142.1,34h.3l3.4-20.3h5.1V44.8h-3.2V21.5h-.3l-3.9,23.3H141l-3.9-23.3Z"/><path class="cls-17" d="M157.9,44.8V13.7h16.8v3H161.6V27.1h9.9v3h-9.9V44.8Z"/><path class="cls-17" d="M185.8,26.8h10.8v3H185.8v12h12.6v3H182.1V13.7h15.5v3H185.8Z"/><path class="cls-16" d="M219.7,42.6a7.5,7.5,0,0,1-10.6,0c-2.6-2.7-4-6.8-4-12.5s1.5-11.3,4.3-14.2a7,7,0,0,1,5.1-2.2,6.5,6.5,0,0,1,4.8,1.7c2.3,2.3,3.3,5.3,3.2,9.1H219c-.1-3.4-.7-5.6-1.9-6.8a3.3,3.3,0,0,0-2.6-1,3.6,3.6,0,0,0-2.5,1.1c-2.1,2.2-3.2,6.2-3.2,12s.9,8.6,2.7,10.4a3.7,3.7,0,0,0,5.6,0c1.1-1.1,1.6-3.5,1.8-7.4h3.8C222.4,37.6,221.4,40.9,219.7,42.6Z"/><path class="cls-16" d="M246.4,29.2q0,10.1-3.6,13.5a6.9,6.9,0,0,1-5.2,2.1,7,7,0,0,1-5.4-2.1q-3.6-3.5-3.6-13.5c0-6.6,1.2-11.1,3.6-13.4a7,7,0,0,1,5.4-2.1,6.9,6.9,0,0,1,5.2,2.1C245.2,18.1,246.4,22.6,246.4,29.2Zm-14.1,0c0,6,.7,9.8,2.1,11.1a4.2,4.2,0,0,0,3.2,1.5,4.1,4.1,0,0,0,3-1.5c1.4-1.3,2.1-5.1,2.1-11.1s-.7-9.7-2.1-11a4.1,4.1,0,0,0-3-1.5,4.2,4.2,0,0,0-3.2,1.5C233,19.5,232.3,23.2,232.3,29.2Z"/><path class="cls-16" d="M93.1,67.1a2.4,2.4,0,0,1-1.6.7,2.6,2.6,0,0,1-1.6-.7,5.2,5.2,0,0,1-1.2-3.8A6.3,6.3,0,0,1,90,59a2.6,2.6,0,0,1,1.6-.7,1.7,1.7,0,0,1,1.4.6,3.5,3.5,0,0,1,1,2.7H92.9a3.6,3.6,0,0,0-.5-2.1,1.1,1.1,0,0,0-.8-.2,1.1,1.1,0,0,0-.8.3,5.1,5.1,0,0,0-1,3.6,4.4,4.4,0,0,0,.9,3.2,1.1,1.1,0,0,0,.8.3l.9-.3a3.9,3.9,0,0,0,.5-2.3H94A4.3,4.3,0,0,1,93.1,67.1Z"/><path class="cls-16" d="M101.2,63c0,2.1-.3,3.4-1,4.1a2.6,2.6,0,0,1-1.6.7,2.4,2.4,0,0,1-1.7-.7c-.7-.7-1-2-1-4.1s.3-3.3,1-4a2.1,2.1,0,0,1,1.7-.7,2.1,2.1,0,0,1,1.6.7C100.9,59.7,101.2,61,101.2,63ZM97,63c0,1.9.2,3,.6,3.4a1.3,1.3,0,0,0,1,.4,1.2,1.2,0,0,0,.9-.4c.4-.4.6-1.5.6-3.4s-.2-2.9-.6-3.3a1.2,1.2,0,0,0-.9-.4,1.3,1.3,0,0,0-1,.4Q97,60.3,97,63Z"/><path class="cls-16" d="M104.1,60.7v7.1h-.9V58.3h1.5l1,6.2h.1l1-6.2h1.6v9.5h-1V60.7h-.1l-1.1,7.1h-.8l-1.2-7.1Z"/><path class="cls-16" d="M111.3,60.7v7.1h-.9V58.3h1.5l1,6.2h.1l1.1-6.2h1.5v9.5h-1V60.7h-.1l-1.1,7.1h-.8l-1.2-7.1Z"/><path class="cls-16" d="M117.7,58.3h1.1v6.9a1.9,1.9,0,0,0,.3,1.2,1.8,1.8,0,0,0,1.1.3h0a1.7,1.7,0,0,0,1-.3,2.1,2.1,0,0,0,.4-1.2V58.3h1.1v6.9a2.6,2.6,0,0,1-.8,2,2.1,2.1,0,0,1-1.7.6h0a2.3,2.3,0,0,1-1.8-.6,2.6,2.6,0,0,1-.7-2Z"/><path class="cls-16" d="M129.9,58.3v9.5h-1.4L126,60.7h0v7.1h-1.1V58.3h1.3l2.5,7.1h.1V58.3Z"/><path class="cls-16" d="M134.1,66.7h.6v1.1h-2.2V66.7h.5V59.4h-.5V58.3h2.2v1.1h-.6Z"/><path class="cls-16" d="M139.2,67.8V59.3h-1.9v-1h5v1h-2v8.5Z"/><path class="cls-16" d="M145.3,58.3l1.7,3.9h0l1.7-3.9h1.1l-2.3,5.2v4.3h-1.1V63.5l-2.2-5.2Z"/><path class="cls-17" d="M156.9,67.8V58.3H162v1h-4v3.1h3v.9h-3v4.5Z"/><path class="cls-17" d="M165.3,62.3h3.3v.9h-3.3v3.6h3.8v1h-4.9V58.3h4.7v1h-3.6Z"/><path class="cls-17" d="M175.3,63.3a2,2,0,0,1,1.1,1.8,2.6,2.6,0,0,1-.8,2,2.6,2.6,0,0,1-4.4-1.8v-.5h1.1v.4a1.5,1.5,0,0,0,.4,1.2,1.3,1.3,0,0,0,1,.4,1.2,1.2,0,0,0,1.1-.4,1.6,1.6,0,0,0,.5-1.1,1.5,1.5,0,0,0-.7-1.2,18.8,18.8,0,0,1-2.3-1.6,2.1,2.1,0,0,1-.8-1.7,2.4,2.4,0,0,1,.7-1.8,2.6,2.6,0,0,1,1.6-.7,2,2,0,0,1,1.6.6,2.4,2.4,0,0,1,.7,2H175a1.6,1.6,0,0,0-.4-1.3,1.2,1.2,0,0,0-1.6,0,1.6,1.6,0,0,0-.5,1.1,1.9,1.9,0,0,0,.7,1.2Z"/><path class="cls-17" d="M180.4,67.8V59.3h-1.9v-1h5v1h-2v8.5Z"/><path class="cls-16" d="M191.6,67.8h-1.1l2.4-9.5h1l2.4,9.5h-1.2l-.6-2.8h-2.2Zm1.8-6.9h-.1l-.7,3.2h1.6Z"/><path class="cls-16" d="M203.1,58.3v9.5h-1.4l-2.5-7.1h0v7.1H198V58.3h1.4l2.5,7.1h.1V58.3Z"/><path class="cls-16" d="M209.3,59.2c.8.7,1.1,2,1.1,3.9s-.3,3-1,3.7a3.5,3.5,0,0,1-2.4,1h-1.7V58.3H207A3.2,3.2,0,0,1,209.3,59.2ZM207,66.8a2.4,2.4,0,0,0,1.5-.6c.5-.5.7-1.6.7-3.1s-.2-2.7-.8-3.2a2,2,0,0,0-1.4-.6h-.6v7.5Z"/><path class="cls-16" d="M222,67.1a2.6,2.6,0,0,1-1.6.7,2.4,2.4,0,0,1-1.6-.7,5.2,5.2,0,0,1-1.2-3.8c0-2,.4-3.4,1.3-4.3a2.3,2.3,0,0,1,1.5-.7,2,2,0,0,1,1.5.6,3.1,3.1,0,0,1,.9,2.7h-1a2.9,2.9,0,0,0-.6-2.1c-.2-.2-.4-.2-.8-.2a.9.9,0,0,0-.7.3c-.7.6-1,1.8-1,3.6a4.9,4.9,0,0,0,.8,3.2,1.6,1.6,0,0,0,.9.3,1.3,1.3,0,0,0,.8-.3,3.9,3.9,0,0,0,.5-2.3h1.2A4.8,4.8,0,0,1,222,67.1Z"/><path class="cls-16" d="M230.1,63c0,2.1-.4,3.4-1.1,4.1a2.4,2.4,0,0,1-1.6.7,2.2,2.2,0,0,1-1.6-.7c-.7-.7-1.1-2-1.1-4.1s.4-3.3,1.1-4a1.9,1.9,0,0,1,1.6-.7,2,2,0,0,1,1.6.7C229.7,59.7,230.1,61,230.1,63Zm-4.3,0c0,1.9.2,3,.6,3.4a1.4,1.4,0,0,0,1,.4,1.2,1.2,0,0,0,.9-.4c.4-.4.7-1.5.7-3.4s-.3-2.9-.7-3.3a1.2,1.2,0,0,0-.9-.4,1.4,1.4,0,0,0-1,.4Q225.8,60.3,225.8,63Z"/><path class="cls-16" d="M236.1,59.2c.8.7,1.1,2,1.1,3.9s-.3,3-1,3.7a3.5,3.5,0,0,1-2.4,1h-1.7V58.3h1.7A3.2,3.2,0,0,1,236.1,59.2Zm-2.3,7.6a2.4,2.4,0,0,0,1.5-.6c.5-.5.7-1.6.7-3.1s-.2-2.7-.8-3.2a2,2,0,0,0-1.4-.6h-.6v7.5Z"/><path class="cls-16" d="M240.6,62.3h3.3v.9h-3.3v3.6h3.8v1h-4.9V58.3h4.7v1h-3.6Z"/><rect class="cls-18" x="86" y="50.5" width="160.4" height="2.2" transform="translate(332.3 103.3) rotate(180)"/><polygon class="cls-16" points="247.6 273.5 247.6 313.7 24.2 337.7 24.1 297.5 247.6 273.5"/><polygon class="cls-17" points="276.6 239.4 276.6 279.6 53.1 303.6 53.1 263.4 276.6 239.4"/><path class="cls-19" d="M119.8,275.2h7.4v2.1h-7.4v8.2h8.6v2.1H117.3V266.3h10.6v2h-8.1Z"/><path class="cls-19" d="M135.7,265.3l3.7,16.1h.2l3.8-16.1h2.5l-5.2,21.3h-2.4l-5.1-21.3Z"/><path class="cls-19" d="M153.8,273.2h7.4v2.1h-7.4v8.2h8.6v2.1H151.3V264.3h10.6v2h-8.1Z"/><path class="cls-19" d="M179.2,262.3v21.3h-3l-5.7-16h-.1v16h-2.6V262.3h3.1l5.7,15.9h.1V262.3Z"/><path class="cls-19" d="M188.2,282.6V263.3H184v-2h11.2v2h-4.5v19.3Z"/><path class="cls-19" d="M211.7,269.9c0,4.6-.8,7.7-2.5,9.3a4.9,4.9,0,0,1-3.6,1.4,5.3,5.3,0,0,1-3.7-1.4q-2.4-2.4-2.4-9.3c0-4.6.8-7.6,2.4-9.2a4.9,4.9,0,0,1,3.7-1.4,4.5,4.5,0,0,1,3.6,1.4C210.9,262.3,211.7,265.3,211.7,269.9Zm-9.7,0c0,4.1.5,6.7,1.5,7.6a2.7,2.7,0,0,0,4.2,0c1-.9,1.4-3.5,1.4-7.6s-.4-6.6-1.4-7.6a2.7,2.7,0,0,0-4.2,0C202.5,263.3,202,265.8,202,269.9Z"/><path class="cls-8" d="M107.6,322.5h1.2v2.4h-5v-2.4H105V306h-1.2v-2.4h5V306h-1.2Z"/><path class="cls-8" d="M140.4,311.2q0,6.9-2.4,9.3a5.6,5.6,0,0,1-7.4,0q-2.4-2.4-2.4-9.3c0-4.5.8-7.6,2.4-9.2a5.6,5.6,0,0,1,7.4,0C139.6,303.6,140.4,306.7,140.4,311.2Zm-9.7,0c0,4.1.5,6.7,1.5,7.6a2.7,2.7,0,0,0,4.2,0c1-.9,1.4-3.5,1.4-7.6s-.4-6.6-1.4-7.6a2.9,2.9,0,0,0-4.2,0C131.2,304.6,130.7,307.1,130.7,311.2Z"/><path class="cls-8" d="M160.9,318.9V299.7h-4.2v-2.1h11.2v2.1h-4.5v19.2Z"/></g></g></svg>