<svg xmlns="http://www.w3.org/2000/svg" xmlns:xlink="http://www.w3.org/1999/xlink" viewBox="0 0 276.6 337.7"><defs><style>.cls-1{fill:#e5b541;}.cls-2{fill:#9bc544;}.cls-3{fill:#4ba8de;}.cls-4{fill:#bb4d97;}.cls-5{fill:#e3bc50;}.cls-6{fill:#c05098;}.cls-7{fill:#4eb1e5;}.cls-8{fill:#94bb42;}.cls-9{fill:#ebbf44;}.cls-10{fill:#bf5199;}.cls-11{fill:#be5098;}.cls-12{fill:url(#Degradado_sin_nombre_6);}.cls-13{fill:url(#Degradado_sin_nombre_6-2);}.cls-14{fill:url(#Degradado_sin_nombre_3);}.cls-15{fill:url(#Degradado_sin_nombre_4);}.cls-16{fill:url(#Degradado_sin_nombre_5);}.cls-17{fill:#822684;}.cls-18{fill:#fab51e;}.cls-19{fill:url(#Degradado_sin_nombre_6-3);}.cls-20{fill:#1d1d1b;}.cls-21{fill:#fff;}</style><linearGradient id="Degradado_sin_nombre_6" x1="10.64" y1="81.13" x2="69.69" y2="29.39" gradientTransform="matrix(1, 0, 0, -1, 0, 95.31)" gradientUnits="userSpaceOnUse"><stop offset="0.24" stop-color="#e2a052"/><stop offset="0.42" stop-color="#9a6069"/><stop offset="0.56" stop-color="#6c3778"/><stop offset="0.62" stop-color="#59267a"/></linearGradient><linearGradient id="Degradado_sin_nombre_6-2" x1="26.8" y1="73.83" x2="50.99" y2="45.66" xlink:href="#Degradado_sin_nombre_6"/><linearGradient id="Degradado_sin_nombre_3" x1="25.55" y1="69.75" x2="40.09" y2="55.51" gradientTransform="matrix(1, 0, 0, -1, 0, 95.31)" gradientUnits="userSpaceOnUse"><stop offset="0.37" stop-color="#e2a052"/><stop offset="0.41" stop-color="#d59456"/><stop offset="0.67" stop-color="#7d4672"/><stop offset="0.79" stop-color="#59267a"/></linearGradient><linearGradient id="Degradado_sin_nombre_4" x1="27.82" y1="55.8" x2="54.44" y2="37.64" gradientTransform="matrix(1, 0, 0, -1, 0, 95.31)" gradientUnits="userSpaceOnUse"><stop offset="0.22" stop-color="#e2a052"/><stop offset="0.3" stop-color="#be815d"/><stop offset="0.42" stop-color="#945a6b"/><stop offset="0.52" stop-color="#743e75"/><stop offset="0.61" stop-color="#612c7a"/><stop offset="0.67" stop-color="#59267a"/></linearGradient><linearGradient id="Degradado_sin_nombre_5" x1="36.82" y1="53.15" x2="53.85" y2="43.54" gradientTransform="matrix(1, 0, 0, -1, 0, 95.31)" gradientUnits="userSpaceOnUse"><stop offset="0.27" stop-color="#e2a052"/><stop offset="0.33" stop-color="#be815d"/><stop offset="0.41" stop-color="#945a6b"/><stop offset="0.49" stop-color="#743e75"/><stop offset="0.55" stop-color="#612c7a"/><stop offset="0.59" stop-color="#59267a"/></linearGradient><linearGradient id="Degradado_sin_nombre_6-3" x1="-738.73" y1="51.63" x2="-578.32" y2="51.63" gradientTransform="matrix(1, 0, 0, -1, 824.68, 103.27)" xlink:href="#Degradado_sin_nombre_6"/></defs><title>events_challenge</title><g id="Capa_2" data-name="Capa 2"><g id="events_challenge"><path class="cls-1" d="M220.6,139.8c1-1.5.8-2.8-.6-3.7a7.2,7.2,0,0,1-3-2.7c-.7-1.4-.4-2.9,1.4-4.4s2.1-1.5,2.7-1.5,2.5,1,2.7,2.1a4.8,4.8,0,0,0,.6,3.1c.7,1.1,1.7,1.1,3.1,0l7.4-8.7c.3-1,.3-2.1-1.2-3.7l-2-1.9a1.8,1.8,0,0,0-2.1,0,2.6,2.6,0,0,0-1,2.4c-.1,1-1.3,1.3-3.1,1.2a3.6,3.6,0,0,1-2.6-2.2,9,9,0,0,1-.6-5.2,2.6,2.6,0,0,0,2.7-.7l.7-2.7c-.1-1.2-2.5-3.5-6.6-6.9a3.3,3.3,0,0,0-3.3.2,13.4,13.4,0,0,0-3.4,4.3,3.4,3.4,0,0,1-2.7,1.1c-.4-.1-.8-.6-1.2-1.3a11.3,11.3,0,0,1-.1-2.6c.1-1.8-.5-2.7-1.7-3.2s-3.6.1-5.3,1.1-1.5,2.6-1.9,4.3a3.8,3.8,0,0,0,1.4,3.6,4.5,4.5,0,0,0,3.1.8c.5,0,1,.2,1.1.6a3.2,3.2,0,0,1,.2,2.1c-.7,1.7-2.8,4.2-5.7,7.1a2.1,2.1,0,0,0,.2,2.6l4.3,4.8c.8.9,1.4.6,1.8-.6a9.2,9.2,0,0,1,.8-2.9,3.1,3.1,0,0,1,4-.5,12.7,12.7,0,0,1,2.4,2,4.6,4.6,0,0,1,.7,3.5,3,3,0,0,1-.8,1.7,2,2,0,0,1-1.7.9,2.8,2.8,0,0,1-1.5-.8c-.2-.3-.6-.3-1.1.1a1.1,1.1,0,0,0-.5.9,8.1,8.1,0,0,0,1.4,3.1,18.4,18.4,0,0,0,5,4.7,2.6,2.6,0,0,0,2.9.1A11.6,11.6,0,0,0,220.6,139.8Z"/><path class="cls-2" d="M208.5,120.9a1.4,1.4,0,0,0-.4-2.1,4.4,4.4,0,0,1-1.7-1.6c-.4-.8-.2-1.6.8-2.5s1.2-.9,1.6-.9,1.4.6,1.6,1.2a2.5,2.5,0,0,0,.3,1.8q.6,1,1.8,0l4.3-5.1c.2-.5.2-1.2-.7-2.1l-1.2-1.1a1.1,1.1,0,0,0-1.2,0,1.3,1.3,0,0,0-.5,1.4c-.1.6-.8.7-1.8.7a2.3,2.3,0,0,1-1.6-1.3,4.9,4.9,0,0,1-.3-3.1,1.2,1.2,0,0,0,1.5-.4l.5-1.5c-.1-.7-1.5-2.1-3.9-4a1.7,1.7,0,0,0-1.9.1,7.8,7.8,0,0,0-2,2.5,2,2,0,0,1-1.6.6l-.7-.7a4.3,4.3,0,0,1,0-1.6c0-1-.3-1.5-1-1.8a3.5,3.5,0,0,0-3.1.6c-.8.5-.9,1.6-1.1,2.5a2.1,2.1,0,0,0,.8,2.1,2.3,2.3,0,0,0,1.8.5.8.8,0,0,1,.7.3,3.1,3.1,0,0,1,.1,1.3,18.1,18.1,0,0,1-3.3,4.1c-.3.4-.4.8.1,1.5l2.5,2.8c.5.6.8.4,1-.3a3.8,3.8,0,0,1,.5-1.7,1.7,1.7,0,0,1,2.3-.3,8.7,8.7,0,0,1,1.4,1.2,2.4,2.4,0,0,1,.4,2,3,3,0,0,1-.4,1,1.4,1.4,0,0,1-1,.5,1.3,1.3,0,0,1-.9-.5c-.1-.1-.4-.1-.7.1s-.2.4-.3.5a4.3,4.3,0,0,0,.9,1.8,9.6,9.6,0,0,0,2.9,2.8,1.7,1.7,0,0,0,1.7.1A6.2,6.2,0,0,0,208.5,120.9Z"/><path class="cls-3" d="M151.1,124.5a11.3,11.3,0,0,1-2.4-3.8l-2.5-3.2L145,117a4.8,4.8,0,0,0-1.7,1.1,15,15,0,0,0-.6,2.9c-.2,1.9-1.1,2.8-2.6,3s-4.1-1-5.9-2.5-1.4-3.3-1.5-5.2a3.9,3.9,0,0,1,2.2-3.6,6.2,6.2,0,0,1,3.8,0c.7.1,1.2.1,1.5-.3a3.2,3.2,0,0,0,.6-2.3,19,19,0,0,0-2-4.2,3.3,3.3,0,0,1-1.1-.8,31.8,31.8,0,0,1-1.6-3.2,6.1,6.1,0,0,0-.7-1,1.9,1.9,0,0,1,.4-2.4l.3-.4,5.9-4c1.2-.8,1.8-.4,2,1a8.8,8.8,0,0,0,.4,3.4,4,4,0,0,0,4.6,1.6,15.9,15.9,0,0,0,3.2-1.6,2.7,2.7,0,0,0,.8-1,5.9,5.9,0,0,0,.6-2.6,4.1,4.1,0,0,0-.5-2.1,2.8,2.8,0,0,0-1.9-1.3,2.6,2.6,0,0,0-1.9.5c-.3.2-.8.1-1.3-.5a1.1,1.1,0,0,1-.4-1.1c.1-.8,1.1-1.9,2.2-3a18.5,18.5,0,0,1,6-3.5l1.1-.9c1.5-.7,2.3-.4,2.9.3s.7,1.2,1.1,1.7a24,24,0,0,1,2.2,2.4,5.6,5.6,0,0,1,.4,1.2,17.9,17.9,0,0,0,3.1,3.1,2.8,2.8,0,0,0,2.3.2c.5-.1.7-.6.8-1.3A6.8,6.8,0,0,1,171,87a4,4,0,0,1,4.2-.9c1.7.8,3.6,1.4,4.3,3.3s1.3,4.4.4,6.5-1.9,1.9-3.8,1.4a13.5,13.5,0,0,0-2.9-.4,3.9,3.9,0,0,0-1.5,1.2,3.8,3.8,0,0,0,0,1.5l2,3.2a11.2,11.2,0,0,1,2.8,3.8,2.8,2.8,0,0,1,.3,1.3l.2.3c.3,1.2,0,2.4-2,3.8l-.3.2-2.4,1.3a2.3,2.3,0,0,1-2.5-.6,2.7,2.7,0,0,1-.7-2.8c.1-1.1-1.3-1.7-3.4-2.1a4.1,4.1,0,0,0-3.5,1.7,20,20,0,0,0-1,2.1,6.2,6.2,0,0,0-.6,3.4,3.4,3.4,0,0,1,3,1.5l.4,3c-.4,1.1-2.6,2.6-6.4,4.5l-.9.9c-2,1.4-3.2,1.2-4.2.6Z"/><path class="cls-4" d="M120.5,89.6c-.9,1.9-.5,3.2,1.2,3.8a7.3,7.3,0,0,1,3.9,2c1.2,1.4,1,3-.8,5s-2.2,2.1-3,2.3-3-.4-3.4-1.5a5.5,5.5,0,0,0-1.2-3.2c-1-.9-2.2-.7-3.6.9L106.4,110c-.2,1.1,0,2.3,2,3.6l2.7,1.5a2.2,2.2,0,0,0,2.4-.6,2.5,2.5,0,0,0,.7-2.7c0-1.1,1.4-1.7,3.4-2.2a4.4,4.4,0,0,1,3.5,1.7,9.3,9.3,0,0,1,1.5,5.4,3.5,3.5,0,0,0-3,1.4l-.4,3c.4,1.3,3.5,3.2,8.9,5.6a4.2,4.2,0,0,0,3.8-1,16.7,16.7,0,0,0,3.2-5.4,4.4,4.4,0,0,1,2.9-1.9,3.7,3.7,0,0,1,1.7,1.1,8.6,8.6,0,0,1,.5,2.7c.2,1.9,1.1,2.8,2.6,3s4.1-1,5.9-2.5,1.3-3.2,1.5-5.1a3.5,3.5,0,0,0-2.2-3.4,5.2,5.2,0,0,0-3.7-.1q-1.1.3-1.5-.3a3.2,3.2,0,0,1-.5-2.2c.5-2,2.6-5.2,5.4-9,.4-.7.5-1.5-.7-2.6l-5.8-4c-1.1-.8-1.7-.3-1.9,1.1a9.8,9.8,0,0,1-.5,3.2c-.9,1.3-2.1,2.2-4.6,1.6l-3.1-1.5a4.4,4.4,0,0,1-1.3-3.5,4.1,4.1,0,0,1,.5-2.1,3.1,3.1,0,0,1,1.9-1.3,2.7,2.7,0,0,1,1.8.5c.4.2.8.1,1.4-.5a1.2,1.2,0,0,0,.4-1c-.1-.9-1.1-1.9-2.1-3a19.5,19.5,0,0,0-6.6-3.6,3.6,3.6,0,0,0-3.5.5A18.6,18.6,0,0,0,120.5,89.6Z"/><path class="cls-1" d="M163.3,134.5c.9-.8.9-1.6.1-2.3a3.9,3.9,0,0,1-1.7-1.9c-.4-.9,0-1.8,1.4-2.5s1.6-.8,2.1-.7,1.6.8,1.6,1.5a3.4,3.4,0,0,0,0,2c.4.7,1.1.8,2.2.3l6.1-4.7c.4-.6.5-1.3-.3-2.4l-1.2-1.3a1.4,1.4,0,0,0-1.5-.2,1.5,1.5,0,0,0-.9,1.3c-.2.7-1.1.7-2.3.5a2.4,2.4,0,0,1-1.5-1.6,4.6,4.6,0,0,1,.2-3.3,1.8,1.8,0,0,0,1.9-.1l.9-1.6c0-.8-1.3-2.4-3.8-4.9a2.6,2.6,0,0,0-2.3-.1,8.8,8.8,0,0,0-2.8,2.3,2.6,2.6,0,0,1-2,.4c-.3-.1-.5-.5-.7-.9a7.8,7.8,0,0,1,.2-1.6,1.7,1.7,0,0,0-.7-2.2,5,5,0,0,0-3.8.2c-1,.4-1.4,1.5-1.9,2.5a2,2,0,0,0,.5,2.3,3.6,3.6,0,0,0,2.1.8c.4.1.7.2.7.4a2.1,2.1,0,0,1-.1,1.4,20.1,20.1,0,0,1-4.8,3.8c-.4.3-.6.8-.2,1.6l2.4,3.3c.5.7.9.6,1.3-.1a4.5,4.5,0,0,1,.9-1.7,2.2,2.2,0,0,1,2.8,0,10.6,10.6,0,0,1,1.5,1.5,2.7,2.7,0,0,1,0,2.2,3.6,3.6,0,0,1-.7,1,1.7,1.7,0,0,1-1.4.3l-.9-.6c-.1-.2-.4-.2-.8,0a.5.5,0,0,0-.4.5,4.5,4.5,0,0,0,.5,2,14,14,0,0,0,2.9,3.4,2.3,2.3,0,0,0,2.1.4A10.1,10.1,0,0,0,163.3,134.5Z"/><path class="cls-5" d="M89.8,237.8c-.3-.1-.5,0-.5.3a.8.8,0,0,1-.2.7c-.1.2-.4.3-.8.1l-.5-.4a.6.6,0,0,1,.1-.6l.5-.3c.1-.2,0-.4-.3-.5l-2.1-.7c-.2,0-.3.1-.4.5l-.2.5c0,.2.1.3.2.3a.4.4,0,0,0,.5,0c.2,0,.3.2.5.5a1.3,1.3,0,0,1-.1.6l-.8.5a.7.7,0,0,0-.4-.5h-.4c-.2.1-.4.7-.5,1.6a.7.7,0,0,0,.3.6l1,.3a.5.5,0,0,1,.4.3.4.4,0,0,1-.1.3l-.4.2a.5.5,0,0,0-.4.6,1.8,1.8,0,0,0,.7.8h.8c.3-.1.5-.3.5-.5a1.4,1.4,0,0,0-.2-.6v-.2l.3-.2a5.1,5.1,0,0,1,1.7.5c.1,0,.2,0,.4-.3l.3-1c.1-.2,0-.3-.2-.3h-.6a.7.7,0,0,1-.4-.7,4.3,4.3,0,0,1,.1-.5.7.7,0,0,1,.5-.4h.3c.2.1.3.1.3.3a.2.2,0,0,1,0,.3l.2.2H90a1,1,0,0,0,.4-.5,2.7,2.7,0,0,0,.3-1.2.5.5,0,0,0-.3-.5Z"/><path class="cls-6" d="M95.6,231c-.3-.4-.6-.5-.9-.2a1.6,1.6,0,0,1-.8.6c-.4.1-.7-.1-.9-.7a1.7,1.7,0,0,1-.2-.8c.2-.5.4-.6.7-.6a1.2,1.2,0,0,0,.8.1c.3-.1.3-.4.2-.8L93,225.9a1.1,1.1,0,0,0-1,0l-.5.4a.7.7,0,0,0-.2.6.7.7,0,0,0,.5.4c.2.1.2.5.1.9a1.2,1.2,0,0,1-.8.6,2.1,2.1,0,0,1-1.2-.3c.1-.3.2-.6,0-.8l-.5-.4a5.1,5.1,0,0,0-2.1,1.2.8.8,0,0,0-.2.9c0,.4.4.8.7,1.2a1.1,1.1,0,0,1,.1.8l-.4.3-.6-.2a.6.6,0,0,0-.9.2,1.6,1.6,0,0,0-.1,1.5c.1.4.5.6.8.8a.9.9,0,0,0,1-.1c.2-.1.3-.4.4-.7s.1-.3.2-.3h.5a9,9,0,0,1,1.2,2.1c.1.2.3.3.7.2l1.4-.8c.3-.1.2-.3,0-.5a1.5,1.5,0,0,1-.6-.4.9.9,0,0,1,.1-1.1l.7-.5a.8.8,0,0,1,.8.1l.4.3a1.3,1.3,0,0,1,.1.6l-.3.3c-.1,0-.2.1-.1.3s.1.2.2.2a1.2,1.2,0,0,0,.8-.1,5.6,5.6,0,0,0,1.5-1,.6.6,0,0,0,.2-.7A1.7,1.7,0,0,0,95.6,231Z"/><path class="cls-7" d="M101.7,216.8a2.5,2.5,0,0,1,.3,1.3l.4,1.2.3.2h.6l.5-.8a.8.8,0,0,1,1-.6,2.5,2.5,0,0,1,1.4,1.3,1.8,1.8,0,0,1-.1,1.6,1.1,1.1,0,0,1-1,.8,1.9,1.9,0,0,1-1-.3c-.2-.1-.4-.2-.5-.1s-.4.4-.4.6a4.2,4.2,0,0,0,.2,1.4l.2.3a3.7,3.7,0,0,1,.1,1.1.4.4,0,0,1,.1.3c.1.3,0,.5-.3.7h-.1l-2.1.6c-.4.1-.5-.1-.5-.5s.3-.7.2-1a1.1,1.1,0,0,0-1.1-.9h-1l-.4.2a4.3,4.3,0,0,0-.4.7,1.5,1.5,0,0,0-.1.7.8.8,0,0,0,.5.5H99a.4.4,0,0,1,.4.2v.4l-.9.6a5.6,5.6,0,0,1-2.1.4H96c-.5.1-.7-.1-.8-.3s-.1-.4-.1-.6a3.6,3.6,0,0,1-.4-.9v-.4a3.6,3.6,0,0,0-.6-1.1.6.6,0,0,0-.6-.3c-.2-.1-.3.1-.4.3a1.4,1.4,0,0,1-.7.8,1.2,1.2,0,0,1-1.3-.1,2.6,2.6,0,0,1-.9-1.4,2.6,2.6,0,0,1,.6-1.9q.5-.5,1.2,0l.8.4.5-.2.2-.4-.3-1.1a4.6,4.6,0,0,1-.4-1.3v-.6c0-.3.2-.6.9-.8h.2l.8-.2a.7.7,0,0,1,.6.4,1,1,0,0,1-.1.9c-.1.3.2.6.8.9a.9.9,0,0,0,1.1-.1l.5-.5a1.4,1.4,0,0,0,.5-.9,1.6,1.6,0,0,1-.7-.7l.2-.9c.2-.3,1-.5,2.3-.7h.3c.7-.2,1,0,1.2.2Z"/><path class="cls-8" d="M119.3,209.7q-1-1.3-2.1-.3a4.4,4.4,0,0,1-1.9,1.5c-.9.2-1.7-.3-2.3-1.6a4.8,4.8,0,0,1-.4-2c.4-1,.9-1.3,1.5-1.3a2.9,2.9,0,0,0,1.8.1c.7-.3.9-.9.5-2l-3.8-6c-.5-.4-1.1-.6-2.3.1l-1.3,1a1.3,1.3,0,0,0-.3,1.3,1.8,1.8,0,0,0,1.2,1c.6.2.5,1,.3,2.1a2.3,2.3,0,0,1-1.6,1.3,5.9,5.9,0,0,1-3.1-.4c.3-.7.4-1.4,0-1.8l-1.3-1c-.7,0-2.4,1-4.8,3.1a2.2,2.2,0,0,0-.4,2.1,11.8,11.8,0,0,0,1.9,2.9,2.2,2.2,0,0,1,.2,1.8,1.8,1.8,0,0,1-.8.6l-1.5-.4a1.6,1.6,0,0,0-2.1.6c-.6,1-.4,2.2-.1,3.5s1.2,1.4,2.1,1.9a2.1,2.1,0,0,0,2.2-.3,2.8,2.8,0,0,0,.9-1.8c.1-.4.2-.6.5-.6a1.5,1.5,0,0,1,1.2.2c.9.7,1.9,2.5,3.1,4.7.3.4.7.6,1.5.3l3.3-1.9c.6-.4.5-.8-.1-1.2a5.6,5.6,0,0,1-1.5-1,2.2,2.2,0,0,1,.3-2.6,7.9,7.9,0,0,1,1.5-1.2,2.5,2.5,0,0,1,2,.2,2,2,0,0,1,.9.7,1.9,1.9,0,0,1,.2,1.3,1.6,1.6,0,0,1-.7.7,1,1,0,0,0-.1.8,1.2,1.2,0,0,0,.5.5,5.8,5.8,0,0,0,1.9-.4,10,10,0,0,0,3.3-2.4,1.8,1.8,0,0,0,.5-1.8A7.8,7.8,0,0,0,119.3,209.7Z"/><path class="cls-3" d="M128,191.6a7.7,7.7,0,0,1,.6,2.6l.8,2.4.6.5a1.8,1.8,0,0,0,1.2-.2,8.6,8.6,0,0,0,1-1.6,1.9,1.9,0,0,1,2.1-1.3,6,6,0,0,1,3,2.7c.5,1.1.1,2.2-.2,3.4a2.4,2.4,0,0,1-2.1,1.6,3.2,3.2,0,0,1-2.2-.7c-.4-.2-.7-.3-.9-.1a1.7,1.7,0,0,0-.8,1.2,7.8,7.8,0,0,0,.3,2.8,4.3,4.3,0,0,1,.4.7,7.8,7.8,0,0,1,.3,2.2c.1.2.1.5.2.7a1.2,1.2,0,0,1-.7,1.4h-.3l-4.2,1.2c-.9.2-1.1-.2-1-1.1s.6-1.5.4-2a2.3,2.3,0,0,0-2.3-1.9l-2.2.3-.6.4a2.8,2.8,0,0,0-.9,1.4,1.7,1.7,0,0,0-.1,1.4,1.3,1.3,0,0,0,.8,1.1,1.7,1.7,0,0,0,1.2.1c.2,0,.5.1.7.6a.8.8,0,0,1,0,.7,4.8,4.8,0,0,1-1.9,1.3,13.5,13.5,0,0,1-4.2.8l-.9.3c-1,.1-1.4-.2-1.6-.8l-.3-1.2a7.1,7.1,0,0,1-.8-1.8,1.1,1.1,0,0,1,0-.8,8.8,8.8,0,0,0-1.2-2.4,2,2,0,0,0-1.3-.6c-.3-.1-.5.2-.7.6a4.5,4.5,0,0,1-1.5,1.8,2.5,2.5,0,0,1-2.6-.3c-.9-.8-1.9-1.6-1.9-2.8a4.8,4.8,0,0,1,1.1-3.9,1.8,1.8,0,0,1,2.5-.1,4.8,4.8,0,0,0,1.6.8,2.1,2.1,0,0,0,1.2-.3l.3-.9-.6-2.3a9,9,0,0,1-.9-2.8c0-.2.1-.5.1-.8v-.2c.1-.8.5-1.4,1.9-1.8h.3l1.6-.2a1.4,1.4,0,0,1,1.4.8,2,2,0,0,1-.2,1.8c-.3.6.4,1.3,1.5,1.9a2.3,2.3,0,0,0,2.4-.3,5.2,5.2,0,0,0,1.1-1,3.9,3.9,0,0,0,1-1.9c-.8-.3-1.3-.7-1.4-1.4l.3-1.9c.5-.6,2.1-1,4.7-1.3l.7-.3c1.4-.5,2.1-.1,2.6.5Z"/><path class="cls-9" d="M144.6,179.8c-1.3-2.7-3.2-3.4-5.4-1.9a10.9,10.9,0,0,1-5.9,2.7c-2.6.1-4.3-1.6-5-5.5s-.5-4.4,0-5.4,3.2-3.1,4.9-2.7,3.3,1.7,4.6,1.5,2.8-1.9,2.3-4.9l-6.4-18.2c-1.1-1.3-2.6-2.1-5.9-1.1l-4.1,1.9a3.3,3.3,0,0,0-1.6,3.3c.1,1.2.7,2.3,2.6,3.3s.7,3-.7,5.8-2.8,2.6-4.9,2.5-6-1.4-7.7-3.1c1.2-1.6,1.7-3.2,1.1-4.7l-3.1-3.2c-1.8-.7-6.8,1.2-14.4,5.2-1.7,1.2-2.2,3.1-2.2,5.4s1.5,5.3,3.3,8.5a6.7,6.7,0,0,1-.5,5.1,6.5,6.5,0,0,1-2.6.9,13.3,13.3,0,0,1-3.8-1.8c-2.3-1.5-4.1-1.3-5.7.2s-2.5,5.7-2.4,9.1,2.5,4.5,4.5,6.3,4.2,1.6,6,.6a8.9,8.9,0,0,0,3.4-4.3c.4-.9.9-1.4,1.6-1.4s2.6.6,3.1,1.3c1.8,2.4,3.6,7.7,5.5,14.4.4,1.2,1.4,2,3.7,1.6l9.7-3.1c1.9-.6,2-1.7.6-3.3s-2.9-2.2-3.4-3.4-.6-4.4,2.3-6.7a32.1,32.1,0,0,1,4.5-2.3c1.5-.3,3.3.2,5.3,1.7a4.8,4.8,0,0,1,1.8,2.4,4,4,0,0,1-.1,3.4,4.6,4.6,0,0,1-2.2,1.7c-.5.2-.9.8-.7,2a2.4,2.4,0,0,0,.8,1.4c1.2.6,3.2.4,5.3.2a28.7,28.7,0,0,0,10.2-4.4,5.1,5.1,0,0,0,2.5-4.5A27.6,27.6,0,0,0,144.6,179.8Z"/><path class="cls-3" d="M108.9,148.3a11.5,11.5,0,0,1-3.2,3.7l-2.7,3.7a3.7,3.7,0,0,0-.1,1.5c.2.5.9.9,1.6,1.4a12,12,0,0,0,3.3-.2c2.1-.4,3.4.3,4.1,1.8s.2,4.8-.9,7.2-3.1,2.5-5.1,3.2a4.6,4.6,0,0,1-4.6-1.3,7.4,7.4,0,0,1-1.2-4.1c-.1-.7-.3-1.3-.8-1.4a3.8,3.8,0,0,0-2.6,0,15.7,15.7,0,0,0-3.8,3.4,5.8,5.8,0,0,1-.6,1.5l-2.9,2.6-.9,1.1a2,2,0,0,1-2.7.4l-.5-.2-6.2-5.1c-1.2-1-.9-1.8.5-2.5a9.5,9.5,0,0,0,3.5-1.5c1.1-1.4,1.7-2.9.3-5.4a20.3,20.3,0,0,0-2.7-3l-1.3-.5a8.1,8.1,0,0,0-3,.2,4.5,4.5,0,0,0-2.1,1.2,3.2,3.2,0,0,0-.8,2.5,2.9,2.9,0,0,0,1.1,1.8c.3.3.4.8-.1,1.6a1.3,1.3,0,0,1-1,.7c-1,.1-2.5-.6-4-1.4a21.9,21.9,0,0,1-5.6-5.3l-1.3-1c-1.2-1.4-1.1-2.3-.5-3.2a20.9,20.9,0,0,0,1.4-1.7,23.2,23.2,0,0,1,1.9-3.1,5.9,5.9,0,0,1,1.1-.8,14.7,14.7,0,0,0,2.4-4.3c.3-.6,0-1.5-.5-2.5s-.8-.6-1.6-.5a6.3,6.3,0,0,1-4.3-.3,4.2,4.2,0,0,1-2.2-4.1c.3-2.1.4-4.4,2.1-5.7s4.4-2.8,6.9-2.5a3.3,3.3,0,0,1,2.7,3.6,12.6,12.6,0,0,0,.5,3.3,5.1,5.1,0,0,0,1.8,1.3,5.3,5.3,0,0,0,1.5-.5l2.9-3.1a14,14,0,0,1,3.1-4.3l1.3-.7.3-.3c1.2-.6,2.6-.8,4.7,1l.3.3,2.2,2.2a2.4,2.4,0,0,1,.1,2.8,3,3,0,0,1-2.8,1.6c-1.2.2-1.5,1.9-1.2,4.3a4.5,4.5,0,0,0,2.9,3.2,13.2,13.2,0,0,0,2.6.5,8.1,8.1,0,0,0,3.9-.4c-.4-1.5-.3-2.8.6-3.7l3.1-1.4c1.3.1,3.6,2,6.9,5.5l1.1.7c2.2,1.7,2.3,3,2,4.3Z"/><path class="cls-3" d="M144.7,159.3a15.5,15.5,0,0,1-4-.9l-3.7-.5-1.1.5a3,3,0,0,0-.4,1.8,17.6,17.6,0,0,0,1.4,2.3c1.2,1.4,1.2,2.6.4,3.7s-3.4,2-5.6,2.2-3.1-1.3-4.4-2.4a3.7,3.7,0,0,1-.9-3.9,6.7,6.7,0,0,1,2.5-2.5c.5-.3.8-.7.7-1.1a3.4,3.4,0,0,0-1-1.9,15.5,15.5,0,0,0-4.1-1.5l-1.2.2a19.7,19.7,0,0,1-3.2-1l-1.1-.2a1.7,1.7,0,0,1-1.3-1.9.6.6,0,0,1-.1-.4l1.3-6.5c.2-1.3.9-1.4,2-.6a8.7,8.7,0,0,0,2.5,1.9,3.6,3.6,0,0,0,4-2,29.6,29.6,0,0,0,1.1-3.1,5,5,0,0,0-.2-1.2,6.3,6.3,0,0,0-1.3-2.1,3,3,0,0,0-1.7-1,2.8,2.8,0,0,0-2.2.3,3.5,3.5,0,0,0-.8,1.6c-.1.3-.5.6-1.2.6s-.8-.2-1-.5-.5-2-.6-3.4a19.5,19.5,0,0,1,1.7-6.2l.2-1.4c.5-1.4,1.2-1.7,2.1-1.6l1.8.3h3.1l1,.5a13.8,13.8,0,0,0,4,.1c.6-.1,1.1-.6,1.7-1.4s0-.9-.4-1.4a5.1,5.1,0,0,1-1.4-3.2,3.4,3.4,0,0,1,2.1-3.3c1.6-.6,3.3-1.5,5-.7a8.1,8.1,0,0,1,4.5,4,2.7,2.7,0,0,1-1.5,3.4,11.2,11.2,0,0,0-2.2,1.6,3.3,3.3,0,0,0-.2,1.9l.9.9,3.4.8a13.3,13.3,0,0,1,4.4.6l1,.7h.4c.9.6,1.6,1.5,1.2,3.8v.3l-.8,2.4a2,2,0,0,1-1.9,1.3,2.6,2.6,0,0,1-2.3-1.4c-.7-.8-2-.3-3.7.8a4,4,0,0,0-1.2,3.4,10.2,10.2,0,0,0,.8,2.1,5.9,5.9,0,0,0,1.8,2.7c1-.9,1.9-1.4,2.9-1.1l2.3,1.8c.5.9,0,3.4-1.2,7.1V156c-.3,2.2-1.3,2.9-2.3,3.1Z"/><path class="cls-10" d="M125,173c.2,2.6,1.5,3.8,3.8,3.3a8.7,8.7,0,0,1,5.7-.3c2.2.7,3,2.6,2.4,6.1s-1,3.8-1.8,4.4-3.6,1.6-4.8.7a6.6,6.6,0,0,0-3.4-2.8c-1.7-.3-2.9.8-3.5,3.4l-.6,17.1c.5,1.4,1.6,2.6,4.6,2.7l4-.2a3,3,0,0,0,2.3-2.2,3.7,3.7,0,0,0-1-3.6c-.8-1.1.3-2.7,2.4-4.6a5.6,5.6,0,0,1,4.9-.4c2.5,1.4,4.5,3,5.3,5-1.5.9-2.5,2.1-2.4,3.5l1.4,3.6c1.3,1.1,6,1.2,13.6.4,1.7-.5,2.8-1.9,3.6-3.8s.4-4.9-.1-8.1a5.9,5.9,0,0,1,2.1-4,5.4,5.4,0,0,1,2.5.1,12.2,12.2,0,0,1,2.4,2.7c1.5,2,3,2.4,4.8,1.6s3.9-3.8,4.9-6.7-.6-4.5-1.6-6.7-3-2.6-4.8-2.3a7.3,7.3,0,0,0-4.1,2.4c-.7.6-1.3.9-1.8.6a4.1,4.1,0,0,1-2.1-2c-.8-2.6-.6-7.5.1-13.6,0-1.1-.5-2.1-2.5-2.6l-9.1-.5c-1.7-.1-2.1.8-1.5,2.5s1.7,2.8,1.7,4-1,3.7-4.1,4.7a17.5,17.5,0,0,1-4.4.4c-1.3-.2-2.6-1.1-3.8-3a3.9,3.9,0,0,1-.7-2.6,3.1,3.1,0,0,1,3.5-3.4c.5,0,1-.4,1.2-1.4a2.3,2.3,0,0,0-.2-1.5c-.8-.8-2.5-1.3-4.3-1.8a26.6,26.6,0,0,0-9.8.3,4.4,4.4,0,0,0-3.4,3A21.9,21.9,0,0,0,125,173Z"/><path class="cls-2" d="M122.8,121c-1-2-2.4-2.5-4-1.4a7.5,7.5,0,0,1-4.4,1.9c-1.8.1-3.1-1.1-3.6-4s-.4-3.2,0-4,2.3-2.2,3.5-1.9a5.9,5.9,0,0,0,3.5,1.1c1.4-.3,2.1-1.5,1.7-3.7l-4.7-13.4c-.9-.9-2-1.5-4.4-.7l-3,1.3a2.4,2.4,0,0,0-1.2,2.5,3,3,0,0,0,1.9,2.4c1,.6.6,2.2-.5,4.3a4.3,4.3,0,0,1-3.7,1.8c-2.4-.4-4.4-1-5.6-2.3.9-1.2,1.3-2.3.8-3.5l-2.2-2.3c-1.4-.5-5,.9-10.7,3.8a4.6,4.6,0,0,0-1.6,4c.1,1.7,1.1,3.9,2.5,6.3a5.5,5.5,0,0,1-.4,3.7,3.4,3.4,0,0,1-2,.7,11.3,11.3,0,0,1-2.7-1.3c-1.7-1.1-3.1-1-4.2.1s-1.9,4.2-1.8,6.7,1.8,3.3,3.3,4.7a3.8,3.8,0,0,0,4.4.4,6.5,6.5,0,0,0,2.5-3.1c.3-.7.7-1.1,1.2-1.1a3.8,3.8,0,0,1,2.3,1c1.3,1.8,2.7,5.7,4,10.6.4.8,1,1.4,2.7,1.2l7.2-2.3c1.4-.5,1.5-1.3.4-2.4s-2.1-1.7-2.4-2.6-.5-3.2,1.7-4.9a17.3,17.3,0,0,1,3.3-1.7,5.1,5.1,0,0,1,3.9,1.2,4.3,4.3,0,0,1,1.3,1.9,3.1,3.1,0,0,1-.1,2.5,3.3,3.3,0,0,1-1.6,1.2c-.4.1-.6.6-.5,1.4a1.5,1.5,0,0,0,.6,1.1,8.1,8.1,0,0,0,3.9.1,21.3,21.3,0,0,0,7.5-3.2,3.8,3.8,0,0,0,1.8-3.3A18.6,18.6,0,0,0,122.8,121Z"/><path class="cls-2" d="M190.7,142.6c-.9-1.5-2-1.8-3.2-.8a6,6,0,0,1-3.2,1.9c-1.4.2-2.5-.7-3.1-2.8a6.1,6.1,0,0,1-.3-3.1c.7-1.5,1.6-1.9,2.6-1.8a4.2,4.2,0,0,0,2.7.6c1.1-.3,1.5-1.3,1-3l-4.6-9.9c-.7-.7-1.7-1-3.5-.2l-2.2,1.2a2.1,2.1,0,0,0-.7,2,2.1,2.1,0,0,0,1.6,1.7c.9.4.7,1.7,0,3.4a3.2,3.2,0,0,1-2.6,1.6,7.8,7.8,0,0,1-4.6-1.2,2.9,2.9,0,0,0,.4-2.8l-1.9-1.6c-1.1-.3-3.8,1-7.9,3.8a3.4,3.4,0,0,0-1,3.1,13.9,13.9,0,0,0,2.4,4.7,3.6,3.6,0,0,1,0,2.9,3,3,0,0,1-1.4.7,8.5,8.5,0,0,1-2.2-.9,2.4,2.4,0,0,0-3.3.5,7.3,7.3,0,0,0-.8,5.3c.2,1.5,1.7,2.4,2.9,3.3a3,3,0,0,0,3.4,0,4.8,4.8,0,0,0,1.7-2.6c.2-.6.5-.9.8-.9a2.5,2.5,0,0,1,1.9.6c1.1,1.2,2.5,4.1,3.9,7.8.3.6.9,1,2.2.7l5.3-2.4c1.1-.4,1-1,.2-1.8s-1.8-1.1-2.1-1.8a3.1,3.1,0,0,1,.9-3.9,11.1,11.1,0,0,1,2.4-1.6,4,4,0,0,1,3.1.7,3,3,0,0,1,1.2,1.3,2.5,2.5,0,0,1,.1,1.9,2.3,2.3,0,0,1-1.2,1c-.3.2-.4.6-.2,1.2a1.6,1.6,0,0,0,.5.8,8.2,8.2,0,0,0,3-.2,17.2,17.2,0,0,0,5.5-3.1,2.9,2.9,0,0,0,1.2-2.7A13.6,13.6,0,0,0,190.7,142.6Z"/><path class="cls-3" d="M196.7,181.2a10.6,10.6,0,0,1-3.7,2l-3.1,2.1a4.3,4.3,0,0,0-.5,1.2,3.1,3.1,0,0,0,.9,1.7,6.2,6.2,0,0,0,2.6.9,3.1,3.1,0,0,1,2.7,2.9,8.9,8.9,0,0,1-2.8,5.6c-1.3,1.3-3.2,1-4.9.9a3.7,3.7,0,0,1-3.2-2.6,6,6,0,0,1,.2-3.7c.2-.6.2-1.2-.2-1.5a3.5,3.5,0,0,0-2.1-.8,13.5,13.5,0,0,0-4,1.5l-.8,1a16.6,16.6,0,0,1-3.1,1.2l-1,.6c-.6.4-1.4.3-2.2-.6l-.3-.3-3.4-6.3c-.7-1.2-.2-1.7,1.1-1.8a6.7,6.7,0,0,0,3.2-.1c1.2-.8,2.1-1.9,1.7-4.4a16.1,16.1,0,0,0-1.2-3.3,3,3,0,0,0-.8-.8,5.2,5.2,0,0,0-2.5-.9,3.2,3.2,0,0,0-1.9.3,2.6,2.6,0,0,0-1.4,1.7,3.1,3.1,0,0,0,.3,1.9c.2.4.1.8-.5,1.3a1.1,1.1,0,0,1-1,.3,9.9,9.9,0,0,1-2.7-2.5,21.8,21.8,0,0,1-2.8-6.3l-.8-1.2c-.5-1.6-.2-2.3.5-2.8l1.7-.9a14.3,14.3,0,0,1,2.3-2l1.1-.2a14.8,14.8,0,0,0,3.1-2.7,3.8,3.8,0,0,0,.4-2.3c-.1-.5-.6-.7-1.2-.9a5.5,5.5,0,0,1-3.2-1.7,3.9,3.9,0,0,1-.6-4.2c.9-1.6,1.6-3.4,3.3-3.9s4.2-.8,6.1.3,1.7,2,1.1,3.8a14,14,0,0,0-.6,2.8,3.8,3.8,0,0,0,1,1.7l1.4.2,3.1-1.7a10,10,0,0,1,3.7-2.4l1.2-.2.4-.2c1.1-.1,2.2.3,3.3,2.4l.2.4,1,2.5a2.4,2.4,0,0,1-.6,2.4,2.6,2.6,0,0,1-2.7.4c-1-.3-1.7,1.1-2.2,3.1a4.7,4.7,0,0,0,1.3,3.6l1.9,1.3a7.1,7.1,0,0,0,3.2.9c.2-1.3.6-2.4,1.5-2.8h2.9c1,.5,2.2,2.8,3.8,6.8l.7.9c1.2,2.1.9,3.3.3,4.3Z"/><path class="cls-11" d="M204.2,103c-1-1-2-1.1-3-.1a5.3,5.3,0,0,1-2.6,1.9c-1.2.4-2.3-.2-3.2-1.8s-.9-1.9-.8-2.4,1.2-1.8,2.1-1.8a5.9,5.9,0,0,0,2.6.1c.9-.5,1.1-1.3.5-2.5l-5.7-7.3c-.8-.5-1.7-.6-3.2.3l-1.8,1.3a1.6,1.6,0,0,0-.3,1.7c.2.5.6.9,1.7,1.1s.8,1.3.5,2.7a3.2,3.2,0,0,1-2.2,1.7,7.4,7.4,0,0,1-4.3-.4,1.8,1.8,0,0,0-.1-2.2l-1.9-1.1q-1.6,0-6.6,4.2a2.6,2.6,0,0,0-.4,2.7,10.3,10.3,0,0,0,2.9,3.3,2.9,2.9,0,0,1,.4,2.3,2.8,2.8,0,0,1-1.2.8,4.6,4.6,0,0,1-2.1-.4c-1.4-.3-2.3,0-2.9.9a5.4,5.4,0,0,0,0,4.3c.5,1.2,1.9,1.7,3.2,2.3a3.6,3.6,0,0,0,3.1-.5,3.8,3.8,0,0,0,1.1-2.4,1,1,0,0,1,.6-.8,2.7,2.7,0,0,1,1.7.2c1.3.8,2.9,3,4.8,5.7.4.5.9.7,2,.2l4.5-2.6c.9-.5.8-1-.1-1.5a5.7,5.7,0,0,1-2.2-1.1,2.4,2.4,0,0,1,.3-3.3,12.5,12.5,0,0,1,1.9-1.5,3.6,3.6,0,0,1,2.9,0,3.8,3.8,0,0,1,1.3.9,1.6,1.6,0,0,1,.3,1.5,1.6,1.6,0,0,1-.8,1c-.3.2-.4.5-.1,1a1.3,1.3,0,0,0,.6.5,6,6,0,0,0,2.7-.6,14,14,0,0,0,4.5-3.2,2.3,2.3,0,0,0,.7-2.3A14.7,14.7,0,0,0,204.2,103Z"/><path class="cls-3" d="M180.2,132.2a6.4,6.4,0,0,1,.7-2.4l.5-2.3-.3-.8-1.1-.3a3.8,3.8,0,0,0-1.5.9,1.7,1.7,0,0,1-2.3,0,4.8,4.8,0,0,1-1.2-3.5c0-1.1.9-1.9,1.7-2.7a2.1,2.1,0,0,1,2.4-.3,3,3,0,0,1,1.5,1.6c.2.3.4.5.6.5a2,2,0,0,0,1.3-.6,10.6,10.6,0,0,0,1-2.5,2.1,2.1,0,0,1,0-.8,8.9,8.9,0,0,1,.7-1.9,6.4,6.4,0,0,0,.2-.7c.1-.4.4-.7,1.2-.7h.2l4.1,1q1,.3.3,1.2c-.5.5-1.2,1-1.3,1.5A2.1,2.1,0,0,0,190,122a9.1,9.1,0,0,0,1.8.8h.8a3.3,3.3,0,0,0,1.3-.7,2.3,2.3,0,0,0,.7-1,1.4,1.4,0,0,0-.1-1.4,1.8,1.8,0,0,0-.9-.6c-.2,0-.4-.3-.3-.7a.6.6,0,0,1,.3-.6,3.3,3.3,0,0,1,2.1-.2,11.3,11.3,0,0,1,3.8,1.2l.9.2c.8.4,1,.8.9,1.3l-.3,1.2a12.3,12.3,0,0,1-.2,1.9l-.3.6a7.8,7.8,0,0,0-.2,2.5c0,.3.3.7.8,1.1a.9.9,0,0,0,.8-.2,3.7,3.7,0,0,1,2.1-.8,2.3,2.3,0,0,1,2,1.4c.3,1.1.8,2.2.3,3.2a5.2,5.2,0,0,1-2.7,2.6,1.6,1.6,0,0,1-2.1-1,4.2,4.2,0,0,0-.9-1.4l-1.1-.3-.7.6-.6,2.1a9.3,9.3,0,0,1-.5,2.7l-.5.6v.2c-.4.6-1,.9-2.3.6h-.3l-1.4-.5a1.5,1.5,0,0,1-.8-1.3,1.9,1.9,0,0,1,1-1.4c.5-.4.3-1.2-.4-2.3a2.2,2.2,0,0,0-2-.8l-1.4.3a4.2,4.2,0,0,0-1.7,1.1,1.9,1.9,0,0,1,.6,1.8l-1.2,1.4c-.6.2-2.1-.1-4.4-1h-.7c-1.4-.3-1.8-.9-1.9-1.6Z"/><path class="cls-11" d="M187.2,147.2c1,1,1.9,1,2.6.1a5.3,5.3,0,0,1,2.2-2c1-.4,2,.1,2.9,1.6a6.6,6.6,0,0,1,.8,2.2c-.4,1.2-1,1.7-1.8,1.8a4.1,4.1,0,0,0-2.2,0c-.8.5-.9,1.2-.2,2.4l5.3,6.6c.7.4,1.4.5,2.7-.4l1.5-1.4a1.4,1.4,0,0,0,.2-1.5,1.8,1.8,0,0,0-1.6-1c-.7-.2-.8-1.2-.5-2.5a2.4,2.4,0,0,1,1.7-1.7,6.4,6.4,0,0,1,3.7.1,2.1,2.1,0,0,0,.3,2.1l1.7.9c.9,0,2.7-1.4,5.5-4.2a2.7,2.7,0,0,0,.1-2.5,9.5,9.5,0,0,0-2.6-3,2.7,2.7,0,0,1-.5-2.2,2.1,2.1,0,0,1,1-.7,5.5,5.5,0,0,1,1.8.2,1.9,1.9,0,0,0,2.4-.9,5.3,5.3,0,0,0-.2-4.1c-.5-1.1-1.7-1.5-2.8-2a2.7,2.7,0,0,0-2.7.6,3.6,3.6,0,0,0-.8,2.3c-.1.4-.2.7-.5.8a2.3,2.3,0,0,1-1.5-.1c-1.2-.7-2.7-2.7-4.4-5.1-.4-.5-.9-.7-1.8-.2l-3.7,2.7c-.8.5-.6.9.2,1.4a4.8,4.8,0,0,1,1.9.9,2.5,2.5,0,0,1,0,3.1l-1.6,1.6a3,3,0,0,1-2.5,0,1.9,1.9,0,0,1-1.2-.7,1.8,1.8,0,0,1-.4-1.4,1.8,1.8,0,0,1,.7-1,.6.6,0,0,0,0-.9c-.2-.3-.3-.5-.5-.5a4.6,4.6,0,0,0-2.3.7,11.7,11.7,0,0,0-3.7,3.2,2.1,2.1,0,0,0-.5,2.2A14.6,14.6,0,0,0,187.2,147.2Z"/><path class="cls-2" d="M228.4,170c-1.5-1.6-2.9-1.7-4.2-.1a8.6,8.6,0,0,1-3.5,3.1c-1.8.6-3.3-.2-4.7-2.8s-1.3-2.9-1.1-3.8,1.5-2.8,2.8-2.8a6.2,6.2,0,0,0,3.6,0c1.3-.7,1.5-2,.5-4l-8.4-11.3c-1-.7-2.3-.9-4.4.6l-2.4,2.1a2.5,2.5,0,0,0-.4,2.7c.3.8,1,1.4,2.5,1.7s1.2,2,.8,4.2a4.5,4.5,0,0,1-2.9,2.8,9.7,9.7,0,0,1-6-.5c.4-1.4.5-2.6-.3-3.5l-2.8-1.6c-1.4-.1-4.5,2.3-9,6.7a4.6,4.6,0,0,0-.4,4.3c.6,1.5,2.3,3.3,4.2,5.2a4.8,4.8,0,0,1,.7,3.7,5.5,5.5,0,0,1-1.6,1.2,9.4,9.4,0,0,1-3-.5c-2-.5-3.2,0-4,1.4s-.5,4.5.3,6.8,2.7,2.6,4.5,3.5a3.9,3.9,0,0,0,4.3-.9,5.9,5.9,0,0,0,1.4-3.7c.2-.7.4-1.2.9-1.3a3.6,3.6,0,0,1,2.4.2c1.8,1.3,4.2,4.6,6.9,8.9.6.7,1.4,1.1,2.9.3l6.2-4.2c1.2-.9,1-1.6-.3-2.4a9,9,0,0,1-3.1-1.7c-.9-1.4-1.3-2.9.2-5.2a19.7,19.7,0,0,1,2.6-2.5c1-.6,2.3-.6,4.1,0a3.8,3.8,0,0,1,1.8,1.3,2.9,2.9,0,0,1,.6,2.4,2.8,2.8,0,0,1-1.2,1.6c-.3.3-.4.8,0,1.6a1.3,1.3,0,0,0,.8.8,9,9,0,0,0,3.8-1,21.5,21.5,0,0,0,6.2-5.3,3.4,3.4,0,0,0,.7-3.6A16,16,0,0,0,228.4,170Z"/><path class="cls-3" d="M216.4,141a6.5,6.5,0,0,1,3-1.1l2.7-1.3.5-.8a3,3,0,0,0-.5-1.4,8.8,8.8,0,0,0-2-.9,2.1,2.1,0,0,1-1.8-2.3,6.4,6.4,0,0,1,2.7-3.8c1.2-.9,2.6-.5,4-.3a2.8,2.8,0,0,1,2.2,2.2,4.6,4.6,0,0,1-.6,2.7.9.9,0,0,0,0,1c.6.5,1.1.9,1.6.8a12.4,12.4,0,0,0,3.2-.7,2.7,2.7,0,0,1,.8-.7,10.2,10.2,0,0,1,2.5-.6l.8-.4a1.4,1.4,0,0,1,1.7.6l.2.3,2,4.8c.4,1,0,1.3-1.1,1.3a5.1,5.1,0,0,0-2.4-.2,2.8,2.8,0,0,0-1.8,3,8.3,8.3,0,0,0,.6,2.5,1.3,1.3,0,0,0,.6.7,3.8,3.8,0,0,0,1.8.9,2.6,2.6,0,0,0,1.5-.1,2.1,2.1,0,0,0,1.3-1.1,2.2,2.2,0,0,0-.1-1.4c-.1-.3,0-.6.5-.9a1.6,1.6,0,0,1,.9-.2,6.5,6.5,0,0,1,1.8,2.1,15.1,15.1,0,0,1,1.6,4.8l.4,1c.3,1.1,0,1.6-.6,1.9l-1.4.6a8.8,8.8,0,0,1-2.1,1.2h-.8a11.6,11.6,0,0,0-2.7,1.7,2.3,2.3,0,0,0-.5,1.6c0,.4.3.6.8.8a4.2,4.2,0,0,1,2.3,1.5,2.7,2.7,0,0,1,.1,3.1c-.9,1.1-1.6,2.4-3,2.6a6.8,6.8,0,0,1-4.7-.7,2.2,2.2,0,0,1-.5-2.9,5.3,5.3,0,0,0,.7-2,2,2,0,0,0-.6-1.3,3.8,3.8,0,0,0-1-.3l-2.6,1a12.3,12.3,0,0,1-3.1,1.5H224c-.9,0-1.7-.4-2.4-2v-.3l-.5-1.9a1.7,1.7,0,0,1,.7-1.7,2.1,2.1,0,0,1,2.2-.1c.7.3,1.4-.6,2-2.1a2.7,2.7,0,0,0-.7-2.7l-1.3-1.1a4.8,4.8,0,0,0-2.4-.9,2.3,2.3,0,0,1-1.5,1.9l-2.2-.2c-.7-.4-1.5-2.2-2.3-5.2l-.4-.8c-.7-1.6-.4-2.4.2-3.1Z"/><g id="Capa_2-2" data-name="Capa 2"><g id="Capa_2-2-2" data-name="Capa 2-2"><path class="cls-12" d="M39.3,0A39.3,39.3,0,1,0,78.5,39.3,39.3,39.3,0,0,0,39.3,0Zm0,75.2A36,36,0,1,1,75.2,39.3,36,36,0,0,1,39.3,75.2Z"/><polygon class="cls-13" points="41.3 23.6 41.6 13.8 17.9 29 17.9 36.1 41.1 51.2 41 41.8 37 39.3 37 45 22.2 35.5 22.2 30.4 36.9 21.4 36.8 26.2 41.3 23.6"/><polygon class="cls-14" points="34.9 28.7 34.9 24.6 24.3 31.1 24.3 34.5 34.9 41.6 34.9 37 27.6 33.1 34.9 28.7"/><polygon class="cls-15" points="37 36.8 41.1 39.3 41.1 33.4 56.1 43.5 56.1 48 41.2 57.4 41.2 52.7 37 55.6 37 64.8 60.4 49.5 60.4 42.7 37 27.6 37 36.8"/><polygon class="cls-16" points="43.3 37.5 43.3 41.7 50.8 46.1 43.3 50.6 43.3 54.1 53.9 47.5 53.9 44.3 43.3 37.5"/></g></g><path class="cls-17" d="M100.5,42.6a7.5,7.5,0,0,1-10.6,0C87.3,39.9,86,35.8,86,30.1s1.4-11.3,4.3-14.2a7,7,0,0,1,5.1-2.2,6.9,6.9,0,0,1,4.8,1.7,12.1,12.1,0,0,1,3.2,9.1H99.8c-.1-3.4-.7-5.6-1.9-6.8a3.2,3.2,0,0,0-2.5-1,3.8,3.8,0,0,0-2.6,1.1c-2.1,2.2-3.2,6.2-3.2,12s.9,8.6,2.7,10.4a4.5,4.5,0,0,0,2.9,1.3,3.9,3.9,0,0,0,2.7-1.3c1.1-1.1,1.7-3.5,1.8-7.4h3.8C103.2,37.6,102.2,40.9,100.5,42.6Z"/><path class="cls-17" d="M119.2,47.4l1-9h-5.5l-.8,9h-2.5l.9-9h-3.1v-3h3.5L113.8,25h-4.6V22h4.9l.8-8.8h2.6l-1,8.8h5.4l.8-8.8h2.6l-1,8.8h3.2v3H124l-1.1,10.4h4.6v3h-4.9l-.8,9Zm1.3-12L121.6,25h-5.4l-1.1,10.4Z"/><path class="cls-17" d="M136.8,21.5V44.8h-3.2V13.7h5.1L142.1,34h.3l3.4-20.3h5.1V44.8h-3.2V21.5h-.3l-3.9,23.3H141l-3.9-23.3Z"/><path class="cls-18" d="M157.9,44.8V13.7h16.8v3H161.6V27.1h9.9v3h-9.9V44.8Z"/><path class="cls-18" d="M185.8,26.8h10.8v3H185.8v12h12.6v3H182.1V13.7h15.5v3H185.8Z"/><path class="cls-17" d="M219.7,42.6a7.5,7.5,0,0,1-10.6,0c-2.6-2.7-4-6.8-4-12.5s1.5-11.3,4.3-14.2a7,7,0,0,1,5.1-2.2,6.5,6.5,0,0,1,4.8,1.7c2.3,2.3,3.3,5.3,3.2,9.1H219c-.1-3.4-.7-5.6-1.9-6.8a3.3,3.3,0,0,0-2.6-1,3.6,3.6,0,0,0-2.5,1.1c-2.1,2.2-3.2,6.2-3.2,12s.9,8.6,2.7,10.4a3.7,3.7,0,0,0,5.6,0c1.1-1.1,1.6-3.5,1.8-7.4h3.8C222.4,37.6,221.4,40.9,219.7,42.6Z"/><path class="cls-17" d="M246.4,29.2q0,10.1-3.6,13.5a6.9,6.9,0,0,1-5.2,2.1,7,7,0,0,1-5.4-2.1q-3.6-3.5-3.6-13.5c0-6.6,1.2-11.1,3.6-13.4a7,7,0,0,1,5.4-2.1,6.9,6.9,0,0,1,5.2,2.1C245.2,18.1,246.4,22.6,246.4,29.2Zm-14.1,0c0,6,.7,9.8,2.1,11.1a4.2,4.2,0,0,0,3.2,1.5,4.1,4.1,0,0,0,3-1.5c1.4-1.3,2.1-5.1,2.1-11.1s-.7-9.7-2.1-11a4.1,4.1,0,0,0-3-1.5,4.2,4.2,0,0,0-3.2,1.5C233,19.5,232.3,23.2,232.3,29.2Z"/><path class="cls-17" d="M93.1,67.1a2.4,2.4,0,0,1-1.6.7,2.6,2.6,0,0,1-1.6-.7,5.2,5.2,0,0,1-1.2-3.8A6.3,6.3,0,0,1,90,59a2.6,2.6,0,0,1,1.6-.7,1.7,1.7,0,0,1,1.4.6,3.5,3.5,0,0,1,1,2.7H92.9a3.6,3.6,0,0,0-.5-2.1,1.1,1.1,0,0,0-.8-.2,1.1,1.1,0,0,0-.8.3,5.1,5.1,0,0,0-1,3.6,4.4,4.4,0,0,0,.9,3.2,1.1,1.1,0,0,0,.8.3l.9-.3a3.9,3.9,0,0,0,.5-2.3H94A4.3,4.3,0,0,1,93.1,67.1Z"/><path class="cls-17" d="M101.2,63c0,2.1-.3,3.4-1,4.1a2.6,2.6,0,0,1-1.6.7,2.4,2.4,0,0,1-1.7-.7c-.7-.7-1-2-1-4.1s.3-3.3,1-4a2.1,2.1,0,0,1,1.7-.7,2.1,2.1,0,0,1,1.6.7C100.9,59.7,101.2,61,101.2,63ZM97,63c0,1.9.2,3,.6,3.4a1.3,1.3,0,0,0,1,.4,1.2,1.2,0,0,0,.9-.4c.4-.4.6-1.5.6-3.4s-.2-2.9-.6-3.3a1.2,1.2,0,0,0-.9-.4,1.3,1.3,0,0,0-1,.4Q97,60.3,97,63Z"/><path class="cls-17" d="M104.1,60.7v7.1h-.9V58.3h1.5l1,6.2h.1l1-6.2h1.6v9.5h-1V60.7h-.1l-1.1,7.1h-.8l-1.2-7.1Z"/><path class="cls-17" d="M111.3,60.7v7.1h-.9V58.3h1.5l1,6.2h.1l1.1-6.2h1.5v9.5h-1V60.7h-.1l-1.1,7.1h-.8l-1.2-7.1Z"/><path class="cls-17" d="M117.7,58.3h1.1v6.9a1.9,1.9,0,0,0,.3,1.2,1.8,1.8,0,0,0,1.1.3h0a1.7,1.7,0,0,0,1-.3,2.1,2.1,0,0,0,.4-1.2V58.3h1.1v6.9a2.6,2.6,0,0,1-.8,2,2.1,2.1,0,0,1-1.7.6h0a2.3,2.3,0,0,1-1.8-.6,2.6,2.6,0,0,1-.7-2Z"/><path class="cls-17" d="M129.9,58.3v9.5h-1.4L126,60.7h0v7.1h-1.1V58.3h1.3l2.5,7.1h.1V58.3Z"/><path class="cls-17" d="M134.1,66.7h.6v1.1h-2.2V66.7h.5V59.4h-.5V58.3h2.2v1.1h-.6Z"/><path class="cls-17" d="M139.2,67.8V59.3h-1.9v-1h5v1h-2v8.5Z"/><path class="cls-17" d="M145.3,58.3l1.7,3.9h0l1.7-3.9h1.1l-2.3,5.2v4.3h-1.1V63.5l-2.2-5.2Z"/><path class="cls-18" d="M156.9,67.8V58.3H162v1h-4v3.1h3v.9h-3v4.5Z"/><path class="cls-18" d="M165.3,62.3h3.3v.9h-3.3v3.6h3.8v1h-4.9V58.3h4.7v1h-3.6Z"/><path class="cls-18" d="M175.3,63.3a2,2,0,0,1,1.1,1.8,2.6,2.6,0,0,1-.8,2,2.6,2.6,0,0,1-4.4-1.8v-.5h1.1v.4a1.5,1.5,0,0,0,.4,1.2,1.3,1.3,0,0,0,1,.4,1.2,1.2,0,0,0,1.1-.4,1.6,1.6,0,0,0,.5-1.1,1.5,1.5,0,0,0-.7-1.2,18.8,18.8,0,0,1-2.3-1.6,2.1,2.1,0,0,1-.8-1.7,2.4,2.4,0,0,1,.7-1.8,2.6,2.6,0,0,1,1.6-.7,2,2,0,0,1,1.6.6,2.4,2.4,0,0,1,.7,2H175a1.6,1.6,0,0,0-.4-1.3,1.2,1.2,0,0,0-1.6,0,1.6,1.6,0,0,0-.5,1.1,1.9,1.9,0,0,0,.7,1.2Z"/><path class="cls-18" d="M180.4,67.8V59.3h-1.9v-1h5v1h-2v8.5Z"/><path class="cls-17" d="M191.6,67.8h-1.1l2.4-9.5h1l2.4,9.5h-1.2l-.6-2.8h-2.2Zm1.8-6.9h-.1l-.7,3.2h1.6Z"/><path class="cls-17" d="M203.1,58.3v9.5h-1.4l-2.5-7.1h0v7.1H198V58.3h1.4l2.5,7.1h.1V58.3Z"/><path class="cls-17" d="M209.3,59.2c.8.7,1.1,2,1.1,3.9s-.3,3-1,3.7a3.5,3.5,0,0,1-2.4,1h-1.7V58.3H207A3.2,3.2,0,0,1,209.3,59.2ZM207,66.8a2.4,2.4,0,0,0,1.5-.6c.5-.5.7-1.6.7-3.1s-.2-2.7-.8-3.2a2,2,0,0,0-1.4-.6h-.6v7.5Z"/><path class="cls-17" d="M222,67.1a2.6,2.6,0,0,1-1.6.7,2.4,2.4,0,0,1-1.6-.7,5.2,5.2,0,0,1-1.2-3.8c0-2,.4-3.4,1.3-4.3a2.3,2.3,0,0,1,1.5-.7,2,2,0,0,1,1.5.6,3.1,3.1,0,0,1,.9,2.7h-1a2.9,2.9,0,0,0-.6-2.1c-.2-.2-.4-.2-.8-.2a.9.9,0,0,0-.7.3c-.7.6-1,1.8-1,3.6a4.9,4.9,0,0,0,.8,3.2,1.6,1.6,0,0,0,.9.3,1.3,1.3,0,0,0,.8-.3,3.9,3.9,0,0,0,.5-2.3h1.2A4.8,4.8,0,0,1,222,67.1Z"/><path class="cls-17" d="M230.1,63c0,2.1-.4,3.4-1.1,4.1a2.4,2.4,0,0,1-1.6.7,2.2,2.2,0,0,1-1.6-.7c-.7-.7-1.1-2-1.1-4.1s.4-3.3,1.1-4a1.9,1.9,0,0,1,1.6-.7,2,2,0,0,1,1.6.7C229.7,59.7,230.1,61,230.1,63Zm-4.3,0c0,1.9.2,3,.6,3.4a1.4,1.4,0,0,0,1,.4,1.2,1.2,0,0,0,.9-.4c.4-.4.7-1.5.7-3.4s-.3-2.9-.7-3.3a1.2,1.2,0,0,0-.9-.4,1.4,1.4,0,0,0-1,.4Q225.8,60.3,225.8,63Z"/><path class="cls-17" d="M236.1,59.2c.8.7,1.1,2,1.1,3.9s-.3,3-1,3.7a3.5,3.5,0,0,1-2.4,1h-1.7V58.3h1.7A3.2,3.2,0,0,1,236.1,59.2Zm-2.3,7.6a2.4,2.4,0,0,0,1.5-.6c.5-.5.7-1.6.7-3.1s-.2-2.7-.8-3.2a2,2,0,0,0-1.4-.6h-.6v7.5Z"/><path class="cls-17" d="M240.6,62.3h3.3v.9h-3.3v3.6h3.8v1h-4.9V58.3h4.7v1h-3.6Z"/><rect class="cls-19" x="86" y="50.5" width="160.4" height="2.2" transform="translate(332.3 103.3) rotate(180)"/><polygon class="cls-17" points="247.6 273.5 247.6 313.7 24.2 337.7 24.1 297.5 247.6 273.5"/><polygon class="cls-18" points="276.6 239.4 276.6 279.6 53.1 303.6 53.1 263.4 276.6 239.4"/><path class="cls-20" d="M119.8,275.2h7.4v2.1h-7.4v8.2h8.6v2.1H117.3V266.3h10.6v2h-8.1Z"/><path class="cls-20" d="M135.7,265.3l3.7,16.1h.2l3.8-16.1h2.5l-5.2,21.3h-2.4l-5.1-21.3Z"/><path class="cls-20" d="M153.8,273.2h7.4v2.1h-7.4v8.2h8.6v2.1H151.3V264.3h10.6v2h-8.1Z"/><path class="cls-20" d="M179.2,262.3v21.3h-3l-5.7-16h-.1v16h-2.6V262.3h3.1l5.7,15.9h.1V262.3Z"/><path class="cls-20" d="M188.2,282.6V263.3H184v-2h11.2v2h-4.5v19.3Z"/><path class="cls-20" d="M211.7,269.9c0,4.6-.8,7.7-2.5,9.3a4.9,4.9,0,0,1-3.6,1.4,5.3,5.3,0,0,1-3.7-1.4q-2.4-2.4-2.4-9.3c0-4.6.8-7.6,2.4-9.2a4.9,4.9,0,0,1,3.7-1.4,4.5,4.5,0,0,1,3.6,1.4C210.9,262.3,211.7,265.3,211.7,269.9Zm-9.7,0c0,4.1.5,6.7,1.5,7.6a2.7,2.7,0,0,0,4.2,0c1-.9,1.4-3.5,1.4-7.6s-.4-6.6-1.4-7.6a2.7,2.7,0,0,0-4.2,0C202.5,263.3,202,265.8,202,269.9Z"/><path class="cls-21" d="M94.3,306.8a5.2,5.2,0,0,1,1.4,4,5.2,5.2,0,0,1-1.4,3.9,4.6,4.6,0,0,1-2,1.5l4,10.1H93.7l-3.8-9.8h-3v9.8H84.4V305h5.4A6,6,0,0,1,94.3,306.8Zm-2,6.6a3.4,3.4,0,0,0,.9-2.6,3.3,3.3,0,0,0-1-2.6,4,4,0,0,0-2.9-1.1H86.9v7.3H90A2.9,2.9,0,0,0,92.3,313.4Z"/><path class="cls-21" d="M113.2,312h7.4v2.1h-7.4v8.2h8.6v2H110.7V303h10.6v2.1h-8.1Z"/><path class="cls-21" d="M140.6,321.3V302.1h-4.2V300h11.2v2.1h-4.5v19.2Z"/><path class="cls-21" d="M174.1,308.6q0,6.9-2.4,9.3a4.8,4.8,0,0,1-3.6,1.4,5,5,0,0,1-3.8-1.4q-2.4-2.4-2.4-9.3c0-4.5.8-7.6,2.4-9.2a5.4,5.4,0,0,1,3.8-1.4,5.2,5.2,0,0,1,3.6,1.4C173.3,301,174.1,304.1,174.1,308.6Zm-9.7,0c0,4.2.5,6.7,1.5,7.7a3,3,0,0,0,2.2,1,3,3,0,0,0,2-1c1-1,1.5-3.5,1.5-7.7s-.5-6.6-1.5-7.5a2.6,2.6,0,0,0-2-1,2.7,2.7,0,0,0-2.2,1Q164.4,302.5,164.4,308.6Z"/><path class="cls-21" d="M197.3,306.3a4.4,4.4,0,0,1,2.5,4.1,5.4,5.4,0,0,1-5.9,5.9,5.2,5.2,0,0,1-4-1.4,5.5,5.5,0,0,1-1.8-4.1v-1.1h2.6v.9a4.1,4.1,0,0,0,.8,2.7,2.9,2.9,0,0,0,2.2.8,3.3,3.3,0,0,0,2.6-.8,3.3,3.3,0,0,0,1-2.5,3.2,3.2,0,0,0-1.5-2.7,47.4,47.4,0,0,1-5.1-3.7,4.9,4.9,0,0,1-1.9-3.8,5.2,5.2,0,0,1,1.6-4.1,5.3,5.3,0,0,1,3.7-1.5,4.9,4.9,0,0,1,3.7,1.3,5.7,5.7,0,0,1,1.5,4.6h-2.5a3.5,3.5,0,0,0-.9-2.9,2.5,2.5,0,0,0-1.8-.8,2.6,2.6,0,0,0-1.9.8,2.9,2.9,0,0,0-1,2.3,3.8,3.8,0,0,0,1.5,2.7A40,40,0,0,0,197.3,306.3Z"/></g></g></svg>