<svg xmlns="http://www.w3.org/2000/svg" xmlns:xlink="http://www.w3.org/1999/xlink" viewBox="0 0 276.6 337.7"><defs><style>.cls-1{fill:#d1af4f;}.cls-2{fill:#971c15;}.cls-3{fill:#ea551e;}.cls-4,.cls-5,.cls-6{fill:none;}.cls-4{stroke:#517abd;}.cls-4,.cls-6{stroke-miterlimit:10;}.cls-6{stroke:url(#Degradado_sin_nombre_26);}.cls-7{fill:#71c3b7;}.cls-8{fill:url(#Degradado_sin_nombre_26-2);}.cls-9{fill:url(#Degradado_sin_nombre_28);}.cls-10{fill:url(#Degradado_sin_nombre_6);}.cls-11{fill:url(#Degradado_sin_nombre_6-2);}.cls-12{fill:url(#Degradado_sin_nombre_3);}.cls-13{fill:url(#Degradado_sin_nombre_4);}.cls-14{fill:url(#Degradado_sin_nombre_5);}.cls-15{fill:#822684;}.cls-16{fill:#fab51e;}.cls-17{fill:url(#Degradado_sin_nombre_6-3);}.cls-18{fill:#1d1d1b;}.cls-19{fill:#fff;}</style><radialGradient id="Degradado_sin_nombre_26" cx="71.17" cy="158.85" r="52.06" gradientUnits="userSpaceOnUse"><stop offset="0.18" stop-color="#c4e5eb"/><stop offset="0.23" stop-color="#bfe3eb"/><stop offset="0.29" stop-color="#b1deea"/><stop offset="0.35" stop-color="#9ad6e9"/><stop offset="0.41" stop-color="#7acbe8"/><stop offset="0.47" stop-color="#51bce6"/><stop offset="0.53" stop-color="#1faae4"/><stop offset="0.57" stop-color="#009fe3"/></radialGradient><radialGradient id="Degradado_sin_nombre_26-2" cx="157.21" cy="148.46" fy="122.2904828222915" r="47.89" xlink:href="#Degradado_sin_nombre_26"/><linearGradient id="Degradado_sin_nombre_28" x1="127.04" y1="189.61" x2="187.39" y2="189.61" gradientUnits="userSpaceOnUse"><stop offset="0" stop-color="#1a9dd9"/><stop offset="1"/></linearGradient><linearGradient id="Degradado_sin_nombre_6" x1="10.64" y1="66.27" x2="69.69" y2="14.53" gradientTransform="matrix(1, 0, 0, -1, 0, 80.45)" gradientUnits="userSpaceOnUse"><stop offset="0.24" stop-color="#e2a052"/><stop offset="0.42" stop-color="#9a6069"/><stop offset="0.56" stop-color="#6c3778"/><stop offset="0.62" stop-color="#59267a"/></linearGradient><linearGradient id="Degradado_sin_nombre_6-2" x1="26.8" y1="58.97" x2="50.99" y2="30.8" xlink:href="#Degradado_sin_nombre_6"/><linearGradient id="Degradado_sin_nombre_3" x1="25.55" y1="54.89" x2="40.09" y2="40.64" gradientTransform="matrix(1, 0, 0, -1, 0, 80.45)" gradientUnits="userSpaceOnUse"><stop offset="0.37" stop-color="#e2a052"/><stop offset="0.41" stop-color="#d59456"/><stop offset="0.67" stop-color="#7d4672"/><stop offset="0.79" stop-color="#59267a"/></linearGradient><linearGradient id="Degradado_sin_nombre_4" x1="27.82" y1="40.93" x2="54.44" y2="22.78" gradientTransform="matrix(1, 0, 0, -1, 0, 80.45)" gradientUnits="userSpaceOnUse"><stop offset="0.22" stop-color="#e2a052"/><stop offset="0.3" stop-color="#be815d"/><stop offset="0.42" stop-color="#945a6b"/><stop offset="0.52" stop-color="#743e75"/><stop offset="0.61" stop-color="#612c7a"/><stop offset="0.67" stop-color="#59267a"/></linearGradient><linearGradient id="Degradado_sin_nombre_5" x1="36.82" y1="38.29" x2="53.85" y2="28.68" gradientTransform="matrix(1, 0, 0, -1, 0, 80.45)" gradientUnits="userSpaceOnUse"><stop offset="0.27" stop-color="#e2a052"/><stop offset="0.33" stop-color="#be815d"/><stop offset="0.41" stop-color="#945a6b"/><stop offset="0.49" stop-color="#743e75"/><stop offset="0.55" stop-color="#612c7a"/><stop offset="0.59" stop-color="#59267a"/></linearGradient><linearGradient id="Degradado_sin_nombre_6-3" x1="-61.93" y1="51.63" x2="98.47" y2="51.63" gradientTransform="matrix(1, 0, 0, -1, 147.89, 103.27)" xlink:href="#Degradado_sin_nombre_6"/></defs><title>events_vuis</title><g id="Capa_2" data-name="Capa 2"><g id="events_vuis"><path class="cls-1" d="M135,122.7a16.3,16.3,0,0,0-11.5-28,16.4,16.4,0,1,0,8.8,30.1c3.5,3.2,6.2,2.2,6.2,2.2A8.2,8.2,0,0,1,135,122.7Zm-4.7-6.1h-15a.8.8,0,0,1-.8-.8.9.9,0,0,1,.8-.8h15a.9.9,0,0,1,.8.8A.8.8,0,0,1,130.3,116.6Zm0-5h-15a.8.8,0,0,1,0-1.6h15a.8.8,0,1,1,0,1.6Zm0-5h-15a.8.8,0,0,1,0-1.6h15a.8.8,0,1,1,0,1.6Z"/><path class="cls-2" d="M179.1,122.6a4.1,4.1,0,0,0-4.1,4.2,4.2,4.2,0,0,0,1.2,3,2.7,2.7,0,0,1-.9,1.1,1.8,1.8,0,0,0,1.6-.6,4.1,4.1,0,0,0,2.2.7,4.2,4.2,0,1,0,0-8.4Zm-1.7,4.6a.3.3,0,0,1-.3-.3c0-.2.1-.4.3-.4a.4.4,0,0,1,.4.4A.4.4,0,0,1,177.4,127.2Zm1.7,0a.4.4,0,0,1-.4-.3.4.4,0,0,1,.4-.4c.2,0,.3.2.3.4A.3.3,0,0,1,179.1,127.2Zm1.6,0a.3.3,0,0,1-.3-.3c0-.2.1-.4.3-.4s.3.2.3.4A.3.3,0,0,1,180.7,127.2Z"/><path class="cls-3" d="M209.3,133.8a16.3,16.3,0,0,0-12.5,27.7,8.8,8.8,0,0,1-3.7,4.2s2.6,1.2,6.3-1.9a16.4,16.4,0,1,0,9.9-30Zm9.3,15a6.2,6.2,0,0,1-.8,2.4h0a6.4,6.4,0,0,1-1.3,1.5,37.3,37.3,0,0,1-8.3,7h-.1a38.7,38.7,0,0,1-7.5-7.8,9.9,9.9,0,0,1-1.1-1.7h0a5,5,0,0,1-.6-2.4A5.7,5.7,0,0,1,209,144a5.8,5.8,0,0,1,9.6,4.8Z"/><path class="cls-4" d="M250.1,132.1a5.8,5.8,0,0,1,6,5.6,6.3,6.3,0,0,1-1.6,4.2,2.9,2.9,0,0,0,1.3,1.5s-.9.4-2.2-.7a5.7,5.7,0,0,1-3.1,1,5.8,5.8,0,0,1-6-5.6A5.9,5.9,0,0,1,250.1,132.1Zm-3.3,5.3a1.4,1.4,0,0,0,.3.9h0l.5.5a12.4,12.4,0,0,0,2.9,2.5h0a11.1,11.1,0,0,0,2.6-2.8.9.9,0,0,0,.4-.6h0a1.1,1.1,0,0,0,.2-.8,2,2,0,0,0-2-2,1.8,1.8,0,0,0-1.5.7,2.3,2.3,0,0,0-1.6-.6A2.1,2.1,0,0,0,246.8,137.4Z"/><path class="cls-5" d="M92.4,139.7H87.5v.5a3.8,3.8,0,0,1-.4,1.9h0l-.9,1.2L85,145h7.4a2.7,2.7,0,0,0,0-5.3Z"/><path class="cls-5" d="M92.4,155.5H45.3a2.7,2.7,0,0,0,0,5.3H92.4a2.7,2.7,0,0,0,0-5.3Z"/><path class="cls-5" d="M72.7,142.9h0a6.4,6.4,0,0,1-.6-1.8,6.6,6.6,0,0,1,.1-1.4H45.3a2.7,2.7,0,0,0,0,5.3H74.6l-.8-.9A4.3,4.3,0,0,1,72.7,142.9Z"/><path class="cls-5" d="M92.4,171.3H45.3a2.6,2.6,0,0,0-2.6,2.6,2.5,2.5,0,0,0,2.6,2.6H92.4a2.5,2.5,0,0,0,2.6-2.6A2.6,2.6,0,0,0,92.4,171.3Z"/><path class="cls-6" d="M107.2,195.7a51.6,51.6,0,1,0-36,14.7,50.6,50.6,0,0,0,27.5-8c11.2,10.1,19.6,6.8,19.6,6.8A27.9,27.9,0,0,1,107.2,195.7ZM92.4,176.5H45.3a2.5,2.5,0,0,1-2.6-2.6,2.6,2.6,0,0,1,2.6-2.6H92.4a2.6,2.6,0,0,1,2.6,2.6A2.5,2.5,0,0,1,92.4,176.5Zm0-15.7H45.3a2.7,2.7,0,0,1,0-5.3H92.4a2.7,2.7,0,0,1,0,5.3Zm0-15.8H85a29.3,29.3,0,0,1-4.7,4.6h0a26.7,26.7,0,0,1-5.7-4.6H45.3a2.7,2.7,0,0,1,0-5.3H72.2a4.4,4.4,0,0,1,7.4-2.4,4.4,4.4,0,0,1,3.4-1.6,4.6,4.6,0,0,1,4.5,4h4.9a2.7,2.7,0,0,1,0,5.3Z"/><path class="cls-7" d="M79.5,131.1a11.1,11.1,0,0,1,11.6,10.8,10.6,10.6,0,0,1-3.1,8.2,6.7,6.7,0,0,0,2.6,2.9s-1.8.8-4.4-1.4a11,11,0,0,1-5.9,2,11.3,11.3,0,1,1-.8-22.5Zm-6.4,10.3a4.3,4.3,0,0,0,.5,1.6h0l.9,1.1a25.5,25.5,0,0,0,5.7,4.7h0a25.8,25.8,0,0,0,5.2-5.3,4.4,4.4,0,0,0,.8-1.1h0a4.2,4.2,0,0,0,.4-1.6,4,4,0,0,0-4-4,3.9,3.9,0,0,0-2.9,1.4,4.2,4.2,0,0,0-3.1-1A3.9,3.9,0,0,0,73.1,141.4Z"/><path class="cls-8" d="M157.2,143.8c-16.2,0-29.3,2.1-29.3,4.7s13.1,4.6,29.3,4.6,29.3-2.1,29.3-4.6S173.4,143.8,157.2,143.8Zm-15.1,4.7c-1.2,0-2.2-.4-2.2-.9s1-.9,2.2-.9,2.2.4,2.2.9S143.3,148.5,142.1,148.5Zm31.7,0c-.7,0-1.3-.3-1.3-.5s.6-.5,1.3-.5,1.2.2,1.2.5S174.4,148.5,173.8,148.5Z"/><path class="cls-9" d="M157.2,154.1c-16.7,0-30.2-2.5-30.2-5.6v77.6h0c0,2.6,13.5,4.7,30.2,4.7s30.2-2.1,30.2-4.7V148.5C187.4,151.6,173.9,154.1,157.2,154.1Z"/><g id="Capa_2-2" data-name="Capa 2"><g id="Capa_2-2-2" data-name="Capa 2-2"><path class="cls-10" d="M39.3,0A39.3,39.3,0,1,0,78.5,39.3,39.3,39.3,0,0,0,39.3,0Zm0,75.2A36,36,0,1,1,75.2,39.3,36,36,0,0,1,39.3,75.2Z"/><polygon class="cls-11" points="41.3 23.6 41.6 13.8 17.9 29 17.9 36.1 41.1 51.2 41 41.8 37 39.3 37 45 22.2 35.5 22.2 30.4 36.9 21.4 36.8 26.2 41.3 23.6"/><polygon class="cls-12" points="34.9 28.7 34.9 24.6 24.3 31.1 24.3 34.5 34.9 41.6 34.9 37 27.6 33.1 34.9 28.7"/><polygon class="cls-13" points="37 36.8 41.1 39.3 41.1 33.4 56.1 43.5 56.1 48 41.2 57.4 41.2 52.7 37 55.6 37 64.8 60.4 49.5 60.4 42.7 37 27.6 37 36.8"/><polygon class="cls-14" points="43.3 37.5 43.3 41.7 50.8 46.1 43.3 50.6 43.3 54.1 53.9 47.5 53.9 44.3 43.3 37.5"/></g></g><path class="cls-15" d="M100.5,42.6a7.5,7.5,0,0,1-10.6,0C87.3,39.9,86,35.8,86,30.1s1.4-11.3,4.3-14.2a7,7,0,0,1,5.1-2.2,6.9,6.9,0,0,1,4.8,1.7,12.1,12.1,0,0,1,3.2,9.1H99.8c-.1-3.4-.7-5.6-1.9-6.8a3.2,3.2,0,0,0-2.5-1,3.8,3.8,0,0,0-2.6,1.1c-2.1,2.2-3.2,6.2-3.2,12s.9,8.6,2.7,10.4a4.5,4.5,0,0,0,2.9,1.3,3.9,3.9,0,0,0,2.7-1.3c1.1-1.1,1.7-3.5,1.8-7.4h3.8C103.2,37.6,102.2,40.9,100.5,42.6Z"/><path class="cls-15" d="M119.2,47.4l1-9h-5.5l-.8,9h-2.5l.9-9h-3.1v-3h3.5L113.8,25h-4.6V22h4.9l.8-8.8h2.6l-1,8.8h5.4l.8-8.8h2.6l-1,8.8h3.2v3H124l-1.1,10.4h4.6v3h-4.9l-.8,9Zm1.3-12L121.6,25h-5.4l-1.1,10.4Z"/><path class="cls-15" d="M136.8,21.5V44.8h-3.2V13.7h5.1L142.1,34h.3l3.4-20.3h5.1V44.8h-3.2V21.5h-.3l-3.9,23.3H141l-3.9-23.3Z"/><path class="cls-16" d="M157.9,44.8V13.7h16.8v3H161.6V27.1h9.9v3h-9.9V44.8Z"/><path class="cls-16" d="M185.8,26.8h10.8v3H185.8v12h12.6v3H182.1V13.7h15.5v3H185.8Z"/><path class="cls-15" d="M219.7,42.6a7.5,7.5,0,0,1-10.6,0c-2.6-2.7-4-6.8-4-12.5s1.5-11.3,4.3-14.2a7,7,0,0,1,5.1-2.2,6.5,6.5,0,0,1,4.8,1.7c2.3,2.3,3.3,5.3,3.2,9.1H219c-.1-3.4-.7-5.6-1.9-6.8a3.3,3.3,0,0,0-2.6-1,3.6,3.6,0,0,0-2.5,1.1c-2.1,2.2-3.2,6.2-3.2,12s.9,8.6,2.7,10.4a3.7,3.7,0,0,0,5.6,0c1.1-1.1,1.6-3.5,1.8-7.4h3.8C222.4,37.6,221.4,40.9,219.7,42.6Z"/><path class="cls-15" d="M246.4,29.2q0,10.1-3.6,13.5a6.9,6.9,0,0,1-5.2,2.1,7,7,0,0,1-5.4-2.1q-3.6-3.5-3.6-13.5c0-6.6,1.2-11.1,3.6-13.4a7,7,0,0,1,5.4-2.1,6.9,6.9,0,0,1,5.2,2.1C245.2,18.1,246.4,22.6,246.4,29.2Zm-14.1,0c0,6,.7,9.8,2.1,11.1a4.2,4.2,0,0,0,3.2,1.5,4.1,4.1,0,0,0,3-1.5c1.4-1.3,2.1-5.1,2.1-11.1s-.7-9.7-2.1-11a4.1,4.1,0,0,0-3-1.5,4.2,4.2,0,0,0-3.2,1.5C233,19.5,232.3,23.2,232.3,29.2Z"/><path class="cls-15" d="M93.1,67.1a2.4,2.4,0,0,1-1.6.7,2.6,2.6,0,0,1-1.6-.7,5.2,5.2,0,0,1-1.2-3.8A6.3,6.3,0,0,1,90,59a2.6,2.6,0,0,1,1.6-.7,1.7,1.7,0,0,1,1.4.6,3.5,3.5,0,0,1,1,2.7H92.9a3.6,3.6,0,0,0-.5-2.1,1.1,1.1,0,0,0-.8-.2,1.1,1.1,0,0,0-.8.3,5.1,5.1,0,0,0-1,3.6,4.4,4.4,0,0,0,.9,3.2,1.1,1.1,0,0,0,.8.3l.9-.3a3.9,3.9,0,0,0,.5-2.3H94A4.3,4.3,0,0,1,93.1,67.1Z"/><path class="cls-15" d="M101.2,63c0,2.1-.3,3.4-1,4.1a2.6,2.6,0,0,1-1.6.7,2.4,2.4,0,0,1-1.7-.7c-.7-.7-1-2-1-4.1s.3-3.3,1-4a2.1,2.1,0,0,1,1.7-.7,2.1,2.1,0,0,1,1.6.7C100.9,59.7,101.2,61,101.2,63ZM97,63c0,1.9.2,3,.6,3.4a1.3,1.3,0,0,0,1,.4,1.2,1.2,0,0,0,.9-.4c.4-.4.6-1.5.6-3.4s-.2-2.9-.6-3.3a1.2,1.2,0,0,0-.9-.4,1.3,1.3,0,0,0-1,.4Q97,60.3,97,63Z"/><path class="cls-15" d="M104.1,60.7v7.1h-.9V58.3h1.5l1,6.2h.1l1-6.2h1.6v9.5h-1V60.7h-.1l-1.1,7.1h-.8l-1.2-7.1Z"/><path class="cls-15" d="M111.3,60.7v7.1h-.9V58.3h1.5l1,6.2h.1l1.1-6.2h1.5v9.5h-1V60.7h-.1l-1.1,7.1h-.8l-1.2-7.1Z"/><path class="cls-15" d="M117.7,58.3h1.1v6.9a1.9,1.9,0,0,0,.3,1.2,1.8,1.8,0,0,0,1.1.3h0a1.7,1.7,0,0,0,1-.3,2.1,2.1,0,0,0,.4-1.2V58.3h1.1v6.9a2.6,2.6,0,0,1-.8,2,2.1,2.1,0,0,1-1.7.6h0a2.3,2.3,0,0,1-1.8-.6,2.6,2.6,0,0,1-.7-2Z"/><path class="cls-15" d="M129.9,58.3v9.5h-1.4L126,60.7h0v7.1h-1.1V58.3h1.3l2.5,7.1h.1V58.3Z"/><path class="cls-15" d="M134.1,66.7h.6v1.1h-2.2V66.7h.5V59.4h-.5V58.3h2.2v1.1h-.6Z"/><path class="cls-15" d="M139.2,67.8V59.3h-1.9v-1h5v1h-2v8.5Z"/><path class="cls-15" d="M145.3,58.3l1.7,3.9h0l1.7-3.9h1.1l-2.3,5.2v4.3h-1.1V63.5l-2.2-5.2Z"/><path class="cls-16" d="M156.9,67.8V58.3H162v1h-4v3.1h3v.9h-3v4.5Z"/><path class="cls-16" d="M165.3,62.3h3.3v.9h-3.3v3.6h3.8v1h-4.9V58.3h4.7v1h-3.6Z"/><path class="cls-16" d="M175.3,63.3a2,2,0,0,1,1.1,1.8,2.6,2.6,0,0,1-.8,2,2.6,2.6,0,0,1-4.4-1.8v-.5h1.1v.4a1.5,1.5,0,0,0,.4,1.2,1.3,1.3,0,0,0,1,.4,1.2,1.2,0,0,0,1.1-.4,1.6,1.6,0,0,0,.5-1.1,1.5,1.5,0,0,0-.7-1.2,18.8,18.8,0,0,1-2.3-1.6,2.1,2.1,0,0,1-.8-1.7,2.4,2.4,0,0,1,.7-1.8,2.6,2.6,0,0,1,1.6-.7,2,2,0,0,1,1.6.6,2.4,2.4,0,0,1,.7,2H175a1.6,1.6,0,0,0-.4-1.3,1.2,1.2,0,0,0-1.6,0,1.6,1.6,0,0,0-.5,1.1,1.9,1.9,0,0,0,.7,1.2Z"/><path class="cls-16" d="M180.4,67.8V59.3h-1.9v-1h5v1h-2v8.5Z"/><path class="cls-15" d="M191.6,67.8h-1.1l2.4-9.5h1l2.4,9.5h-1.2l-.6-2.8h-2.2Zm1.8-6.9h-.1l-.7,3.2h1.6Z"/><path class="cls-15" d="M203.1,58.3v9.5h-1.4l-2.5-7.1h0v7.1H198V58.3h1.4l2.5,7.1h.1V58.3Z"/><path class="cls-15" d="M209.3,59.2c.8.7,1.1,2,1.1,3.9s-.3,3-1,3.7a3.5,3.5,0,0,1-2.4,1h-1.7V58.3H207A3.2,3.2,0,0,1,209.3,59.2ZM207,66.8a2.4,2.4,0,0,0,1.5-.6c.5-.5.7-1.6.7-3.1s-.2-2.7-.8-3.2a2,2,0,0,0-1.4-.6h-.6v7.5Z"/><path class="cls-15" d="M222,67.1a2.6,2.6,0,0,1-1.6.7,2.4,2.4,0,0,1-1.6-.7,5.2,5.2,0,0,1-1.2-3.8c0-2,.4-3.4,1.3-4.3a2.3,2.3,0,0,1,1.5-.7,2,2,0,0,1,1.5.6,3.1,3.1,0,0,1,.9,2.7h-1a2.9,2.9,0,0,0-.6-2.1c-.2-.2-.4-.2-.8-.2a.9.9,0,0,0-.7.3c-.7.6-1,1.8-1,3.6a4.9,4.9,0,0,0,.8,3.2,1.6,1.6,0,0,0,.9.3,1.3,1.3,0,0,0,.8-.3,3.9,3.9,0,0,0,.5-2.3h1.2A4.8,4.8,0,0,1,222,67.1Z"/><path class="cls-15" d="M230.1,63c0,2.1-.4,3.4-1.1,4.1a2.4,2.4,0,0,1-1.6.7,2.2,2.2,0,0,1-1.6-.7c-.7-.7-1.1-2-1.1-4.1s.4-3.3,1.1-4a1.9,1.9,0,0,1,1.6-.7,2,2,0,0,1,1.6.7C229.7,59.7,230.1,61,230.1,63Zm-4.3,0c0,1.9.2,3,.6,3.4a1.4,1.4,0,0,0,1,.4,1.2,1.2,0,0,0,.9-.4c.4-.4.7-1.5.7-3.4s-.3-2.9-.7-3.3a1.2,1.2,0,0,0-.9-.4,1.4,1.4,0,0,0-1,.4Q225.8,60.3,225.8,63Z"/><path class="cls-15" d="M236.1,59.2c.8.7,1.1,2,1.1,3.9s-.3,3-1,3.7a3.5,3.5,0,0,1-2.4,1h-1.7V58.3h1.7A3.2,3.2,0,0,1,236.1,59.2Zm-2.3,7.6a2.4,2.4,0,0,0,1.5-.6c.5-.5.7-1.6.7-3.1s-.2-2.7-.8-3.2a2,2,0,0,0-1.4-.6h-.6v7.5Z"/><path class="cls-15" d="M240.6,62.3h3.3v.9h-3.3v3.6h3.8v1h-4.9V58.3h4.7v1h-3.6Z"/><rect class="cls-17" x="86" y="50.5" width="160.4" height="2.2" transform="translate(332.3 103.3) rotate(180)"/><polygon class="cls-15" points="247.6 273.5 247.6 313.7 24.2 337.7 24.1 297.5 247.6 273.5"/><polygon class="cls-16" points="276.6 239.4 276.6 279.6 53.1 303.6 53.1 263.4 276.6 239.4"/><path class="cls-18" d="M119.8,275.2h7.4v2.1h-7.4v8.2h8.6v2.1H117.3V266.3h10.6v2h-8.1Z"/><path class="cls-18" d="M135.7,265.3l3.7,16.1h.2l3.8-16.1h2.5l-5.2,21.3h-2.4l-5.1-21.3Z"/><path class="cls-18" d="M153.8,273.2h7.4v2.1h-7.4v8.2h8.6v2.1H151.3V264.3h10.6v2h-8.1Z"/><path class="cls-18" d="M179.2,262.3v21.3h-3l-5.7-16h-.1v16h-2.6V262.3h3.1l5.7,15.9h.1V262.3Z"/><path class="cls-18" d="M188.2,282.6V263.3H184v-2h11.2v2h-4.5v19.3Z"/><path class="cls-18" d="M211.7,269.9c0,4.6-.8,7.7-2.5,9.3a4.9,4.9,0,0,1-3.6,1.4,5.3,5.3,0,0,1-3.7-1.4q-2.4-2.4-2.4-9.3c0-4.6.8-7.6,2.4-9.2a4.9,4.9,0,0,1,3.7-1.4,4.5,4.5,0,0,1,3.6,1.4C210.9,262.3,211.7,265.3,211.7,269.9Zm-9.7,0c0,4.1.5,6.7,1.5,7.6a2.7,2.7,0,0,0,4.2,0c1-.9,1.4-3.5,1.4-7.6s-.4-6.6-1.4-7.6a2.7,2.7,0,0,0-4.2,0C202.5,263.3,202,265.8,202,269.9Z"/><path class="cls-19" d="M94.8,304.6l3.7,16.2h.2l3.7-16.2h2.5l-5.1,21.3H97.4l-5.1-21.3Z"/><path class="cls-19" d="M123,302.6h2.5v15.6a3.4,3.4,0,0,0,.8,2.5,3.2,3.2,0,0,0,2.3.8h.1a2.9,2.9,0,0,0,2.2-.8,3.2,3.2,0,0,0,.9-2.5V302.6h2.5v15.6a6.1,6.1,0,0,1-1.7,4.5,5.4,5.4,0,0,1-3.9,1.2h-.1a5.4,5.4,0,0,1-3.9-1.2,6.1,6.1,0,0,1-1.7-4.5Z"/><path class="cls-19" d="M156.9,317.5h1.2v2.4h-4.9v-2.4h1.2V301h-1.2v-2.4h4.9V301h-1.2Z"/><path class="cls-19" d="M185,306.8a4.6,4.6,0,0,1,2.5,4.2,6,6,0,0,1-1.6,4.4,6.1,6.1,0,0,1-4.3,1.5,5.4,5.4,0,0,1-4-1.4,5.8,5.8,0,0,1-1.8-4.2v-1.1h2.5v1a3.3,3.3,0,0,0,.9,2.6,2.9,2.9,0,0,0,2.2.9,3.6,3.6,0,0,0,2.6-.9,3.2,3.2,0,0,0,1-2.5,3,3,0,0,0-1.5-2.6,53.2,53.2,0,0,1-5.2-3.7,4.6,4.6,0,0,1-1.8-3.8,4.9,4.9,0,0,1,1.6-4.1,5.3,5.3,0,0,1,3.6-1.5,4.8,4.8,0,0,1,3.7,1.3,6.1,6.1,0,0,1,1.6,4.6h-2.6a3.4,3.4,0,0,0-.8-3,2.6,2.6,0,0,0-1.9-.7,2.8,2.8,0,0,0-1.9.7,3.5,3.5,0,0,0-.9,2.3,3.8,3.8,0,0,0,1.5,2.8A25.5,25.5,0,0,0,185,306.8Z"/></g></g></svg>