<svg xmlns="http://www.w3.org/2000/svg" xmlns:xlink="http://www.w3.org/1999/xlink" viewBox="0 0 276.6 337.7"><defs><style>.cls-1{fill:#343434;}.cls-2{fill:#168c94;}.cls-3{fill:#eeeff2;}.cls-4{fill:#c1c1c1;}.cls-5{fill:#fff;}.cls-6{fill:#0c0d10;}.cls-7{fill:#6fb746;}.cls-8{fill:#ed6a74;}.cls-9{fill:#f8c420;}.cls-10{fill:#9db261;}.cls-11{fill:url(#Degradado_sin_nombre_6);}.cls-12{fill:url(#Degradado_sin_nombre_6-2);}.cls-13{fill:url(#Degradado_sin_nombre_3);}.cls-14{fill:url(#Degradado_sin_nombre_4);}.cls-15{fill:url(#Degradado_sin_nombre_5);}.cls-16{fill:#822684;}.cls-17{fill:#fab51e;}.cls-18{fill:url(#Degradado_sin_nombre_6-3);}.cls-19{fill:#1d1d1b;}</style><linearGradient id="Degradado_sin_nombre_6" x1="10.64" y1="963.98" x2="69.69" y2="912.24" gradientTransform="matrix(1, 0, 0, -1, 0, 978.16)" gradientUnits="userSpaceOnUse"><stop offset="0.24" stop-color="#e2a052"/><stop offset="0.42" stop-color="#9a6069"/><stop offset="0.56" stop-color="#6c3778"/><stop offset="0.62" stop-color="#59267a"/></linearGradient><linearGradient id="Degradado_sin_nombre_6-2" x1="26.8" y1="956.67" x2="50.99" y2="928.5" xlink:href="#Degradado_sin_nombre_6"/><linearGradient id="Degradado_sin_nombre_3" x1="25.55" y1="952.59" x2="40.09" y2="938.35" gradientTransform="matrix(1, 0, 0, -1, 0, 978.16)" gradientUnits="userSpaceOnUse"><stop offset="0.37" stop-color="#e2a052"/><stop offset="0.41" stop-color="#d59456"/><stop offset="0.67" stop-color="#7d4672"/><stop offset="0.79" stop-color="#59267a"/></linearGradient><linearGradient id="Degradado_sin_nombre_4" x1="27.82" y1="938.64" x2="54.44" y2="920.48" gradientTransform="matrix(1, 0, 0, -1, 0, 978.16)" gradientUnits="userSpaceOnUse"><stop offset="0.22" stop-color="#e2a052"/><stop offset="0.3" stop-color="#be815d"/><stop offset="0.42" stop-color="#945a6b"/><stop offset="0.52" stop-color="#743e75"/><stop offset="0.61" stop-color="#612c7a"/><stop offset="0.67" stop-color="#59267a"/></linearGradient><linearGradient id="Degradado_sin_nombre_5" x1="36.82" y1="935.99" x2="53.85" y2="926.38" gradientTransform="matrix(1, 0, 0, -1, 0, 978.16)" gradientUnits="userSpaceOnUse"><stop offset="0.27" stop-color="#e2a052"/><stop offset="0.33" stop-color="#be815d"/><stop offset="0.41" stop-color="#945a6b"/><stop offset="0.49" stop-color="#743e75"/><stop offset="0.55" stop-color="#612c7a"/><stop offset="0.59" stop-color="#59267a"/></linearGradient><linearGradient id="Degradado_sin_nombre_6-3" x1="665.01" y1="51.63" x2="825.41" y2="51.63" gradientTransform="matrix(1, 0, 0, -1, -579.05, 103.27)" xlink:href="#Degradado_sin_nombre_6"/></defs><title>events_backend</title><g id="Capa_2" data-name="Capa 2"><g id="events_backend"><path class="cls-1" d="M225.4,216.8V106a7.4,7.4,0,0,0-7.4-7.4H55.8a7.5,7.5,0,0,0-7.5,7.4V216.8Z"/><rect class="cls-2" x="56.9" y="106.7" width="160.4" height="102.35"/><path class="cls-3" d="M248.5,216.8H174.2s-1.7,3.5-4.7,3.5H120.1a6.4,6.4,0,0,1-4.8-3.5h-90v7.7H248.5Z"/><path class="cls-4" d="M241.9,229.6H31.8a7.3,7.3,0,0,1-6.5-5H248.2S246.6,229.6,241.9,229.6Z"/><path class="cls-4" d="M174.2,216.8H115.3s1.6,3.5,4.6,3.5h50.2S172.3,220.1,174.2,216.8Z"/><path class="cls-5" d="M70.1,201.2a3.8,3.8,0,0,0,3.7,3.7H199.6a3.8,3.8,0,0,0,3.7-3.7V200H70.1Z"/><path class="cls-5" d="M199.6,110.7H73.8a3.8,3.8,0,0,0-3.7,3.7v2.1H203.3v-2.1A3.8,3.8,0,0,0,199.6,110.7Z"/><rect class="cls-6" x="70.1" y="116.5" width="133.2" height="83.47"/><rect class="cls-7" x="77.9" y="122.5" width="32.6" height="2.36"/><rect class="cls-7" x="81.7" y="126.6" width="18.9" height="2.36"/><rect class="cls-7" x="102.7" y="126.6" width="32.3" height="2.36"/><rect class="cls-7" x="136.6" y="126.6" width="21.8" height="2.36"/><rect class="cls-7" x="87.9" y="131.1" width="21.1" height="2.36"/><rect class="cls-7" x="110.8" y="131.1" width="18.8" height="2.36"/><rect class="cls-7" x="133.1" y="131.1" width="32.5" height="2.36"/><rect class="cls-7" x="167.4" y="131.1" width="22" height="2.36"/><rect class="cls-7" x="87.9" y="135.2" width="32.6" height="2.36"/><rect class="cls-7" x="122" y="135.2" width="14" height="2.36"/><rect class="cls-7" x="138.8" y="135.2" width="32.7" height="2.36"/><rect class="cls-7" x="81.7" y="139.3" width="13.5" height="2.36"/><rect class="cls-7" x="97" y="139.3" width="32.7" height="2.36"/><rect class="cls-7" x="131.2" y="139.3" width="13.5" height="2.36"/><rect class="cls-7" x="81.7" y="143.7" width="21" height="2.36"/><rect class="cls-7" x="104.2" y="143.7" width="16" height="2.36"/><rect class="cls-7" x="87.9" y="147.7" width="8.1" height="2.36"/><rect class="cls-7" x="97.5" y="147.7" width="15.1" height="2.36"/><rect class="cls-7" x="114.9" y="147.7" width="22.7" height="2.36"/><rect class="cls-7" x="77.9" y="153.7" width="23.8" height="2.36"/><rect class="cls-7" x="81.7" y="158" width="18.7" height="2.36"/><rect class="cls-7" x="102.7" y="158" width="32.3" height="2.36"/><rect class="cls-7" x="137.1" y="158" width="21" height="2.36"/><rect class="cls-7" x="88.2" y="162.3" width="21.1" height="2.36"/><rect class="cls-7" x="111" y="162.3" width="19.5" height="2.36"/><rect class="cls-7" x="88.2" y="166.4" width="32.6" height="2.36"/><rect class="cls-7" x="122.1" y="166.4" width="13.8" height="2.36"/><rect class="cls-7" x="138.7" y="166.4" width="16" height="2.36"/><rect class="cls-7" x="88.2" y="170.4" width="11.6" height="2.36"/><rect class="cls-7" x="102.4" y="170.4" width="14.1" height="2.36"/><rect class="cls-7" x="118.9" y="170.4" width="14.8" height="2.36"/><rect class="cls-7" x="82" y="174.5" width="20.7" height="2.36"/><rect class="cls-7" x="104.2" y="174.5" width="16.5" height="2.36"/><rect class="cls-7" x="87.6" y="178.9" width="8" height="2.36"/><rect class="cls-7" x="98" y="178.9" width="14.2" height="2.36"/><rect class="cls-7" x="115" y="178.9" width="22" height="2.36"/><rect class="cls-7" x="81.7" y="184.2" width="20.3" height="2.36"/><rect class="cls-7" x="103.7" y="184.2" width="16.2" height="2.36"/><rect class="cls-7" x="122.4" y="184.2" width="13" height="2.36"/><rect class="cls-7" x="137.6" y="184.2" width="32.5" height="2.36"/><circle class="cls-8" cx="191.2" cy="114" r="1.2"/><circle class="cls-9" cx="195.2" cy="114" r="1.2"/><circle class="cls-10" cx="198.8" cy="114" r="1.2"/><g id="Capa_2-2" data-name="Capa 2"><g id="Capa_2-2-2" data-name="Capa 2-2"><path class="cls-11" d="M39.3,0A39.3,39.3,0,1,0,78.5,39.3,39.3,39.3,0,0,0,39.3,0Zm0,75.2A36,36,0,1,1,75.2,39.3,36,36,0,0,1,39.3,75.2Z"/><polygon class="cls-12" points="41.3 23.6 41.6 13.8 17.9 29 17.9 36.1 41.1 51.2 41 41.8 37 39.3 37 45 22.2 35.5 22.2 30.4 36.9 21.4 36.8 26.2 41.3 23.6"/><polygon class="cls-13" points="34.9 28.7 34.9 24.6 24.3 31.1 24.3 34.5 34.9 41.6 34.9 37 27.6 33.1 34.9 28.7"/><polygon class="cls-14" points="37 36.8 41.1 39.3 41.1 33.4 56.1 43.5 56.1 48 41.2 57.4 41.2 52.7 37 55.6 37 64.8 60.4 49.5 60.4 42.7 37 27.6 37 36.8"/><polygon class="cls-15" points="43.3 37.5 43.3 41.7 50.8 46.1 43.3 50.6 43.3 54.1 53.9 47.5 53.9 44.3 43.3 37.5"/></g></g><path class="cls-16" d="M100.5,42.6a7.5,7.5,0,0,1-10.6,0C87.3,39.9,86,35.8,86,30.1s1.4-11.3,4.3-14.2a7,7,0,0,1,5.1-2.2,6.9,6.9,0,0,1,4.8,1.7,12.1,12.1,0,0,1,3.2,9.1H99.8c-.1-3.4-.7-5.6-1.9-6.8a3.2,3.2,0,0,0-2.5-1,3.8,3.8,0,0,0-2.6,1.1c-2.1,2.2-3.2,6.2-3.2,12s.9,8.6,2.7,10.4a4.5,4.5,0,0,0,2.9,1.3,3.9,3.9,0,0,0,2.7-1.3c1.1-1.1,1.7-3.5,1.8-7.4h3.8C103.2,37.6,102.2,40.9,100.5,42.6Z"/><path class="cls-16" d="M119.2,47.4l1-9h-5.5l-.8,9h-2.5l.9-9h-3.1v-3h3.5L113.8,25h-4.6V22h4.9l.8-8.8h2.6l-1,8.8h5.4l.8-8.8h2.6l-1,8.8h3.2v3H124l-1.1,10.4h4.6v3h-4.9l-.8,9Zm1.3-12L121.6,25h-5.4l-1.1,10.4Z"/><path class="cls-16" d="M136.8,21.5V44.8h-3.2V13.7h5.1L142.1,34h.3l3.4-20.3h5.1V44.8h-3.2V21.5h-.3l-3.9,23.3H141l-3.9-23.3Z"/><path class="cls-17" d="M157.9,44.8V13.7h16.8v3H161.6V27.1h9.9v3h-9.9V44.8Z"/><path class="cls-17" d="M185.8,26.8h10.8v3H185.8v12h12.6v3H182.1V13.7h15.5v3H185.8Z"/><path class="cls-16" d="M219.7,42.6a7.5,7.5,0,0,1-10.6,0c-2.6-2.7-4-6.8-4-12.5s1.5-11.3,4.3-14.2a7,7,0,0,1,5.1-2.2,6.5,6.5,0,0,1,4.8,1.7c2.3,2.3,3.3,5.3,3.2,9.1H219c-.1-3.4-.7-5.6-1.9-6.8a3.3,3.3,0,0,0-2.6-1,3.6,3.6,0,0,0-2.5,1.1c-2.1,2.2-3.2,6.2-3.2,12s.9,8.6,2.7,10.4a3.7,3.7,0,0,0,5.6,0c1.1-1.1,1.6-3.5,1.8-7.4h3.8C222.4,37.6,221.4,40.9,219.7,42.6Z"/><path class="cls-16" d="M246.4,29.2q0,10.1-3.6,13.5a6.9,6.9,0,0,1-5.2,2.1,7,7,0,0,1-5.4-2.1q-3.6-3.5-3.6-13.5c0-6.6,1.2-11.1,3.6-13.4a7,7,0,0,1,5.4-2.1,6.9,6.9,0,0,1,5.2,2.1C245.2,18.1,246.4,22.6,246.4,29.2Zm-14.1,0c0,6,.7,9.8,2.1,11.1a4.2,4.2,0,0,0,3.2,1.5,4.1,4.1,0,0,0,3-1.5c1.4-1.3,2.1-5.1,2.1-11.1s-.7-9.7-2.1-11a4.1,4.1,0,0,0-3-1.5,4.2,4.2,0,0,0-3.2,1.5C233,19.5,232.3,23.2,232.3,29.2Z"/><path class="cls-16" d="M93.1,67.1a2.4,2.4,0,0,1-1.6.7,2.6,2.6,0,0,1-1.6-.7,5.2,5.2,0,0,1-1.2-3.8A6.3,6.3,0,0,1,90,59a2.6,2.6,0,0,1,1.6-.7,1.7,1.7,0,0,1,1.4.6,3.5,3.5,0,0,1,1,2.7H92.9a3.6,3.6,0,0,0-.5-2.1,1.1,1.1,0,0,0-.8-.2,1.1,1.1,0,0,0-.8.3,5.1,5.1,0,0,0-1,3.6,4.4,4.4,0,0,0,.9,3.2,1.1,1.1,0,0,0,.8.3l.9-.3a3.9,3.9,0,0,0,.5-2.3H94A4.3,4.3,0,0,1,93.1,67.1Z"/><path class="cls-16" d="M101.2,63c0,2.1-.3,3.4-1,4.1a2.6,2.6,0,0,1-1.6.7,2.4,2.4,0,0,1-1.7-.7c-.7-.7-1-2-1-4.1s.3-3.3,1-4a2.1,2.1,0,0,1,1.7-.7,2.1,2.1,0,0,1,1.6.7C100.9,59.7,101.2,61,101.2,63ZM97,63c0,1.9.2,3,.6,3.4a1.3,1.3,0,0,0,1,.4,1.2,1.2,0,0,0,.9-.4c.4-.4.6-1.5.6-3.4s-.2-2.9-.6-3.3a1.2,1.2,0,0,0-.9-.4,1.3,1.3,0,0,0-1,.4Q97,60.3,97,63Z"/><path class="cls-16" d="M104.1,60.7v7.1h-.9V58.3h1.5l1,6.2h.1l1-6.2h1.6v9.5h-1V60.7h-.1l-1.1,7.1h-.8l-1.2-7.1Z"/><path class="cls-16" d="M111.3,60.7v7.1h-.9V58.3h1.5l1,6.2h.1l1.1-6.2h1.5v9.5h-1V60.7h-.1l-1.1,7.1h-.8l-1.2-7.1Z"/><path class="cls-16" d="M117.7,58.3h1.1v6.9a1.9,1.9,0,0,0,.3,1.2,1.8,1.8,0,0,0,1.1.3h0a1.7,1.7,0,0,0,1-.3,2.1,2.1,0,0,0,.4-1.2V58.3h1.1v6.9a2.6,2.6,0,0,1-.8,2,2.1,2.1,0,0,1-1.7.6h0a2.3,2.3,0,0,1-1.8-.6,2.6,2.6,0,0,1-.7-2Z"/><path class="cls-16" d="M129.9,58.3v9.5h-1.4L126,60.7h0v7.1h-1.1V58.3h1.3l2.5,7.1h.1V58.3Z"/><path class="cls-16" d="M134.1,66.7h.6v1.1h-2.2V66.7h.5V59.4h-.5V58.3h2.2v1.1h-.6Z"/><path class="cls-16" d="M139.2,67.8V59.3h-1.9v-1h5v1h-2v8.5Z"/><path class="cls-16" d="M145.3,58.3l1.7,3.9h0l1.7-3.9h1.1l-2.3,5.2v4.3h-1.1V63.5l-2.2-5.2Z"/><path class="cls-17" d="M156.9,67.8V58.3H162v1h-4v3.1h3v.9h-3v4.5Z"/><path class="cls-17" d="M165.3,62.3h3.3v.9h-3.3v3.6h3.8v1h-4.9V58.3h4.7v1h-3.6Z"/><path class="cls-17" d="M175.3,63.3a2,2,0,0,1,1.1,1.8,2.6,2.6,0,0,1-.8,2,2.6,2.6,0,0,1-4.4-1.8v-.5h1.1v.4a1.5,1.5,0,0,0,.4,1.2,1.3,1.3,0,0,0,1,.4,1.2,1.2,0,0,0,1.1-.4,1.6,1.6,0,0,0,.5-1.1,1.5,1.5,0,0,0-.7-1.2,18.8,18.8,0,0,1-2.3-1.6,2.1,2.1,0,0,1-.8-1.7,2.4,2.4,0,0,1,.7-1.8,2.6,2.6,0,0,1,1.6-.7,2,2,0,0,1,1.6.6,2.4,2.4,0,0,1,.7,2H175a1.6,1.6,0,0,0-.4-1.3,1.2,1.2,0,0,0-1.6,0,1.6,1.6,0,0,0-.5,1.1,1.9,1.9,0,0,0,.7,1.2Z"/><path class="cls-17" d="M180.4,67.8V59.3h-1.9v-1h5v1h-2v8.5Z"/><path class="cls-16" d="M191.6,67.8h-1.1l2.4-9.5h1l2.4,9.5h-1.2l-.6-2.8h-2.2Zm1.8-6.9h-.1l-.7,3.2h1.6Z"/><path class="cls-16" d="M203.1,58.3v9.5h-1.4l-2.5-7.1h0v7.1H198V58.3h1.4l2.5,7.1h.1V58.3Z"/><path class="cls-16" d="M209.3,59.2c.8.7,1.1,2,1.1,3.9s-.3,3-1,3.7a3.5,3.5,0,0,1-2.4,1h-1.7V58.3H207A3.2,3.2,0,0,1,209.3,59.2ZM207,66.8a2.4,2.4,0,0,0,1.5-.6c.5-.5.7-1.6.7-3.1s-.2-2.7-.8-3.2a2,2,0,0,0-1.4-.6h-.6v7.5Z"/><path class="cls-16" d="M222,67.1a2.6,2.6,0,0,1-1.6.7,2.4,2.4,0,0,1-1.6-.7,5.2,5.2,0,0,1-1.2-3.8c0-2,.4-3.4,1.3-4.3a2.3,2.3,0,0,1,1.5-.7,2,2,0,0,1,1.5.6,3.1,3.1,0,0,1,.9,2.7h-1a2.9,2.9,0,0,0-.6-2.1c-.2-.2-.4-.2-.8-.2a.9.9,0,0,0-.7.3c-.7.6-1,1.8-1,3.6a4.9,4.9,0,0,0,.8,3.2,1.6,1.6,0,0,0,.9.3,1.3,1.3,0,0,0,.8-.3,3.9,3.9,0,0,0,.5-2.3h1.2A4.8,4.8,0,0,1,222,67.1Z"/><path class="cls-16" d="M230.1,63c0,2.1-.4,3.4-1.1,4.1a2.4,2.4,0,0,1-1.6.7,2.2,2.2,0,0,1-1.6-.7c-.7-.7-1.1-2-1.1-4.1s.4-3.3,1.1-4a1.9,1.9,0,0,1,1.6-.7,2,2,0,0,1,1.6.7C229.7,59.7,230.1,61,230.1,63Zm-4.3,0c0,1.9.2,3,.6,3.4a1.4,1.4,0,0,0,1,.4,1.2,1.2,0,0,0,.9-.4c.4-.4.7-1.5.7-3.4s-.3-2.9-.7-3.3a1.2,1.2,0,0,0-.9-.4,1.4,1.4,0,0,0-1,.4Q225.8,60.3,225.8,63Z"/><path class="cls-16" d="M236.1,59.2c.8.7,1.1,2,1.1,3.9s-.3,3-1,3.7a3.5,3.5,0,0,1-2.4,1h-1.7V58.3h1.7A3.2,3.2,0,0,1,236.1,59.2Zm-2.3,7.6a2.4,2.4,0,0,0,1.5-.6c.5-.5.7-1.6.7-3.1s-.2-2.7-.8-3.2a2,2,0,0,0-1.4-.6h-.6v7.5Z"/><path class="cls-16" d="M240.6,62.3h3.3v.9h-3.3v3.6h3.8v1h-4.9V58.3h4.7v1h-3.6Z"/><rect class="cls-18" x="86" y="50.5" width="160.4" height="2.2" transform="translate(332.3 103.3) rotate(180)"/><polygon class="cls-16" points="247.6 273.5 247.6 313.7 24.2 337.7 24.1 297.5 247.6 273.5"/><polygon class="cls-17" points="276.6 239.4 276.6 279.6 53.1 303.6 53.1 263.4 276.6 239.4"/><path class="cls-19" d="M119.8,275.2h7.4v2.1h-7.4v8.2h8.6v2.1H117.3V266.3h10.6v2h-8.1Z"/><path class="cls-19" d="M135.7,265.3l3.7,16.1h.2l3.8-16.1h2.5l-5.2,21.3h-2.4l-5.1-21.3Z"/><path class="cls-19" d="M153.8,273.2h7.4v2.1h-7.4v8.2h8.6v2.1H151.3V264.3h10.6v2h-8.1Z"/><path class="cls-19" d="M179.2,262.3v21.3h-3l-5.7-16h-.1v16h-2.6V262.3h3.1l5.7,15.9h.1V262.3Z"/><path class="cls-19" d="M188.2,282.6V263.3H184v-2h11.2v2h-4.5v19.3Z"/><path class="cls-19" d="M211.7,269.9c0,4.6-.8,7.7-2.5,9.3a4.9,4.9,0,0,1-3.6,1.4,5.3,5.3,0,0,1-3.7-1.4q-2.4-2.4-2.4-9.3c0-4.6.8-7.6,2.4-9.2a4.9,4.9,0,0,1,3.7-1.4,4.5,4.5,0,0,1,3.6,1.4C210.9,262.3,211.7,265.3,211.7,269.9Zm-9.7,0c0,4.1.5,6.7,1.5,7.6a2.7,2.7,0,0,0,4.2,0c1-.9,1.4-3.5,1.4-7.6s-.4-6.6-1.4-7.6a2.7,2.7,0,0,0-4.2,0C202.5,263.3,202,265.8,202,269.9Z"/><path class="cls-5" d="M71.5,308.7a5.1,5.1,0,0,1,1.6,3.9,4.5,4.5,0,0,1-1.2,3.3,6.6,6.6,0,0,1-1.6,1.2,7.8,7.8,0,0,1,2,1.4,5.5,5.5,0,0,1,1.4,3.9,5.9,5.9,0,0,1-1.4,4.2,6.6,6.6,0,0,1-4.8,2.1H62V307.3h5.7A5.1,5.1,0,0,1,71.5,308.7ZM69.9,315a3.7,3.7,0,0,0,1-2.4,2.9,2.9,0,0,0-.8-2.2,2.8,2.8,0,0,0-2-1H64.5v6.5h3.3A2.9,2.9,0,0,0,69.9,315Zm-5.4,2.9v8.7H67a4.2,4.2,0,0,0,3.2-1.3,4.5,4.5,0,0,0-.1-6,4,4,0,0,0-2.6-1.4Z"/><path class="cls-5" d="M85.7,325.7H83.1l5.5-21.4h2.2l5.4,21.4H93.6l-1.5-6.3H87.3Zm4.1-15.6h-.2l-1.8,7.3h3.7Z"/><path class="cls-5" d="M115.7,322.1a4.8,4.8,0,0,1-7.2,0c-1.8-1.8-2.7-4.6-2.7-8.5s1-7.8,2.9-9.7a4.6,4.6,0,0,1,3.5-1.6,4.5,4.5,0,0,1,3.3,1.2,8.4,8.4,0,0,1,2.2,6.3h-2.4c-.1-2.4-.5-3.9-1.3-4.7a2.3,2.3,0,0,0-1.8-.7,2.5,2.5,0,0,0-1.7.8c-1.5,1.4-2.2,4.2-2.2,8.2s.6,5.9,1.8,7.1a2.8,2.8,0,0,0,2,.9,2.6,2.6,0,0,0,1.9-.9c.7-.7,1.1-2.4,1.2-5h2.6C117.6,318.7,116.9,321,115.7,322.1Z"/><path class="cls-5" d="M128,320.7V299.3h2.5v9l6.2-9h3l-5.8,8.5,6.2,12.9h-2.8l-5-10.9-1.8,2.4v8.5Z"/><path class="cls-5" d="M152.8,305.3h7.5v2.1h-7.5v8.2h8.7v2.1H150.3V296.3h10.6v2.1h-8.1Z"/><path class="cls-5" d="M183.3,294.3v21.4h-3.1l-5.7-16h-.1v16h-2.5V294.3h3l5.7,16h.1v-16Z"/><path class="cls-5" d="M203.1,294.3c1.6,1.7,2.5,4.6,2.5,8.8s-.8,6.8-2.3,8.4a7.9,7.9,0,0,1-5.6,2.2H194V292.3h3.7A7.3,7.3,0,0,1,203.1,294.3Zm-5.4,17.3a4.9,4.9,0,0,0,3.5-1.5c1.1-1.1,1.7-3.5,1.7-7s-.6-6.1-1.8-7.3a4.8,4.8,0,0,0-3.4-1.4h-1.2v17.2Z"/></g></g></svg>