<svg xmlns="http://www.w3.org/2000/svg" xmlns:xlink="http://www.w3.org/1999/xlink" viewBox="0 0 276.6 337.7"><defs><style>.cls-1{fill:#233353;}.cls-2{fill:#1a2745;}.cls-3{fill:#d1af4f;}.cls-4{fill:#ffd25e;}.cls-5{fill:#ac1917;}.cls-6{fill:#fff;}.cls-7{fill:#c01e18;}.cls-8{fill:#f2f9fa;}.cls-9{fill:#c01b18;}.cls-10{fill:#fcfefe;}.cls-11{fill:#c11c19;}.cls-12{fill:#9e1919;}.cls-13,.cls-23{fill:none;stroke-miterlimit:10;}.cls-13{stroke:#ac1917;}.cls-14{fill:#a61a17;}.cls-15{fill:#e3ece2;}.cls-16{fill:#eadfd7;}.cls-17{fill:#e4e6f0;}.cls-18{fill:#ea5820;}.cls-19{fill:#2d416b;}.cls-20{fill:#046d9c;}.cls-21{fill:#8a7a6d;}.cls-22{fill:#971c15;}.cls-23{stroke:#8a7a6d;}.cls-24{fill:#8b2212;}.cls-25{fill:#253853;}.cls-26{fill:#1c3a5a;}.cls-27{fill:#fcd45a;}.cls-28{fill:#ea5825;}.cls-29{fill:#f9bc21;}.cls-30{fill:#ea5627;}.cls-31{fill:#ffd15d;}.cls-32{fill:#d04d1b;}.cls-33{fill:#192847;}.cls-34{fill:#333c6b;}.cls-35{fill:#e35834;}.cls-36{fill:#931915;}.cls-37{fill:#ea5525;}.cls-38{fill:#fef9fc;}.cls-39{fill:#0485c0;}.cls-40{fill:#2a436d;}.cls-41{fill:#f6d268;}.cls-42{fill:#5e6778;}.cls-43{fill:#ea5823;}.cls-44{fill:#cb2c17;}.cls-45{fill:#353a6c;}.cls-46{fill:#ea5527;}.cls-47{fill:#ca1521;}.cls-48{fill:#b8231b;}.cls-49{fill:#bc1e1f;}.cls-50{fill:#202948;}.cls-51{fill:#343d6f;}.cls-52{fill:#cc4b1c;}.cls-53{fill:#af3b1e;}.cls-54{fill:#ea552b;}.cls-55{fill:#213359;}.cls-56{fill:#f2fafe;}.cls-57{fill:#293358;}.cls-58{fill:#283c66;}.cls-59{fill:#c64522;}.cls-60{fill:#c2191d;}.cls-61{fill:#2c446c;}.cls-62{fill:#d2d3d5;}.cls-63{fill:#c4cfd5;}.cls-64{fill:#a2aaad;}.cls-65{fill:#333e66;}.cls-66{fill:#ffd35f;}.cls-67{fill:#e7be56;}.cls-68{fill:#ea542e;}.cls-69{fill:#fdcd74;}.cls-70{fill:#b1a37d;}.cls-71{fill:#f9f7f2;}.cls-72{fill:#076fa1;}.cls-73{fill:#363d6d;}.cls-74{fill:#f2ecf6;}.cls-75{fill:#303e6b;}.cls-76{fill:#fcc024;}.cls-77{fill:#ea551e;}.cls-78{fill:#fdd360;}.cls-79{fill:#e94f38;}.cls-80{fill:#c21c19;}.cls-81{fill:url(#Degradado_sin_nombre_6);}.cls-82{fill:url(#Degradado_sin_nombre_6-2);}.cls-83{fill:url(#Degradado_sin_nombre_3);}.cls-84{fill:url(#Degradado_sin_nombre_4);}.cls-85{fill:url(#Degradado_sin_nombre_5);}.cls-86{fill:#822684;}.cls-87{fill:#fab51e;}.cls-88{fill:url(#Degradado_sin_nombre_6-3);}.cls-89{fill:#1d1d1b;}</style><linearGradient id="Degradado_sin_nombre_6" x1="10.64" y1="980.01" x2="69.69" y2="928.27" gradientTransform="matrix(1, 0, 0, -1, 0, 994.19)" gradientUnits="userSpaceOnUse"><stop offset="0.24" stop-color="#e2a052"/><stop offset="0.42" stop-color="#9a6069"/><stop offset="0.56" stop-color="#6c3778"/><stop offset="0.62" stop-color="#59267a"/></linearGradient><linearGradient id="Degradado_sin_nombre_6-2" x1="26.8" y1="972.71" x2="50.99" y2="944.53" xlink:href="#Degradado_sin_nombre_6"/><linearGradient id="Degradado_sin_nombre_3" x1="25.55" y1="968.62" x2="40.09" y2="954.38" gradientTransform="matrix(1, 0, 0, -1, 0, 994.19)" gradientUnits="userSpaceOnUse"><stop offset="0.37" stop-color="#e2a052"/><stop offset="0.41" stop-color="#d59456"/><stop offset="0.67" stop-color="#7d4672"/><stop offset="0.79" stop-color="#59267a"/></linearGradient><linearGradient id="Degradado_sin_nombre_4" x1="27.82" y1="954.67" x2="54.44" y2="936.51" gradientTransform="matrix(1, 0, 0, -1, 0, 994.19)" gradientUnits="userSpaceOnUse"><stop offset="0.22" stop-color="#e2a052"/><stop offset="0.3" stop-color="#be815d"/><stop offset="0.42" stop-color="#945a6b"/><stop offset="0.52" stop-color="#743e75"/><stop offset="0.61" stop-color="#612c7a"/><stop offset="0.67" stop-color="#59267a"/></linearGradient><linearGradient id="Degradado_sin_nombre_5" x1="36.82" y1="952.03" x2="53.85" y2="942.41" gradientTransform="matrix(1, 0, 0, -1, 0, 994.19)" gradientUnits="userSpaceOnUse"><stop offset="0.27" stop-color="#e2a052"/><stop offset="0.33" stop-color="#be815d"/><stop offset="0.41" stop-color="#945a6b"/><stop offset="0.49" stop-color="#743e75"/><stop offset="0.55" stop-color="#612c7a"/><stop offset="0.59" stop-color="#59267a"/></linearGradient><linearGradient id="Degradado_sin_nombre_6-3" x1="-724.12" y1="51.63" x2="-563.71" y2="51.63" gradientTransform="matrix(1, 0, 0, -1, 810.07, 103.27)" xlink:href="#Degradado_sin_nombre_6"/></defs><title>events_movil</title><g id="Capa_2" data-name="Capa 2"><g id="events_movil"><rect class="cls-1" x="120.7" y="113.8" width="43.8" height="87.19" rx="14.7"/><circle class="cls-2" cx="135.3" cy="122.1" r="1.2"/><rect class="cls-2" x="138.2" y="121.4" width="9" height="1.25" rx="0.5"/><ellipse class="cls-2" cx="142.6" cy="193.4" rx="5.9" ry="3.3"/><rect class="cls-3" x="142.7" y="137.9" width="18.5" height="48.76"/><rect class="cls-4" x="123.9" y="137.9" width="18.8" height="48.76"/><rect class="cls-5" x="124.2" y="129.2" width="37" height="6.57"/><polygon class="cls-6" points="160.4 130.7 166.4 140.4 158.5 140.4 155.6 130.7 160.4 130.7"/><polygon class="cls-7" points="149.2 130.7 155.6 130.7 158.5 140.4 150.5 140.2 149.2 130.7"/><polygon class="cls-8" points="142.6 130.7 149.2 130.7 150.5 140.2 142.7 140.2 142.6 130.7"/><polygon class="cls-9" points="136.2 130.7 142.6 130.7 142.7 140.2 134.6 140.2 136.2 130.7"/><polygon class="cls-10" points="129.4 130.7 136.2 130.7 134.6 140.2 126.9 140.4 129.4 130.7"/><polygon class="cls-11" points="124.8 130.7 129.4 130.7 126.9 140.4 118.8 140.4 124.8 130.7"/><path class="cls-12" d="M118.8,140.4V143a3.8,3.8,0,0,0,3.6,2.5c2.7,0,4-1.3,4.1-2.7v-2.4Z"/><path class="cls-13" d="M134.8,140.4V143a3.9,3.9,0,0,0,3.6,2.5c2.8,0,4.1-1.3,4.2-2.7v-2.4Z"/><path class="cls-14" d="M134.8,140.4V143a3.9,3.9,0,0,0,3.6,2.5c2.8,0,4.1-1.3,4.2-2.7v-2.4Z"/><path class="cls-15" d="M142.7,140.4V143a3.8,3.8,0,0,0,3.6,2.5c2.7,0,4-1.3,4.1-2.7v-2.4Z"/><path class="cls-14" d="M150.7,140.4V143a3.8,3.8,0,0,0,3.6,2.5c2.7,0,4-1.3,4.1-2.7v-2.4Z"/><path class="cls-16" d="M158.6,140.4V143a3.9,3.9,0,0,0,3.6,2.5c2.7,0,4-1.3,4.2-2.7v-2.4Z"/><path class="cls-17" d="M126.9,140.4V143a3.9,3.9,0,0,0,3.6,2.5c2.7,0,4-1.3,4.2-2.7v-2.4Z"/><rect class="cls-18" x="82.5" y="191.3" width="16.5" height="10.88" rx="3.3"/><rect class="cls-19" x="82.5" y="194" width="16.5" height="1.94"/><rect class="cls-6" x="83.8" y="198.3" width="13.6" height="0.89" rx="0.4"/><rect class="cls-6" x="83.8" y="199.9" width="8.1" height="0.89" rx="0.4"/><rect class="cls-6" x="93.6" y="199.9" width="3.8" height="0.89" rx="0.4"/><rect class="cls-20" x="67.8" y="158.3" width="24.2" height="27.05" rx="10.4"/><rect class="cls-6" x="69.8" y="159.5" width="20.4" height="23.04"/><rect class="cls-21" x="73.2" y="163.7" width="13.6" height="0.56"/><rect class="cls-21" x="73.2" y="166.7" width="13.6" height="0.56"/><rect class="cls-21" x="73.2" y="169.3" width="13.6" height="0.56"/><rect class="cls-21" x="73.2" y="172.2" width="13.6" height="0.56"/><rect class="cls-21" x="73.2" y="174.8" width="13.6" height="0.56"/><rect class="cls-21" x="73.2" y="177.7" width="13.6" height="0.56"/><path class="cls-22" d="M84.1,157.4H82.7V156H81.6s-.6-1.6-1.7-1.7S78,156,78,156h-.5v1.5H76c-2.1,0-2,3.1-2,3.1H86.4C86.4,157.7,84.1,157.4,84.1,157.4Zm-4.2-.8a.8.8,0,0,1-.7-.8.7.7,0,0,1,.7-.7.7.7,0,0,1,.8.7A.8.8,0,0,1,79.9,156.6Z"/><path class="cls-23" d="M95.6,161.4s.8-.9,1.5-.2l1.8,2s.4.5-.3,1.1Z"/><polygon class="cls-24" points="98 165 93.2 169.9 92.5 170.3 88.5 174.4 85.5 171.4 89.6 167.4 90 166.7 95.1 161.7 98.1 164.8 98 165"/><path class="cls-25" d="M95.1,161.8s-.2-.8.5-.4l3,2.9s.5.9-.3.7Z"/><path class="cls-25" d="M92.4,166.4l3.6-3.7-.4-.4-3.4,3.3S91.7,166.4,92.4,166.4Z"/><path class="cls-25" d="M89.6,167.4s-.2-.8.4-.5l3.1,2.9s.5.9-.4.7Z"/><path class="cls-26" d="M85.6,171.5a2.6,2.6,0,0,0-.6,2l-1.5,2.3.6.7,2.1-1.7a2.9,2.9,0,0,0,2.3-.5Z"/><polygon class="cls-27" points="86.4 133.3 84.8 133.3 78.2 139.7 78.2 141 81 141 86.4 135.8 86.4 133.3"/><polygon class="cls-27" points="98.9 133.3 97.5 133.3 90.4 140.1 90.4 140.8 86.4 140.8 86.4 138.2 83.5 141 94.2 141 98.9 135.8 98.9 133.3"/><polygon class="cls-27" points="78.2 133.3 78.2 137.3 82.3 133.3 78.2 133.3"/><polygon class="cls-27" points="95 133.3 90.4 133.3 90.4 137.7 95 133.3"/><polygon class="cls-27" points="98.9 138.4 96.6 141 98.9 141 98.9 138.4"/><rect class="cls-28" x="86.4" y="129" width="4" height="4.27"/><polygon class="cls-29" points="98.9 135.8 94.2 141 96.6 141 98.9 138.4 98.9 135.8"/><polygon class="cls-29" points="90.4 140.1 97.5 133.3 95 133.3 90.4 137.7 90.4 140.1"/><polygon class="cls-29" points="86.4 135.8 81 141 83.5 141 86.4 138.2 86.4 135.8"/><polygon class="cls-29" points="82.3 133.3 78.2 137.3 78.2 139.7 84.8 133.3 82.3 133.3"/><path class="cls-30" d="M94.3,125c-5.1-2.2-5.9,3.5-5.9,3.5s-.8-5.7-5.9-3.5c0,0-.4,3,1.5,4.2h8.8C94.7,128,94.3,125,94.3,125Z"/><rect class="cls-31" x="77.6" y="129" width="21.6" height="4.27"/><path class="cls-32" d="M82.4,125.8s4.8-.2,5.5,3.2H83.8A3.8,3.8,0,0,1,82.4,125.8Z"/><path class="cls-32" d="M94.4,125.9s-4.8-.3-5.5,3.1H93A3.8,3.8,0,0,0,94.4,125.9Z"/><rect class="cls-28" x="86.4" y="129" width="4" height="11.92"/><rect class="cls-11" x="88.4" y="96.8" width="30" height="12.21"/><rect class="cls-33" x="88.4" y="109" width="30" height="2.76"/><circle class="cls-34" cx="102.5" cy="112.3" r="3"/><circle class="cls-35" cx="102.5" cy="112.3" r="1.3"/><circle class="cls-34" cx="109.5" cy="112.3" r="3"/><circle class="cls-35" cx="109.5" cy="112.3" r="1.3"/><polygon class="cls-36" points="118 96.8 88.8 109 118.4 109 118.4 96.8 118 96.8"/><path class="cls-37" d="M88.4,111.7H76.5v-4.5a1.7,1.7,0,0,1,1.9-1.8h3.2l1.9-3.8a1.6,1.6,0,0,1,1.4-.9h2.6s.9-.2.9,1.2Z"/><path class="cls-38" d="M87.7,105.4v-4.1H84.6s-.4,0-.8.9-1.2,2.7-1.2,2.7-.2.6.5.6Z"/><rect class="cls-33" x="86.9" y="105.8" width="0.8" height="2.16" rx="0.3"/><circle class="cls-34" cx="81.4" cy="112.3" r="3"/><circle class="cls-35" cx="81.4" cy="112.3" r="1.3"/><path class="cls-39" d="M146.4,88.1a1,1,0,0,0-1-1l-8.1.4a.9.9,0,0,0-.9,1v1.9l10-.8Z"/><rect class="cls-40" x="134.5" y="90.6" width="14.9" height="11.45" rx="3.2"/><path class="cls-41" d="M150.1,90.4a1,1,0,0,0-1.1-1l-12.8,1-.5.2h12.8a1.1,1.1,0,0,1,1,1v9.3h.4a1,1,0,0,0,1-1.1Z"/><rect class="cls-42" x="135" y="91.2" width="1.1" height="0.78" rx="0.3"/><rect class="cls-42" x="136.5" y="91.2" width="1.1" height="0.78" rx="0.3"/><rect class="cls-42" x="138.1" y="91.2" width="1.1" height="0.78" rx="0.3"/><rect class="cls-42" x="139.6" y="91.2" width="1.1" height="0.78" rx="0.3"/><rect class="cls-42" x="141.2" y="91.2" width="1.1" height="0.78" rx="0.3"/><rect class="cls-42" x="142.7" y="91.2" width="1.1" height="0.78" rx="0.3"/><rect class="cls-42" x="144.3" y="91.2" width="1.1" height="0.78" rx="0.3"/><rect class="cls-42" x="145.8" y="91.2" width="1.1" height="0.78" rx="0.3"/><rect class="cls-42" x="147.2" y="91.2" width="1.1" height="0.78" rx="0.3"/><rect class="cls-42" x="148" y="92.4" width="1.1" height="0.78" rx="0.3" transform="translate(241.4 -55.8) rotate(90)"/><rect class="cls-42" x="148" y="93.9" width="1.1" height="0.78" rx="0.3" transform="matrix(0, 1, -1, 0, 242.86, -54.31)"/><rect class="cls-42" x="148" y="95.5" width="1.1" height="0.78" rx="0.3" transform="translate(244.5 -52.7) rotate(90)"/><rect class="cls-42" x="148" y="97" width="1.1" height="0.78" rx="0.3" transform="translate(246 -51.2) rotate(90)"/><rect class="cls-42" x="148" y="98.5" width="1.1" height="0.78" rx="0.3" transform="translate(247.5 -49.7) rotate(90)"/><rect class="cls-42" x="148" y="99.9" width="1.1" height="0.78" rx="0.3" transform="translate(248.9 -48.3) rotate(90)"/><rect class="cls-42" x="135" y="100.9" width="1.1" height="0.78" rx="0.3"/><rect class="cls-42" x="136.5" y="100.9" width="1.1" height="0.78" rx="0.3"/><rect class="cls-42" x="138.1" y="100.9" width="1.1" height="0.78" rx="0.3"/><rect class="cls-42" x="139.6" y="100.9" width="1.1" height="0.78" rx="0.3"/><rect class="cls-42" x="141.2" y="100.9" width="1.1" height="0.78" rx="0.3"/><rect class="cls-42" x="142.7" y="100.9" width="1.1" height="0.78" rx="0.3"/><rect class="cls-42" x="144.3" y="100.9" width="1.1" height="0.78" rx="0.3"/><rect class="cls-42" x="145.8" y="100.9" width="1.1" height="0.78" rx="0.3"/><rect class="cls-42" x="147.2" y="100.9" width="1.1" height="0.78" rx="0.3"/><path class="cls-43" d="M184.5,99.3l-18-.2,1.3,8.6a.8.8,0,0,0,.9.6l15.8,1.2Z"/><rect class="cls-44" x="170.6" y="100.2" width="1.7" height="0.97"/><rect class="cls-44" x="172.8" y="100.2" width="1.5" height="0.97"/><rect class="cls-44" x="174.9" y="100.2" width="1.5" height="0.97"/><rect class="cls-44" x="176.9" y="100.2" width="1.5" height="0.97"/><rect class="cls-44" x="179.2" y="100.2" width="1.5" height="0.97"/><rect class="cls-44" x="181.4" y="100.2" width="1" height="0.97"/><rect class="cls-44" x="170.6" y="101.8" width="1.7" height="1.82"/><rect class="cls-44" x="172.8" y="101.8" width="1.5" height="1.82"/><rect class="cls-44" x="174.9" y="101.8" width="1.5" height="1.82"/><rect class="cls-44" x="176.9" y="101.8" width="1.5" height="1.82"/><rect class="cls-44" x="179.2" y="101.8" width="1.5" height="1.82"/><rect class="cls-44" x="181.4" y="101.8" width="1" height="1.82"/><polygon class="cls-44" points="168.1 101.8 168.5 103.6 170.1 103.6 170.1 101.8 168.1 101.8"/><rect class="cls-44" x="170.6" y="104.2" width="1.7" height="1.82"/><rect class="cls-44" x="172.8" y="104.2" width="1.5" height="1.82"/><rect class="cls-44" x="174.9" y="104.2" width="1.5" height="1.82"/><rect class="cls-44" x="176.9" y="104.2" width="1.5" height="1.82"/><rect class="cls-44" x="179.2" y="104.2" width="1.5" height="1.82"/><rect class="cls-44" x="181.4" y="104.2" width="1" height="1.82"/><polygon class="cls-44" points="168.5 104.2 168.8 106 170.1 106 170.1 104.2 168.5 104.2"/><rect class="cls-44" x="170.6" y="106.7" width="1.7" height="1.23"/><rect class="cls-44" x="172.8" y="106.7" width="1.5" height="1.23"/><rect class="cls-44" x="174.9" y="106.7" width="1.5" height="1.23"/><rect class="cls-44" x="176.9" y="106.7" width="1.5" height="1.23"/><rect class="cls-44" x="179.2" y="106.7" width="1.5" height="1.23"/><rect class="cls-44" x="181.4" y="106.7" width="1" height="1.23"/><polygon class="cls-44" points="168.9 106.7 169.1 107.9 170.1 108 170.1 106.7 168.9 106.7"/><polygon class="cls-44" points="167.8 100.2 168 101.2 170.1 101.2 170.1 100.2 167.8 100.2"/><path class="cls-45" d="M183.9,97.1a.8.8,0,0,0-.8-.7.7.7,0,0,0-.7.7v14.1H168.5a.7.7,0,0,0-.8.7h0a.7.7,0,0,0,.8.7h14.6a.8.8,0,0,0,.8-.7h0Z"/><path class="cls-46" d="M169.8,110.9a4.6,4.6,0,0,0,.3,2.1v1.1s.7,1.4,1.7,0l.2-1.2a2.5,2.5,0,0,0,.4-2.1Z"/><circle class="cls-47" cx="171.1" cy="114.9" r="1.5"/><circle class="cls-48" cx="171.2" cy="114.9" r="0.4"/><path class="cls-46" d="M178.1,110.9a6.8,6.8,0,0,0,.3,2.1v1.1s.8,1.4,1.8,0v-1.2a2.8,2.8,0,0,0,.5-2.1Z"/><circle class="cls-47" cx="179.5" cy="114.9" r="1.5"/><circle class="cls-48" cx="179.5" cy="114.9" r="0.4"/><path class="cls-49" d="M184.3,97h-2.4V94.4s.1-.7,1.1-.7a1.4,1.4,0,0,1,1.3.7Z"/><rect class="cls-50" x="204.3" y="120.9" width="1.1" height="13.09" rx="0.5"/><path class="cls-51" d="M204.3,127.5v-6s-2.1,2.9-8.2,2.8v3.2Z"/><path class="cls-52" d="M190.1,124.7a3.1,3.1,0,0,0-2.9,2.8h2.9Z"/><path class="cls-53" d="M190.1,130.4v-2.9h-2.9A3.1,3.1,0,0,0,190.1,130.4Z"/><path class="cls-54" d="M195.6,123.6h-4.9a.6.6,0,0,0-.6.5v3.4h6v-3.4A.5.5,0,0,0,195.6,123.6Z"/><rect class="cls-55" x="194.4" y="132.7" width="1.8" height="0.64" rx="0.3"/><rect class="cls-55" x="194.4" y="133.9" width="1.8" height="0.64" rx="0.3"/><rect class="cls-55" x="194.4" y="135.2" width="1.8" height="0.64" rx="0.3"/><path class="cls-56" d="M196.1,130.7h0a.5.5,0,0,1-.3.5h0v1.4h1.3v-1.9Z"/><path class="cls-57" d="M196.1,130.7s7.2,0,8.2,2.6v-5.8h-8.2Z"/><path class="cls-58" d="M195.8,131.2v6.4s-1.6,1.6-2.3-.4-1.1-5.2-1.9-5.9Z"/><path class="cls-59" d="M194,127.5h-3.9v3.2a.6.6,0,0,0,.6.6h4.9a.6.6,0,0,0,.5-.6h0v-3.2Z"/><path class="cls-56" d="M206.4,125.2a3.1,3.1,0,0,1,.1,4.5S209.3,127.4,206.4,125.2Z"/><path class="cls-56" d="M207.2,123.8a5,5,0,0,1,.2,7.3S211.9,127.4,207.2,123.8Z"/><rect class="cls-60" x="187.8" y="150.6" width="24.4" height="3.43" rx="1.5"/><rect class="cls-61" x="198.8" y="148.1" width="10.8" height="1.21" rx="0.5" transform="translate(164.9 -100.9) rotate(45)"/><rect class="cls-61" x="190.5" y="148.2" width="10.8" height="1.21" rx="0.5" transform="translate(439.6 115.6) rotate(135)"/><path class="cls-62" d="M199.2,156.3v5.8a.8.8,0,0,0,.8.8v-7.5A.8.8,0,0,0,199.2,156.3Z"/><path class="cls-63" d="M208.6,162.8l1.5-8.7H200v1.3h0a.9.9,0,0,1,.9.9v5.8a.9.9,0,0,1-.9.8h0v1.3h7.2C208.3,164.2,208.6,162.8,208.6,162.8Z"/><path class="cls-64" d="M200,162.9a.9.9,0,0,0,.9-.8v-5.8a.9.9,0,0,0-.9-.9h0v7.5Z"/><rect class="cls-64" x="202.7" y="155.5" width="1.7" height="7.49" rx="0.7" transform="translate(14.1 -16.5) rotate(4.8)"/><rect class="cls-64" x="205.9" y="155.5" width="1.7" height="7.49" rx="0.7" transform="translate(27.4 -30.4) rotate(9)"/><path class="cls-6" d="M191.4,162.8l-1.5-8.7H200v1.3h0a.9.9,0,0,0-.9.9v5.8a.9.9,0,0,0,.9.8h0v1.3h-7.2C191.7,164.2,191.4,162.8,191.4,162.8Z"/><path class="cls-62" d="M196.8,163h0a.8.8,0,0,0,.8-.9l-.5-5.8a.8.8,0,0,0-1-.7h0a.9.9,0,0,0-.8.9l.5,5.7A.9.9,0,0,0,196.8,163Z"/><path class="cls-62" d="M193.8,163h0a.9.9,0,0,0,.7-1l-.9-5.7a.9.9,0,0,0-1-.7h0a1,1,0,0,0-.8,1l1,5.7A.8.8,0,0,0,193.8,163Z"/><path class="cls-65" d="M201.9,187.6l-3.8-3.7a.9.9,0,0,0-1.3.1l-4,4.3a.5.5,0,0,0-.2.4v10.8a1.7,1.7,0,0,0,1.7,1.7h6.1a1.7,1.7,0,0,0,1.7-1.7V188A.5.5,0,0,0,201.9,187.6Zm-4.4.2a1.2,1.2,0,1,1,0-2.4,1.2,1.2,0,0,1,0,2.4Z"/><path class="cls-6" d="M202.4,174.4c-1.5-3.5-5.9-2.2-7-.9s-1.6,4.5.1,8.2c.5,1.1.8,2,1.1,2.6l.3-.4c-.2-.5-.4-1.3-.9-2.4-1.4-3.4-1-6.2-.1-7.4s4.6-2.5,5.9.7-.9,5.9-2.3,7.5a8.7,8.7,0,0,0-1.3,1.5l-.9,1.2-.3.5h0v.5a17.6,17.6,0,0,1,2.7-3.4C201.5,180.8,204,177.9,202.4,174.4Z"/><path class="cls-65" d="M185.4,185.2l2.8-3a.7.7,0,0,0,0-1l-3.4-3.2-.4-.2h-8.6a1.4,1.4,0,0,0-1.4,1.4V184a1.4,1.4,0,0,0,1.4,1.4H185Zm-.3-3.5a1,1,0,0,1,2,0,1,1,0,0,1-2,0Z"/><polygon class="cls-66" points="167.2 208 166.5 226.5 175.6 226.5 175.6 208 167.2 208"/><polygon class="cls-67" points="184.3 208 175.6 208 175.6 226.5 185 226.5 184.3 208"/><polygon class="cls-68" points="167.3 207.9 183.9 208 182 206.7 183.7 205.5 167.6 205.4 169.4 206.7 167.3 207.9"/><polygon class="cls-69" points="183.7 205.5 184.1 208 183.9 208 182 206.7 183.7 205.5"/><polygon class="cls-69" points="167.6 205.4 167.4 207.9 169.4 206.7 167.6 205.4"/><circle class="cls-70" cx="170" cy="210.1" r="0.7"/><circle class="cls-70" cx="181.5" cy="210.1" r="0.7"/><path class="cls-71" d="M181.7,210.1c0-.1,0-.2-.2-.2l-.2.2h0a5.6,5.6,0,0,1-5.5,5.5,5.7,5.7,0,0,1-5.6-5.5h0l-.2-.2-.2.2h0a5.9,5.9,0,0,0,6,5.8,5.8,5.8,0,0,0,5.9-5.8Z"/><rect class="cls-72" x="143.7" y="225.9" width="3.5" height="12.57" rx="1.5"/><path class="cls-73" d="M151.9,216.6a6.5,6.5,0,1,0-7.2,6.5v3.1a.7.7,0,0,0,.7.7.8.8,0,0,0,.8-.7v-3.1A6.6,6.6,0,0,0,151.9,216.6Zm-6.5,5.5a5.5,5.5,0,0,1-5.5-5.5,5.4,5.4,0,0,1,5.5-5.5,5.5,5.5,0,0,1,5.5,5.5A5.5,5.5,0,0,1,145.4,222.1Z"/><path class="cls-74" d="M144.9,211.9s6.1,0,4.9,5.3c-.1.3-.5.2-.4-.1s1.1-4.2-4.3-4.7C144.5,212.4,144.6,211.9,144.9,211.9Z"/><path class="cls-75" d="M122.2,228.7H107.3V210.9s.5-4.7-6.7-5.9c-.7-.1-.6.7-.1.8s6,.7,6,5.1v18.8h15.7a.5.5,0,0,0,0-1Z"/><rect class="cls-66" x="107.3" y="220.6" width="15" height="8.05"/><rect class="cls-76" x="113.4" y="220.6" width="2.5" height="8.05"/><rect class="cls-77" x="107.3" y="214.6" width="12.5" height="6.02"/><rect class="cls-78" x="107.3" y="207.5" width="6.7" height="7.15"/><circle class="cls-79" cx="106.8" cy="229" r="3"/><circle class="cls-80" cx="106.8" cy="229" r="2"/><g id="Capa_2-2" data-name="Capa 2"><g id="Capa_2-2-2" data-name="Capa 2-2"><path class="cls-81" d="M39.3,0A39.3,39.3,0,1,0,78.5,39.3,39.3,39.3,0,0,0,39.3,0Zm0,75.2A36,36,0,1,1,75.2,39.3,36,36,0,0,1,39.3,75.2Z"/><polygon class="cls-82" points="41.3 23.6 41.6 13.8 17.9 29 17.9 36.1 41.1 51.2 41 41.8 37 39.3 37 45 22.2 35.5 22.2 30.4 36.9 21.4 36.8 26.2 41.3 23.6"/><polygon class="cls-83" points="34.9 28.7 34.9 24.6 24.3 31.1 24.3 34.5 34.9 41.6 34.9 37 27.6 33.1 34.9 28.7"/><polygon class="cls-84" points="37 36.8 41.1 39.3 41.1 33.4 56.1 43.5 56.1 48 41.2 57.4 41.2 52.7 37 55.6 37 64.8 60.4 49.5 60.4 42.7 37 27.6 37 36.8"/><polygon class="cls-85" points="43.3 37.5 43.3 41.7 50.8 46.1 43.3 50.6 43.3 54.1 53.9 47.5 53.9 44.3 43.3 37.5"/></g></g><path class="cls-86" d="M100.5,42.6a7.5,7.5,0,0,1-10.6,0C87.3,39.9,86,35.8,86,30.1s1.4-11.3,4.3-14.2a7,7,0,0,1,5.1-2.2,6.9,6.9,0,0,1,4.8,1.7,12.1,12.1,0,0,1,3.2,9.1H99.8c-.1-3.4-.7-5.6-1.9-6.8a3.2,3.2,0,0,0-2.5-1,3.8,3.8,0,0,0-2.6,1.1c-2.1,2.2-3.2,6.2-3.2,12s.9,8.6,2.7,10.4a4.5,4.5,0,0,0,2.9,1.3,3.9,3.9,0,0,0,2.7-1.3c1.1-1.1,1.7-3.5,1.8-7.4h3.8C103.2,37.6,102.2,40.9,100.5,42.6Z"/><path class="cls-86" d="M119.2,47.4l1-9h-5.5l-.8,9h-2.5l.9-9h-3.1v-3h3.5L113.8,25h-4.6V22h4.9l.8-8.8h2.6l-1,8.8h5.4l.8-8.8h2.6l-1,8.8h3.2v3H124l-1.1,10.4h4.6v3h-4.9l-.8,9Zm1.3-12L121.6,25h-5.4l-1.1,10.4Z"/><path class="cls-86" d="M136.8,21.5V44.8h-3.2V13.7h5.1L142.1,34h.3l3.4-20.3h5.1V44.8h-3.2V21.5h-.3l-3.9,23.3H141l-3.9-23.3Z"/><path class="cls-87" d="M157.9,44.8V13.7h16.8v3H161.6V27.1h9.9v3h-9.9V44.8Z"/><path class="cls-87" d="M185.8,26.8h10.8v3H185.8v12h12.6v3H182.1V13.7h15.5v3H185.8Z"/><path class="cls-86" d="M219.7,42.6a7.5,7.5,0,0,1-10.6,0c-2.6-2.7-4-6.8-4-12.5s1.5-11.3,4.3-14.2a7,7,0,0,1,5.1-2.2,6.5,6.5,0,0,1,4.8,1.7c2.3,2.3,3.3,5.3,3.2,9.1H219c-.1-3.4-.7-5.6-1.9-6.8a3.3,3.3,0,0,0-2.6-1,3.6,3.6,0,0,0-2.5,1.1c-2.1,2.2-3.2,6.2-3.2,12s.9,8.6,2.7,10.4a3.7,3.7,0,0,0,5.6,0c1.1-1.1,1.6-3.5,1.8-7.4h3.8C222.4,37.6,221.4,40.9,219.7,42.6Z"/><path class="cls-86" d="M246.4,29.2q0,10.1-3.6,13.5a6.9,6.9,0,0,1-5.2,2.1,7,7,0,0,1-5.4-2.1q-3.6-3.5-3.6-13.5c0-6.6,1.2-11.1,3.6-13.4a7,7,0,0,1,5.4-2.1,6.9,6.9,0,0,1,5.2,2.1C245.2,18.1,246.4,22.6,246.4,29.2Zm-14.1,0c0,6,.7,9.8,2.1,11.1a4.2,4.2,0,0,0,3.2,1.5,4.1,4.1,0,0,0,3-1.5c1.4-1.3,2.1-5.1,2.1-11.1s-.7-9.7-2.1-11a4.1,4.1,0,0,0-3-1.5,4.2,4.2,0,0,0-3.2,1.5C233,19.5,232.3,23.2,232.3,29.2Z"/><path class="cls-86" d="M93.1,67.1a2.4,2.4,0,0,1-1.6.7,2.6,2.6,0,0,1-1.6-.7,5.2,5.2,0,0,1-1.2-3.8A6.3,6.3,0,0,1,90,59a2.6,2.6,0,0,1,1.6-.7,1.7,1.7,0,0,1,1.4.6,3.5,3.5,0,0,1,1,2.7H92.9a3.6,3.6,0,0,0-.5-2.1,1.1,1.1,0,0,0-.8-.2,1.1,1.1,0,0,0-.8.3,5.1,5.1,0,0,0-1,3.6,4.4,4.4,0,0,0,.9,3.2,1.1,1.1,0,0,0,.8.3l.9-.3a3.9,3.9,0,0,0,.5-2.3H94A4.3,4.3,0,0,1,93.1,67.1Z"/><path class="cls-86" d="M101.2,63c0,2.1-.3,3.4-1,4.1a2.6,2.6,0,0,1-1.6.7,2.4,2.4,0,0,1-1.7-.7c-.7-.7-1-2-1-4.1s.3-3.3,1-4a2.1,2.1,0,0,1,1.7-.7,2.1,2.1,0,0,1,1.6.7C100.9,59.7,101.2,61,101.2,63ZM97,63c0,1.9.2,3,.6,3.4a1.3,1.3,0,0,0,1,.4,1.2,1.2,0,0,0,.9-.4c.4-.4.6-1.5.6-3.4s-.2-2.9-.6-3.3a1.2,1.2,0,0,0-.9-.4,1.3,1.3,0,0,0-1,.4Q97,60.3,97,63Z"/><path class="cls-86" d="M104.1,60.7v7.1h-.9V58.3h1.5l1,6.2h.1l1-6.2h1.6v9.5h-1V60.7h-.1l-1.1,7.1h-.8l-1.2-7.1Z"/><path class="cls-86" d="M111.3,60.7v7.1h-.9V58.3h1.5l1,6.2h.1l1.1-6.2h1.5v9.5h-1V60.7h-.1l-1.1,7.1h-.8l-1.2-7.1Z"/><path class="cls-86" d="M117.7,58.3h1.1v6.9a1.9,1.9,0,0,0,.3,1.2,1.8,1.8,0,0,0,1.1.3h0a1.7,1.7,0,0,0,1-.3,2.1,2.1,0,0,0,.4-1.2V58.3h1.1v6.9a2.6,2.6,0,0,1-.8,2,2.1,2.1,0,0,1-1.7.6h0a2.3,2.3,0,0,1-1.8-.6,2.6,2.6,0,0,1-.7-2Z"/><path class="cls-86" d="M129.9,58.3v9.5h-1.4L126,60.7h0v7.1h-1.1V58.3h1.3l2.5,7.1h.1V58.3Z"/><path class="cls-86" d="M134.1,66.7h.6v1.1h-2.2V66.7h.5V59.4h-.5V58.3h2.2v1.1h-.6Z"/><path class="cls-86" d="M139.2,67.8V59.3h-1.9v-1h5v1h-2v8.5Z"/><path class="cls-86" d="M145.3,58.3l1.7,3.9h0l1.7-3.9h1.1l-2.3,5.2v4.3h-1.1V63.5l-2.2-5.2Z"/><path class="cls-87" d="M156.9,67.8V58.3H162v1h-4v3.1h3v.9h-3v4.5Z"/><path class="cls-87" d="M165.3,62.3h3.3v.9h-3.3v3.6h3.8v1h-4.9V58.3h4.7v1h-3.6Z"/><path class="cls-87" d="M175.3,63.3a2,2,0,0,1,1.1,1.8,2.6,2.6,0,0,1-.8,2,2.6,2.6,0,0,1-4.4-1.8v-.5h1.1v.4a1.5,1.5,0,0,0,.4,1.2,1.3,1.3,0,0,0,1,.4,1.2,1.2,0,0,0,1.1-.4,1.6,1.6,0,0,0,.5-1.1,1.5,1.5,0,0,0-.7-1.2,18.8,18.8,0,0,1-2.3-1.6,2.1,2.1,0,0,1-.8-1.7,2.4,2.4,0,0,1,.7-1.8,2.6,2.6,0,0,1,1.6-.7,2,2,0,0,1,1.6.6,2.4,2.4,0,0,1,.7,2H175a1.6,1.6,0,0,0-.4-1.3,1.2,1.2,0,0,0-1.6,0,1.6,1.6,0,0,0-.5,1.1,1.9,1.9,0,0,0,.7,1.2Z"/><path class="cls-87" d="M180.4,67.8V59.3h-1.9v-1h5v1h-2v8.5Z"/><path class="cls-86" d="M191.6,67.8h-1.1l2.4-9.5h1l2.4,9.5h-1.2l-.6-2.8h-2.2Zm1.8-6.9h-.1l-.7,3.2h1.6Z"/><path class="cls-86" d="M203.1,58.3v9.5h-1.4l-2.5-7.1h0v7.1H198V58.3h1.4l2.5,7.1h.1V58.3Z"/><path class="cls-86" d="M209.3,59.2c.8.7,1.1,2,1.1,3.9s-.3,3-1,3.7a3.5,3.5,0,0,1-2.4,1h-1.7V58.3H207A3.2,3.2,0,0,1,209.3,59.2ZM207,66.8a2.4,2.4,0,0,0,1.5-.6c.5-.5.7-1.6.7-3.1s-.2-2.7-.8-3.2a2,2,0,0,0-1.4-.6h-.6v7.5Z"/><path class="cls-86" d="M222,67.1a2.6,2.6,0,0,1-1.6.7,2.4,2.4,0,0,1-1.6-.7,5.2,5.2,0,0,1-1.2-3.8c0-2,.4-3.4,1.3-4.3a2.3,2.3,0,0,1,1.5-.7,2,2,0,0,1,1.5.6,3.1,3.1,0,0,1,.9,2.7h-1a2.9,2.9,0,0,0-.6-2.1c-.2-.2-.4-.2-.8-.2a.9.9,0,0,0-.7.3c-.7.6-1,1.8-1,3.6a4.9,4.9,0,0,0,.8,3.2,1.6,1.6,0,0,0,.9.3,1.3,1.3,0,0,0,.8-.3,3.9,3.9,0,0,0,.5-2.3h1.2A4.8,4.8,0,0,1,222,67.1Z"/><path class="cls-86" d="M230.1,63c0,2.1-.4,3.4-1.1,4.1a2.4,2.4,0,0,1-1.6.7,2.2,2.2,0,0,1-1.6-.7c-.7-.7-1.1-2-1.1-4.1s.4-3.3,1.1-4a1.9,1.9,0,0,1,1.6-.7,2,2,0,0,1,1.6.7C229.7,59.7,230.1,61,230.1,63Zm-4.3,0c0,1.9.2,3,.6,3.4a1.4,1.4,0,0,0,1,.4,1.2,1.2,0,0,0,.9-.4c.4-.4.7-1.5.7-3.4s-.3-2.9-.7-3.3a1.2,1.2,0,0,0-.9-.4,1.4,1.4,0,0,0-1,.4Q225.8,60.3,225.8,63Z"/><path class="cls-86" d="M236.1,59.2c.8.7,1.1,2,1.1,3.9s-.3,3-1,3.7a3.5,3.5,0,0,1-2.4,1h-1.7V58.3h1.7A3.2,3.2,0,0,1,236.1,59.2Zm-2.3,7.6a2.4,2.4,0,0,0,1.5-.6c.5-.5.7-1.6.7-3.1s-.2-2.7-.8-3.2a2,2,0,0,0-1.4-.6h-.6v7.5Z"/><path class="cls-86" d="M240.6,62.3h3.3v.9h-3.3v3.6h3.8v1h-4.9V58.3h4.7v1h-3.6Z"/><rect class="cls-88" x="86" y="50.5" width="160.4" height="2.2" transform="translate(332.3 103.3) rotate(180)"/><polygon class="cls-86" points="247.6 273.5 247.6 313.7 24.2 337.7 24.1 297.5 247.6 273.5"/><polygon class="cls-87" points="276.6 239.4 276.6 279.6 53.1 303.6 53.1 263.4 276.6 239.4"/><path class="cls-89" d="M119.8,275.2h7.4v2.1h-7.4v8.2h8.6v2.1H117.3V266.3h10.6v2h-8.1Z"/><path class="cls-89" d="M135.7,265.3l3.7,16.1h.2l3.8-16.1h2.5l-5.2,21.3h-2.4l-5.1-21.3Z"/><path class="cls-89" d="M153.8,273.2h7.4v2.1h-7.4v8.2h8.6v2.1H151.3V264.3h10.6v2h-8.1Z"/><path class="cls-89" d="M179.2,262.3v21.3h-3l-5.7-16h-.1v16h-2.6V262.3h3.1l5.7,15.9h.1V262.3Z"/><path class="cls-89" d="M188.2,282.6V263.3H184v-2h11.2v2h-4.5v19.3Z"/><path class="cls-89" d="M211.7,269.9c0,4.6-.8,7.7-2.5,9.3a4.9,4.9,0,0,1-3.6,1.4,5.3,5.3,0,0,1-3.7-1.4q-2.4-2.4-2.4-9.3c0-4.6.8-7.6,2.4-9.2a4.9,4.9,0,0,1,3.7-1.4,4.5,4.5,0,0,1,3.6,1.4C210.9,262.3,211.7,265.3,211.7,269.9Zm-9.7,0c0,4.1.5,6.7,1.5,7.6a2.7,2.7,0,0,0,4.2,0c1-.9,1.4-3.5,1.4-7.6s-.4-6.6-1.4-7.6a2.7,2.7,0,0,0-4.2,0C202.5,263.3,202,265.8,202,269.9Z"/><path class="cls-6" d="M98.2,310.3v16H96V305h3.5l2.3,13.9h.2l2.3-13.9h3.5v21.3h-2.2v-16h-.2l-2.6,16h-1.7l-2.7-16Z"/><path class="cls-6" d="M129.9,313.5q0,5.7-2.4,8.4a4.6,4.6,0,0,1-3.6,1.4,4.8,4.8,0,0,1-3.7-1.4q-2.4-2.7-2.4-8.4c0-3.5.8-6.1,2.4-8a4.5,4.5,0,0,1,3.7-1.4,4.3,4.3,0,0,1,3.6,1.4C129.1,307.4,129.9,310,129.9,313.5Zm-6-7.4a3,3,0,0,0-2.2,1c-.9,1.3-1.4,3.4-1.4,6.4s.5,5.7,1.4,6.7a2.7,2.7,0,0,0,2.2,1,2.4,2.4,0,0,0,2.1-1c1-1,1.4-3.3,1.4-6.7s-.4-5.1-1.4-6.4A2.7,2.7,0,0,0,123.9,306.1Zm-.1-2.9H122l3.1-3.6h3.3Z"/><path class="cls-6" d="M142,300l3.7,16.2h.2l3.7-16.2h2.6L147,321.3h-2.4L139.5,300Z"/><path class="cls-6" d="M169.1,315.9h1.2v2.4h-4.9v-2.4h1.2V299.4h-1.2V297h4.9v2.4h-1.2Z"/><path class="cls-6" d="M184.3,294h2.6v19.2h8.8v2.1H184.3Z"/></g></g></svg>