<svg xmlns="http://www.w3.org/2000/svg" xmlns:xlink="http://www.w3.org/1999/xlink" viewBox="0 0 276.6 337.7"><defs><style>.cls-1{fill:#a1b0c3;}.cls-2{fill:#8c9ca9;}.cls-3{fill:#f3efe8;}.cls-4{fill:#6ac5d6;}.cls-5{fill:#82cde2;}.cls-6{fill:#ec9874;}.cls-7{fill:#a7d7d4;}.cls-8{fill:#98a2ab;}.cls-9{fill:#fbd568;}.cls-10{fill:#f1c64a;}.cls-11{fill:#e05c51;}.cls-12{fill:#ee7677;}.cls-13{fill:#838f9d;}.cls-14{fill:#fbca43;}.cls-15{fill:#efa88f;}.cls-16{fill:#a9d7ce;}.cls-17{fill:#f19f8b;}.cls-18{fill:#fbd36a;}.cls-19{fill:#76c5d2;}.cls-20{fill:#979dae;}.cls-21{fill:#e77475;}.cls-22{fill:#f39679;}.cls-23{fill:#a9d8d3;}.cls-24{fill:#fdd36c;}.cls-25{fill:url(#Degradado_sin_nombre_6);}.cls-26{fill:url(#Degradado_sin_nombre_6-2);}.cls-27{fill:url(#Degradado_sin_nombre_3);}.cls-28{fill:url(#Degradado_sin_nombre_4);}.cls-29{fill:url(#Degradado_sin_nombre_5);}.cls-30{fill:#822684;}.cls-31{fill:#fab51e;}.cls-32{fill:url(#Degradado_sin_nombre_6-3);}.cls-33{fill:#1d1d1b;}.cls-34{fill:#fff;}</style><linearGradient id="Degradado_sin_nombre_6" x1="10.64" y1="971.22" x2="69.69" y2="919.48" gradientTransform="matrix(1, 0, 0, -1, 0, 985.4)" gradientUnits="userSpaceOnUse"><stop offset="0.24" stop-color="#e2a052"/><stop offset="0.42" stop-color="#9a6069"/><stop offset="0.56" stop-color="#6c3778"/><stop offset="0.62" stop-color="#59267a"/></linearGradient><linearGradient id="Degradado_sin_nombre_6-2" x1="26.8" y1="963.92" x2="50.99" y2="935.75" xlink:href="#Degradado_sin_nombre_6"/><linearGradient id="Degradado_sin_nombre_3" x1="25.55" y1="959.84" x2="40.09" y2="945.6" gradientTransform="matrix(1, 0, 0, -1, 0, 985.4)" gradientUnits="userSpaceOnUse"><stop offset="0.37" stop-color="#e2a052"/><stop offset="0.41" stop-color="#d59456"/><stop offset="0.67" stop-color="#7d4672"/><stop offset="0.79" stop-color="#59267a"/></linearGradient><linearGradient id="Degradado_sin_nombre_4" x1="27.82" y1="945.89" x2="54.44" y2="927.73" gradientTransform="matrix(1, 0, 0, -1, 0, 985.4)" gradientUnits="userSpaceOnUse"><stop offset="0.22" stop-color="#e2a052"/><stop offset="0.3" stop-color="#be815d"/><stop offset="0.42" stop-color="#945a6b"/><stop offset="0.52" stop-color="#743e75"/><stop offset="0.61" stop-color="#612c7a"/><stop offset="0.67" stop-color="#59267a"/></linearGradient><linearGradient id="Degradado_sin_nombre_5" x1="36.82" y1="943.24" x2="53.85" y2="933.63" gradientTransform="matrix(1, 0, 0, -1, 0, 985.4)" gradientUnits="userSpaceOnUse"><stop offset="0.27" stop-color="#e2a052"/><stop offset="0.33" stop-color="#be815d"/><stop offset="0.41" stop-color="#945a6b"/><stop offset="0.49" stop-color="#743e75"/><stop offset="0.55" stop-color="#612c7a"/><stop offset="0.59" stop-color="#59267a"/></linearGradient><linearGradient id="Degradado_sin_nombre_6-3" x1="-15.66" y1="51.63" x2="144.74" y2="51.63" gradientTransform="matrix(1, 0, 0, -1, 101.62, 103.27)" xlink:href="#Degradado_sin_nombre_6"/></defs><title>events_frontend</title><g id="Capa_2" data-name="Capa 2"><g id="events_frontend"><rect class="cls-1" x="64.8" y="88.7" width="167.2" height="109.1" rx="18.3"/><polygon class="cls-2" points="165.5 197.8 131.1 197.8 128.7 225.1 120.3 225.1 120.3 230.7 175.2 230.7 175.2 225.1 168.1 225.1 165.5 197.8"/><rect class="cls-3" x="74.6" y="99.6" width="147.7" height="88.4"/><rect class="cls-4" x="76.7" y="102.2" width="41.9" height="36.9"/><rect class="cls-5" x="79.4" y="104.4" width="12.3" height="12.68"/><rect class="cls-5" x="94.2" y="104.4" width="22.2" height="5.44"/><rect class="cls-5" x="94.2" y="111.7" width="22.2" height="5.44"/><rect class="cls-5" x="79.4" y="119.3" width="37" height="17.25"/><rect class="cls-6" x="121.2" y="102.2" width="41.7" height="17.06"/><rect class="cls-7" x="121.2" y="122.1" width="41.7" height="17.06"/><rect class="cls-8" x="77" y="141.3" width="4.7" height="34.89"/><rect class="cls-8" x="84.5" y="141.3" width="4.7" height="14.83"/><rect class="cls-8" x="84.5" y="158.7" width="4.7" height="17.45"/><rect class="cls-8" x="91.7" y="141.3" width="4.7" height="34.89"/><rect class="cls-8" x="99.1" y="141.3" width="4.7" height="8.21"/><rect class="cls-8" x="99.1" y="170.8" width="4.7" height="5.43"/><rect class="cls-8" x="99.1" y="151.2" width="4.7" height="17.27"/><rect class="cls-8" x="106.7" y="141.3" width="4.7" height="12.64"/><rect class="cls-8" x="106.7" y="156.1" width="4.7" height="20.06"/><rect class="cls-8" x="113.9" y="141.3" width="4.7" height="22.25"/><rect class="cls-8" x="113.9" y="165.8" width="4.7" height="10.4"/><rect class="cls-9" x="121.4" y="141.6" width="41.7" height="34.34"/><rect class="cls-10" x="124.1" y="144.1" width="16.5" height="12"/><rect class="cls-10" x="143.4" y="144.1" width="16.5" height="12"/><rect class="cls-10" x="124.1" y="158.8" width="35.8" height="14.19"/><rect class="cls-11" x="165.3" y="102.2" width="27.1" height="53.89"/><rect class="cls-12" x="167.8" y="104.4" width="22.2" height="7.96"/><rect class="cls-12" x="167.8" y="114.1" width="22.2" height="7.96"/><rect class="cls-12" x="167.8" y="123.8" width="22.2" height="7.96"/><rect class="cls-12" x="167.8" y="134.2" width="22.2" height="19.84"/><rect class="cls-13" x="194.8" y="102.2" width="24.6" height="17.06"/><rect class="cls-14" x="194.8" y="122.1" width="24.6" height="34.04"/><rect class="cls-15" x="165.3" y="158.8" width="54.1" height="17.17"/><rect class="cls-16" x="103.8" y="178.3" width="7.6" height="7.17"/><rect class="cls-17" x="113.9" y="178.3" width="7.6" height="7.17"/><rect class="cls-18" x="124.1" y="178.3" width="7.6" height="7.17"/><rect class="cls-19" x="134.2" y="178.3" width="7.6" height="7.17"/><rect class="cls-20" x="144.1" y="178.3" width="7.6" height="7.17"/><rect class="cls-21" x="154.2" y="178.3" width="7.6" height="7.17"/><rect class="cls-22" x="164.3" y="178.3" width="7.6" height="7.17"/><rect class="cls-23" x="174.4" y="178.3" width="7.6" height="7.17"/><rect class="cls-24" x="184.5" y="178.3" width="7.6" height="7.17"/><circle class="cls-2" cx="148.4" cy="193.3" r="2.6"/><g id="Capa_2-2" data-name="Capa 2"><g id="Capa_2-2-2" data-name="Capa 2-2"><path class="cls-25" d="M39.3,0A39.3,39.3,0,1,0,78.5,39.3,39.3,39.3,0,0,0,39.3,0Zm0,75.2A36,36,0,1,1,75.2,39.3,36,36,0,0,1,39.3,75.2Z"/><polygon class="cls-26" points="41.3 23.6 41.6 13.8 17.9 29 17.9 36.1 41.1 51.2 41 41.8 37 39.3 37 45 22.2 35.5 22.2 30.4 36.9 21.4 36.8 26.2 41.3 23.6"/><polygon class="cls-27" points="34.9 28.7 34.9 24.6 24.3 31.1 24.3 34.5 34.9 41.6 34.9 37 27.6 33.1 34.9 28.7"/><polygon class="cls-28" points="37 36.8 41.1 39.3 41.1 33.4 56.1 43.5 56.1 48 41.2 57.4 41.2 52.7 37 55.6 37 64.8 60.4 49.5 60.4 42.7 37 27.6 37 36.8"/><polygon class="cls-29" points="43.3 37.5 43.3 41.7 50.8 46.1 43.3 50.6 43.3 54.1 53.9 47.5 53.9 44.3 43.3 37.5"/></g></g><path class="cls-30" d="M100.5,42.6a7.5,7.5,0,0,1-10.6,0C87.3,39.9,86,35.8,86,30.1s1.4-11.3,4.3-14.2a7,7,0,0,1,5.1-2.2,6.9,6.9,0,0,1,4.8,1.7,12.1,12.1,0,0,1,3.2,9.1H99.8c-.1-3.4-.7-5.6-1.9-6.8a3.2,3.2,0,0,0-2.5-1,3.8,3.8,0,0,0-2.6,1.1c-2.1,2.2-3.2,6.2-3.2,12s.9,8.6,2.7,10.4a4.5,4.5,0,0,0,2.9,1.3,3.9,3.9,0,0,0,2.7-1.3c1.1-1.1,1.7-3.5,1.8-7.4h3.8C103.2,37.6,102.2,40.9,100.5,42.6Z"/><path class="cls-30" d="M119.2,47.4l1-9h-5.5l-.8,9h-2.5l.9-9h-3.1v-3h3.5L113.8,25h-4.6V22h4.9l.8-8.8h2.6l-1,8.8h5.4l.8-8.8h2.6l-1,8.8h3.2v3H124l-1.1,10.4h4.6v3h-4.9l-.8,9Zm1.3-12L121.6,25h-5.4l-1.1,10.4Z"/><path class="cls-30" d="M136.8,21.5V44.8h-3.2V13.7h5.1L142.1,34h.3l3.4-20.3h5.1V44.8h-3.2V21.5h-.3l-3.9,23.3H141l-3.9-23.3Z"/><path class="cls-31" d="M157.9,44.8V13.7h16.8v3H161.6V27.1h9.9v3h-9.9V44.8Z"/><path class="cls-31" d="M185.8,26.8h10.8v3H185.8v12h12.6v3H182.1V13.7h15.5v3H185.8Z"/><path class="cls-30" d="M219.7,42.6a7.5,7.5,0,0,1-10.6,0c-2.6-2.7-4-6.8-4-12.5s1.5-11.3,4.3-14.2a7,7,0,0,1,5.1-2.2,6.5,6.5,0,0,1,4.8,1.7c2.3,2.3,3.3,5.3,3.2,9.1H219c-.1-3.4-.7-5.6-1.9-6.8a3.3,3.3,0,0,0-2.6-1,3.6,3.6,0,0,0-2.5,1.1c-2.1,2.2-3.2,6.2-3.2,12s.9,8.6,2.7,10.4a3.7,3.7,0,0,0,5.6,0c1.1-1.1,1.6-3.5,1.8-7.4h3.8C222.4,37.6,221.4,40.9,219.7,42.6Z"/><path class="cls-30" d="M246.4,29.2q0,10.1-3.6,13.5a6.9,6.9,0,0,1-5.2,2.1,7,7,0,0,1-5.4-2.1q-3.6-3.5-3.6-13.5c0-6.6,1.2-11.1,3.6-13.4a7,7,0,0,1,5.4-2.1,6.9,6.9,0,0,1,5.2,2.1C245.2,18.1,246.4,22.6,246.4,29.2Zm-14.1,0c0,6,.7,9.8,2.1,11.1a4.2,4.2,0,0,0,3.2,1.5,4.1,4.1,0,0,0,3-1.5c1.4-1.3,2.1-5.1,2.1-11.1s-.7-9.7-2.1-11a4.1,4.1,0,0,0-3-1.5,4.2,4.2,0,0,0-3.2,1.5C233,19.5,232.3,23.2,232.3,29.2Z"/><path class="cls-30" d="M93.1,67.1a2.4,2.4,0,0,1-1.6.7,2.6,2.6,0,0,1-1.6-.7,5.2,5.2,0,0,1-1.2-3.8A6.3,6.3,0,0,1,90,59a2.6,2.6,0,0,1,1.6-.7,1.7,1.7,0,0,1,1.4.6,3.5,3.5,0,0,1,1,2.7H92.9a3.6,3.6,0,0,0-.5-2.1,1.1,1.1,0,0,0-.8-.2,1.1,1.1,0,0,0-.8.3,5.1,5.1,0,0,0-1,3.6,4.4,4.4,0,0,0,.9,3.2,1.1,1.1,0,0,0,.8.3l.9-.3a3.9,3.9,0,0,0,.5-2.3H94A4.3,4.3,0,0,1,93.1,67.1Z"/><path class="cls-30" d="M101.2,63c0,2.1-.3,3.4-1,4.1a2.6,2.6,0,0,1-1.6.7,2.4,2.4,0,0,1-1.7-.7c-.7-.7-1-2-1-4.1s.3-3.3,1-4a2.1,2.1,0,0,1,1.7-.7,2.1,2.1,0,0,1,1.6.7C100.9,59.7,101.2,61,101.2,63ZM97,63c0,1.9.2,3,.6,3.4a1.3,1.3,0,0,0,1,.4,1.2,1.2,0,0,0,.9-.4c.4-.4.6-1.5.6-3.4s-.2-2.9-.6-3.3a1.2,1.2,0,0,0-.9-.4,1.3,1.3,0,0,0-1,.4Q97,60.3,97,63Z"/><path class="cls-30" d="M104.1,60.7v7.1h-.9V58.3h1.5l1,6.2h.1l1-6.2h1.6v9.5h-1V60.7h-.1l-1.1,7.1h-.8l-1.2-7.1Z"/><path class="cls-30" d="M111.3,60.7v7.1h-.9V58.3h1.5l1,6.2h.1l1.1-6.2h1.5v9.5h-1V60.7h-.1l-1.1,7.1h-.8l-1.2-7.1Z"/><path class="cls-30" d="M117.7,58.3h1.1v6.9a1.9,1.9,0,0,0,.3,1.2,1.8,1.8,0,0,0,1.1.3h0a1.7,1.7,0,0,0,1-.3,2.1,2.1,0,0,0,.4-1.2V58.3h1.1v6.9a2.6,2.6,0,0,1-.8,2,2.1,2.1,0,0,1-1.7.6h0a2.3,2.3,0,0,1-1.8-.6,2.6,2.6,0,0,1-.7-2Z"/><path class="cls-30" d="M129.9,58.3v9.5h-1.4L126,60.7h0v7.1h-1.1V58.3h1.3l2.5,7.1h.1V58.3Z"/><path class="cls-30" d="M134.1,66.7h.6v1.1h-2.2V66.7h.5V59.4h-.5V58.3h2.2v1.1h-.6Z"/><path class="cls-30" d="M139.2,67.8V59.3h-1.9v-1h5v1h-2v8.5Z"/><path class="cls-30" d="M145.3,58.3l1.7,3.9h0l1.7-3.9h1.1l-2.3,5.2v4.3h-1.1V63.5l-2.2-5.2Z"/><path class="cls-31" d="M156.9,67.8V58.3H162v1h-4v3.1h3v.9h-3v4.5Z"/><path class="cls-31" d="M165.3,62.3h3.3v.9h-3.3v3.6h3.8v1h-4.9V58.3h4.7v1h-3.6Z"/><path class="cls-31" d="M175.3,63.3a2,2,0,0,1,1.1,1.8,2.6,2.6,0,0,1-.8,2,2.6,2.6,0,0,1-4.4-1.8v-.5h1.1v.4a1.5,1.5,0,0,0,.4,1.2,1.3,1.3,0,0,0,1,.4,1.2,1.2,0,0,0,1.1-.4,1.6,1.6,0,0,0,.5-1.1,1.5,1.5,0,0,0-.7-1.2,18.8,18.8,0,0,1-2.3-1.6,2.1,2.1,0,0,1-.8-1.7,2.4,2.4,0,0,1,.7-1.8,2.6,2.6,0,0,1,1.6-.7,2,2,0,0,1,1.6.6,2.4,2.4,0,0,1,.7,2H175a1.6,1.6,0,0,0-.4-1.3,1.2,1.2,0,0,0-1.6,0,1.6,1.6,0,0,0-.5,1.1,1.9,1.9,0,0,0,.7,1.2Z"/><path class="cls-31" d="M180.4,67.8V59.3h-1.9v-1h5v1h-2v8.5Z"/><path class="cls-30" d="M191.6,67.8h-1.1l2.4-9.5h1l2.4,9.5h-1.2l-.6-2.8h-2.2Zm1.8-6.9h-.1l-.7,3.2h1.6Z"/><path class="cls-30" d="M203.1,58.3v9.5h-1.4l-2.5-7.1h0v7.1H198V58.3h1.4l2.5,7.1h.1V58.3Z"/><path class="cls-30" d="M209.3,59.2c.8.7,1.1,2,1.1,3.9s-.3,3-1,3.7a3.5,3.5,0,0,1-2.4,1h-1.7V58.3H207A3.2,3.2,0,0,1,209.3,59.2ZM207,66.8a2.4,2.4,0,0,0,1.5-.6c.5-.5.7-1.6.7-3.1s-.2-2.7-.8-3.2a2,2,0,0,0-1.4-.6h-.6v7.5Z"/><path class="cls-30" d="M222,67.1a2.6,2.6,0,0,1-1.6.7,2.4,2.4,0,0,1-1.6-.7,5.2,5.2,0,0,1-1.2-3.8c0-2,.4-3.4,1.3-4.3a2.3,2.3,0,0,1,1.5-.7,2,2,0,0,1,1.5.6,3.1,3.1,0,0,1,.9,2.7h-1a2.9,2.9,0,0,0-.6-2.1c-.2-.2-.4-.2-.8-.2a.9.9,0,0,0-.7.3c-.7.6-1,1.8-1,3.6a4.9,4.9,0,0,0,.8,3.2,1.6,1.6,0,0,0,.9.3,1.3,1.3,0,0,0,.8-.3,3.9,3.9,0,0,0,.5-2.3h1.2A4.8,4.8,0,0,1,222,67.1Z"/><path class="cls-30" d="M230.1,63c0,2.1-.4,3.4-1.1,4.1a2.4,2.4,0,0,1-1.6.7,2.2,2.2,0,0,1-1.6-.7c-.7-.7-1.1-2-1.1-4.1s.4-3.3,1.1-4a1.9,1.9,0,0,1,1.6-.7,2,2,0,0,1,1.6.7C229.7,59.7,230.1,61,230.1,63Zm-4.3,0c0,1.9.2,3,.6,3.4a1.4,1.4,0,0,0,1,.4,1.2,1.2,0,0,0,.9-.4c.4-.4.7-1.5.7-3.4s-.3-2.9-.7-3.3a1.2,1.2,0,0,0-.9-.4,1.4,1.4,0,0,0-1,.4Q225.8,60.3,225.8,63Z"/><path class="cls-30" d="M236.1,59.2c.8.7,1.1,2,1.1,3.9s-.3,3-1,3.7a3.5,3.5,0,0,1-2.4,1h-1.7V58.3h1.7A3.2,3.2,0,0,1,236.1,59.2Zm-2.3,7.6a2.4,2.4,0,0,0,1.5-.6c.5-.5.7-1.6.7-3.1s-.2-2.7-.8-3.2a2,2,0,0,0-1.4-.6h-.6v7.5Z"/><path class="cls-30" d="M240.6,62.3h3.3v.9h-3.3v3.6h3.8v1h-4.9V58.3h4.7v1h-3.6Z"/><rect class="cls-32" x="86" y="50.5" width="160.4" height="2.2" transform="translate(332.3 103.3) rotate(180)"/><polygon class="cls-30" points="247.6 273.5 247.6 313.7 24.2 337.7 24.1 297.5 247.6 273.5"/><polygon class="cls-31" points="276.6 239.4 276.6 279.6 53.1 303.6 53.1 263.4 276.6 239.4"/><path class="cls-33" d="M119.8,275.2h7.4v2.1h-7.4v8.2h8.6v2.1H117.3V266.3h10.6v2h-8.1Z"/><path class="cls-33" d="M135.7,265.3l3.7,16.1h.2l3.8-16.1h2.5l-5.2,21.3h-2.4l-5.1-21.3Z"/><path class="cls-33" d="M153.8,273.2h7.4v2.1h-7.4v8.2h8.6v2.1H151.3V264.3h10.6v2h-8.1Z"/><path class="cls-33" d="M179.2,262.3v21.3h-3l-5.7-16h-.1v16h-2.6V262.3h3.1l5.7,15.9h.1V262.3Z"/><path class="cls-33" d="M188.2,282.6V263.3H184v-2h11.2v2h-4.5v19.3Z"/><path class="cls-33" d="M211.7,269.9c0,4.6-.8,7.7-2.5,9.3a4.9,4.9,0,0,1-3.6,1.4,5.3,5.3,0,0,1-3.7-1.4q-2.4-2.4-2.4-9.3c0-4.6.8-7.6,2.4-9.2a4.9,4.9,0,0,1,3.7-1.4,4.5,4.5,0,0,1,3.6,1.4C210.9,262.3,211.7,265.3,211.7,269.9Zm-9.7,0c0,4.1.5,6.7,1.5,7.6a2.7,2.7,0,0,0,4.2,0c1-.9,1.4-3.5,1.4-7.6s-.4-6.6-1.4-7.6a2.7,2.7,0,0,0-4.2,0C202.5,263.3,202,265.8,202,269.9Z"/><path class="cls-34" d="M56.8,330.9V309.5H68.3v2.1h-9v7.1h6.8v2.1H59.3v10.1Z"/><path class="cls-34" d="M88.6,307.3a5.2,5.2,0,0,1,1.5,4,5.5,5.5,0,0,1-1.5,4,4.6,4.6,0,0,1-1.9,1.4l3.9,10.2H88L84.3,317H81.2v9.9H78.7V305.5h5.4A5.8,5.8,0,0,1,88.6,307.3ZM86.7,314a4.1,4.1,0,0,0,.8-2.7,3.9,3.9,0,0,0-.9-2.6,4.4,4.4,0,0,0-3-1.1H81.2V315h3.2A3.7,3.7,0,0,0,86.7,314Z"/><path class="cls-34" d="M112.4,314.2q0,6.9-2.4,9.3a5.2,5.2,0,0,1-3.6,1.4,5.4,5.4,0,0,1-3.8-1.4q-2.4-2.4-2.4-9.3c0-4.6.8-7.6,2.4-9.2a5,5,0,0,1,3.8-1.5A4.9,4.9,0,0,1,110,305C111.6,306.6,112.4,309.6,112.4,314.2Zm-9.6,0c0,4.1.4,6.7,1.4,7.6a2.8,2.8,0,0,0,2.2,1,2.6,2.6,0,0,0,2-1c1-.9,1.5-3.5,1.5-7.6s-.5-6.6-1.5-7.6a3,3,0,0,0-2-1,3.2,3.2,0,0,0-2.2,1C103.2,307.6,102.8,310.1,102.8,314.2Z"/><path class="cls-34" d="M133.9,300.5v21.4h-3l-5.7-16h-.1v16h-2.5V300.5h3l5.7,16h.1v-16Z"/><path class="cls-34" d="M148.9,319.9V300.6h-4.2v-2.1h11.2v2.1h-4.4v19.3Z"/><path class="cls-34" d="M169.5,305.5H177v2.1h-7.5v8.2h8.7v2.1H167V296.5h10.6v2.1h-8.1Z"/><path class="cls-34" d="M199.9,293.5v21.4h-3l-5.7-16h-.1v16h-2.5V293.5h3l5.7,16h.1v-16Z"/><path class="cls-34" d="M219.8,294.5c1.6,1.7,2.5,4.6,2.5,8.8s-.8,6.9-2.3,8.4a7.9,7.9,0,0,1-5.6,2.2h-3.7V292.5h3.7A7.5,7.5,0,0,1,219.8,294.5Zm-5.4,17.3a4.9,4.9,0,0,0,3.5-1.5c1.1-1.1,1.6-3.5,1.6-7s-.5-6.1-1.7-7.3a4.9,4.9,0,0,0-3.4-1.4h-1.2v17.2Z"/></g></g></svg>