<svg xmlns="http://www.w3.org/2000/svg" viewBox="0 0 220.6 196.5"><defs><style>.cls-1{fill:#75cbed;}</style></defs><title>framework_react</title><g id="Capa_2" data-name="Capa 2"><g id="framework_react"><path class="cls-1" d="M220.6,98.3c0-14.6-18.3-28.5-46.3-37.1,6.4-28.6,3.6-51.4-9.1-58.6A20,20,0,0,0,155.1,0V10.1a11,11,0,0,1,5.1,1.1c6.2,3.6,8.8,16.9,6.7,34.1-.5,4.2-1.3,8.7-2.3,13.2a231.2,231.2,0,0,0-28.5-4.9,230,230,0,0,0-18.7-22.5C132,17.5,145.8,10,155.2,10V0h0c-12.4,0-28.6,8.8-45,24.1C93.9,8.9,77.7.2,65.3.2v10c9.3,0,23.1,7.4,37.8,21A214.7,214.7,0,0,0,84.5,53.6a212.2,212.2,0,0,0-28.6,5c-1-4.5-1.8-8.9-2.3-13.1-2.2-17.2.5-30.5,6.5-34.1a10.3,10.3,0,0,1,5.2-1.1V.2h0A20.3,20.3,0,0,0,55.1,2.7c-12.6,7.3-15.4,30-8.9,58.6C18.2,69.9,0,83.7,0,98.3s18.3,28.4,46.4,37c-6.5,28.6-3.6,51.4,9.1,58.7a19.7,19.7,0,0,0,10.1,2.5c12.3,0,28.5-8.8,44.9-24.1,16.4,15.2,32.6,23.9,44.9,23.9a20.3,20.3,0,0,0,10.2-2.5c12.6-7.3,15.5-30,8.9-58.5C202.4,126.7,220.6,112.8,220.6,98.3Zm-58.5-30A185.8,185.8,0,0,1,156,86c-1.8-3.6-3.8-7.2-5.9-10.8s-4.3-7.1-6.5-10.5C150,65.7,156.2,66.8,162.1,68.3Zm-20.6,47.9c-3.5,6-7.1,11.8-10.9,17.1-6.7.6-13.4.9-20.3.9s-13.6-.3-20.2-.8c-3.8-5.4-7.4-11.1-10.9-17.1s-6.5-11.9-9.4-17.9c2.8-6,6-12.1,9.4-17.9S86.3,68.6,90,63.3c6.7-.6,13.5-.9,20.3-.9s13.6.3,20.3.8q5.6,8.1,10.8,17.1c3.5,5.9,6.6,11.9,9.4,17.9C148,104.2,144.9,110.3,141.5,116.2Zm14.5-5.9c2.4,6,4.5,12.1,6.2,17.9a173.1,173.1,0,0,1-18.5,3.6c2.2-3.4,4.4-7,6.5-10.6S154.2,113.9,156,110.3Zm-45.6,48a165.8,165.8,0,0,1-12.5-14.4c4.1.2,8.2.3,12.4.3s8.4-.1,12.5-.3A184.4,184.4,0,0,1,110.4,158.3ZM76.9,131.8c-6.3-.9-12.5-2.1-18.4-3.5,1.7-5.8,3.7-11.8,6.1-17.8,1.8,3.6,3.8,7.2,5.9,10.8S74.7,128.4,76.9,131.8Zm33.3-93.6c4.2,4.3,8.3,9.2,12.5,14.4-4.1-.2-8.2-.3-12.4-.3s-8.4.1-12.5.3A181.6,181.6,0,0,1,110.2,38.2ZM76.9,64.7c-2.2,3.5-4.4,7-6.5,10.7s-4,7.2-5.8,10.8c-2.4-6.1-4.5-12.1-6.2-17.9C64.3,66.9,70.5,65.7,76.9,64.7ZM36.2,121C20.3,114.2,10,105.3,10,98.3s10.3-16,26.2-22.8A130.3,130.3,0,0,1,48.7,71,204.9,204.9,0,0,0,58.8,98.4a196.8,196.8,0,0,0-10,27.2A123,123,0,0,1,36.2,121Zm24.2,64.3c-6.1-3.5-8.8-16.9-6.7-34.1.5-4.2,1.3-8.6,2.3-13.2a213.8,213.8,0,0,0,28.5,4.9,217.1,217.1,0,0,0,18.8,22.5C88.6,179,74.8,186.5,65.5,186.5A9.9,9.9,0,0,1,60.4,185.3ZM167.1,151c2.1,17.2-.5,30.6-6.6,34.1a10,10,0,0,1-5.2,1.2c-9.3,0-23.1-7.4-37.7-21a202.4,202.4,0,0,0,18.5-22.4,212.2,212.2,0,0,0,28.6-5A114.1,114.1,0,0,1,167.1,151Zm17.3-30a130.2,130.2,0,0,1-12.5,4.6,204.9,204.9,0,0,0-10.1-27.4,202.8,202.8,0,0,0,10-27.3,123,123,0,0,1,12.6,4.6c16,6.8,26.3,15.7,26.3,22.8S200.3,114.3,184.4,121Z"/><circle class="cls-1" cx="110.3" cy="98.3" r="20.6"/></g></g></svg>