<svg xmlns="http://www.w3.org/2000/svg" viewBox="0 0 164.6 198"><defs><style>.cls-1{fill:#e8451e;}.cls-2{fill:#fff;}</style></defs><title>framework_svelte</title><g id="Capa_2" data-name="Capa 2"><g id="framework_svelte"><path class="cls-1" d="M154,26.2C135.8-.1,99.4-7.9,73.2,8.7L27.1,38.3A52.4,52.4,0,0,0,3.2,73.7a54.6,54.6,0,0,0,5.6,35.7A49.4,49.4,0,0,0,.9,129.2a56.4,56.4,0,0,0,9.5,42.6c18.5,26.3,54.7,34.1,80.9,17.5l46.1-29.4a52.8,52.8,0,0,0,23.9-35.4,55.2,55.2,0,0,0-5.6-35.7A52.2,52.2,0,0,0,163.6,69,55.1,55.1,0,0,0,154,26.2"/><path class="cls-2" d="M68.7,174.3a36.5,36.5,0,0,1-39.3-14.6,33.8,33.8,0,0,1-5.9-25.6c.4-1.5.7-2.9,1-4.4l.9-2.7,2.3,1.7a65.5,65.5,0,0,0,18.1,9.1l1.7.5-.2,1.6a12,12,0,0,0,1.9,6.9,11,11,0,0,0,11.9,4.5,14.5,14.5,0,0,0,2.9-1.1l45.9-29.4a9.4,9.4,0,0,0,4.4-6.4,10.4,10.4,0,0,0-1.7-7.7,11,11,0,0,0-11.9-4.3,14.5,14.5,0,0,0-2.9,1.1L80.2,114.8a30.3,30.3,0,0,1-9.4,4,36.4,36.4,0,0,1-39.2-14.6,33.8,33.8,0,0,1-5.7-25.7A31.9,31.9,0,0,1,40.3,57.2L86.4,27.9a36.1,36.1,0,0,1,9.4-4.2,36.5,36.5,0,0,1,39.3,14.6A33.8,33.8,0,0,1,141,63.9c-.4,1.5-.7,2.9-1.2,4.4l-.9,2.7-2.3-1.7a64.1,64.1,0,0,0-18.1-9.1l-1.7-.5.2-1.6a11.3,11.3,0,0,0-1.9-6.9,11.1,11.1,0,0,0-11.9-4.4,18.1,18.1,0,0,0-2.8,1.2l-46,29.4A9.2,9.2,0,0,0,50,83.7a10.3,10.3,0,0,0,1.7,7.7,10.9,10.9,0,0,0,11.9,4.4,14.8,14.8,0,0,0,2.9-1.2L84.1,83.4a35.5,35.5,0,0,1,48.6,10.4,34,34,0,0,1,5.9,25.7,31.9,31.9,0,0,1-14.4,21.3L78,170.1a34,34,0,0,1-9.3,4.2"/></g></g></svg>