<svg xmlns="http://www.w3.org/2000/svg" xmlns:xlink="http://www.w3.org/1999/xlink" viewBox="0 0 74.4 75.7"><defs><style>.cls-1,.cls-11,.cls-13,.cls-4,.cls-5,.cls-6,.cls-9{stroke:#000;}.cls-1,.cls-11,.cls-13,.cls-15,.cls-4,.cls-5,.cls-6,.cls-9{stroke-miterlimit:10;}.cls-1{fill:url(#Degradado_sin_nombre_71);}.cls-2{fill:#102133;}.cls-3{fill:#141327;}.cls-4{fill:url(#Degradado_sin_nombre_18);}.cls-5{fill:url(#Degradado_sin_nombre_10);}.cls-6{fill:url(#Degradado_sin_nombre_10-2);}.cls-7{fill:url(#Degradado_sin_nombre_78);}.cls-8{fill:url(#Degradado_sin_nombre_23);}.cls-9{fill:#fcf1b1;}.cls-10{fill:#a26438;}.cls-11{fill:url(#Degradado_sin_nombre_2);}.cls-12{fill:url(#Degradado_sin_nombre_81);}.cls-13{fill:url(#Degradado_sin_nombre_98);}.cls-14{fill:url(#Degradado_sin_nombre_83);}.cls-15{fill:#77a0a6;stroke:#010101;}.cls-16{fill:url(#Degradado_sin_nombre_56);}.cls-17{fill:url(#Degradado_sin_nombre_56-2);}.cls-18{fill:url(#Degradado_sin_nombre_56-3);}.cls-19,.cls-20,.cls-21,.cls-27{fill-rule:evenodd;}.cls-19{fill:url(#Degradado_sin_nombre_60);}.cls-20{fill:#e0f1f5;}.cls-21{fill:#355861;}.cls-22{fill:#578792;}.cls-23{fill:#89cfde;}.cls-24{fill:url(#Degradado_sin_nombre_48);}.cls-25{fill:url(#Degradado_sin_nombre_49);}.cls-26,.cls-27{fill:#76c9df;}.cls-28{fill:#2fb7eb;}.cls-29{fill:#00578d;}.cls-30{fill:#fffefe;}</style><linearGradient id="Degradado_sin_nombre_71" x1="11.5" y1="4.99" x2="70.21" y2="71.46" gradientUnits="userSpaceOnUse"><stop offset="0.02" stop-color="#f4f4f4"/><stop offset="0.06" stop-color="#eaedf0"/><stop offset="0.12" stop-color="#cedce6"/><stop offset="0.21" stop-color="#a2c0d6"/><stop offset="0.27" stop-color="#7ca7c8"/><stop offset="0.39" stop-color="#59778e"/><stop offset="0.51" stop-color="#3b4e5d"/><stop offset="0.62" stop-color="#232e37"/><stop offset="0.72" stop-color="#13181b"/><stop offset="0.81" stop-color="#090a0b"/><stop offset="0.88" stop-color="#050505"/></linearGradient><linearGradient id="Degradado_sin_nombre_18" x1="37.32" y1="49.67" x2="37.39" y2="75.61" gradientUnits="userSpaceOnUse"><stop offset="0" stop-color="#e4e1df"/><stop offset="0.15" stop-color="#d8e0e3"/><stop offset="0.41" stop-color="#b9deed"/><stop offset="0.47" stop-color="#b1def0"/><stop offset="0.6" stop-color="#82a3b0"/><stop offset="0.8" stop-color="#3f4f55"/><stop offset="0.93" stop-color="#151a1b"/><stop offset="1" stop-color="#050505"/></linearGradient><linearGradient id="Degradado_sin_nombre_10" x1="47.27" y1="58.04" x2="56.47" y2="58.04" gradientUnits="userSpaceOnUse"><stop offset="0" stop-color="#b1def0"/><stop offset="0.59" stop-color="#8abadd"/><stop offset="0.66" stop-color="#88b7da"/><stop offset="0.72" stop-color="#82afd0"/><stop offset="0.77" stop-color="#77a1bf"/><stop offset="0.82" stop-color="#698ca7"/><stop offset="0.87" stop-color="#557388"/><stop offset="0.92" stop-color="#3e5362"/><stop offset="0.96" stop-color="#232e36"/><stop offset="1" stop-color="#050505"/></linearGradient><linearGradient id="Degradado_sin_nombre_10-2" x1="-243.93" y1="58.04" x2="-234.73" y2="58.04" gradientTransform="matrix(-1, 0, 0, 1, -216.84, 0)" xlink:href="#Degradado_sin_nombre_10"/><linearGradient id="Degradado_sin_nombre_78" x1="36.87" y1="62.09" x2="36.83" y2="79.65" gradientUnits="userSpaceOnUse"><stop offset="0" stop-color="#e2f2f7"/><stop offset="0.05" stop-color="#dff1f6"/><stop offset="0.09" stop-color="#d5ecf5"/><stop offset="0.13" stop-color="#c3e5f2"/><stop offset="0.16" stop-color="#afddee"/><stop offset="0.24" stop-color="#abdbee"/><stop offset="0.31" stop-color="#9fd5ed"/><stop offset="0.38" stop-color="#8bcbec"/><stop offset="0.45" stop-color="#71beeb"/><stop offset="0.52" stop-color="#6fbbe8"/><stop offset="0.58" stop-color="#6bb3de"/><stop offset="0.63" stop-color="#63a6cd"/><stop offset="0.68" stop-color="#5792b5"/><stop offset="0.73" stop-color="#497996"/><stop offset="0.78" stop-color="#375b70"/><stop offset="0.83" stop-color="#223743"/><stop offset="0.87" stop-color="#0a0e10"/><stop offset="0.88" stop-color="#050505"/></linearGradient><linearGradient id="Degradado_sin_nombre_23" x1="35.29" y1="43.16" x2="40.03" y2="58.34" gradientUnits="userSpaceOnUse"><stop offset="0.08" stop-color="#e4e1df"/><stop offset="0.16" stop-color="#dae0e2"/><stop offset="0.29" stop-color="#bfdfeb"/><stop offset="0.35" stop-color="#b1def0"/><stop offset="0.42" stop-color="#a6d0e1"/><stop offset="0.55" stop-color="#88abb8"/><stop offset="0.72" stop-color="#596f78"/><stop offset="0.94" stop-color="#181d1f"/><stop offset="1" stop-color="#050505"/></linearGradient><linearGradient id="Degradado_sin_nombre_2" x1="55.77" y1="52.61" x2="65.12" y2="56.71" gradientUnits="userSpaceOnUse"><stop offset="0" stop-color="#afdef0"/><stop offset="0.59" stop-color="#8abadd"/><stop offset="0.66" stop-color="#88b7da"/><stop offset="0.72" stop-color="#82afd0"/><stop offset="0.77" stop-color="#77a1bf"/><stop offset="0.82" stop-color="#698ca7"/><stop offset="0.87" stop-color="#557388"/><stop offset="0.92" stop-color="#3e5362"/><stop offset="0.96" stop-color="#232e36"/><stop offset="1" stop-color="#050505"/></linearGradient><linearGradient id="Degradado_sin_nombre_81" x1="60.76" y1="44.81" x2="71.83" y2="49.67" gradientUnits="userSpaceOnUse"><stop offset="0" stop-color="#c4e5ed"/><stop offset="0.59" stop-color="#59b6d6"/><stop offset="0.67" stop-color="#58b3d3"/><stop offset="0.72" stop-color="#54abc9"/><stop offset="0.78" stop-color="#4d9cb8"/><stop offset="0.83" stop-color="#4388a0"/><stop offset="0.87" stop-color="#376e81"/><stop offset="0.92" stop-color="#274e5b"/><stop offset="0.96" stop-color="#16282f"/><stop offset="1" stop-color="#050505"/></linearGradient><linearGradient id="Degradado_sin_nombre_98" x1="-235.42" y1="52.61" x2="-226.07" y2="56.71" gradientTransform="matrix(-1, 0, 0, 1, -216.84, 0)" xlink:href="#Degradado_sin_nombre_10"/><linearGradient id="Degradado_sin_nombre_83" x1="-230.44" y1="44.81" x2="-219.36" y2="49.67" gradientTransform="matrix(-1, 0, 0, 1, -216.84, 0)" gradientUnits="userSpaceOnUse"><stop offset="0" stop-color="#c5e5ed"/><stop offset="0.59" stop-color="#58b6d6"/><stop offset="0.67" stop-color="#57b3d3"/><stop offset="0.72" stop-color="#53abc9"/><stop offset="0.78" stop-color="#4c9cb8"/><stop offset="0.83" stop-color="#4288a0"/><stop offset="0.87" stop-color="#366e81"/><stop offset="0.92" stop-color="#274e5b"/><stop offset="0.96" stop-color="#16282f"/><stop offset="1" stop-color="#050505"/></linearGradient><linearGradient id="Degradado_sin_nombre_56" x1="38.51" y1="17.27" x2="38.02" y2="29.54" gradientUnits="userSpaceOnUse"><stop offset="0" stop-color="#fff"/><stop offset="0.46" stop-color="#77a0a6"/><stop offset="1" stop-color="#7fcce0"/></linearGradient><linearGradient id="Degradado_sin_nombre_56-2" x1="41.73" y1="26.95" x2="41.2" y2="40.45" xlink:href="#Degradado_sin_nombre_56"/><linearGradient id="Degradado_sin_nombre_56-3" x1="38.14" y1="29.81" x2="37.75" y2="39.48" xlink:href="#Degradado_sin_nombre_56"/><linearGradient id="Degradado_sin_nombre_60" x1="34.98" y1="29.39" x2="34.66" y2="38.41" gradientUnits="userSpaceOnUse"><stop offset="0" stop-color="#fff"/><stop offset="0.21" stop-color="#c6d7da"/><stop offset="0.39" stop-color="#9bb9be"/><stop offset="0.53" stop-color="#81a7ac"/><stop offset="0.62" stop-color="#77a0a6"/><stop offset="1" stop-color="#7fcce0"/></linearGradient><linearGradient id="Degradado_sin_nombre_48" x1="39.51" y1="32.27" x2="42.64" y2="34.17" gradientUnits="userSpaceOnUse"><stop offset="0" stop-color="#fff"/><stop offset="0.49" stop-color="#76c9df"/><stop offset="1" stop-color="#7fcce0"/></linearGradient><linearGradient id="Degradado_sin_nombre_49" x1="36.94" y1="31.71" x2="32.66" y2="35.26" gradientUnits="userSpaceOnUse"><stop offset="0" stop-color="#fff"/><stop offset="0.4" stop-color="#76c9df"/><stop offset="1" stop-color="#7fcce0"/></linearGradient></defs><title>insignia_proactive</title><g id="Capa_2" data-name="Capa 2"><g id="insignia_proactive"><polygon class="cls-1" points="36.6 0.6 67.6 17.4 67.6 51.4 37.5 70.9 7.2 51.3 7.2 17.3 36.6 0.6"/><polygon class="cls-2" points="36.7 7.6 63.6 21.6 63.6 50 37.5 66.2 11.3 49.9 11.3 21.5 36.7 7.6"/><path class="cls-3" d="M54,21.6S64,24.1,60.1,43,33.8,62.5,33.8,62.5,15.5,61.1,14.7,41.1C14.7,41.1,55,63.8,54,21.6Z"/><polygon class="cls-4" points="23.3 50 36.9 57.4 51.4 50 51.4 64.5 37.3 73.8 23.3 64.8 23.3 50"/><polygon class="cls-5" points="56.5 47.6 47.3 53.4 47.3 68.5 56.2 61.9 56.5 47.6"/><polygon class="cls-6" points="17.9 47.6 27.1 53.4 27.1 68.5 18.1 61.9 17.9 47.6"/><path class="cls-7" d="M64.6,66.1l-8.2-.8,17.1-1.8H47l6.2,1-9.2.8,7.6.5h-.1l-6.6.7h5.6L37.6,73.8,25.3,66.5h4.1l-4.8-.5-.6-.4,6.4-.4L22,64.6l-.3-.3,5.6-.8H20.2l-.8-.5.3.5H.3l17.5,1.8-8.5.8,12.2.3v.2l-3.5.4A4.3,4.3,0,0,0,23,68.5l14.6,7.2,13.5-7.2s1.5,1.4,4.3-.3l-2.4-1,.5-.8Z"/><polygon class="cls-8" points="55.9 48.7 55.9 49.7 47.7 54.7 46.8 54.4 37.2 59.2 27.5 54.1 26.6 54.7 18.5 49.8 18.5 48.4 26.4 53 27.5 52.9 37.2 57.8 46.5 53.1 47.6 53.2 55.9 48.7"/><polygon class="cls-9" points="37.3 68.2 31.7 71.1 32.8 64.9 28.3 60.5 34.5 59.6 37.3 53.9 40.1 59.6 46.4 60.5 41.9 64.9 42.9 71.1 37.3 68.2"/><polygon class="cls-10" points="29.4 60.8 37.1 63.4 33.4 64.7 29.4 60.8"/><polygon class="cls-10" points="32.4 70.2 37.1 63.4 37.3 67.6 32.4 70.2"/><polygon class="cls-10" points="42.3 70.2 37.1 63.4 41.3 64.7 42.3 70.2"/><polygon class="cls-10" points="45.3 60.8 37.1 63.4 39.8 60 45.3 60.8"/><polygon class="cls-10" points="37.3 55 37.1 63.4 34.9 60 37.3 55"/><path class="cls-11" d="M73.2,38.8S60.5,44.9,56.7,51.5v23s2-1.3,2.9-10.1c0,0,4.1-2.7,7.9-12.2,0,0-4.6,5.6-6.7,5.5l-.2-4.1A48.3,48.3,0,0,0,73.2,38.8Z"/><path class="cls-12" d="M71,40.6s-9.7,12.2-12.2,12S59.4,48.3,71,40.6Z"/><path class="cls-13" d="M1.2,38.8s12.7,6.1,16.5,12.7v23s-2-1.3-3-10.1c0,0-4-2.7-7.8-12.2,0,0,4.5,5.6,6.7,5.5V53.6A48.7,48.7,0,0,1,1.2,38.8Z"/><path class="cls-14" d="M3.4,40.6s9.7,12.2,12.1,12S14.9,48.3,3.4,40.6Z"/><path class="cls-15" d="M39.1,20H36.9l-2.9.2-1.6.2H29.3l-.3.2-2.7,1h-.4l-2.7,1-.7.7h-.4l-.9.7-1,.9H20l-1.5,1.6L17,28l-.9.9-.5.8v1.9l.3.6.5.8.7.8,1.7,1.3L21,36.8l3.8,2.8,3.6,2.6.6.5.8.7,3.1,2.4,5.2,3.3,5.7-3.7,2.4-1.7,1.6-1.3.8-.6,2.9-2.2,4.1-3.1,4-2.9L60,33l.5-.8.3-.7V30.2l-.2-.6-.5-.8-.7-.6-.7-.6-2.3-2-2.7-2-.7-.6-2.3-.9h-.5l-.5-.2h-.4L48,21.1l-.9-.4H42.6l-1-.2h-.5l-.8-.2Z"/><path class="cls-16" d="M32.2,21a29.4,29.4,0,0,1,12.3-.2l-6.6,6.4Z"/><polygon class="cls-17" points="38.9 37.8 41.1 33.4 44 30.3 43.9 33.7 43.6 34 43 37.3 39.6 37.6 38.9 37.8"/><polygon class="cls-18" points="35.7 32.1 38.2 33.1 40.4 32.2 38.8 37.7 38 37.6 37.3 37.6 36 32.4 35.7 32.1"/><polygon class="cls-19" points="37.1 37.6 35.2 33.8 32.5 30.5 33.1 33.2 33.1 33.4 34.8 37.7 37.2 37.7 37.1 37.6"/><path class="cls-20" d="M42.7,46.1A28.8,28.8,0,0,0,46,43.7c0-.1.1-.2.2-.3s.1-.1-.2-.1-1.1.3-.9.2.4-.3.3-.3h-.3l-.8.4-.5.4L41.2,46c-.4.3-.6.3-.4.1s.2-.2-.1-.2-.2,0-.2.2H38.3c-2.5,0-2.5,0-2.5-.2s0-.1-.1-.1-.4-.1-.4,0,.2.4.3.4h.1c0,.2.1.3,1.1.3h1c.1.1,0,.2-.2.2l-.5.2-.5.2h-.2l.3.3c.4.4.4.5.1.3h-.2l-.4-.3c-.4-.3-.4-.3.1-.2s-.2-.3-.4-.4a2.2,2.2,0,0,1-.7-.6,1.9,1.9,0,0,0-.7-.6l-.3-.2c-1.1-.9-2.6-1.8-2.9-1.7H31l-.9-.3,1,.9.3.3,1.7,1.3c1.6,1,2.1,1.4,1.8,1.3l3,1.9h.5l2.7-1.8Z"/><path id="path1" class="cls-20" d="M44.5,20.8l-.2.3,1.1.4.6.2.7.2H47c.2.2.6.1.5-.1s-.1-.4,0-.4h.7a.1.1,0,0,0-.1-.1c-.4-.3-1-.6-1-.5s0,.1-.4-.1l-1.1-.3h-.7c-.2-.1-.2-.1-.4.2M30,20.7c-.5.1-.6.2-.6.4s.4.1,1.1-.2h.3c.1,0,.2-.1.1-.1H30m.8.3-.9.5c-.2.1-.1.1,0,.1l1.1-.3c.5-.1.5-.1.4-.3a.6.6,0,0,0-.6,0m-2,.1v.7c-.1.1-.1.1,0,.2h.4c.5.2.5.2.5-.1s0-.3-.3-.2-.3,0-.3-.1-.2-.6-.3-.6m14.9.6c-.1,0-.1.1-.1.2s-.1.1-.1.2h.1c.2.1.2.1.2-.2s-.1-.4-.1-.3M29,21.8h-.2a.1.1,0,0,1,.1-.1c.1,0,.1,0,.1.1m-1.7.3c-.1,0,0,.1,0,.1h.2c0,.1.1.1.2.1s.1,0-.1-.1h-.3m21.5.1h0m-17.6.4h.4c.3-.1.3-.1.1-.1h-.5m12.4.1s.2.1.2,0h-.2s-.1,0,0,.1m-14.4,0-.5.2c-.2.1-.2.1.1.2l.4.2c.2.1.1.1-.2.2s-.4.1-.3.2.7-.2.7-.3l.7-.2h.2l-.9-.4h-.2m4.3,0c-.1.1.3.4.5.4s.2,0-.1-.2-.3-.3-.4-.2m12.2.1c-.2,0-.2,0,0,.1s.3,0,.2-.1-.1-.1-.2,0m.8.2c-.7.5-.7.5-.2.5l.9-.2a1,1,0,0,1,.6-.2c.1,0-.1-.2-.5-.3s-.2-.2-.8.2m-15.7-.1h-.3c-.2,0-.2,0-.1.1s.6,0,.6-.1-.1-.1-.2-.1m17,.2c-.2.2-.2.2,0,.3h.3c.3-.2.3-.2.1-.3h-.4m-23,0h-.1c0,.1.2,0,.3,0s.1-.1-.2-.1m20.3.2c-.2.2-.2.2.2.2s.5,0,.2-.2-.2-.2-.4,0m7.2.2.4.3.3.3.4.3a1.7,1.7,0,0,0-.6-.7l-.4-.3c-.3-.3-.3-.2-.1.1m-27.9-.2-.3.2-.2.3h.8v-.3c0-.2-.1-.3-.2-.3h-.1m-.7.2a.8.8,0,0,0-.1.3h0c.1,0,.1-.1.1-.2s.1-.1.2-.2.1-.2,0-.2l-.2.2m1.1,0c0,.1,0,.1.1.1s.2-.2.1-.2-.2,0-.2.1m26.5,0c.1.1.2.1.2,0s-.1-.1-.2-.1h0m-24,.1h0a.1.1,0,0,1-.1.1l.6.3c0-.1-.1-.2-.2-.3s-.1-.1,0-.1v-.2c-.1-.1-.2-.1-.2.1M49,23.5c-.2.2-.2.2,0,.2h.2v-.2c0-.2,0-.2-.2-.1m-14.4.3c-.1,0,0,.3.1.4s.2,0,.2-.2-.2-.3-.3-.2m11.8,0,.6.2h-.6m-5.1.3h.1c.1.1.4,0,.3-.1a.3.3,0,0,0-.4,0m7.3,0h.3c0-.1-.1-.1-.2-.1h-.1M23,24.1c-.1,0,0,.1,0,.1s.1.1.1,0H23m27,.2h-.2c0,.1.6.2,1.1.3h.5c.2.1.2,0,.1-.1l-1.3-.4H50m-24.4.1-.6.3h.4c.8,0,1.2-.1,1-.3s-.1-.1-.8.1m-1.6.1c-.4.2-.5.3-.4.3l.9-.5c0-.1-.1,0-.5.2m10.7-.1-3.6.7c-.3,0-.1.1.2.1l4.2-.6c0-.1-.7-.3-.8-.2m6.5,0c-.7.3-.5.3,3.1.7,1.3.2,1.5,0,.2-.2a8.2,8.2,0,0,1-2.6-.5h-.7m10.9-.1.6.5a.1.1,0,0,0,.1-.1h-.4l-.3-.2m-3.2.8c-.6.4-.8.6-.9.5h-.1c.1,0,.1.1-.1.2h-.2l-.6.2h-.5v.7c.1.2.1.2-.1.4s-.6.7-.6.6l.4-1.3c.1-.2.2-.3.2-.4h-.9l-1.3.2-1.3.2H41.5l-1.4.2-2.4.2H34.5l-2.2-.3h-.9L30,26.2c-.1,0,0,.1,0,.3s.4,1.2.5,1.3V28l-.2-.2-1.2-1.4A12.7,12.7,0,0,0,27.2,25l-.5-.4c-.1-.1-.3-.1-.3.1h-.5L24,25a5.9,5.9,0,0,1-.8,1.1c-.4.6-.4.5.7.4H25c.1.1.3,0,.4,0h.8l.2.3v.2h-.1c-.2.1-.2.2.2.5l.5.6c.1.1.1.2.2.2a.6.6,0,0,0-.2-.4.6.6,0,0,1-.2-.5v-.2h-.1c-.1-.1-.1-.2,0-.2s0,.1-.2-.3-.2-.5.5-.5h.4v.5l-.2.2q-.1.3-.3.3h0l.3.3h.1c0,.1,0,.1.2.2h.2v.6a3.5,3.5,0,0,0,.1.7c.1.1.1.3.2.5a3.5,3.5,0,0,0,.1.6c0,.1.1.2.1.3s.1.2.1.2l1-.5s.2-.7.3-1.3.1-.3.5-.2l.7.2.4.2h.2l.8-.3c.5-.2,1-.3,1-.2l.2.3c.2.2.3.3.3.4h0l.3.4c0,.1.1.2.2.3l.4.6.3.3c0,.1.1.1.1.2a.2.2,0,0,0,.2.2c.1,0,.1.1.1.2h0c.1,0,.1.1.1.2s.1-.1-.1-.7l-.2-.6-.4-.5-.6-.6-.7-.9.7-.2,2.6-.9c1.2-.3,1.1-.3,1.7-.1l1.7.5,1.3.5a.4.4,0,0,0-.1.3c-.2.3-.1.3.2,0l.2-.2h.2c.5.1.5.1-.5,1.2l-.6.7-.3.4a4.1,4.1,0,0,1-.2.7l-.2.5.2-.3c0-.1.1-.1.2-.2a.3.3,0,0,1,.1-.2.3.3,0,0,0,.1-.2c.1,0,.3-.2.4-.4l.3-.5.2-.2c0-.1,0-.1.1-.2l.3-.4c0-.1.1-.2.3-.5a.1.1,0,0,0,.1-.1h.4l.6.2c.8.2.9.3.8.5s-.3.2-.4.4l-1.2,1.4-1.3,1.5c-.1.1-.2.2-.2.3l-.4.4c.1.1.3-.2,1.4-1.5l1.2-1.4.2-.2c.2-.3.2-.5.1,2.3s0,1.3.3.8.4-.7.5-.6v3.9h.1c.1.1.3,0,.4-.2s.1-.2.1-.3.2-.3.4-.8l.2-.4a.6.6,0,0,0,.2-.5c0-.2.1-.4.2-.4L46,33c-.4-.9-.4-1-.5-.9h-.3a2.6,2.6,0,0,1,.2-.5c.1-.1,0-.2-.2-.9a1.6,1.6,0,0,0-.3-.6,1,1,0,0,1-.1-.4l-.2-.4h.1l1.6-.9c2.7-1.5,2.4-1.3,2.5-1.7v-.6h4.6l-.2-.3-.3-.5-.2-.2a2.1,2.1,0,0,1-.4-.6c0-.1-.2-.2-.4-.2H49.8c-.1-.1-.2-.1-.9.5m2.9-.1-.2.2-.3-.2c0-.1.4-.1.5,0m-10.2.1h.1c0-.1,0-.1-.1,0m-8,0h0m8.3,0h.2a.1.1,0,0,0-.2,0m1.1.1h0m.5,0h0m-8.3.1h.1c.2,0,.2-.1.1-.1h-.2m17.7.1c0,.1,0,.1.1.1v-.2c-.1-.1-.1-.1-.1.1m-31.5.2c-.3.2-.4.3-.3.4s0,.2.3-.1.3-.5,0-.3m1.6,0h-.3a.9.9,0,0,1-.5.4l-.2.2a1,1,0,0,1-.7.5h-.1v.3c0,.3,0,.3.4-.1l.9-.8c.7-.6.7-.6.6-.7h0m10.7.3c-.5.1-.5.2,0,.2s.3,0,.3-.1h-.3m20.1.1c0,.2-.1.2-.3.1s-.2-.1.1.2l.7.5.4.3-.5-.5c-.3-.2-.4-.3-.2-.3a.3.3,0,0,0-.1-.2c-.1-.2-.1-.2-.1-.1m-.2.9v.4c-.1.1-.1.1,0,.1a.3.3,0,0,0,.1.2,2.8,2.8,0,0,0,.1.8c.2,1.2.2,1.2,0,1s-.4-.2-.3.2.1.4.3.2.2-.2.5,1.2a6.1,6.1,0,0,0,.3,1.4v.4c0,.5.1.6.3.5h.2l.3-.2.5-.5a.7.7,0,0,1,.3-.3,6.2,6.2,0,0,0,2.4.8h.3c0,.1,0,.1.1.1h-.2c-.5.1-1.3.9-.9.9a8.7,8.7,0,0,0,1.5-1.3c.1-.1,0-.2-.3-.5s-.4-.5-.4-.6h0l-.2-.2c-.1-.1-.3-.2-.3-.3H58a.1.1,0,0,0-.1-.1,10.9,10.9,0,0,1-.5-1.4c0-.1,0-.2-.1-.2v-.3c-.1-.2-.2-.2-.2-.1l-.7.2h-.3l-.6-.6-1-1-.7-.6c-.2-.3-.3-.3-.2-.1m-3.8.1c-.1,0-.2.1-.1.1a.3.3,0,0,0-.1.2c-.3.5-.3,1-.1.7v-.2l.3-.3c.4-.5.3-.6-.1-.5m-26.9.2c-.2.2-.2.2-.1.4s.4-.1.5-.5-.2-.1-.4.1m-4.4.5h.1c.1-.1.1-.1,0-.1h-.1m27.1.4v.2h-.1l-.2-.3c-.2-.3-.3-.3-.2-.4s.6.3.6.4m-14.3-.4a4.3,4.3,0,0,1-.4.7l-.2-.2.5-.5h.1m-13.1.1h0m30.5.2a.3.3,0,0,1-.1.2h0c.1,0,.1-.1.1-.2h0m-20.4.1c.1.1.2.1.2.2a1,1,0,0,0-.1.3l-.2.7c0-.1-.2-.8-.2-1.1s0-.2.3-.1m-2.6.2h0m22.7.4c-.1.1-.1.2,0,.2v-.2m-23,.1h-.9c-.8.1-.9.1-.9.2a.3.3,0,0,1,.1.2l.3.5.4.7a2.3,2.3,0,0,0,1-.5,1.6,1.6,0,0,1,.5-.9c.2-.4.2-.4-.5-.3m24.2,0h-.3c-.1.1-.1.1.1.4l.3.3c.1.2.3-.1.2-.4a.8.8,0,0,1-.1-.4c0-.1-.2-.2-.2-.1m-1.4.3v.3c.1-.1.1-.4.1-.4h-.1m-25.7.3c-.2.2-.2.4-.1.4s.1,0,.2-.4.1-.2-.1,0m-3.3.1h0c-.1,0-.1.1-.1.2H19c0,.1-.1.2-.2.3l-.2.2-.2-.2A.5.5,0,0,0,18,30c-.1,0,0,.4.1.6s.1.3-.1.3-.3.1-.2.2h-.2c-.1.2-.2.2-.2.1s-.1,0-.1.2h-.1c0,.2-.2.2-.2.1h-.1c-.1,0-.1,0,0,.1v.2h-.2c0-.1-.1-.1-.2-.2s-.1,0,.1.2h0l.5-.4.4-.4h.1q.8.4.6.9c-.1.2,0,.2-.5,0s-.4-.1-.4,0,.1.3,1.2.9l.6.4h.2a1.5,1.5,0,0,1,.6.5c0,.1.1.1.2-.1s.1-.1.2,0,1-.5.7-.6l-2.2-.8c-.2-.1-.1-.1.1,0a14.6,14.6,0,0,0,2.1,0h-.1l-.8-.5c-.1-.1-.1-.1.4-.3s.6-.3-.9-2.3v-.2c.1-.1.1-.1,0-.1h-.2c-.1-.2-.1-.2-.1-.1m12.4,0c-.2.4-1.5,4-1.5,4.2h.1a.3.3,0,0,0,.1.2c.1.1.2.2.2.3a.3.3,0,0,0,.1.2h0c.1.2.1-.1.3-1s.4-2.2.6-2.2h.1l1,1.1c.3.5.4.6.4.4l-.2-.7c-.1-.4-.2-1-.3-1.3s-.2-.9.7.2l.9,1h0l-.4-.5-.8-.9-.7-.9c-.2-.2-.4-.4-.4-.5s-.1-.1-.2,0m19.5.3.4.2c.3.1.2.1-.1-.1s-.3-.2-.3-.1M20,30c0,.1,0,.2.1.1v-.2H20m32,.1s.1.2.1.1.1-.1,0-.1H52m-1.1.3a.4.4,0,0,0-.1.3c-.1.1-.1.1-.4-.2s-.3-.2-.1.1.3.4.4.4.1,0,.4.1.5.3.6.1V31h-.1l-.4-.3c-.4-.4-.4-.4-.4-.2m-19.6.5c0,.1-.1.1-.1.2s-.1,0-.1-.2.2-.1.2,0m18.5,0c0,.1.4.5.4.5l-.4-.6h0M22.3,31c-.2.1-.3.2-.4,1.1a8.1,8.1,0,0,0-.2.9c-.1.4-.2.3.6.5s.6.1.3-.1l-.4-.2h.1a10.8,10.8,0,0,1,2.4-1l-.8-.3-.8-.4c-.3-.4-.6-.6-.8-.4m-4,.4.3.2s.7.5.7.6l-.5-.3c-.5-.4-.8-.6-.8-.7l.3.2m29.7.1c-.1.4-.1.5-.2.6h0a2.3,2.3,0,0,1-.1.7h0c.1,0,.1-.2.1-.2a1.7,1.7,0,0,1,.2-.5c.4-.4.4-.6.3-.7s-.2-.1-.3.1m11.6-.1h-.4v.2c.1.6.1.7.3.8s.2.1.6-.5.1-.3-.1-.3-.1-.1-.1-.2h-.3M28,31.7c.4.6.5.8.5.6l-.2-.3c0-.1-.1-.2-.2-.3v-.2c-.1-.1,0,0,0,.2m27.7.3s.1.1,0,.1l-.3-.2h.3m-3,.1h-.6c-.3,0-.5,0-.5.1h.1l1.5.5c.2.1.3.3.2.4a.1.1,0,0,0-.1.1h-.1a.3.3,0,0,1-.1.2.3.3,0,0,1-.1.2c-.2.2-.1.2.1,0l.6-.4c.6-.3.6-.3.5-.4v-.2c0-.2-.2-.3-.4-.3h-.3l-.2-.2c-.2-.1-.2-.1-.5,0m-24.2.5v.2c.1.1.1.1.1,0s0-.2-.1-.2h0m27.7.4-.9.2a.4.4,0,0,0-.4.3c0,.1.5,0,.8-.2h.2c.1.1-.4.4-.9.7s-.2.2-.2.2.1.2.1.3.1.2.1.1.1-.1.3.1v.2c0,.2.3.1.7,0h.5l.4-.2.3-.3h-.2c-.6,0-.9-.5-.6-.9s.1-.3-.3-.1m-8.6.5a.3.3,0,0,1-.1.2H48l.5-.2c.7,0,.7-.1-.2-.1s-.7,0-.7-.1h0m-21.9.1a.9.9,0,0,0-.3.5h.4l.5.5.5.4h0c-.1,0-.2-.3-.6-.9s-.2-.4-.5-.3m24.8.1a1,1,0,0,0-.5.6v0h.5a.1.1,0,0,0,.1.1c.1,0,.2,0,.2.1s.1,0,.1-.1-.2-.7-.3-.7h-.1m6.9.1c-.1.2-.1.2.1,0h.1v.2h0a.1.1,0,0,0,.1-.1h-.3m-32.7.1a1.8,1.8,0,0,0,.1.5c.2.5.3.5.4.2a.4.4,0,0,1,.1-.3c.1-.2.1-.3-.1-.3h-.5m24.4.1h.3c0,.1.1.1.2.1s-.1-.2-.2-.2-.3-.2-.3,0M23.2,34l.2.3c.2.2.2.2.1,0l-.3-.3m24.7.1v.3c-.1.1-.1.1-.3,0v.1c0,.2,0,.2.1.3l1.1.9.2.2H49a6.1,6.1,0,0,0,.9-1.3l-.2.3c-.1.2-.2.3-.3.2h-.2c-1.1-1-1.2-1.1-1.3-.9m5,.1-.4.5c-.3.5-.4.5-.4.5V35c.1,0,.2-.1.2-.3l.2-.2h-.2a.1.1,0,0,0-.1.1,1,1,0,0,0-.1.3c-.1.1-.1.2,0,.2v.2c-.1.2-.2.3-.1.3l1.3-1.3.2-.2h-.1c-.2-.1-.2-.1-.4.1m-31.5,0c0,.3,0,.4.1.5h.2a.5.5,0,0,0,.1.3l.2.2c0,.1.2.1.7.3l.4.2c0-.1-.2-.4-.3-.4l-.2-.2h0l-.5-.3h-.3c-.2-.2-.2-.3-.1-.4s.1-.1-.1-.1h-.2m1.6-.1a5,5,0,0,0,1.2,1.3c.1,0,0-.1-.6-.7l-.6-.6m30.9.2h0c.2.1.3.1.3-.1h-.3m3.2.1c-.1,0-.1.1,0,.1a.1.1,0,0,1,.1-.1s.1-.1,0-.1h-.1m-34.7,0h-.1l.3.3.5.6.2.3.2.2.7.2c.3,0-.2-.8-1-1.2l-.7-.5h-.1m1.6.3c.1.2.1.2.1.1v-.2c-.2-.1-.2-.1,0,.1m22.5-.1c.1,0,.3.6.4.9h.2a3,3,0,0,0-.6-1.1h0m8,.3c-.1.1-.2.1-.2,0H54c-.3.2-.4.2-.2,0h0l-.5.5c0,.1.1,0,.2,0s.1-.1.2-.2,0,.1-.2.2-.1.2.1.1a1.1,1.1,0,0,0,.8-.5c.3-.2.3-.2.1-.2m-1.5.3h-.5l-.3.2c-.1,0-.2.2-.2.3s0,.1-.1.1-.2-.1-.2,0,0,.2.3,0h.3a1,1,0,0,0,.8-.5c.2-.3.2-.4-.1-.3M24.4,36c-.1,0,0,.2,0,.2h.2a.1.1,0,0,0,0-.2h-.2m-1.8.4c0,.1-.1.1-.3.2s-.2.2,0,.2l1.1.7a.1.1,0,0,1-.1.1h2.9l1,.2H29c0,.1,0,.1.1,0h.1a2.1,2.1,0,0,0-.3-.7,21.5,21.5,0,0,0-3.1-.9l-.7-.2a9.4,9.4,0,0,0-2.5-.3m24.9.3h0c0,.1,0,.1-.1.1h-.2q0-.1-.3,0h-.2c.2.1.4.1.4.2h.6c0-.1.1-.1.3-.2l1.3-.3H47.5m6.2.1-1.9.2c-.3.1-.5.1-.5,0s0-.1-.2-.1h0c.3,0,0,.1-.6.2h-.7c-.4.1-1,.2-1,.1h-.4c-.2,0-.3.3-.1.3h.1c-.2.3,1.3.9,2.1,1a1.2,1.2,0,0,0,1.1-.4c.4-.3.8-.5.8-.4l-.3.3c-.4.4-.4.4.3.1l.6-.3,1.2-.9h0c.2-.1.1-.2-.2-.2h-.1l.2-.2h-.4m-31.4.1c0,.1,0,.1-.1.1s.1.2.3.3h.2c.2.2.5.3.5.2a.1.1,0,0,0-.1-.1l-.5-.3c-.3-.3-.3-.4-.3-.3m31.2,0c0,.1-.3.2-.6.1s-.4,0,.1-.1.5-.1.5,0m-3.5.2-.9.2c-.3,0-.2.1.1,0l1-.2H50m-17.2.8h.6l2.8.2h1.3l-1.7-.2H35a8.8,8.8,0,0,0-2.2-.1m8.9,0-2.1.3-1.4.2c.1.1.1.1,1.1,0h1l1.9-.2c0-.1.2-.1.3-.2s.1-.1-.8,0m1.2.6c0,.1,0,.1.4.2s.7.1.7.2h-.1a1,1,0,0,0-.1.3h0c-.1.1.1.1.7.1a3.6,3.6,0,0,0,1.5-.3c.2-.3.2-.3-.2-.3l-1.3-.2-1.4-.2h-.2v.2m-11.1-.1c0,.1-.4.1-.9.1s-1.4.1-1,.5l.3.4h.3c.1,0,.2-.1.1-.1s-.1-.1.3-.1h.8c.5-.1.5-.1.3-.5s-.1-.2-.2-.2m21,.2h-.1c.1-.1.3-.2.2-.2h-.1M51,39a5.9,5.9,0,0,0-1.8,1.3c0,.3,1-.2,1.9-1l.3-.2c.3-.2.1-.2-.4-.1m-13.1.1c0,.2,0,.2.2.2s.3,0,.2-.2h-.4M27.5,40.8h0m-.9,0,.3.2,1.2.8c.1.1.2.1.1.2h.1c.1,0,0-.1-.2-.3l-.3-.2-.2-.2-.4-.2-.6-.3m1.2.1h0a.1.1,0,0,1,.1.1c.1,0,.1,0,.1-.1s-.2-.1-.2,0m4.7.2.3.5a5.1,5.1,0,0,1,.9,1.8c.2.4.2.4.2.1a5.4,5.4,0,0,0-.8-1.9.1.1,0,0,1-.1-.1.8.8,0,0,0-.4-.4h-.1m1.6.1c-.1,0-.1,0-.1.6v1h.3l.5-.2c0-.1-.6-1.4-.6-1.4h-.1m1.3,0h-.2c-.2,0-.2,0-.1.2l.5.2h.6c.4,0,.5-.1.3-.1H35.4m1.4.3.2.2h-.1c-.2-.1-.2-.1-.1,0m-2.2.2v.2c.1.2.2.2.1-.1s0-.3-.1-.1m13.5.2h-.2c0,.1.2-.1.3-.2s.1-.1-.1.1m-8.8.1c0,.2,0,.2.7.2h.9c.4-.2.4-.2-.7-.2h-.9m1.9.3-1.4.4h1.9c0-.3-.3-.7-.5-.5m-11.4,0a.1.1,0,0,0,.1.1c.1,0,.1,0,0-.1h-.1m1.9.1h.1c.1.1.3.2.3.3l.6.4c.2,0,.2,0-.3-.3l-.5-.4c0-.1-.2-.1-.2,0m14.7.2H46c-.3,0-.7.3-.5.3h.3l.9-.4c0-.1-.2-.1-.3,0M33,43.2c0,.1.1.2.2.1H33m10,.3c-.1.1-.4.4-.3.4l1.3-.4c.2,0,0,0-.2-.1h-.4s-.1.1-.1,0-.2-.1-.3,0m-5.3,0v.2a6.8,6.8,0,0,1,.3,1.2c0,.2.3.2.3-.1l.2-.7v-.6h-.9m-5,0,.7.2c.1-.1-.1-.2-.4-.2h-.3m6.8.3c-.1.2-.1.2.1.2s.2,0,.2-.1a.2.2,0,0,0-.3-.1m-.7,0c-.1.1-.2.1-.2.2s0,.2.3.1h.3c.1.1.1.1.1-.1s-.1-.2-.5-.2m-2.2.1c0,.2,0,.2.6.2s.5.1.5,0,0-.2-.6-.2h-.5m6.4.5h0c0,.1.2-.1.2-.1s-.1-.1-.2,0m-8.1.7c-.2.1-.2.1-.1.2s.3.2.3.1,0-.3,0-.3h-.2m6,.1c-.3,0-.3,0,.1.1s.2.1.3,0,.1-.2-.4-.1m-4.8.2c-.1,0-.1.1-.1.2s-.1.1.2.2H37c1.1.3,1.1.3.4-.2s-.5-.4-.8-.4h-.4c-.1,0-.1,0-.1.2m3.7-.1-.6.2a2.8,2.8,0,0,0-.6.6l1-.2c.6-.2.7-.2.8-.1s0-.1-.1-.3a.3.3,0,0,0-.1-.2h-.4"/><path id="path4" class="cls-21" d="M35.2,20.1c-.1.1-.1.1,0,.1h0m5.7.2c0,.1-.1.1-.1.2h.1c0,.1,0,.1-.1.1h1.1a.1.1,0,0,0-.1-.1h-.5c-.2,0-.2,0-.2-.1s-.1-.2-.2-.1m-9.5.7h.2a.1.1,0,0,0-.1-.1h-.1m-.4.5h0c0,.1-.4.5-.5.7s-.2.2,0,.3.3.1,1.9-.1.4-.1,0-.5l-.6-.3h0c0-.1-.7-.1-.8,0m1.6.2c-.1.1-.1.2.1.3h.2c-.1,0,0,.1.1.2s.4.4.6.3-.2-.4-.3-.4h-.1c0-.1,0-.2-.2-.4l-.2-.2h-.2m-3.3.6h.3l-.4-.2h.1m14.2.2h.2a.1.1,0,0,0-.1-.1.1.1,0,0,0-.1-.1h0m6.3-.1c0,.1.2.2.3.2a.1.1,0,0,0-.1-.1c0-.1-.2-.1-.2-.1m.9.1.4.2-.4-.2h0m-1.1.2c-.1,0-.1,0,0,.1s.1.1,0,.2-.1.1.1.1a1.1,1.1,0,0,1,.8,0h.2c0-.1.1-.1.1,0s.2,0,.2-.1h-.1c0,.1-.2,0-.3-.1h-.1c.1,0,.1.1,0,.1s-.5-.1-.6-.3h-.3m-22.9,0h-.5l-.6.3h1.2c0,.1.2.1.2.1a.4.4,0,0,0-.3-.4m24.4,0a.8.8,0,0,0,.4.4c.1,0,.1-.1-.1-.2l-.3-.2m-5.7.3c-.1.1-.1.1.1.2s.3.2.3,0h0c.1-.1,0-.1-.1-.1s-.2-.1-.3,0M24.8,23h0m27.2.3h-.2c0,.2.5.8.6.7s0-.2-.1-.1-.1-.2,0-.2.2,0,.2.1,0,.1.2.1h.1l-.3-.4c-.5-.3-.5-.4-.5-.3m-28,.1v0H24m3.5,0c-.2,0,0,.1.5.2s.1-.1-.1-.2h-.4m21.5,0c-.1,0-.2.1-.1.1H49c.1-.1.1-.1,0-.1m3.2.2h.1a.1.1,0,0,0-.1.1c-.1,0-.1-.1-.1-.2h.1m-4.2.1h-.1l-.5.2H47l-.9.7h-.4l-.3.2c-.1.1,0,.1-1.7-.1l-2.3-.3h.7s0,.1.1,0h2.4c0,.1,0,.1.1.1h.2c0-.1.8-.2.9-.2s.1,0-.1.1h-.1a3.6,3.6,0,0,1-1.6.1h-.1c0,.1,0,.1-.1.1h-.2c-.1.1,0,.1.1.1s.2.1.2.2.1.1.2,0a5.2,5.2,0,0,1,1.7-.2c.2.1.1.2-.1.2l-.5.2-1.5.2-1.4.2h-.9l1.6-.2,1.3-.2h1.4l1.2-.2a1.1,1.1,0,0,0,.8-.2l.2-.2h-.4c-.3.1-1.1,0-1.1-.1h1.8c.1.1.6-.3,1.1-.7l.3-.2c.1-.1.1-.2,0-.2h-.3a.1.1,0,0,1-.1.1c.1-.1-.3-.1-.5,0s-.8.1-.8-.1h-.1a.2.2,0,0,1-.1-.3.1.1,0,0,0,.1-.1l.3-.2c.3-.2.2-.2-.1-.1m2.2.1c0,.1,0,.2.1.1v-.3c-.1,0-.1.1-.2.2m-25.3.1h0m3.7.2h.1c.2.1.4.2.3.3h-.1a.2.2,0,0,0-.3,0H26.7l.2.2.5.4.4.3c.2.1.2.2.2.1h1.2c.4,0,.4.1.1.2a1.1,1.1,0,0,1-.8,0h-.1c-.2.1.4.3.8.4H32l1.3.2,3.5.4h.3v-.2c0-.2,0-.2-.1-.2h-.5l.3-.2h.1l-.3-.4c-.3-.3-.5-.4-.5-.3s-.1.1-.2.1h-.2a.3.3,0,0,1-.4,0h-.2a.3.3,0,0,1-.1.2c-.1.1-.1.3,0,.3h.1v.2h-.4c.1-.1,0-.1,0,0H33.3a.8.8,0,0,0-.7,0,1.9,1.9,0,0,1-1.3.1h-.5c-.1.1-.4-.1-.4-.3a.1.1,0,0,0-.1-.1h.4l-.2-.2h.2c.4.1.5.1.5,0s0-.2-.1-.2l-.5-.2-.6-.3h0a3.5,3.5,0,0,0-1.2-.7h-.2m6.4,0h-.1a.1.1,0,0,0,.1.1h0m14.9.1h0c0,.1,0,0,.1,0h-.1m-8.7,0h0m-17.5.2c0,.1,0,.1-.1.1h.1c.2,0,.3-.1.2-.1h-.2m11.7.3-1.3.2c-.5.1-.9.2-.6.2l1.7-.3h.3a.1.1,0,0,0,.1-.1h-.2m-11,.1h0m5.3,0c.2.1.3.2.2.3s-.2,0-.2-.1h-.1c-.1-.2-.1-.2.1-.1m17.1,0h-.1c.1-.1.1,0,.1,0M21.3,25c0,.1.1.2.2.1s0,0,0-.1h-.2m-.3.3v.4c0,.1,0,.1.3-.1l.2-.2s-.3.1-.3.2h0a.3.3,0,0,1-.1-.2c0-.2-.1-.3-.1-.1m19,.2c-.5.4-.6.6-.4.6h1c0,.1.5.1.8,0a3.4,3.4,0,0,0,1.5-.4c0-.1-.1-.1-.5-.1s-.6,0-.6-.3h0c-.1-.1-.1-.1,0-.1s.1-.2,0-.2a.1.1,0,0,0-.1.1h-.1c-.1-.1-.1-.1-.1,0h-.1c0-.1-.1-.1-.2-.1a.1.1,0,0,0-.1.1h0l-.8-.2-.3.3m3.2-.2h.4c-.5-.1-.8-.1-.4,0m-7.3,0c-.1.1-.1.1,0,.1h0m-7.8.2h0m-5,.6h.1c.1-.2.1-.2-.1,0m31,.4h0M36,26.8h-.2c-.1-.1-.1-.1,0-.1H36m3.4,0h.5c0-.1-.5-.1-.5,0m1.3,0h-.8c0,.1,1,0,1.1-.1h-.3m8.5,1.7h.3c.1,0,.1-.1,0-.1h-.3m-23.6.1-1.1.2h-.9a4.2,4.2,0,0,0,1.7-.2h.3m24.6.4a.3.3,0,0,0,.1.2c.1,0,.2-.1.1-.2s-.2-.1-.2,0m2.8.1c0,.2.3.4.4.2s.1-.1-.2-.2-.2-.1-.2,0m-25,.4v.2h-.3c-.2,0-.3.2-.1.2s0,.2-.1.2h0c0-.1-.3,0-.4.2l-.3.2h0a.1.1,0,0,1-.1.1c-.1,0-.1.1,0,.2h0a.4.4,0,0,0-.4.6c0,.1,0,.4-.1.5s-.1.4.1.3h.2c0-.1.2-.3.3-.2H27c-.1-.1,0-.2.1-.2h.2a.3.3,0,0,1,0-.4h0a.1.1,0,0,1,.1-.1h.3a.1.1,0,0,1,.1-.1.1.1,0,0,0,.1.1h-.2c0-.1.2-.1.3.1s.1.1.1,0h.3c.1.1,0-.5-.3-1.5s-.1-.1-.1.1m25.8.4c-.1.1-.1.1.1,0h-.1m-5.8.4c0,.3.1.4.3.4a.1.1,0,0,1,.1.1h.1c.3.2.8.6.8.7l.5.3c.1,0-.2-.5-.4-.5l-.5-.6c-.1-.2-.1-.2-.4-.1h0c.1,0,0-.1-.2-.3s-.2-.2-.3,0m-19.8.2c.1.2.1.3,0,.2s-.1,0-.1-.2.1-.3.1,0m-.7,0h-.4c-.2-.1-.1-.2,0-.1h.2c.1-.1.2-.1.2,0m-4.6,0c0,.1.2.3.2.3s0-.1-.1-.2h-.1m.7.2c0,.1.1.1.2.1h-.2m.4.2h0c.1-.1,0-.1,0-.1m28.3.1h0c.1,0,.2,0,.2-.1h-.2m-28.8.2.2.2.2.2h.2c.1.1.1.1.1,0h-.1l-.4-.4-.2-.2h0m28.2,0h.1v-.2h-.1m.7.3c-.2.2-.3.4-.2.3a1.5,1.5,0,0,0,.5-.6l-.3.3m-36.9-.2A4.4,4.4,0,0,0,17,33.8a19,19,0,0,1,3.5,1.8,2.3,2.3,0,0,0,1.6.4l1.8.3q.5.2.3,0H24c-.1,0-.2,0-.2-.1H23l-.3-.2h-.4c0-.1-.2-.1-.3-.2s-.2,0-.2-.1L20.7,35a6.5,6.5,0,0,1-3.6-1.8c-.3-.4-.6-.7-.7-.7a2.7,2.7,0,0,1-.7-.8l-.2-.4m11,.2c0,.1-.1,0-.1-.1h.1s.1.1,0,.1m34.1.2a1.4,1.4,0,0,1-.7.8l-.7.6a6.3,6.3,0,0,1-4,1.9l-.5.2-.4.2-.2.2h-.5c0,.1-.2.1-.2.2s.1.1.8,0h.5a.7.7,0,0,0,.6-.2,23.2,23.2,0,0,1,4.2-2.1,6.7,6.7,0,0,0,1.2-1.8c.1-.4.1-.6-.1-.2M25.5,32c0,.1,0,.1.1.1h.1c0-.1-.1-.1-.2-.1m24.4,0c-.1.2,0,.2.4.2s0-.1,0-.1h-.4m.6.4a.1.1,0,0,0,.2,0h0c-.1-.1-.2-.1-.2,0M25,33c0,.1-.1.1,0,.1s.5.3.6.3h.2c0,.1.1.1.2.1h.1c0,.1.2.1.4.1h.7l-.2.2c-.1.1-.1.2-.2.2s0,0,.1.3l.2.4a.1.1,0,0,0,.1.1c0,.1.1.2.1.3a.6.6,0,0,0,.1.4q.2.4,0,.3v-.2a.3.3,0,0,1-.1-.2c-.1,0-.2,0-.3-.2l-.5-.6-.5-.5h-.2a.4.4,0,0,0-.2.5.1.1,0,0,0-.1.1h-.1c-.1.1,0,.1,0,.2s.1.1.1.2-.2.2.2.6l.2.2c0,.1.2.2.2.2s.1-.1.1,0h.1c.1-.2.1-.2.3,0s.3.4.1.4h2.2c.1,0,.1-.3.1-.5a.1.1,0,0,0-.1.1h-.2c.1,0,.1-.1.1-.3s.1-.3.1-.4.2-.4,0-1.3a4.1,4.1,0,0,1-.2-.7c0-.2,0-.2-.2-.2H26l-.4-.2c-.5-.2-.5-.2-.6-.1m25.7.1c-.4.2-.5.2-2.2.3h-.8c0,.1.3.1,1.3.1h1.4c.2.1.9-.3.9-.4s-.1-.2-.6,0m-29,.5h.1c.1-.1.1-.2-.1-.1m.6,0h0c-.1,0-.1.1,0,.1m6.1,0a.1.1,0,0,1-.1.1c-.1,0-.1,0-.1-.1h.2m-.4.1h-.2c-.3-.1-.3-.1,0-.1s.2,0,.2.1m-4.9.4.3.3h.1l-.4-.4m26.9.4a.3.3,0,0,1-.1.2l-.4.6-.6.6a.3.3,0,0,1-.1.2c0,.2-.2.3-.4.2a1.9,1.9,0,0,1-.6-.7c0-.1,0-.3-.1-.3h-.4c-.1.3,0,.5.2,1v.5h1.2l.2-.2v-.2h.1a.1.1,0,0,1,.1.1c0,.1.1.1.3.1h.2c.3,0,.3,0,.6-.3l.4-.5.2-.3a1.3,1.3,0,0,0-.2-.9h-.2c-.4-.2-.4-.2-.6,0m-1.3-.1c0,.1.6.6.6.6s0-.1-.4-.4l-.2-.2h0m2,.2h0c-.1,0-.1,0-.1-.1h.1m3.4.2H54a.1.1,0,0,0-.1.1c-.1,0,0,0,.1-.1l.2-.2h-.1M25,34.9h0c.1.1.1.1.1,0H25m.6,1.7.2.2h.7c.2-.1.6,0,.6.1s.2.1.5.1l1,.2c.2.1.3.1.4,0a3.3,3.3,0,0,1,1,0c.1.1.2.1.7,0s.2-.1-.2-.1H29.3a.1.1,0,0,0-.1-.1c0-.1-.2-.1-.3,0s0,.1-.1.1,0-.1.1-.1,0-.2-1.3-.3h-2m3.2.3h0m-.6.1H28a.1.1,0,0,1,.1-.1h.1m9.1.7H35.2l1.3.2h2.2l1.9-.2c.9-.1.7-.2-.6-.2H38.9c0-.1-.6-.2-1.6-.1m7.7.1h-.1c.2.1.9,0,.8-.1H45m.4.1h-.2c.1-.1.2-.1.2,0m1.8,0a1.4,1.4,0,0,0,.4.4h0a.8.8,0,0,1-.2-.4c-.1,0-.1-.1-.2,0m-4.7.1c-.3.1-.3.1-.2.2s.3.1.3,0,.1-.2.3-.2.3-.1.1-.1h-.5m2,1.9H44c-.4.1-.5.1-.5.2l1.1-.2c.3-.1.2-.1-.1,0M31,39.9c0,.1.3.1.6.1H31m2.5.1h0m-.6.1c-.1.1.5.1,1.9.1s1-.1.6-.1H32.9m8,.2c-.9.1-.9.1,0,.1h0m-5,1.3h.7c.2.1.3,0,.2-.1a1.3,1.3,0,0,0-.9,0m3.5.7h.1c.1.1.4.1.4,0h-.5m-1,1.1h.1c0-.1,0-.1-.1,0"/><path class="cls-22" d="M26.1,40.5l.4.3Z"/><path class="cls-22" d="M25.6,40.2h.1l-.3-.2h0Z"/><path class="cls-22" d="M32.7,45.6Z"/><path class="cls-23" d="M53.3,38.3c0-.1.1-.2.3-.2l-.7.4h-.2l-.2.2h-.1l-.9.7.4-.3Z"/><path class="cls-23" d="M47.8,42.4l-.4.3q.3-.2.3-.3Z"/><path class="cls-23" d="M54.5,37.3l-.7.6h.1Z"/><path class="cls-23" d="M30,43.5l.2.2.8.6h.2l-1.3-1A.1.1,0,0,0,30,43.5Z"/><path class="cls-23" d="M59.5,28.2l-.3-.4h-.1Z"/><path class="cls-23" d="M60.7,29.7c.1,0,0-.1,0-.1Z"/><path class="cls-23" d="M44.4,45l-.5.3Z"/><path class="cls-23" d="M60.7,29.6Z"/><path class="cls-23" d="M29.1,42.8h.1l-.2-.2Z"/><path class="cls-23" d="M50.1,40.6h0c.1.1.1.1.1,0h-.1Z"/><path class="cls-23" d="M58.9,27.6Z"/><path class="cls-23" d="M28.1,42h0Z"/><path class="cls-23" d="M45.1,20.5h0Z"/><path class="cls-23" d="M56.3,25.5h0Z"/><path class="cls-23" d="M49.9,40.8l-1.3,1,1.3-1Z"/><path class="cls-23" d="M24.8,39.6Z"/><path class="cls-23" d="M17,28h-.1c-.1,0-.1.1,0,.1Z"/><path class="cls-23" d="M16.8,28.2l-.4.4-.2.2Z"/><path class="cls-23" d="M50.6,22.1Z"/><path class="cls-23" d="M33.6,20.2h0a.1.1,0,0,0-.1.1Z"/><path class="cls-23" d="M20,25.6h0Z"/><path class="cls-23" d="M33,20.3h0Z"/><path class="cls-23" d="M34.2,20.2h0Z"/><path class="cls-23" d="M31.7,20.5h0Z"/><path class="cls-23" d="M26,21.9h0Z"/><path class="cls-23" d="M20.9,24.9h0l-.4.3-.3.3Z"/><path class="cls-23" d="M21.2,24.7h0Z"/><polygon class="cls-24" points="44.5 29.4 42.8 28.7 40.4 32.1 38.9 37.8 41 33.6 44.5 29.4"/><polygon class="cls-25" points="31.7 29.6 33.5 28.8 35.8 32.2 37.3 37.9 35.2 33.8 31.7 29.6"/><path class="cls-26" d="M33.7,28.7l4.4-1.4,3.4,1.1s-.1.8,0,.7.5-.5.5-.5l.5.2-1.7,1.8-.4,1.6-2.2.9-2.3-1-.3-1.5Z"/><polygon class="cls-26" points="28.7 25.9 28.9 26.1 30 26.2 30.5 28 28.7 25.9"/><path class="cls-26" d="M22.9,28.1a18.4,18.4,0,0,0,4.4.1l-1-1.1.2-.3-.3-.5H24.7Z"/><polygon class="cls-26" points="19.5 28.1 19.6 29.6 22.1 27.3 19.5 28.1"/><polygon class="cls-26" points="22.7 29.2 23.3 30.2 23.1 30.6 22.7 29.2"/><polygon class="cls-26" points="22.4 33.1 23.4 34 25.4 32.5 24.8 32.2 22.4 33.1"/><path class="cls-26" d="M24.4,30.5v.2S28,29.3,28,28.9v-.5l-2.2,1-.3.6Z"/><path class="cls-26" d="M16.2,30.6l.5.2s.9-1.3,1.4-1.2.6.3.6.3l.3-.5H18l-1,.8A1,1,0,0,0,16.2,30.6Z"/><polygon class="cls-26" points="20 34.7 21.1 35 21.4 34.1 21.1 34.1 20.7 34.4 20.3 34.5 20 34.7"/><polygon class="cls-26" points="26.2 32.3 28.5 32.9 28.5 32.3 27.9 31.8 27.3 31.8 27 31.9 26.2 32.3"/><polygon class="cls-26" points="31.4 31.5 32.9 33.1 34.7 37.8 31.1 37.8 30.9 37.4 30 37.1 30.5 34.3 30.8 34.7 31.4 31.5"/><polygon class="cls-26" points="30.1 33.7 28.9 36.1 28.8 36.7 29.2 37 29.5 37.1 30.1 33.7"/><polygon class="cls-26" points="23.7 34 23.4 34.2 23.9 34.6 24.1 34.7 24.1 34.8 25 36.6 25.3 36.8 23.7 34"/><polygon class="cls-26" points="23.4 37.8 25.5 39.4 30.1 39.3 29.2 38.6 23.4 37.8"/><polygon class="cls-26" points="27.8 39.6 31.5 43.1 31.3 43.2 28 40.5 25.9 39.6 27.8 39.6"/><polygon class="cls-26" points="30.8 25 33.6 24.6 32.4 24.1 30.8 25"/><polygon class="cls-26" points="32.6 24 33.7 24.5 34.7 24.3 34.1 24 32.6 24"/><path class="cls-26" d="M31.4,23.1l2.1.7h-1l-1.8,1-1.2-.7S28.9,23.5,31.4,23.1Z"/><polygon class="cls-26" points="34.5 25.7 35.3 24.9 36 25.1 35.8 25.3 35.3 25.1 34.5 25.7"/><polygon class="cls-26" points="37.4 26.7 37.8 27.1 37.2 27.1 37.4 26.7"/><polygon class="cls-26" points="27.8 23.7 28.4 24.1 28.1 24.6 27.8 24 27.8 23.9 27.5 23.7 27.8 23.7"/><polygon class="cls-26" points="24.1 24.6 26.1 23.8 26.3 24.1 25 24.6 24.1 24.6"/><polygon class="cls-26" points="25.4 23.2 26.8 22.5 27.3 23.2 26.7 22.7 25.4 23.2"/><polygon class="cls-26" points="42.6 20.8 44.3 20.9 43.5 21.7 43.8 21 42.6 20.8"/><polygon class="cls-26" points="44.2 21.8 46.3 22.5 45.9 23.1 46.8 22 44.7 21.2 44.2 21.8"/><polygon class="cls-26" points="47.5 22.1 48.2 21.8 47.5 21.6 47.5 22.1"/><polygon class="cls-26" points="39.4 20.5 39.7 21 42.6 20.9 39.6 21.2 39.4 20.5"/><polygon class="cls-26" points="43.1 22.1 37.9 27.2 40.9 24.3 43.1 22.1"/><polygon class="cls-26" points="43.8 23.3 41.7 24.3 42.6 24.6 45.1 25 45.9 24.9 46.3 24.6 42.8 23.9 43.8 23.3"/><polygon class="cls-26" points="47.7 22.7 48.8 22.4 49.1 22.4 47.7 22.7"/><polygon class="cls-26" points="50.3 24.1 51.7 24.6 51.9 24.4 50.3 24.1"/><polygon class="cls-26" points="53.2 23.6 53.5 24.6 53.8 24.4 53.2 23.6"/><polygon class="cls-26" points="48.7 27 50.2 26.3 49.8 26.3 48.8 26.2 48.7 27"/><polygon class="cls-26" points="48.7 27.3 49.6 27 49.5 27.5 49.4 27.9 49.4 28.2 48.7 29 48.8 28.2 48.6 27.8 48.7 27.3"/><path class="cls-26" d="M50.8,26.4l-1.1,1.5s1.3,1.1,4.1.5l-.2-.9h-.2v-.2l-.8-.6Z"/><polygon class="cls-26" points="48.5 28.4 48 30.1 48.1 30.2 48.5 28.4"/><polygon class="cls-26" points="44.6 29.4 48 30.6 47.8 32.1 47.7 30.6 44.6 29.4"/><polygon class="cls-26" points="48.4 31.6 49.5 32.4 47.8 32.5 48.1 32.1 48.4 31.6"/><polygon class="cls-26" points="48.2 29.9 49.9 31.8 50.7 32.4 49.9 31.6 48.2 29.9"/><polygon class="cls-26" points="50.3 31.2 50.7 31 51.6 31.4 51.4 31.6 50.3 31.2"/><polygon class="cls-26" points="50.2 29.6 50.9 30.3 50.7 30.7 50.2 30.3 49.8 29.9 50.2 29.6"/><polygon class="cls-26" points="51.3 29.1 51.1 29.7 51.6 29.9 51.3 29.1"/><polygon class="cls-26" points="51.9 29.8 52.2 30.1 52.9 28.6 52.2 29.9 51.9 29.6 51.9 29.8"/><polygon class="cls-26" points="49.9 28.6 50.2 29.2 49.9 29.6 49.9 29.4 49.9 29.1 49.9 28.6"/><polygon class="cls-26" points="47.6 33.1 50.3 32.8 50.1 32.7 47.6 33.1"/><polygon class="cls-26" points="45 37 47.1 36.8 47.3 36.9 47.5 36.9 47.5 36.8 47.6 36.6 47.3 35.7 47 35.6 46.9 35.4 45 37"/><polygon class="cls-26" points="52 33.6 52.7 34.1 49.8 37 50.7 35.8 50.9 35.6 51 35.4 51 35.2 52 33.6"/><polygon class="cls-26" points="51.2 32.9 52 33.5 51.5 32.9 52.3 32.4 52.2 32.4 51.4 32.8 50.8 32.3 51.2 32.9"/><path class="cls-26" d="M51.7,32s2-2,2.6-.9-.5-.7-1.5.1l-.3.2-.3.4C52.1,32,51.7,32,51.7,32Z"/><path class="cls-26" d="M54.2,32.8s.3-.2.1-1.4l-.5-.4v1.1A.8.8,0,0,1,54.2,32.8Z"/><polygon class="cls-26" points="53.4 33.5 54.6 32.8 54.7 33.1 54.7 33.3 53.3 34.1 54 33.5 53.4 33.8 54.3 33.2 53.4 33.5"/><polygon class="cls-26" points="54.3 34.1 55 33.9 54.8 34.1 54.9 34.4 54.5 34.4 54.3 34.1"/><polygon class="cls-26" points="43.6 34 44 33.8 44.6 33 44.7 33.1 44.8 36.9 44.7 37.3 48.2 37.7 48.3 37.9 48.4 37.9 48.4 38 43 37.5 40 37.7 43 37.3 43.6 34"/><polygon class="cls-26" points="54.1 36.7 57.9 34.6 54.6 37 54 37 54.1 36.7"/><polygon class="cls-26" points="56.8 32.6 57.6 32.9 58.8 33.2 57.9 33.8 57.6 33.7 57.1 33.9 56.7 33.7 56.9 33 56.5 33.3 56.8 32.6"/><polygon class="cls-26" points="53.4 34.3 53.9 34.6 53.1 35.2 52.9 35.3 52.8 35.3 52.6 35.4 52.4 35.6 52.3 35.3 53.4 34.3"/><polygon class="cls-26" points="51.5 37 53.3 36.7 53.8 36.7 54.3 36.1 52.8 36.3 51.5 37"/><path class="cls-26" d="M60.2,31.5h-.3v-.2h-.4l-.3.2-.4-.4.3-1.2v.5h.3l.2-1.3a2.8,2.8,0,0,1,.5,1.4A1.5,1.5,0,0,0,60.2,31.5Z"/><path class="cls-26" d="M58.6,28.4s1.4.2,1.6.8a1.7,1.7,0,0,0-1.1-1l-.8-.6Z"/><polygon class="cls-26" points="58 28.9 58.4 29.1 58.4 29.7 58 28.9"/><polygon class="cls-26" points="57.9 29.4 58.3 30.2 58.3 30.8 58.1 31 57.9 30.7 57.8 30.1 57.9 29.4"/><polygon class="cls-26" points="54.7 27.4 57 28.8 56.9 29.1 56.4 29.1 56 29.2 54.7 27.4"/><polygon class="cls-26" points="56.1 25.9 56.3 26.5 55.2 26.8 54.7 26.4 54.5 25.8 54.8 25.5 56.1 25.9"/><polygon class="cls-26" points="54.1 24.5 54 25.9 53.8 25.7 54.1 24.5"/><polygon class="cls-26" points="56 27.5 57.1 28.3 58 27.6 57.1 28.1 56 27.5"/><path class="cls-26" d="M46.3,38.5a3.9,3.9,0,0,0,3,.2l.2.7-.8.7L46,39.6S47.2,39.1,46.3,38.5Z"/><polygon class="cls-26" points="38.1 45.1 38.1 46.1 38.4 46.2 39.4 45.4 39.3 44.2 38.9 44.1 38.7 44.2 38.3 45 38.1 45.1"/><polygon class="cls-26" points="38 45.1 38.1 46 37.9 46.1 36.9 45.3 36.8 44.2 37.2 44.1 37.5 44.2 37.9 44.9 38 45.1"/><polygon class="cls-26" points="41 41.1 42.2 41.1 42 42.4 42.4 40.9 44.4 41.1 42.5 43.2 41.9 43.9 41.6 43.5 41.8 42.7 41.3 42.1 41 41.1"/><polygon class="cls-26" points="34.2 40.9 35.9 40.6 35.9 40.9 35.4 41.2 35 41.2 35.1 41.4 35.5 41.6 36 43.1 35.5 43.8 34.9 42.2 34.7 41.6 34.6 41.4 34.2 40.9"/><path class="cls-26" d="M36.6,43.3s-.4,2.2-.9,2.4Z"/><path class="cls-27" d="M40.4,46.6l-.2.2c-.2.3-.2.3.2.2s.6-.2.6-.1h-.1a.1.1,0,0,0-.1.1l-.4.2a.2.2,0,0,0-.2.2l-.2.2a.2.2,0,0,0-.2.2h-.1c0,.1-.2.1-.3.2a.7.7,0,0,1-.5.3l.4-.5.5-.5h-.1l-.5-.2-.4-.2c-.2,0-.3-.1-.2-.2h1.8"/><path class="cls-27" d="M40.7,46.3h0a.1.1,0,0,1-.1-.1h.1"/><polygon class="cls-26" points="36.3 47.2 36.6 47.4 37 47.8 36.5 47.7 35.9 47.2 36.3 47.2"/><path class="cls-26" d="M32.7,43.6h.8l1.7,2.4-.7-.5Z"/><path class="cls-26" d="M32.4,41.1l.4.6.8,1.4.2,1-.4-.6A6.7,6.7,0,0,0,32.4,41.1Z"/><polygon class="cls-26" points="29.4 40.6 31.7 41.6 33.1 43.1 31.6 41.7 29.4 40.6"/><path class="cls-26" d="M32.5,43.2H32l-2.7-2.5S31.7,43.1,32.5,43.2Z"/><polygon class="cls-26" points="29.5 42.3 31 43.2 31.3 43.3 31.6 43.4 31.1 43.5 29.5 42.3"/><polygon class="cls-26" points="30.7 40.3 32.7 40.6 35.8 40.3 32.8 40.3 29.7 39.9 30.7 40.3"/><polygon class="cls-26" points="30.4 39.6 37.3 39.5 37.6 39.8 36.6 39.7 30.4 39.6"/><polygon class="cls-26" points="44.5 42.4 45.4 42.4 48.4 40.6 47.1 40.8 44.5 42.4"/><polygon class="cls-26" points="44.5 42 47 40.4 48.7 40.4 46.6 40.1 44.5 42"/><polygon class="cls-26" points="40.9 40.9 44.2 40.8 46.2 40.1 44.2 40.7 40.9 40.9"/><polygon class="cls-26" points="42 38.3 42.3 39.3 44 39.5 43.7 39.3 43.7 39.2 43.8 38.8 43.2 38.7 42.6 39.2 42.9 38.6 42.9 38.3 42.4 39.2 42 38.3"/><polygon class="cls-26" points="52.2 38.2 51.8 38.7 51.5 39 51.3 38.9 51.1 38.9 51.7 38.4 52.3 38.1 52.2 38.2"/><polygon class="cls-26" points="37.3 41.5 37.5 41.7 38.7 41.7 39.4 41.4 39.4 40.9 38.6 41.6 37.7 41.6 37.1 40.8 37.1 41.4 37.3 41.5"/><polygon class="cls-28" points="19.5 26.4 20.5 26.3 20.9 26.8 20.7 27.3 19.5 26.9 19.5 26.4"/><polygon class="cls-28" points="18.5 28.4 17.7 28.9 17.4 29.2 18 29.3 19 29.4 19.2 29.2 18.1 29.1 18.5 28.4"/><polygon class="cls-28" points="16.8 29 17.3 29.4 17.2 30 16.5 30 16.2 31 16.3 31.3 16.2 31.8 15.8 30.9 16.2 29.7 16.8 29"/><polygon class="cls-28" points="17.5 31.7 18.1 32.2 18.1 32.7 17.4 32.5 17 32.9 16.6 32.5 17.5 31.7"/><polygon class="cls-28" points="21 33.9 21.4 34.1 21.4 33.4 21 33.3 19.5 33.3 21 33.9"/><polygon class="cls-28" points="21.9 27.6 22.2 27.9 21.8 30 21.1 28.8 21.9 27.6"/><polygon class="cls-28" points="20.7 29.2 21.4 30.9 21 31.2 20.5 31 20.7 29.2"/><polygon class="cls-28" points="22.9 28.9 23.9 30 23.3 31.1 23.3 30.2 23 29.6 22.9 28.9"/><polygon class="cls-28" points="26.5 28.4 26 28.7 25.9 29.1 26.8 28.8 26.5 28.4"/><polygon class="cls-28" points="24.7 33.3 25 33.3 25.8 33.4 25.4 33.8 25.2 34 24.7 33.8 24 34.1 24.7 33.3"/><polygon class="cls-28" points="22 33.9 22.5 34.2 23.1 33.9 22.2 33.7 22 33.9"/><polygon class="cls-28" points="21.9 34 22.3 34.3 22 34.7 21.9 34.4 21.9 34"/><polygon class="cls-28" points="21 31.9 21.6 32.9 21.5 33.2 20.9 32.8 21 31.9"/><polygon class="cls-28" points="26.2 33.6 26.9 34.7 26.8 34.8 26.2 33.6"/><polygon class="cls-28" points="24.5 34.7 26.2 36.5 26 36.6 25.7 36.5 24.5 34.7"/><polygon class="cls-28" points="19.3 35 22 36.6 21 36.1 21.9 36.8 20 35.7 19.3 35"/><polygon class="cls-28" points="17.4 33.5 18.4 34.1 19.5 34.6 19.2 34.2 18.5 33.7 17.4 33.5"/><polygon class="cls-28" points="21.4 34.6 21.7 35 22.1 35.4 21.4 35.1 21.2 35 21.4 34.6"/><polygon class="cls-28" points="24.3 35.4 24.7 36 24.4 35.9 24.3 35.9 24.3 35.4"/><polygon class="cls-28" points="17.7 28 18.3 27.6 19 27.6 18.3 27.4 17.7 28"/><path class="cls-28" d="M21.2,27.4s2.2-2,2.5-1.9l-.4-.4-.3.7-1.6,1.3Z"/><polygon class="cls-28" points="21.6 26.2 21.6 26.5 21.9 26.4 21.9 26.2 21.6 26.2"/><polygon class="cls-28" points="24.1 24 24 24.2 24.2 24.1 24.6 24.2 24.5 24 24.2 24 24.2 23.7 24.1 23.8 24.1 24"/><polygon class="cls-28" points="22.1 24.2 23 24.5 22.5 24.1 22.1 24.2"/><polygon class="cls-28" points="25.1 23.4 25.6 23.9 25.3 24 24.9 23.7 25.1 23.4"/><polygon class="cls-28" points="25.1 23.3 25.5 23.6 26.2 23.3 25.6 23.3 25.2 23.2 25.1 23.3"/><polygon class="cls-28" points="23.2 24.5 23.6 24.9 23.2 25.1 23.2 24.5"/><polygon class="cls-28" points="26.6 23.5 27.3 24.1 27.1 24.2 26.8 23.7 26.3 23.8 26.2 23.7 26.6 23.5"/><path class="cls-28" d="M26.9,23.4v.3s.4-.7.8-.7h-.3l-.2.3Z"/><polygon class="cls-28" points="27.3 22.5 28.3 22.8 29.5 22.5 28.5 22.6 27.3 22.5"/><polygon class="cls-28" points="28 21.9 31.3 23 31.4 22.9 28 21.9"/><polygon class="cls-28" points="31.2 25.3 31.8 25.6 32.8 25.3 33.6 25.1 32.5 25.2 31.2 25.3"/><polygon class="cls-28" points="32.2 25.8 32.9 26 34.2 25.6 33 25.8 32.2 25.8"/><polygon class="cls-28" points="33.9 25.3 34.8 25.1 34.7 25.1 34.1 25.1 33.9 25.3"/><polygon class="cls-28" points="34.5 25.8 35.1 25.4 36.1 25.4 35.8 25.6 35.4 25.7 35.2 25.6 34.5 25.8"/><polygon class="cls-28" points="34 26.1 34.7 26.2 34.9 26.1 34 26.1"/><polygon class="cls-28" points="25 31.3 25.6 31.9 25.7 32.1 26 32.1 26.2 31.8 26.2 31.5 25 31.3"/><polygon class="cls-28" points="43 20.7 44.3 20.9 44.6 20.6 43.8 20.6 43 20.7"/><polygon class="cls-28" points="39.8 20.9 40.2 20.9 40.5 20.7 40.3 20.2 39.8 20.9"/><polygon class="cls-28" points="43.5 21.8 43.4 22.2 43.8 22.3 43.7 22.4 43.3 22.3 42.9 22.6 43.5 21.8"/><polygon class="cls-28" points="43.9 22 46.2 22.6 46.2 22.5 44 21.8 44.5 21.3 43.8 21.8 43.9 22"/><polygon class="cls-28" points="46.5 22.5 47.4 22.7 48.7 22.3 48.5 22.2 46.5 22.5"/><polygon class="cls-28" points="45 23 44 23.3 44.9 23.5 45 23"/><polygon class="cls-28" points="48.4 23.8 48.9 24 49 24.2 49.8 23.8 49.2 23.8 49 23.7 48.6 23.8 48.4 23.8"/><polygon class="cls-28" points="48.7 23.4 49.4 23.2 49.4 23 49.2 22.9 48.7 23.4"/><polygon class="cls-28" points="48.2 23.1 49.6 22.7 49.4 22.5 49.1 22.5 48.2 23.1"/><polygon class="cls-28" points="50.4 22.7 51.2 23.1 51.1 22.9 50.4 22.7"/><polygon class="cls-28" points="48.2 25.5 46.5 25.6 47 25.7 47.8 25.7 48.2 25.5"/><polygon class="cls-28" points="41.9 25.6 42.2 25.3 44.3 25.6 42.1 25.1 41.9 25.6"/><polygon class="cls-28" points="40.4 25 41.3 24.9 40.7 24.7 40.4 25"/><polygon class="cls-28" points="44.4 25.3 44.3 25.7 44.7 25.7 44.5 25.6 44.6 25.5 44.4 25.3"/><polygon class="cls-28" points="39.1 26.2 40.3 26.5 40.1 26.7 39.3 26.7 39.1 26.9 39.1 26.2"/><polygon class="cls-28" points="38.7 26.6 38.7 27 39.4 27 38.3 27.1 38.7 26.6"/><polygon class="cls-28" points="40.4 26.7 42.8 26.2 41.4 26.6 43.4 26.3 42 26.6 41.2 26.7 40.4 26.7"/><polygon class="cls-28" points="50.3 24 52 24.2 51.7 24.3 50.3 24.1 50.3 24"/><polygon class="cls-28" points="52.1 24.2 52.5 24.2 52.9 24 53.2 24.3 52.8 24.1 52.5 24.2 52.1 24.2"/><polygon class="cls-28" points="51.5 23.3 51.6 23.5 51.6 24 51.7 23.5 51.5 23.3"/><path class="cls-28" d="M50.9,23.5s-.5.2-.4.4S50.2,23.7,50.9,23.5Z"/><polygon class="cls-28" points="53.8 24.9 54 24.4 53.8 24 53.9 24.4 53.8 24.9"/><polygon class="cls-28" points="52.9 24.8 52.5 25.2 52.9 25.7 52.7 25.3 52.9 24.8"/><polygon class="cls-28" points="53 23.2 53.6 24 53.6 23.8 53 23.2"/><polygon class="cls-28" points="53.2 26.1 54.6 27.2 54.9 27.2 54.8 26.9 55.2 27.2 54.3 27.3 53.2 26.1"/><polygon class="cls-28" points="54.8 26.2 56.1 26.2 56.1 26 54.8 26.2"/><polygon class="cls-28" points="56.5 26.8 56.6 27.3 56.4 27.4 56.5 26.8"/><polygon class="cls-28" points="52.8 26.7 53.4 27.2 53.4 26.8 53.1 26.6 52.8 26.7"/><polygon class="cls-28" points="53.4 25.4 53.7 25.8 53.8 26 53.7 26.1 53.4 26 53.4 25.4"/><polygon class="cls-28" points="54.2 24.7 54.2 25.4 55 25.1 54.2 24.7"/><polygon class="cls-28" points="50 26.4 50.4 26.8 50.8 26.4 50.3 26.3 50 26.4"/><polygon class="cls-28" points="57 27.6 57.8 27.4 58.4 27.9 58.3 28.7 57.9 28.2 58 27.8 57.8 27.6 57.3 28 57 27.6"/><polygon class="cls-28" points="59.1 29.6 59.1 30.3 59.4 30.4 59.5 29.7 59.3 28.8 59.4 29.3 58.7 29.1 58.7 29.5 59.1 29.6"/><polygon class="cls-28" points="58.4 29.9 58.7 30.4 58.6 31 59.1 31.7 58.7 31.6 58.2 31.2 58.4 30.8 58.3 30.2 58.4 29.9"/><polygon class="cls-28" points="60.2 30.7 60.2 31.2 60.4 31.4 60.4 31 60.4 30.3 60.2 30.7"/><polygon class="cls-28" points="60 29.7 60.2 30.3 60.1 30.5 60.4 30.1 60.2 29.9 60 29.6 60 29.7"/><polygon class="cls-28" points="57.7 29 57.7 29.8 57.8 30.4 57.5 29.7 57.7 29"/><polygon class="cls-28" points="55.6 35.7 58.2 34.3 58.1 34.5 55.6 35.7"/><polygon class="cls-28" points="54.1 36.5 54.5 36.1 55 36 54.1 36.5"/><polygon class="cls-28" points="54.4 35.3 55.3 34.9 54.9 34.7 54.7 34.9 54.4 35.3"/><polygon class="cls-28" points="54.3 34.8 54.8 34.8 54.8 34.6 54.7 34.5 54.2 34.6 54.3 34.8"/><polygon class="cls-28" points="54.1 34 54.8 33.6 54.7 33.5 54.1 34"/><polygon class="cls-28" points="55.6 33 56.2 32.3 56.7 32.6 56.2 32.2 55.6 33"/><polygon class="cls-28" points="51.4 35.8 51.1 36.9 51.7 35.7 51.9 35.6 52 35.3 52 34.9 51.2 35.6 50.7 36.2 50.2 37.2 50.8 36.2 51.4 35.6 51.4 35.8"/><polygon class="cls-28" points="51.4 36.8 52.7 36.1 53.6 36.1 54 36.1 53.3 36.2 52.8 36.2 51.4 36.8"/><polygon class="cls-28" points="47.6 33 48.8 32.8 50.2 32.6 49.5 32.4 47.9 32.5 47.8 32.9 47.6 33"/><polygon class="cls-28" points="47.5 33.8 47.5 34.1 47.7 34.4 47.9 34.2 48 33.9 48.5 34.3 49 33.6 47.9 33.9 47.8 33.8 47.5 33.8"/><polygon class="cls-28" points="49.1 33.8 49.4 33.9 49.8 34.4 49.9 34.2 49.5 33.6 49.1 33.8"/><polygon class="cls-28" points="48.9 34 49 34.4 49.5 34.7 49.4 34.9 48.8 34.4 48.9 34"/><polygon class="cls-28" points="51.3 33.3 51.8 33.7 51 34.8 51.6 33.7 51.3 33.3"/><path class="cls-28" d="M46.4,38.4a1.5,1.5,0,0,0,1.5.2l-.7-.6Z"/><polygon class="cls-28" points="47.9 41.2 49.3 40.2 46 39.7 46.3 40.1 45.9 40.4 46.8 39.9 47.1 40 48.6 40.3 48.8 40.4 48.5 40.6 47.4 40.5 48.4 40.6 47.9 41.2"/><polygon class="cls-28" points="49.4 38.7 49.9 39.6 50.2 39.4 49.4 38.7"/><path class="cls-28" d="M45.6,43.1a4.4,4.4,0,0,0,2.1-.9l-1,.9Z"/><path class="cls-28" d="M45,43s1.9-1.4,2.3-1.2S47.2,41,45,43Z"/><polygon class="cls-28" points="43.2 43.2 45.6 40.9 45.3 40.9 43.2 43.2"/><polygon class="cls-28" points="42.8 38.3 42.4 39 42.1 38.6 42.8 38.3"/><polygon class="cls-28" points="45.1 38.7 45.9 38.8 46.7 38 46.1 37.9 45.1 38.7"/><polygon class="cls-28" points="43 38.1 43.8 38.3 44.5 37.8 43.5 37.7 43 38.1"/><polygon class="cls-28" points="38.6 44.8 38.3 45.9 38.3 45.2 38.6 44.8"/><polygon class="cls-28" points="37.2 44.4 37.7 45 37.8 45.6 37.2 44.4"/><polygon class="cls-28" points="36.3 42.5 36.7 43.1 36.6 43.7 37.4 43.8 37.7 43.8 37.1 43.5 36.8 43 36.3 42.5"/><polygon class="cls-28" points="39.5 43.2 41.5 42.9 41.4 43.5 41.4 44.8 40.7 45.2 40 44.7 40 43.6 39.5 43.2"/><path class="cls-28" d="M34.1,43.3l.7-.2.4,1.3h.9l-.3.9v.3h-.5V45h-.5l-.3-.5Z"/><polygon class="cls-28" points="28.6 41.9 30.4 43.1 31.1 43.6 30.2 43.2 28.6 41.9"/><polygon class="cls-28" points="26.9 40.2 28 40.6 30 42.2 28.1 40.8 26.9 40.2"/><polygon class="cls-28" points="26.2 39.5 28.2 39.5 29.8 41.1 28.3 39.4 26.2 39.5"/><polygon class="cls-28" points="30.3 41.4 31.7 41.9 32.8 42.9 31.8 42.2 31.1 42 30.3 41.4"/><polygon class="cls-28" points="32.9 41.1 34 41 33.9 41.3 33.9 42.5 34 42.9 33.4 41.8 32.9 41.1"/><polygon class="cls-28" points="34.9 42.3 35.6 43.7 36.1 43.2 35.5 44 34.9 42.3"/><polygon class="cls-28" points="35.9 45.7 37.5 46.1 35.9 46.1 35.9 45.7"/><polygon class="cls-28" points="39.1 46.1 40.5 45.9 40.4 46.1 39.1 46.1"/><polygon class="cls-28" points="30.5 40.5 33.2 40.8 36.3 40.4 33.2 40.6 30.5 40.5"/><polygon class="cls-28" points="30.4 39.5 32.8 39.5 33.1 39.3 33.2 39 32.6 39.4 30.4 39.5"/><polygon class="cls-28" points="29.5 38.3 31.3 38.4 32.1 38.2 29.5 38.3"/><polygon class="cls-29" points="22.5 27.9 23.4 28.4 22.9 28.6 22.5 29.1 22.3 28.5 22.5 27.9"/><polygon class="cls-29" points="20.5 28.9 19.9 30.1 19.6 29.8 20.5 28.9"/><polygon class="cls-29" points="17.2 32 18.1 32.3 17.4 31.8 17.2 32"/><polygon class="cls-29" points="16.4 32 18 30.7 17.9 30 17.8 29.6 16.8 30.8 16.4 31.5 16.4 32"/><polygon class="cls-29" points="18.9 34 19.6 34.4 19.9 34.6 19.7 34.7 19.3 34.7 18.9 34"/><polygon class="cls-29" points="24.6 33.1 24.9 33.5 25.1 33.5 25.2 33.3 25 33.1 24.6 33.1"/><polygon class="cls-29" points="24.5 31.4 25 31.5 25.2 31.9 25.2 32.5 24.8 32.1 24.5 31.8 24.5 31.4"/><polygon class="cls-29" points="26.4 30.2 28.1 29.3 27.9 28.9 26.4 30.2"/><polygon class="cls-29" points="25.1 32.7 26.5 33 29.7 33 29.5 33.2 26.1 33.3 25.1 32.7"/><polygon class="cls-29" points="19.6 26.2 20.6 26.2 21 26.5 21.1 26.4 21 26 20.7 25.5 19.6 26.2"/><polygon class="cls-29" points="21.6 24.8 22 24.3 23 24.9 22.9 25.2 22.3 25.1 21.6 24.8"/><polygon class="cls-29" points="25.9 28.5 27.8 28.2 27.8 28.4 27.7 28.6 27 28.8 26.9 28.5 25.9 28.5"/><polygon class="cls-29" points="24 28.6 25.6 28.5 25.6 28.3 24 28.6"/><path class="cls-29" d="M26.7,26.5l.2.4.4.2.2-.4Z"/><polygon class="cls-29" points="28.2 25.5 28.5 25.7 29.3 25.7 28.9 25.5 28.2 25.5"/><path class="cls-29" d="M30.4,25.7v.2l.2.2s.1-.1.6,0h.8Z"/><polygon class="cls-29" points="25.7 23.2 26.3 23.2 26.9 23.5 26.2 23.2 25.7 23.2"/><path class="cls-29" d="M25.2,23l1.6-.6A4,4,0,0,0,25.2,23Z"/><polygon class="cls-29" points="28 23.7 29 24 29.6 24.4 29 23.9 28 23.7"/><polygon class="cls-29" points="23.1 24.3 23.1 24.4 23.1 24.5 23.2 24.5 23.3 24.4 23.2 24.1 23.1 24.3"/><polygon class="cls-29" points="23.3 24.1 23.4 24.4 23.3 24.5 23.4 24.6 23.5 24.5 23.7 24.5 23.7 24.3 23.9 24.3 23.8 24.1 23.5 24.1 23.5 24.2 23.3 24.1"/><polygon class="cls-29" points="29.7 22.4 30.1 22.4 30.4 22.1 30.9 21.3 30.4 21.6 30.1 22 29.6 22.3 29.7 22.4"/><polygon class="cls-29" points="31.3 20.7 31.8 21.3 32 21.4 32.3 21.2 32.2 20.7 31.8 20.9 31.6 20.7 31.3 20.7"/><path class="cls-29" d="M32.1,21.5l.4-.2.2.3h-.5Z"/><polygon class="cls-29" points="31.2 22.7 31.8 23.1 34 23.3 32.8 22.4 31.2 22.7"/><polygon class="cls-29" points="32.8 25.6 33.4 25.3 33.5 25.4 33.8 25.2 33.8 25.4 34.4 25.3 34.3 25.5 33.1 25.7 32.8 25.6"/><polygon class="cls-29" points="32.8 25.5 32.4 25.7 31.8 25.7 33 25.3 32.8 25.5"/><polygon class="cls-29" points="31.1 24.8 32.5 23.9 33.8 23.8 32.2 23.2 34.2 23.7 34.6 24.1 34 23.9 32.6 24 31.1 24.8"/><polygon class="cls-29" points="35 23.9 35.1 24.1 35 24.1 35 23.9"/><polygon class="cls-29" points="34 25.8 34.3 25.6 34.4 25.8 34.2 26 34.6 25.9 34.5 26.1 34 26 34 25.8"/><polygon class="cls-29" points="37 26.2 37.3 26.6 37.2 26.9 37.1 26.8 37.1 26.6 36.9 26.7 36.9 26.6 36.7 26.6 36.5 26.6 36.8 26.3 37 26.2"/><polygon class="cls-29" points="41.9 25.3 41.9 25.3 41.9 25.4 41.8 25.5 41.8 25.5 41.9 25.3"/><polygon class="cls-29" points="41.9 25.7 42.1 25.8 42.4 25.8 43 25.7 42.9 25.5 42.5 25.5 42.1 25.7 41.9 25.7"/><polygon class="cls-29" points="39.5 25.8 39.1 26.1 39.6 26.2 39.3 26.1 39.5 25.8"/><polygon class="cls-29" points="40 25.3 40.4 25.1 40.9 25.2 40.9 25.1 40.6 25 40.4 25 40 25.3"/><polygon class="cls-29" points="39.6 20.6 39.8 20.2 40.1 20.3 40.4 20.1 40.6 20.3 40.6 20.1 40.3 20 40.1 20.1 39.8 20 39.6 20.6"/><polygon class="cls-29" points="39.8 20.5 39.6 20.8 39.8 20.9 39.9 20.7 39.8 20.5"/><polygon class="cls-29" points="40.5 20.9 41 20.9 40.8 20.7 40.5 20.7 40.5 20.9"/><polygon class="cls-29" points="40.5 20.5 40.7 20.6 40.9 20.2 40.7 20.4 40.5 20.5"/><polygon class="cls-29" points="41.3 20.3 41.2 20.4 41.3 20.5 41.6 20.5 41.7 20.4 41.3 20.3"/><polygon class="cls-29" points="43.5 21.8 43.8 21.5 44.1 21.5 44.4 21.2 44.1 21.2 44 21.5 43.8 21.4 43.5 21.8"/><polygon class="cls-29" points="44 22.4 45.4 22.8 43.7 22.5 43.8 22.3 43.9 22.1 43.8 21.9 46.2 22.6 46 22.7 45.8 22.7 45.6 22.8 44 22.4"/><polygon class="cls-29" points="45.1 22.8 43.7 23.3 45.6 24 44 23.3 45.1 22.8"/><polygon class="cls-29" points="45.1 22.9 45 23.3 45.3 23 45.1 22.9"/><polygon class="cls-29" points="47.5 23.3 45.8 23.8 46.5 23.7 47.3 23.8 47.5 23.9 47.9 23.7 47.7 23.5 47.5 23.3"/><path class="cls-29" d="M50.2,23.2h-.8l-.2.4.2.2H50l-.4.3h.3l.2-.2v-.2l.4-.3.3-.2h-.7Z"/><polygon class="cls-29" points="51.2 23.5 50.7 23.8 50.7 23.9 51.1 24 51.5 23.8 51.2 23.5"/><path class="cls-29" d="M49,23.1l-.5.3-.2.3v-.3Z"/><polygon class="cls-29" points="48.1 24.1 47.9 24.2 47.9 24.4 48.1 24.5 48.5 24.5 48.9 24.4 48.6 24.2 48.4 23.9 48.1 24.1"/><polygon class="cls-29" points="52.8 24.3 53 24.5 53 24.8 53.1 25.1 53.3 24.9 53 24.3 52.8 24.3"/><polygon class="cls-29" points="53.1 25.6 53.2 25.9 53.3 25.9 53.3 25.6 53.1 25.6"/><polygon class="cls-29" points="53.5 26.5 53.5 27.2 53.3 27.2 53.5 26.5"/><polygon class="cls-29" points="54.1 26 54.5 26.6 54.7 26.5 54.5 25.9 54.8 25.4 56 25.8 55.1 25.1 54.1 25.6 54.1 26"/><polygon class="cls-29" points="54.8 26.7 55.5 27 56.5 26.6 56.4 26 57 26.4 57 26.8 56.5 26.7 55.5 27.6 55 27 54.8 26.7"/><path class="cls-29" d="M56.9,28.4l1.2.3-.2.2v.3l-.2-.3v.7l-.2-.8Z"/><polygon class="cls-29" points="58.3 28.8 59.2 28.9 59.2 28.7 59.5 29 59.6 29 59.5 29.2 59.3 28.9 59.3 29.2 59.3 29.2 59 29.1 58.5 29 58.7 29.9 58.5 29.8 58.5 29.1 58.3 28.8"/><polygon class="cls-29" points="59 29.9 58.8 31 59.1 31.5 58.7 31 59 29.9"/><polygon class="cls-29" points="60.2 31.4 60.3 31.5 60.3 31.7 60.2 31.9 60.2 31.4"/><polygon class="cls-29" points="60.5 30.3 60.6 30.5 60.6 30.8 60.7 30.7 60.7 30.3 60.5 30.3"/><path class="cls-29" d="M60.3,29.4c-.1.1,0,.3,0,.3l.2.2v-.3Z"/><polygon class="cls-29" points="52.9 33.9 53.3 33.6 53.6 33.5 53.9 33.4 53.3 33.8 53.6 33.8 53.4 34 53.2 34 52.9 33.9"/><polygon class="cls-29" points="53.4 34.1 54.2 33.6 53.7 34.2 53.4 34.3 53.4 34.1"/><polygon class="cls-29" points="54.3 33.7 54.7 33.4 54.8 33.6 54.6 34 54.8 33.9 55.2 33.8 55.4 33.6 55.1 33.6 54.9 33.5 54.7 33.4 54.7 33.3 54.3 33.7"/><path class="cls-29" d="M49.1,33.8l.2.3.4.3.2.2s-.3.2-.3.3v-.3l-.4-.3Z"/><polygon class="cls-29" points="49.8 33.6 50 34.1 50.4 33.7 49.8 33.6"/><path class="cls-29" d="M49,37.3l2.1-.3A6,6,0,0,1,49,37.3Z"/><path class="cls-29" d="M44.8,37.3a8.3,8.3,0,0,1,3.4.2A32,32,0,0,1,44.8,37.3Z"/><polygon class="cls-29" points="44 38.2 44.8 38.1 45.4 38.3 45.2 38.6 44.9 38.6 44.5 38.5 44 38.2"/><polygon class="cls-29" points="42 38.3 41.8 38.4 42.3 39.3 41.5 39.3 41.2 38.2 42 38.3"/><polygon class="cls-29" points="36.9 38.4 37.9 38.5 38.1 39 38.2 38.6 39.6 38.4 38.1 38.5 36.9 38.4"/><polygon class="cls-29" points="41.5 41 41.1 41.5 40.8 41 41.5 41"/><polygon class="cls-29" points="37.2 42.1 37.6 43.4 38.3 43.5 38.5 43.3 38.6 43.3 38.5 43.4 38.6 43.5 39.1 42.2 38.8 42.7 37.5 42.7 37.2 42.1"/><polygon class="cls-29" points="39.8 45.2 40.1 45.2 39.8 44.8 39.6 45.2 39.8 45.1 39.8 45.2"/><polygon class="cls-29" points="36.6 43.8 36.3 45 36.9 45.3 36.2 45.1 36.6 43.8"/><polygon class="cls-29" points="36.5 43.3 36.2 44.5 35.2 44.2 36.1 44.3 36.5 43.3"/><polygon class="cls-29" points="32.9 41.1 33.4 41.6 33.4 41.3 32.9 41.1"/><polygon class="cls-29" points="33.9 41.3 34 42.2 34.1 41.4 33.9 41.3"/><polygon class="cls-29" points="44.1 42 43.1 43.3 43.4 43.1 44.2 42.2 45.3 42.5 44.2 43.5 43.6 43.3 43.3 43.3 42.9 43.3 42.5 43.5 44.3 41.3 44.1 42"/><polygon class="cls-29" points="44.5 41 46.1 40.1 45.8 40.6 45.9 40.6 45.7 40.9 45.2 40.8 44.5 41"/><polygon class="cls-29" points="48.6 40.8 47.4 41.6 46.4 42.4 46.7 42.4 49.5 40.5 48.6 40.8"/><path class="cls-29" d="M48,39.5s.7-.1.7,0l-.5.3Z"/><polygon class="cls-29" points="35.6 41.7 36.1 43.1 36.3 43.2 36.4 43 36.2 42.3 37.1 43.2 37 41.9 36.4 41.6 35.7 41.6 35.6 41.7"/><polygon class="cls-29" points="31.6 41.2 32.2 41.2 33.3 43.3 31.8 41.5 31.6 41.2"/><polygon class="cls-29" points="28.1 40.5 31.7 43.2 31.3 43.3 28.1 40.5"/><polyline class="cls-29" points="24.8 39.7 26.3 40.3 27.2 41.5 24.8 39.6"/><polygon class="cls-29" points="25.5 39.4 30 39.4 29.6 39.5 25.5 39.4"/><polygon class="cls-29" points="30.3 39.7 36.7 40.1 37.9 40.6 37.5 39.9 33.6 39.7 30.3 39.7"/><polygon class="cls-30" points="38.7 27.3 46.1 26.3 45.7 27.6 45 27.4 44.9 28.2 38.7 27.3"/><polygon class="cls-30" points="37.2 27.3 31.8 28.5 31.4 27.4 30.6 27.6 30.1 26.4 37.2 27.3"/><polygon class="cls-30" points="44.6 29.9 45.2 31.5 44.2 33.4 44.3 30.4 44.6 29.9"/><polygon class="cls-30" points="31.9 30.2 32.5 32.4 31.7 31.2 31.5 30.2 31.9 30.2"/><polygon class="cls-30" points="54.3 28 54.8 30.8 56.9 32.1 58.9 32.6 58.2 31.6 57 29.9 54.3 28"/><polygon class="cls-30" points="24.1 25.9 26.7 26 26.8 25.1 24.1 25.9"/><polygon class="cls-30" points="36.6 47.3 36.9 47.2 37.6 46.9 38.7 46.9 39.4 47.2 39.6 47.3 38.3 48.9 36.6 47.3"/><polygon class="cls-30" points="31.1 43.9 31.6 44 37 48.2 31.6 44.3 31.1 43.9"/><polygon class="cls-30" points="39.6 48 44.1 44.3 45.1 43.7 45.8 43.7 39.6 48"/><path class="cls-30" d="M38,43.7h.4l-.3,1.2Z"/><polygon class="cls-30" points="23 36.9 28.9 38 22.8 36.5 23 36.9"/><polygon class="cls-30" points="48.9 37.6 53.5 37.2 53.2 37.6 48.9 37.6"/></g></g></svg>