<svg xmlns="http://www.w3.org/2000/svg" xmlns:xlink="http://www.w3.org/1999/xlink" viewBox="0 0 74.4 75.7"><defs><style>.cls-1,.cls-11,.cls-13,.cls-15,.cls-2,.cls-4,.cls-5,.cls-6,.cls-9{stroke:#000;stroke-miterlimit:10;}.cls-1{fill:url(#Degradado_sin_nombre_53);}.cls-2{fill:#2e1914;}.cls-3{fill:url(#Degradado_sin_nombre_52);}.cls-4{fill:url(#Degradado_sin_nombre_42);}.cls-5{fill:url(#Degradado_sin_nombre_11);}.cls-6{fill:url(#Degradado_sin_nombre_11-2);}.cls-7{fill:url(#Degradado_sin_nombre_54);}.cls-8{fill:url(#Degradado_sin_nombre_24);}.cls-9{fill:#fcf1b1;}.cls-10{fill:#a26438;}.cls-11{fill:url(#Degradado_sin_nombre_11-3);}.cls-12{fill:url(#Degradado_sin_nombre_13);}.cls-13{fill:url(#Degradado_sin_nombre_11-4);}.cls-14{fill:url(#Degradado_sin_nombre_13-2);}.cls-15{fill:url(#Degradado_sin_nombre_45);}.cls-16{fill:url(#Degradado_sin_nombre_47);}</style><linearGradient id="Degradado_sin_nombre_53" x1="11.5" y1="4.99" x2="70.21" y2="71.46" gradientUnits="userSpaceOnUse"><stop offset="0.02" stop-color="#e4e1df"/><stop offset="0.06" stop-color="#e1dad5"/><stop offset="0.12" stop-color="#d7c7b9"/><stop offset="0.21" stop-color="#c9a88d"/><stop offset="0.27" stop-color="#bc8e68"/><stop offset="0.37" stop-color="#8d6b4f"/><stop offset="0.49" stop-color="#5d4735"/><stop offset="0.61" stop-color="#372a20"/><stop offset="0.71" stop-color="#1b1611"/><stop offset="0.81" stop-color="#0b0908"/><stop offset="0.88" stop-color="#050505"/></linearGradient><radialGradient id="Degradado_sin_nombre_52" cx="37.89" cy="42.06" r="28.94" gradientUnits="userSpaceOnUse"><stop offset="0.02" stop-color="#2e1914"/><stop offset="0.36" stop-color="#241410"/><stop offset="0.93" stop-color="#090706"/><stop offset="1" stop-color="#050505"/></radialGradient><linearGradient id="Degradado_sin_nombre_42" x1="37.32" y1="49.67" x2="37.39" y2="75.61" gradientUnits="userSpaceOnUse"><stop offset="0" stop-color="#e4e1df"/><stop offset="0.08" stop-color="#e0d9d3"/><stop offset="0.21" stop-color="#d5c3b4"/><stop offset="0.39" stop-color="#c49f81"/><stop offset="0.47" stop-color="#bc8e68"/><stop offset="0.5" stop-color="#b08562"/><stop offset="0.75" stop-color="#554130"/><stop offset="0.92" stop-color="#1b1611"/><stop offset="1" stop-color="#050505"/></linearGradient><linearGradient id="Degradado_sin_nombre_11" x1="47.27" y1="58.04" x2="56.47" y2="58.04" gradientUnits="userSpaceOnUse"><stop offset="0" stop-color="#ae7e42"/><stop offset="0.59" stop-color="#76512e"/><stop offset="0.69" stop-color="#734f2d"/><stop offset="0.76" stop-color="#694829"/><stop offset="0.83" stop-color="#583d23"/><stop offset="0.89" stop-color="#402d1a"/><stop offset="0.95" stop-color="#21180f"/><stop offset="1" stop-color="#050505"/></linearGradient><linearGradient id="Degradado_sin_nombre_11-2" x1="102.96" y1="58.04" x2="112.15" y2="58.04" gradientTransform="matrix(-1, 0, 0, 1, 130.04, 0)" xlink:href="#Degradado_sin_nombre_11"/><linearGradient id="Degradado_sin_nombre_54" x1="36.87" y1="59.68" x2="36.83" y2="77.24" gradientUnits="userSpaceOnUse"><stop offset="0.09" stop-color="#e4e1df"/><stop offset="0.13" stop-color="#e1dad5"/><stop offset="0.2" stop-color="#d7c7b9"/><stop offset="0.29" stop-color="#c9a88d"/><stop offset="0.35" stop-color="#bc8e68"/><stop offset="0.43" stop-color="#ad8360"/><stop offset="0.59" stop-color="#85654a"/><stop offset="0.81" stop-color="#443427"/><stop offset="1" stop-color="#050505"/></linearGradient><linearGradient id="Degradado_sin_nombre_24" x1="35.18" y1="43.23" x2="39.93" y2="58.4" gradientUnits="userSpaceOnUse"><stop offset="0.08" stop-color="#e4e1df"/><stop offset="0.12" stop-color="#e1dad5"/><stop offset="0.19" stop-color="#d7c7b9"/><stop offset="0.28" stop-color="#c9a88d"/><stop offset="0.35" stop-color="#bc8e68"/><stop offset="0.43" stop-color="#ad8360"/><stop offset="0.59" stop-color="#85654a"/><stop offset="0.81" stop-color="#443427"/><stop offset="1" stop-color="#050505"/></linearGradient><linearGradient id="Degradado_sin_nombre_11-3" x1="55.77" y1="52.61" x2="65.12" y2="56.71" xlink:href="#Degradado_sin_nombre_11"/><linearGradient id="Degradado_sin_nombre_13" x1="60.76" y1="44.81" x2="71.83" y2="49.67" gradientUnits="userSpaceOnUse"><stop offset="0" stop-color="#c9955c"/><stop offset="0.59" stop-color="#76512e"/><stop offset="0.69" stop-color="#734f2d"/><stop offset="0.76" stop-color="#694829"/><stop offset="0.83" stop-color="#583d23"/><stop offset="0.89" stop-color="#402d1a"/><stop offset="0.95" stop-color="#21180f"/><stop offset="1" stop-color="#050505"/></linearGradient><linearGradient id="Degradado_sin_nombre_11-4" x1="111.46" y1="52.61" x2="120.81" y2="56.71" gradientTransform="matrix(-1, 0, 0, 1, 130.04, 0)" xlink:href="#Degradado_sin_nombre_11"/><linearGradient id="Degradado_sin_nombre_13-2" x1="116.44" y1="44.81" x2="127.52" y2="49.67" gradientTransform="matrix(-1, 0, 0, 1, 130.04, 0)" xlink:href="#Degradado_sin_nombre_13"/><radialGradient id="Degradado_sin_nombre_45" cx="37.17" cy="38.01" fy="24.9795040417872" r="24.96" gradientUnits="userSpaceOnUse"><stop offset="0.07" stop-color="#e4e1df"/><stop offset="0.14" stop-color="#e1dad5"/><stop offset="0.26" stop-color="#d7c7b9"/><stop offset="0.41" stop-color="#c9a88d"/><stop offset="0.52" stop-color="#bc8e68"/><stop offset="0.56" stop-color="#ad8360"/><stop offset="0.65" stop-color="#85654a"/><stop offset="0.77" stop-color="#443427"/><stop offset="0.88" stop-color="#050505"/></radialGradient><linearGradient id="Degradado_sin_nombre_47" x1="37.17" y1="27.13" x2="37.15" y2="51.47" gradientUnits="userSpaceOnUse"><stop offset="0.02" stop-color="#e4e1df"/><stop offset="0.06" stop-color="#e1dad5"/><stop offset="0.14" stop-color="#d7c7b9"/><stop offset="0.24" stop-color="#c9a88d"/><stop offset="0.31" stop-color="#bc8e68"/><stop offset="0.38" stop-color="#ad8360"/><stop offset="0.52" stop-color="#85654a"/><stop offset="0.71" stop-color="#443427"/><stop offset="0.88" stop-color="#050505"/></linearGradient></defs><title>insignia_sociable</title><g id="Capa_2" data-name="Capa 2"><g id="insignia_sociable"><polygon class="cls-1" points="36.6 0.6 67.6 17.4 67.6 51.4 37.5 70.9 7.2 51.3 7.2 17.3 36.6 0.6"/><polygon class="cls-2" points="36.7 7.6 63.6 21.6 63.6 50 37.5 66.2 11.3 49.9 11.3 21.5 36.7 7.6"/><path class="cls-3" d="M54,21.6S64,24.1,60.1,43,33.8,62.5,33.8,62.5,15.5,61.1,14.7,41.1C14.7,41.1,55,63.8,54,21.6Z"/><polygon class="cls-4" points="23.3 50 36.9 57.4 51.4 50 51.4 64.5 37.3 73.8 23.3 64.8 23.3 50"/><polygon class="cls-5" points="56.5 47.6 47.3 53.4 47.3 68.5 56.2 61.9 56.5 47.6"/><polygon class="cls-6" points="17.9 47.6 27.1 53.4 27.1 68.5 18.1 61.9 17.9 47.6"/><path class="cls-7" d="M64.6,66.1l-8.2-.8,17.1-1.8H47l6.2,1-9.2.8,7.6.5h-.1l-6.6.7h5.6L37.6,73.8,25.3,66.5h4.1l-4.8-.5-.6-.4,6.4-.4L22,64.6l-.3-.3,5.6-.8H20.2l-.8-.5.3.5H.3l17.5,1.8-8.5.8,12.2.3v.2l-3.5.4A4.3,4.3,0,0,0,23,68.5l14.6,7.2,13.5-7.2s1.5,1.4,4.3-.3l-2.4-1,.5-.8Z"/><polygon class="cls-8" points="55.8 48.7 55.8 49.7 47.6 54.7 46.7 54.4 37.1 59.3 27.4 54.2 26.5 54.7 18.4 49.9 18.4 48.5 26.3 53.1 27.4 53 37.1 57.9 46.4 53.1 47.5 53.2 55.8 48.7"/><polygon class="cls-9" points="37.3 68.2 31.7 71.1 32.8 64.9 28.3 60.5 34.5 59.6 37.3 53.9 40.1 59.6 46.4 60.5 41.9 64.9 42.9 71.1 37.3 68.2"/><polygon class="cls-10" points="29.4 60.8 37.1 63.4 33.4 64.7 29.4 60.8"/><polygon class="cls-10" points="32.4 70.2 37.1 63.4 37.3 67.6 32.4 70.2"/><polygon class="cls-10" points="42.3 70.2 37.1 63.4 41.3 64.7 42.3 70.2"/><polygon class="cls-10" points="45.3 60.8 37.1 63.4 39.8 60 45.3 60.8"/><polygon class="cls-10" points="37.3 55 37.1 63.4 34.9 60 37.3 55"/><path class="cls-11" d="M73.2,38.8S60.5,44.9,56.7,51.5v23s2-1.3,2.9-10.1c0,0,4.1-2.7,7.9-12.2,0,0-4.6,5.6-6.7,5.5l-.2-4.1A48.3,48.3,0,0,0,73.2,38.8Z"/><path class="cls-12" d="M71,40.6s-9.7,12.2-12.2,12S59.4,48.3,71,40.6Z"/><path class="cls-13" d="M1.2,38.8s12.7,6.1,16.5,12.7v23s-2-1.3-3-10.1c0,0-4-2.7-7.8-12.2,0,0,4.5,5.6,6.7,5.5V53.6A48.7,48.7,0,0,1,1.2,38.8Z"/><path class="cls-14" d="M3.4,40.6s9.7,12.2,12.1,12S14.9,48.3,3.4,40.6Z"/><polygon class="cls-15" points="58.5 27.7 58.5 36.1 37.4 48.4 15.8 35.7 15.8 27.7 37.4 40 58.5 27.7"/><polygon class="cls-16" points="57.9 32.8 37.8 44.2 16.5 32.6 16.5 35.3 37.4 47.6 57.9 35.6 57.9 32.8"/></g></g></svg>