<svg xmlns="http://www.w3.org/2000/svg" xmlns:xlink="http://www.w3.org/1999/xlink" viewBox="0 0 338.6 16.9"><defs><style>.cls-1,.cls-2{stroke:#000;stroke-miterlimit:10;stroke-width:0.75px;}.cls-1{fill:url(#Degradado_sin_nombre_16);}.cls-2{fill:url(#Degradado_sin_nombre_6);}.cls-3{fill:#936d56;}.cls-10,.cls-11,.cls-3,.cls-4,.cls-5,.cls-7,.cls-8,.cls-9{opacity:0.19;}.cls-4{fill:#a57e82;}.cls-5{fill:#cfa79c;}.cls-6{fill:#bd8a62;}.cls-7{fill:#8e6347;}.cls-8{fill:#907163;}.cls-9{fill:url(#Degradado_sin_nombre_17);}.cls-10{fill:#d4ada3;}.cls-11{fill:url(#Degradado_sin_nombre_17-2);}</style><linearGradient id="Degradado_sin_nombre_16" x1="169.3" y1="1.02" x2="169.39" y2="7.27" gradientUnits="userSpaceOnUse"><stop offset="0" stop-color="#464444"/><stop offset="0.15" stop-color="#2c2b2b"/><stop offset="0.32" stop-color="#141313"/><stop offset="0.49" stop-color="#050505"/><stop offset="0.62"/></linearGradient><linearGradient id="Degradado_sin_nombre_6" x1="169.25" y1="-0.57" x2="169.34" y2="25.25" gradientUnits="userSpaceOnUse"><stop offset="0" stop-color="#eecaa6"/><stop offset="0.98" stop-color="#d1a585"/><stop offset="1"/></linearGradient><linearGradient id="Degradado_sin_nombre_17" x1="200.9" y1="9.5" x2="235.83" y2="16.68" gradientUnits="userSpaceOnUse"><stop offset="0.25" stop-color="#464444"/><stop offset="0.4" stop-color="#2c2b2b"/><stop offset="0.57" stop-color="#141313"/><stop offset="0.73" stop-color="#050505"/><stop offset="0.86"/></linearGradient><linearGradient id="Degradado_sin_nombre_17-2" x1="481.77" y1="9.5" x2="516.7" y2="16.68" gradientTransform="matrix(-1, 0, 0, 1, 619.49, 0)" xlink:href="#Degradado_sin_nombre_17"/></defs><title>insignia_card_footer</title><g id="Capa_2" data-name="Capa 2"><g id="insignia_card_footer"><polygon class="cls-1" points="169.3 0.4 13 0.4 13 3 169.3 4.5 325.6 3 325.6 0.4 169.3 0.4"/><path class="cls-2" d="M331.6,2.9h-6L169.3,4.5,13,3H7c.3,12.5-7,12.5-7,12.5l169.3,1.1,169.3-1.1S331.3,15.4,331.6,2.9Z"/><path class="cls-3" d="M245.4,10.6A10.6,10.6,0,0,0,254,6.7c3.2-4.3,18,0,18,0s22.5-.4,24.2-1.9L290,10.6H245.4Z"/><path class="cls-4" d="M223.7,4.6s1.2,7.7,4.7,6.1,3.6,3.2,3.6,3.2a5.2,5.2,0,0,1,7.2,0c3.9,3.2,9.4,1.4,9.4,1.4a17.4,17.4,0,0,1-10.7-5.6c-4.2-5-7.7-5.1-7.7-5.1Z"/><path class="cls-5" d="M178.2,9.7S190,14,199,9.7s17.5,0,17.5,0a33.3,33.3,0,0,0-19.9-4.3C185.1,6.6,178.2,9.7,178.2,9.7Z"/><path class="cls-6" d="M299.5,13.2h25.3S306.1,10.7,299.5,13.2Z"/><path class="cls-7" d="M315.3,11.6s7.4-.1,10.3-1.4,8.3,2.5,8.3,2.5l-3.1-6.1-31.3-.8,21,1.8-9.8,1.6h9.8Z"/><path class="cls-8" d="M288,13.9c.7-.2-6.3-.3-7-1.8s-6.7,1.8-6.7,1.8A28.8,28.8,0,0,0,288,13.9Z"/><path class="cls-9" d="M198.5,14.9s7.7.8,11.2-3.3,9.6-6,13.5-2.2a17.9,17.9,0,0,0,10.9,4.8l-17.2.7A53.6,53.6,0,0,1,198.5,14.9Z"/><path class="cls-10" d="M171.1,14a25.9,25.9,0,0,1,8.7-2c4.1-.1,0,3.7,0,3.7S179,13.2,171.1,14Z"/><path class="cls-3" d="M93.3,10.6s-5.4.4-8.6-3.9-18,0-18,0S44.1,6.3,42.4,4.8l6.3,5.8H93.3Z"/><path class="cls-4" d="M114.9,4.6s-1.2,7.7-4.7,6.1-3.6,3.2-3.6,3.2a5.2,5.2,0,0,0-7.2,0c-3.9,3.2-9.4,1.4-9.4,1.4a17.4,17.4,0,0,0,10.7-5.6c4.2-5,7.7-5.1,7.7-5.1Z"/><path class="cls-5" d="M160.4,9.7s-11.8,4.3-20.8,0-17.5,0-17.5,0A33.3,33.3,0,0,1,142,5.4C153.5,6.6,160.4,9.7,160.4,9.7Z"/><path class="cls-6" d="M39.1,13.2H13.8S32.5,10.7,39.1,13.2Z"/><path class="cls-7" d="M23.4,11.6s-7.5-.1-10.4-1.4-8.3,2.5-8.3,2.5L7.8,6.6l31.3-.8-21,1.8,9.8,1.6H18.1Z"/><path class="cls-8" d="M50.6,13.9c-.7-.2,6.3-.3,7.1-1.8s6.6,1.8,6.6,1.8A28.8,28.8,0,0,1,50.6,13.9Z"/><path class="cls-11" d="M140.1,14.9s-7.7.8-11.2-3.3-9.5-6-13.5-2.2a17.7,17.7,0,0,1-10.9,4.8l17.2.7A53.6,53.6,0,0,0,140.1,14.9Z"/><path class="cls-10" d="M167.5,14a25.9,25.9,0,0,0-8.7-2c-4.1-.1,0,3.7,0,3.7S159.7,13.2,167.5,14Z"/></g></g></svg>