<svg xmlns="http://www.w3.org/2000/svg" xmlns:xlink="http://www.w3.org/1999/xlink" viewBox="0 0 74.4 75.7"><defs><style>.cls-1,.cls-11,.cls-13,.cls-15,.cls-4,.cls-5,.cls-6,.cls-9{stroke:#000;stroke-miterlimit:10;}.cls-1{fill:url(#Degradado_sin_nombre_8);}.cls-2{fill:url(#Degradado_sin_nombre_126);}.cls-3{fill:url(#Degradado_sin_nombre_139);}.cls-4{fill:url(#Degradado_sin_nombre_180);}.cls-5{fill:url(#Degradado_sin_nombre_176);}.cls-6{fill:url(#Degradado_sin_nombre_176-2);}.cls-7{fill:url(#Degradado_sin_nombre_197);}.cls-8{fill:url(#Degradado_sin_nombre_181);}.cls-9{fill:#fcf1b1;}.cls-10{fill:#a26438;}.cls-11{fill:url(#Degradado_sin_nombre_176-3);}.cls-12{fill:url(#Degradado_sin_nombre_176-4);}.cls-13{fill:url(#Degradado_sin_nombre_176-5);}.cls-14{fill:url(#Degradado_sin_nombre_176-6);}.cls-15{fill:#26bad9;}.cls-16{fill:#2e57a4;}.cls-17{fill:#e9f6fe;}</style><linearGradient id="Degradado_sin_nombre_8" x1="9.8" y1="3.05" x2="68.5" y2="69.53" gradientUnits="userSpaceOnUse"><stop offset="0.02" stop-color="#b6c7e1"/><stop offset="0.14" stop-color="#accce1"/><stop offset="0.27" stop-color="#9ad4e0"/><stop offset="0.31" stop-color="#8abec9"/><stop offset="0.43" stop-color="#62868e"/><stop offset="0.54" stop-color="#41585d"/><stop offset="0.64" stop-color="#273437"/><stop offset="0.73" stop-color="#141a1b"/><stop offset="0.81" stop-color="#090b0b"/><stop offset="0.88" stop-color="#050505"/></linearGradient><linearGradient id="Degradado_sin_nombre_126" x1="1.75" y1="9.38" x2="65.94" y2="56.82" gradientUnits="userSpaceOnUse"><stop offset="0.02" stop-color="#26bad9" stop-opacity="0.5"/><stop offset="0.19" stop-color="#2ca6d1" stop-opacity="0.5"/><stop offset="0.4" stop-color="#3680c3" stop-opacity="0.5"/><stop offset="0.66" stop-color="#1a62a5" stop-opacity="0.5"/><stop offset="0.84" stop-color="#03498b" stop-opacity="0.5"/></linearGradient><linearGradient id="Degradado_sin_nombre_139" x1="23.58" y1="25.7" x2="56.8" y2="57.45" gradientUnits="userSpaceOnUse"><stop offset="0.02" stop-color="#1d5b92" stop-opacity="0.5"/><stop offset="0.18" stop-color="#1b537e" stop-opacity="0.5"/><stop offset="0.25" stop-color="#1a4d70" stop-opacity="0.5"/><stop offset="0.51" stop-color="#173254" stop-opacity="0.5"/></linearGradient><linearGradient id="Degradado_sin_nombre_180" x1="37.32" y1="49.67" x2="37.39" y2="75.61" gradientUnits="userSpaceOnUse"><stop offset="0" stop-color="#b7c7e1"/><stop offset="0.07" stop-color="#abbddc"/><stop offset="0.19" stop-color="#8ca4ce"/><stop offset="0.35" stop-color="#597ab7"/><stop offset="0.47" stop-color="#2e57a4"/><stop offset="0.71" stop-color="#1a2e55"/><stop offset="0.91" stop-color="#0b101b"/><stop offset="1" stop-color="#050505"/></linearGradient><linearGradient id="Degradado_sin_nombre_176" x1="47.27" y1="58.04" x2="56.47" y2="58.04" gradientUnits="userSpaceOnUse"><stop offset="0" stop-color="#b7c7e1"/><stop offset="0.59" stop-color="#2e57a4"/><stop offset="0.67" stop-color="#2d55a1"/><stop offset="0.74" stop-color="#2b5097"/><stop offset="0.8" stop-color="#264786"/><stop offset="0.85" stop-color="#203b6e"/><stop offset="0.91" stop-color="#182b4f"/><stop offset="0.96" stop-color="#0e1829"/><stop offset="1" stop-color="#050505"/></linearGradient><linearGradient id="Degradado_sin_nombre_176-2" x1="-961.79" y1="58.04" x2="-952.59" y2="58.04" gradientTransform="matrix(-1, 0, 0, 1, -934.7, 0)" xlink:href="#Degradado_sin_nombre_176"/><linearGradient id="Degradado_sin_nombre_197" x1="36.87" y1="62.09" x2="36.83" y2="79.65" gradientUnits="userSpaceOnUse"><stop offset="0" stop-color="#b7c7e1"/><stop offset="0.11" stop-color="#b4c4df"/><stop offset="0.19" stop-color="#aabcda"/><stop offset="0.27" stop-color="#98add2"/><stop offset="0.35" stop-color="#8099c6"/><stop offset="0.42" stop-color="#617fb7"/><stop offset="0.49" stop-color="#3b5fa5"/><stop offset="0.51" stop-color="#2f559f"/><stop offset="0.56" stop-color="#2d5196"/><stop offset="0.63" stop-color="#26447f"/><stop offset="0.72" stop-color="#1c3058"/><stop offset="0.82" stop-color="#0d1524"/><stop offset="0.88" stop-color="#050505"/></linearGradient><linearGradient id="Degradado_sin_nombre_181" x1="35.29" y1="43.16" x2="40.03" y2="58.34" gradientUnits="userSpaceOnUse"><stop offset="0.08" stop-color="#b7c7e1"/><stop offset="0.12" stop-color="#adbfdc"/><stop offset="0.18" stop-color="#91a8d0"/><stop offset="0.26" stop-color="#6584bc"/><stop offset="0.35" stop-color="#2e57a4"/><stop offset="0.44" stop-color="#2a4f95"/><stop offset="0.62" stop-color="#203a6d"/><stop offset="0.86" stop-color="#0f192c"/><stop offset="1" stop-color="#050505"/></linearGradient><linearGradient id="Degradado_sin_nombre_176-3" x1="55.77" y1="52.61" x2="65.12" y2="56.71" xlink:href="#Degradado_sin_nombre_176"/><linearGradient id="Degradado_sin_nombre_176-4" x1="60.76" y1="44.81" x2="71.83" y2="49.67" xlink:href="#Degradado_sin_nombre_176"/><linearGradient id="Degradado_sin_nombre_176-5" x1="-953.29" y1="52.61" x2="-943.94" y2="56.71" gradientTransform="matrix(-1, 0, 0, 1, -934.7, 0)" xlink:href="#Degradado_sin_nombre_176"/><linearGradient id="Degradado_sin_nombre_176-6" x1="-948.3" y1="44.81" x2="-937.23" y2="49.67" gradientTransform="matrix(-1, 0, 0, 1, -934.7, 0)" xlink:href="#Degradado_sin_nombre_176"/></defs><title>insignia_inspiring</title><g id="Capa_2" data-name="Capa 2"><g id="insignia_inspiring"><polygon class="cls-1" points="36.6 0.6 67.6 17.4 67.6 51.4 37.5 70.9 7.2 51.3 7.2 17.3 36.6 0.6"/><polygon class="cls-2" points="36.7 7.6 63.6 21.6 63.6 50 37.5 66.2 11.3 49.9 11.3 21.5 36.7 7.6"/><polygon class="cls-3" points="61 21.6 61 47.3 42.5 61.7 16.4 58.7 13.3 49.1 12.7 36.3 58 20.9 61 21.6"/><polygon class="cls-4" points="23.3 50 36.9 57.4 51.4 50 51.4 64.5 37.3 73.8 23.3 64.8 23.3 50"/><polygon class="cls-5" points="56.5 47.6 47.3 53.4 47.3 68.5 56.2 61.9 56.5 47.6"/><polygon class="cls-6" points="17.9 47.6 27.1 53.4 27.1 68.5 18.1 61.9 17.9 47.6"/><path class="cls-7" d="M64.6,66.1l-8.2-.8,17.1-1.8H47l6.2,1-9.2.8,7.6.5h-.1l-6.6.7h5.6L37.6,73.8,25.3,66.5h4.1l-4.8-.5-.6-.4,6.4-.4L22,64.6l-.3-.3,5.6-.8H20.2l-.8-.5.3.5H.3l17.5,1.8-8.5.8,12.2.3v.2l-3.5.4A4.3,4.3,0,0,0,23,68.5l14.6,7.2,13.5-7.2s1.5,1.4,4.3-.3l-2.4-1,.5-.8Z"/><polygon class="cls-8" points="55.9 48.7 55.9 49.7 47.7 54.7 46.8 54.4 37.2 59.2 27.5 54.1 26.6 54.7 18.5 49.8 18.5 48.4 26.4 53 27.5 52.9 37.2 57.8 46.5 53.1 47.6 53.2 55.9 48.7"/><polygon class="cls-9" points="37.3 68.2 31.7 71.1 32.8 64.9 28.3 60.5 34.5 59.6 37.3 53.9 40.1 59.6 46.4 60.5 41.9 64.9 42.9 71.1 37.3 68.2"/><polygon class="cls-10" points="29.4 60.8 37.1 63.4 33.4 64.7 29.4 60.8"/><polygon class="cls-10" points="32.4 70.2 37.1 63.4 37.3 67.6 32.4 70.2"/><polygon class="cls-10" points="42.3 70.2 37.1 63.4 41.3 64.7 42.3 70.2"/><polygon class="cls-10" points="45.3 60.8 37.1 63.4 39.8 60 45.3 60.8"/><text/><path class="cls-11" d="M73.2,38.8S60.5,44.9,56.7,51.5v23s2-1.3,2.9-10.1c0,0,4.1-2.7,7.9-12.2,0,0-4.6,5.6-6.7,5.5l-.2-4.1A48.3,48.3,0,0,0,73.2,38.8Z"/><path class="cls-12" d="M71,40.6s-9.7,12.2-12.2,12S59.4,48.3,71,40.6Z"/><path class="cls-13" d="M1.2,38.8s12.7,6.1,16.5,12.7v23s-2-1.3-3-10.1c0,0-4-2.7-7.8-12.2,0,0,4.5,5.6,6.7,5.5V53.6A48.7,48.7,0,0,1,1.2,38.8Z"/><path class="cls-14" d="M3.4,40.6s9.7,12.2,12.1,12S14.9,48.3,3.4,40.6Z"/><polygon class="cls-15" points="36.6 43.1 24.3 49.5 26.6 35.8 16.7 26.1 30.4 24.1 36.6 11.7 42.7 24.1 56.5 26.1 46.5 35.8 48.9 49.5 36.6 43.1"/><polygon class="cls-16" points="17.8 26.5 36 32.4 27.2 35.7 17.8 26.5"/><polygon class="cls-16" points="24.9 48.6 36 32.4 36.6 42.5 24.9 48.6"/><polygon class="cls-16" points="48.2 48.6 36 32.4 36.6 42.5 48.2 48.6"/><polygon class="cls-16" points="55.4 26.5 36 32.4 46 35.7 55.4 26.5"/><polygon class="cls-16" points="36 32.4 36.6 12.9 42.4 24.6 36 32.4"/><polygon class="cls-17" points="25.1 47.3 35.6 32.9 28.5 37.4 25.1 47.3"/><polygon class="cls-17" points="37.2 31.1 53 26.2 42.2 25.2 37.2 31.1"/></g></g></svg>