<svg xmlns="http://www.w3.org/2000/svg" xmlns:xlink="http://www.w3.org/1999/xlink" viewBox="0 0 74.4 75.7"><defs><style>.cls-1,.cls-11,.cls-13,.cls-15,.cls-4,.cls-5,.cls-6,.cls-9{stroke:#000;stroke-miterlimit:10;}.cls-1{fill:url(#Degradado_sin_nombre_80);}.cls-2{fill:#102133;}.cls-3{fill:#141327;}.cls-4{fill:url(#Degradado_sin_nombre_109);}.cls-5{fill:url(#Degradado_sin_nombre_108);}.cls-6{fill:url(#Degradado_sin_nombre_108-2);}.cls-7{fill:url(#Degradado_sin_nombre_105);}.cls-8{fill:url(#Degradado_sin_nombre_111);}.cls-9{fill:#fcf1b1;}.cls-10{fill:#a26438;}.cls-11{fill:url(#Degradado_sin_nombre_108-3);}.cls-12{fill:url(#Degradado_sin_nombre_108-4);}.cls-13{fill:url(#Degradado_sin_nombre_108-5);}.cls-14{fill:url(#Degradado_sin_nombre_106);}.cls-15{fill:url(#Degradado_sin_nombre_66);}.cls-16{fill:url(#Degradado_sin_nombre_59);}.cls-17{fill:#465156;}.cls-18{fill:#bcbcbb;}</style><linearGradient id="Degradado_sin_nombre_80" x1="11.5" y1="4.99" x2="70.21" y2="71.46" gradientUnits="userSpaceOnUse"><stop offset="0.02" stop-color="#f4f4f4"/><stop offset="0.08" stop-color="#eaeced"/><stop offset="0.17" stop-color="#cfd6db"/><stop offset="0.27" stop-color="#adbcc4"/><stop offset="0.39" stop-color="#7d888d"/><stop offset="0.5" stop-color="#52595d"/><stop offset="0.62" stop-color="#313537"/><stop offset="0.72" stop-color="#191b1b"/><stop offset="0.81" stop-color="#0a0b0b"/><stop offset="0.88" stop-color="#050505"/></linearGradient><linearGradient id="Degradado_sin_nombre_109" x1="37.32" y1="49.67" x2="37.39" y2="75.61" gradientUnits="userSpaceOnUse"><stop offset="0" stop-color="#e5e4e4"/><stop offset="0.14" stop-color="#d9dcdd"/><stop offset="0.38" stop-color="#bac5cb"/><stop offset="0.47" stop-color="#adbcc4"/><stop offset="0.52" stop-color="#9ca9b0"/><stop offset="0.76" stop-color="#4b5155"/><stop offset="0.92" stop-color="#191a1b"/><stop offset="1" stop-color="#050505"/></linearGradient><linearGradient id="Degradado_sin_nombre_108" x1="47.27" y1="58.04" x2="56.47" y2="58.04" gradientUnits="userSpaceOnUse"><stop offset="0" stop-color="#e5e4e4"/><stop offset="0.59" stop-color="#adbcc4"/><stop offset="0.67" stop-color="#aab9c1"/><stop offset="0.73" stop-color="#a1afb7"/><stop offset="0.78" stop-color="#929fa6"/><stop offset="0.83" stop-color="#7d888e"/><stop offset="0.88" stop-color="#626a6f"/><stop offset="0.93" stop-color="#414649"/><stop offset="0.98" stop-color="#1a1c1d"/><stop offset="1" stop-color="#050505"/></linearGradient><linearGradient id="Degradado_sin_nombre_108-2" x1="-62.79" y1="58.04" x2="-53.59" y2="58.04" gradientTransform="matrix(-1, 0, 0, 1, -35.7, 0)" xlink:href="#Degradado_sin_nombre_108"/><linearGradient id="Degradado_sin_nombre_105" x1="36.86" y1="64.64" x2="36.82" y2="82.2" gradientUnits="userSpaceOnUse"><stop offset="0" stop-color="#e5e4e4"/><stop offset="0.06" stop-color="#e2e2e2"/><stop offset="0.11" stop-color="#d8dadc"/><stop offset="0.16" stop-color="#c6ced3"/><stop offset="0.21" stop-color="#aebdc5"/><stop offset="0.21" stop-color="#adbcc4"/><stop offset="0.31" stop-color="#aab9c1"/><stop offset="0.39" stop-color="#a1afb7"/><stop offset="0.46" stop-color="#929fa6"/><stop offset="0.53" stop-color="#7d888e"/><stop offset="0.6" stop-color="#626a6f"/><stop offset="0.67" stop-color="#414649"/><stop offset="0.73" stop-color="#1a1c1d"/><stop offset="0.76" stop-color="#050505"/></linearGradient><linearGradient id="Degradado_sin_nombre_111" x1="35.29" y1="43.16" x2="40.03" y2="58.34" gradientUnits="userSpaceOnUse"><stop offset="0.08" stop-color="#e4e1df"/><stop offset="0.15" stop-color="#dadada"/><stop offset="0.28" stop-color="#bfc8cd"/><stop offset="0.35" stop-color="#adbcc4"/><stop offset="0.43" stop-color="#a0adb5"/><stop offset="0.58" stop-color="#7c878d"/><stop offset="0.79" stop-color="#43494c"/><stop offset="1" stop-color="#050505"/></linearGradient><linearGradient id="Degradado_sin_nombre_108-3" x1="55.77" y1="52.61" x2="65.12" y2="56.71" xlink:href="#Degradado_sin_nombre_108"/><linearGradient id="Degradado_sin_nombre_108-4" x1="60.76" y1="44.81" x2="71.83" y2="49.67" xlink:href="#Degradado_sin_nombre_108"/><linearGradient id="Degradado_sin_nombre_108-5" x1="-54.28" y1="52.61" x2="-44.94" y2="56.71" gradientTransform="matrix(-1, 0, 0, 1, -35.7, 0)" xlink:href="#Degradado_sin_nombre_108"/><linearGradient id="Degradado_sin_nombre_106" x1="-49.3" y1="44.81" x2="-38.23" y2="49.67" gradientTransform="matrix(-1, 0, 0, 1, -35.7, 0)" xlink:href="#Degradado_sin_nombre_108"/><linearGradient id="Degradado_sin_nombre_66" x1="24.68" y1="25.57" x2="55.59" y2="44.1" gradientUnits="userSpaceOnUse"><stop offset="0.17" stop-color="#fafafa"/><stop offset="0.3" stop-color="#f7f7f7"/><stop offset="0.39" stop-color="#ededed"/><stop offset="0.48" stop-color="#ddd"/><stop offset="0.56" stop-color="#c6c6c6"/><stop offset="0.63" stop-color="#a9a9a9"/><stop offset="0.7" stop-color="#858585"/><stop offset="0.77" stop-color="#595959"/><stop offset="0.83" stop-color="#292929"/><stop offset="0.88" stop-color="#050505"/></linearGradient><linearGradient id="Degradado_sin_nombre_59" x1="35.11" y1="33.1" x2="49.48" y2="48.38" gradientUnits="userSpaceOnUse"><stop offset="0.07" stop-color="#1f3142"/><stop offset="0.28" stop-color="#1b2a38"/><stop offset="0.63" stop-color="#0f161d"/><stop offset="0.88" stop-color="#050505"/></linearGradient></defs><title>insignia_dynamic</title><g id="Capa_2" data-name="Capa 2"><g id="insignia_dynamic"><polygon class="cls-1" points="36.6 0.6 67.6 17.4 67.6 51.4 37.5 70.9 7.2 51.3 7.2 17.3 36.6 0.6"/><polygon class="cls-2" points="36.7 7.6 63.6 21.6 63.6 50 37.5 66.2 11.3 49.9 11.3 21.5 36.7 7.6"/><path class="cls-3" d="M54,21.6S64,24.1,60.1,43,33.8,62.5,33.8,62.5,15.5,61.1,14.7,41.1C14.7,41.1,55,63.8,54,21.6Z"/><polygon class="cls-4" points="23.3 50 36.9 57.4 51.4 50 51.4 64.5 37.3 73.8 23.3 64.8 23.3 50"/><polygon class="cls-5" points="56.5 47.6 47.3 53.4 47.3 68.5 56.2 61.9 56.5 47.6"/><polygon class="cls-6" points="17.9 47.6 27.1 53.4 27.1 68.5 18.1 61.9 17.9 47.6"/><path class="cls-7" d="M64.6,66.1l-8.2-.8,17.1-1.8H47l6.2,1-9.2.8,7.6.5h-.1l-6.6.7h5.6L37.6,73.8,25.3,66.5h4.1l-4.8-.5-.6-.4,6.4-.4L22,64.6l-.3-.3,5.6-.8H20.2l-.8-.5.3.5H.3l17.5,1.8-8.5.8,12.2.3v.2l-3.5.4A4.3,4.3,0,0,0,23,68.5l14.6,7.2,13.5-7.2s1.5,1.4,4.3-.3l-2.4-1,.5-.8Z"/><polygon class="cls-8" points="55.9 48.7 55.9 49.7 47.7 54.7 46.8 54.4 37.2 59.2 27.5 54.1 26.6 54.7 18.5 49.8 18.5 48.4 26.4 53 27.5 52.9 37.2 57.8 46.5 53.1 47.6 53.2 55.9 48.7"/><polygon class="cls-9" points="37.3 68.2 31.7 71.1 32.8 64.9 28.3 60.5 34.5 59.6 37.3 53.9 40.1 59.6 46.4 60.5 41.9 64.9 42.9 71.1 37.3 68.2"/><polygon class="cls-10" points="29.4 60.8 37.1 63.4 33.4 64.7 29.4 60.8"/><polygon class="cls-10" points="32.4 70.2 37.1 63.4 37.3 67.6 32.4 70.2"/><polygon class="cls-10" points="42.3 70.2 37.1 63.4 41.3 64.7 42.3 70.2"/><polygon class="cls-10" points="45.3 60.8 37.1 63.4 39.8 60 45.3 60.8"/><polygon class="cls-10" points="37.3 55 37.1 63.4 34.9 60 37.3 55"/><path class="cls-11" d="M73.2,38.8S60.5,44.9,56.7,51.5v23s2-1.3,2.9-10.1c0,0,4.1-2.7,7.9-12.2,0,0-4.6,5.6-6.7,5.5l-.2-4.1A48.3,48.3,0,0,0,73.2,38.8Z"/><path class="cls-12" d="M71,40.6s-9.7,12.2-12.2,12S59.4,48.3,71,40.6Z"/><path class="cls-13" d="M1.2,38.8s12.7,6.1,16.5,12.7v23s-2-1.3-3-10.1c0,0-4-2.7-7.8-12.2,0,0,4.5,5.6,6.7,5.5V53.6A48.7,48.7,0,0,1,1.2,38.8Z"/><path class="cls-14" d="M3.4,40.6s9.7,12.2,12.1,12S14.9,48.3,3.4,40.6Z"/><path class="cls-15" d="M54.7,37.4,43.2,15.5l-12-.3-2.7,3.4H23.3s-5.2,1.8-4.6,10c0,0,4.4-6.9,8.5-3.1s-4.6,12.6-4.6,12.6L37.3,54.4Z"/><path class="cls-16" d="M24.8,39.8s2.4,3.4,7.7-1.4,11.4-2.2,12.9-.3l6.2-5.6,2.5,4.8L37.4,53.6Z"/><path class="cls-17" d="M20.5,24.6s5.6-6.3,11.5,1.9,3.8,8.3,3.8,8.3,4.7-1.1,6.2,0a12,12,0,0,0-9.7,2.6c-4.7,3.8-7.5,1.4-7.5,1.4s3.9.3,5.5-5.6-2.5-8.3-2.5-8.3S25.6,22,20.5,24.6Z"/><path d="M30.2,19.5l1.4.7s1.4,3.9,3.5.4l2.4-1.1Z"/><path class="cls-18" d="M39.5,22.6s6.9-.1,9.3,9.1c0,0,.8,3.6-4.1,3.1,0,0-6.5-2-7.8-5.2S41.8,25.5,39.5,22.6Z"/></g></g></svg>