<svg xmlns="http://www.w3.org/2000/svg" xmlns:xlink="http://www.w3.org/1999/xlink" viewBox="0 0 315.3 82.9"><defs><style>.cls-1{fill:url(#Degradado_sin_nombre_486);}.cls-14,.cls-16,.cls-17,.cls-18,.cls-19,.cls-2,.cls-20,.cls-22,.cls-26,.cls-27,.cls-4,.cls-5,.cls-8,.cls-9{stroke:#1d1d1b;stroke-width:0.75px;}.cls-10,.cls-14,.cls-16,.cls-17,.cls-18,.cls-19,.cls-2,.cls-20,.cls-22,.cls-26,.cls-27,.cls-3,.cls-4,.cls-5,.cls-8,.cls-9{stroke-miterlimit:10;}.cls-2{fill:url(#Degradado_sin_nombre_517);}.cls-10,.cls-17,.cls-3{fill:none;}.cls-3{stroke:#0a0505;}.cls-4{fill:url(#Degradado_sin_nombre_560);}.cls-5{fill:url(#Degradado_sin_nombre_560-2);}.cls-6{fill:url(#Degradado_sin_nombre_457);}.cls-7{fill:url(#Degradado_sin_nombre_486-2);}.cls-8{fill:url(#Degradado_sin_nombre_517-2);}.cls-9{fill:#3d3f43;}.cls-10{stroke:#393430;}.cls-11{fill:url(#Degradado_sin_nombre_496);}.cls-12{fill:url(#Degradado_sin_nombre_464);}.cls-13{fill:url(#Degradado_sin_nombre_469);}.cls-14{fill:url(#Degradado_sin_nombre_560-3);}.cls-15{fill:#9fa299;}.cls-16{fill:url(#Degradado_sin_nombre_560-4);}.cls-18{fill:url(#Degradado_sin_nombre_517-3);}.cls-19{fill:url(#Degradado_sin_nombre_560-5);}.cls-20{fill:url(#Degradado_sin_nombre_560-6);}.cls-21{fill:url(#Degradado_sin_nombre_457-2);}.cls-22{fill:url(#Degradado_sin_nombre_517-4);}.cls-23{fill:url(#Degradado_sin_nombre_496-2);}.cls-24{fill:url(#Degradado_sin_nombre_464-2);}.cls-25{fill:url(#Degradado_sin_nombre_469-2);}.cls-26{fill:url(#Degradado_sin_nombre_560-7);}.cls-27{fill:url(#Degradado_sin_nombre_560-8);}</style><linearGradient id="Degradado_sin_nombre_486" x1="436.05" y1="6.1" x2="495.48" y2="36.37" gradientTransform="matrix(-1, 0, 0, 1, 595.98, 0)" gradientUnits="userSpaceOnUse"><stop offset="0" stop-color="#dcc5ab"/><stop offset="0.08" stop-color="#d4b9a0"/><stop offset="0.21" stop-color="#bf9985"/><stop offset="0.3" stop-color="#aa877c"/><stop offset="0.44" stop-color="#8d7876"/><stop offset="0.73" stop-color="#fff6ee"/><stop offset="1" stop-color="#b3a291"/></linearGradient><linearGradient id="Degradado_sin_nombre_517" x1="294.44" y1="31.17" x2="294.59" y2="47.38" gradientUnits="userSpaceOnUse"><stop offset="0" stop-color="#5d6066"/><stop offset="0.14" stop-color="#5e6167"/><stop offset="0.25" stop-color="#6e6f75"/><stop offset="0.35" stop-color="#72747d"/><stop offset="0.48" stop-color="#686c64"/><stop offset="0.59" stop-color="#4f4e4c"/><stop offset="0.67" stop-color="#3e3a3b"/><stop offset="1" stop-color="#3e3a38"/></linearGradient><linearGradient id="Degradado_sin_nombre_560" x1="289.76" y1="47.94" x2="290.87" y2="30.69" gradientUnits="userSpaceOnUse"><stop offset="0" stop-color="#8e6a59"/><stop offset="0.21" stop-color="#a78579"/><stop offset="0.34" stop-color="#b29281"/><stop offset="0.48" stop-color="#c5ab9c"/><stop offset="0.64" stop-color="#fff4df"/><stop offset="0.74" stop-color="#e5d7c4"/><stop offset="1" stop-color="#aa917c"/></linearGradient><linearGradient id="Degradado_sin_nombre_560-2" x1="310.67" y1="16.63" x2="309.76" y2="68.86" xlink:href="#Degradado_sin_nombre_560"/><linearGradient id="Degradado_sin_nombre_457" x1="157.53" y1="46.22" x2="210.45" y2="46.22" gradientUnits="userSpaceOnUse"><stop offset="0" stop-color="#7c848c"/><stop offset="0.14" stop-color="#747980"/><stop offset="0.18" stop-color="#70747a"/><stop offset="0.31" stop-color="#696f75"/><stop offset="0.56" stop-color="#626468"/><stop offset="0.74" stop-color="#4e4d54"/><stop offset="1" stop-color="#4e4d4d"/></linearGradient><linearGradient id="Degradado_sin_nombre_486-2" x1="154.72" y1="6.09" x2="214.21" y2="36.39" gradientTransform="matrix(1, 0, 0, 1, 0, 0)" xlink:href="#Degradado_sin_nombre_486"/><linearGradient id="Degradado_sin_nombre_517-2" x1="239.69" y1="8.07" x2="237.69" y2="58.11" xlink:href="#Degradado_sin_nombre_517"/><radialGradient id="Degradado_sin_nombre_496" cx="160.07" cy="29.24" r="28.19" gradientUnits="userSpaceOnUse"><stop offset="0" stop-color="#f9fbf2"/><stop offset="0.28" stop-color="#d8dbd2"/><stop offset="0.55" stop-color="#c0c3ba"/><stop offset="0.79" stop-color="#b1b4ab"/><stop offset="1" stop-color="#acafa6"/></radialGradient><linearGradient id="Degradado_sin_nombre_464" x1="169.16" y1="52.48" x2="179.99" y2="62.27" gradientUnits="userSpaceOnUse"><stop offset="0" stop-color="#595f63"/><stop offset="0.35" stop-color="#505457"/><stop offset="0.99" stop-color="#383736"/><stop offset="1" stop-color="#373635"/></linearGradient><linearGradient id="Degradado_sin_nombre_469" x1="203.66" y1="27.14" x2="195.57" y2="76.44" gradientUnits="userSpaceOnUse"><stop offset="0" stop-color="#51535b"/><stop offset="0.48" stop-color="#484a4f"/><stop offset="1" stop-color="#3b3c3c"/></linearGradient><linearGradient id="Degradado_sin_nombre_560-3" x1="260.7" y1="48.77" x2="260.88" y2="27.6" xlink:href="#Degradado_sin_nombre_560"/><linearGradient id="Degradado_sin_nombre_560-4" x1="224.9" y1="48.77" x2="225.08" y2="27.6" xlink:href="#Degradado_sin_nombre_560"/><linearGradient id="Degradado_sin_nombre_517-3" x1="575.7" y1="31.17" x2="575.85" y2="47.38" gradientTransform="matrix(1, 0, 0, -1, -554.5, 78.54)" xlink:href="#Degradado_sin_nombre_517"/><linearGradient id="Degradado_sin_nombre_560-5" x1="571.02" y1="47.94" x2="572.13" y2="30.69" gradientTransform="matrix(-1, 0, 0, 1, 595.98, 0)" xlink:href="#Degradado_sin_nombre_560"/><linearGradient id="Degradado_sin_nombre_560-6" x1="591.94" y1="16.63" x2="591.02" y2="68.86" gradientTransform="matrix(-1, 0, 0, 1, 595.98, 0)" xlink:href="#Degradado_sin_nombre_560"/><linearGradient id="Degradado_sin_nombre_457-2" x1="438.79" y1="46.28" x2="491.71" y2="46.28" gradientTransform="matrix(-1, 0, 0, 1, 595.98, 0)" xlink:href="#Degradado_sin_nombre_457"/><linearGradient id="Degradado_sin_nombre_517-4" x1="520.95" y1="8.07" x2="518.95" y2="58.11" gradientTransform="matrix(-1, 0, 0, 1, 595.98, 0)" xlink:href="#Degradado_sin_nombre_517"/><radialGradient id="Degradado_sin_nombre_496-2" cx="441.33" cy="29.24" r="28.19" gradientTransform="matrix(-1, 0, 0, 1, 595.98, 0)" xlink:href="#Degradado_sin_nombre_496"/><linearGradient id="Degradado_sin_nombre_464-2" x1="450.42" y1="52.48" x2="461.25" y2="62.27" gradientTransform="matrix(-1, 0, 0, 1, 595.98, 0)" xlink:href="#Degradado_sin_nombre_464"/><linearGradient id="Degradado_sin_nombre_469-2" x1="484.92" y1="27.14" x2="476.83" y2="76.44" gradientTransform="matrix(-1, 0, 0, 1, 595.98, 0)" xlink:href="#Degradado_sin_nombre_469"/><linearGradient id="Degradado_sin_nombre_560-7" x1="541.96" y1="48.77" x2="542.14" y2="27.6" gradientTransform="matrix(-1, 0, 0, 1, 595.98, 0)" xlink:href="#Degradado_sin_nombre_560"/><linearGradient id="Degradado_sin_nombre_560-8" x1="506.16" y1="48.77" x2="506.35" y2="27.6" gradientTransform="matrix(-1, 0, 0, 1, 595.98, 0)" xlink:href="#Degradado_sin_nombre_560"/></defs><title>insignia_card_header</title><g id="Capa_2" data-name="Capa 2"><g id="insignia_card_header"><path class="cls-1" d="M103.9,36.8c3.2-4.7,23.7-12.3,34.8-19.5A84.4,84.4,0,0,0,157.5.6v9s-19.9,17.3-34,21.5-18.8,9.4-18.8,9.4S100.8,41.5,103.9,36.8Z"/><rect class="cls-2" x="279.7" y="31.3" width="29.7" height="15.95"/><path class="cls-3" d="M271.4,28.2s-2.2-4.5-7.2,0-16.4,19.4-13.6,22.5,4.6-1.4,4.6-1.4A49.7,49.7,0,0,1,271.4,28.2Z"/><path class="cls-3" d="M299,31.4s-1.8-3.4-5.9,0S279.8,45.9,282,48.3s3.8-1.1,3.8-1.1A38,38,0,0,1,299,31.4Z"/><path class="cls-4" d="M299,31.4s-1.8-3.4-5.9,0S279.8,45.9,282,48.3s3.8-1.1,3.8-1.1A38,38,0,0,1,299,31.4Z"/><path class="cls-5" d="M315,18.9s-5.6,5.7-5.6,13.1,1.8,14.6-3.8,28.8c0,0,7.3-5.2,7.9-12.6S311.6,24,315,18.9Z"/><path class="cls-6" d="M157.5,82.8s6.9-14.6,40.8-12.3c0,0,4.5-19.8,12.2-30,0,0-4.7-5.2-18.8-9.4S157.5,9.7,157.5,9.7Z"/><path class="cls-7" d="M211.2,36.8c-3.1-4.7-23.6-12.3-34.8-19.5A89.3,89.3,0,0,1,157.5.6V9.7s20.1,17.2,34.2,21.4,18.8,9.4,18.8,9.4S214.4,41.5,211.2,36.8Z"/><path class="cls-8" d="M197.3,28.2c6.7,3.3,12.4,6.3,13.9,8.6,3.2,4.7-.7,3.7-.7,3.7a49.6,49.6,0,0,0-5.1,8.8h74.3V28.2Z"/><path class="cls-9" d="M167.5,42.9a21.3,21.3,0,0,1,8.5-5.3,20.4,20.4,0,0,0-7-6.4,13.4,13.4,0,0,1,.9,4.6A11.7,11.7,0,0,1,167.5,42.9Z"/><path class="cls-10" d="M165.6,45.1h0Z"/><path class="cls-10" d="M167.5,42.9,165.6,45A9.5,9.5,0,0,0,167.5,42.9Z"/><path class="cls-10" d="M163.1,46.7l-.4.2Z"/><path class="cls-10" d="M161,47.5l-.5.2Z"/><path class="cls-10" d="M164.8,45.6c0,.1,0,.1-.1.1S164.8,45.7,164.8,45.6Z"/><path class="cls-10" d="M164,46.2c-.1.1-.2.1-.2.2S163.9,46.3,164,46.2Z"/><path class="cls-10" d="M162.1,47.2h0Z"/><path class="cls-10" d="M158.8,48h0Z"/><path class="cls-10" d="M159.9,47.8h0Z"/><path class="cls-10" d="M164.7,45.7l-.7.5Z"/><path class="cls-10" d="M165.6,45.1l-.8.5Z"/><path class="cls-10" d="M160.5,47.7h0Z"/><path class="cls-10" d="M159.2,47.9h0Z"/><path class="cls-10" d="M161.6,47.3l-.6.2Z"/><path class="cls-10" d="M163.8,46.4l-.7.3Z"/><path class="cls-10" d="M162.7,46.9l-.6.3Z"/><path class="cls-11" d="M157.6,29.7V48h3l.5-.2.6-.2h.5l.6-.3.4-.2.7-.3c0-.1.1-.1.2-.2l.7-.5c.1,0,.1,0,.1-.1l.8-.5h0a11.9,11.9,0,0,0,1.9-2h0a1,1,0,0,0,.4-.5l.4-.6.3-.6.2-.5.3-.6c0-.2.1-.3.1-.4l.3-1.1c.1-.1.1-.2.1-.4a2.2,2.2,0,0,0,.1-.8.8.8,0,0,0,.1-.4c0-.4.1-.8.1-1.2s-.1-.8-.1-1.2a3,3,0,0,0-.2-1v-.2a14.1,14.1,0,0,0-.6-2.2,15.9,15.9,0,0,0-11.4-1.5Z"/><path class="cls-12" d="M172.4,68.7s.1-6.1,2.6-7.9,3.1-4.5,1-8.7a10.1,10.1,0,0,1-.8-7.4s-3.2,10.7-2.8,15.6A48.1,48.1,0,0,1,172.4,68.7Z"/><path class="cls-13" d="M198.3,70.5s4-17.6,10.9-28.2c-4.6-4.6-11.9-5.2-11.9-5.2-7.5,12.4-7.2,26.3-6.3,33.2C193.3,70.3,195.7,70.3,198.3,70.5Z"/><path class="cls-14" d="M271.4,28.2s-2.2-4.5-7.2,0-16.4,19.4-13.6,22.5,4.6-1.4,4.6-1.4A49.7,49.7,0,0,1,271.4,28.2Z"/><path class="cls-15" d="M159.2,46.7s8.2-2,9-8.7c0,0-2.4,4.7-3.5,4.3s3.6-6.2,1.9-9.4C166.6,32.9,165.3,43.6,159.2,46.7Z"/><path class="cls-16" d="M235.6,28.2s-2.2-4.5-7.2,0-16.3,19.4-13.6,22.5,4.6-1.4,4.6-1.4A49.7,49.7,0,0,1,235.6,28.2Z"/><path class="cls-17" d="M157.5,82.8s6.4-14.3,40.8-12.3c0,0,6.1-23.4,12.2-30,0,0-6.1-6-14.2-7.8s-21.3-8.6-38.6-23"/><path class="cls-17" d="M210.5,40.5c2.3.5,1.9-1.4,1.9-1.4-1.2-3.5-6.2-7-14.2-10.6s-12.5-6-12.5-6C171.8,17.4,157.5.6,157.5.6h0s-14.1,16.8-28,21.9c0,0-4.4,2.3-12.5,6s-13,7.1-14.2,10.6c0,0-.4,1.9,1.9,1.4"/><path class="cls-17" d="M157.6,48s6.9.6,10.3-5.6A12.5,12.5,0,0,0,169,31.2a15.3,15.3,0,0,0-11.4-1.5"/><rect class="cls-18" x="5.9" y="31.3" width="29.7" height="15.95" transform="translate(41.5 78.5) rotate(180)"/><path class="cls-3" d="M43.9,28.2s2.1-4.5,7.1,0S67.4,47.6,64.6,50.7,60,49.3,60,49.3A50,50,0,0,0,43.9,28.2Z"/><path class="cls-3" d="M16.3,31.4s1.8-3.4,5.8,0S35.5,45.9,33.2,48.3s-3.7-1.1-3.7-1.1A38,38,0,0,0,16.3,31.4Z"/><path class="cls-19" d="M16.3,31.4s1.8-3.4,5.8,0S35.5,45.9,33.2,48.3s-3.7-1.1-3.7-1.1A38,38,0,0,0,16.3,31.4Z"/><path class="cls-20" d="M.3,18.9S5.9,24.6,5.9,32,4,46.6,9.7,60.8c0,0-7.4-5.2-7.9-12.6S3.6,24,.3,18.9Z"/><path class="cls-21" d="M157.6,82.8s-6.8-14.6-40.8-12.3c0,0-4.4-19.8-12.1-30,0,0,4.7-5.2,18.8-9.4s34-21.3,34-21.3Z"/><path class="cls-22" d="M117.9,28.2c-6.7,3.3-12.4,6.3-14,8.6-3.1,4.7.8,3.7.8,3.7a49.6,49.6,0,0,1,5.1,8.8H35.6V28.2Z"/><path class="cls-9" d="M147.6,42.9a21.3,21.3,0,0,0-8.5-5.3,20.6,20.6,0,0,1,7.1-6.4,11.4,11.4,0,0,0-.9,4.6A12.3,12.3,0,0,0,147.6,42.9Z"/><path class="cls-10" d="M149.6,45.1a.1.1,0,0,1-.1-.1Z"/><path class="cls-10" d="M147.6,42.9l1.9,2.1A12.9,12.9,0,0,1,147.6,42.9Z"/><path class="cls-10" d="M152.1,46.7l.3.2Z"/><path class="cls-10" d="M154.1,47.5l.5.2Z"/><path class="cls-10" d="M150.3,45.6a.1.1,0,0,0,.1.1A.1.1,0,0,1,150.3,45.6Z"/><path class="cls-10" d="M151.1,46.2l.3.2Z"/><path class="cls-10" d="M153,47.2h0Z"/><path class="cls-10" d="M156.3,48h0Z"/><path class="cls-10" d="M155.2,47.8h0Z"/><path class="cls-10" d="M150.4,45.7l.7.5Z"/><path class="cls-10" d="M149.6,45.1a1.8,1.8,0,0,0,.7.5A1.8,1.8,0,0,1,149.6,45.1Z"/><path class="cls-10" d="M154.6,47.7h0Z"/><path class="cls-10" d="M155.9,47.9h0Z"/><path class="cls-10" d="M153.5,47.3l.6.2Z"/><path class="cls-10" d="M151.4,46.4l.7.3Z"/><path class="cls-10" d="M152.4,46.9l.6.3Z"/><path class="cls-23" d="M157.6,29.9V48h-3l-.5-.2-.6-.2H153l-.6-.3-.3-.2-.7-.3-.3-.2-.7-.5a.1.1,0,0,1-.1-.1,1.8,1.8,0,0,1-.7-.5h-.1a18,18,0,0,1-1.9-2h0l-.4-.5-.3-.6-.3-.6-.3-.5c-.1-.2-.1-.4-.2-.6s-.1-.3-.2-.4l-.3-1.1a.8.8,0,0,0-.1-.4c0-.3-.1-.5-.1-.8V37a4.9,4.9,0,0,1-.1-1.2V34.6c.1-.4.1-.7.2-1v-.2a14.2,14.2,0,0,1,.7-2.2,15.9,15.9,0,0,1,11.4-1.5Z"/><path class="cls-24" d="M142.7,68.7s-.1-6.1-2.6-7.9-3-4.5-1-8.7a9.5,9.5,0,0,0,.8-7.4s3.3,10.7,2.8,15.6A48.1,48.1,0,0,0,142.7,68.7Z"/><path class="cls-25" d="M116.8,70.5s-4-17.6-10.8-28.2c4.6-4.6,11.9-5.2,11.9-5.2,7.5,12.4,7.1,26.3,6.3,33.2C121.9,70.3,119.5,70.3,116.8,70.5Z"/><path class="cls-26" d="M43.9,28.2s2.1-4.5,7.1,0S67.4,47.6,64.6,50.7,60,49.3,60,49.3A50,50,0,0,0,43.9,28.2Z"/><path class="cls-15" d="M155.9,46.7s-8.2-2-9-8.7c0,0,2.4,4.7,3.5,4.3s-3.6-6.2-1.8-9.4C148.6,32.9,149.8,43.6,155.9,46.7Z"/><path class="cls-27" d="M79.6,28.2s2.2-4.5,7.2,0,16.3,19.4,13.5,22.5-4.5-1.4-4.5-1.4A49.7,49.7,0,0,0,79.6,28.2Z"/><path class="cls-17" d="M157.5,9.7c-17.3,14.4-30.6,21.1-38.7,23s-14.1,7.8-14.1,7.8c6.1,6.6,12.1,30,12.1,30,34.4-2,40.8,12.3,40.8,12.3"/><path class="cls-17" d="M157.5,48s-6.9.6-10.3-5.6a12.3,12.3,0,0,1-1-11.2,14.9,14.9,0,0,1,11.3-1.5"/></g></g></svg>