<svg xmlns="http://www.w3.org/2000/svg" xmlns:xlink="http://www.w3.org/1999/xlink" viewBox="0 0 114 114"><defs><style>.cls-1{fill:#fff;}.cls-2{fill:url(#Degradado_sin_nombre_6);}.cls-3{fill:url(#Degradado_sin_nombre_6-2);}.cls-4{fill:url(#Degradado_sin_nombre_3);}.cls-5{fill:url(#Degradado_sin_nombre_4);}.cls-6{fill:url(#Degradado_sin_nombre_5);}</style><linearGradient id="Degradado_sin_nombre_6" x1="15.44" y1="404.29" x2="101.17" y2="329.18" gradientTransform="matrix(1, 0, 0, -1, 0, 424.88)" gradientUnits="userSpaceOnUse"><stop offset="0.24" stop-color="#e2a052"/><stop offset="0.42" stop-color="#9a6069"/><stop offset="0.56" stop-color="#6c3778"/><stop offset="0.62" stop-color="#59267a"/></linearGradient><linearGradient id="Degradado_sin_nombre_6-2" x1="38.91" y1="393.69" x2="74.02" y2="352.79" xlink:href="#Degradado_sin_nombre_6"/><linearGradient id="Degradado_sin_nombre_3" x1="37.09" y1="387.77" x2="58.21" y2="367.09" gradientTransform="matrix(1, 0, 0, -1, 0, 424.88)" gradientUnits="userSpaceOnUse"><stop offset="0.37" stop-color="#e2a052"/><stop offset="0.41" stop-color="#d59456"/><stop offset="0.67" stop-color="#7d4672"/><stop offset="0.79" stop-color="#59267a"/></linearGradient><linearGradient id="Degradado_sin_nombre_4" x1="40.39" y1="367.51" x2="79.04" y2="341.15" gradientTransform="matrix(1, 0, 0, -1, 0, 424.88)" gradientUnits="userSpaceOnUse"><stop offset="0.22" stop-color="#e2a052"/><stop offset="0.3" stop-color="#be815d"/><stop offset="0.42" stop-color="#945a6b"/><stop offset="0.52" stop-color="#743e75"/><stop offset="0.61" stop-color="#612c7a"/><stop offset="0.67" stop-color="#59267a"/></linearGradient><linearGradient id="Degradado_sin_nombre_5" x1="53.46" y1="363.67" x2="78.17" y2="349.72" gradientTransform="matrix(1, 0, 0, -1, 0, 424.88)" gradientUnits="userSpaceOnUse"><stop offset="0.27" stop-color="#e2a052"/><stop offset="0.33" stop-color="#be815d"/><stop offset="0.41" stop-color="#945a6b"/><stop offset="0.49" stop-color="#743e75"/><stop offset="0.55" stop-color="#612c7a"/><stop offset="0.59" stop-color="#59267a"/></linearGradient></defs><title>logo_white</title><g id="Capa_2" data-name="Capa 2"><g id="logo_white"><g id="Capa_2-2" data-name="Capa 2"><g id="Capa_2-2-2" data-name="Capa 2-2"><circle class="cls-1" cx="56.9" cy="57" r="52.2"/><path class="cls-2" d="M57,0a57,57,0,1,0,57,57A57,57,0,0,0,57,0Zm0,109.2A52.2,52.2,0,1,1,109.2,57,52.2,52.2,0,0,1,57,109.2Z"/><polygon class="cls-3" points="60 34.2 60.4 20 26 42.1 26 52.3 59.7 74.3 59.6 60.6 53.6 57 53.6 65.3 32.2 51.5 32.3 44.1 53.6 31.1 53.5 38 60 34.2"/><polygon class="cls-4" points="50.6 41.7 50.6 35.8 35.3 45.2 35.3 50 50.6 60.4 50.6 53.7 40.1 48.1 50.6 41.7"/><polygon class="cls-5" points="53.7 53.4 59.7 57 59.7 48.5 81.4 63.2 81.4 69.7 59.8 83.4 59.8 76.6 53.7 80.7 53.7 94 87.7 71.8 87.7 62.1 53.7 40.1 53.7 53.4"/><polygon class="cls-6" points="62.8 54.5 62.8 60.6 73.8 66.9 62.8 73.5 62.8 78.5 78.3 68.9 78.3 64.3 62.8 54.5"/></g></g></g></g></svg>