<svg xmlns="http://www.w3.org/2000/svg" xmlns:xlink="http://www.w3.org/1999/xlink" viewBox="0 0 357.7 114"><defs><style>.cls-1{fill:#fff;}.cls-2{fill:url(#Degradado_sin_nombre_6);}.cls-3{fill:url(#Degradado_sin_nombre_6-2);}.cls-4{fill:url(#Degradado_sin_nombre_3);}.cls-5{fill:url(#Degradado_sin_nombre_4);}.cls-6{fill:url(#Degradado_sin_nombre_5);}</style><linearGradient id="Degradado_sin_nombre_6" x1="15.44" y1="129.09" x2="101.17" y2="53.98" gradientTransform="matrix(1, 0, 0, -1, 0, 149.68)" gradientUnits="userSpaceOnUse"><stop offset="0.24" stop-color="#e2a052"/><stop offset="0.42" stop-color="#9a6069"/><stop offset="0.56" stop-color="#6c3778"/><stop offset="0.62" stop-color="#59267a"/></linearGradient><linearGradient id="Degradado_sin_nombre_6-2" x1="38.91" y1="118.49" x2="74.02" y2="77.59" xlink:href="#Degradado_sin_nombre_6"/><linearGradient id="Degradado_sin_nombre_3" x1="37.09" y1="112.56" x2="58.21" y2="91.89" gradientTransform="matrix(1, 0, 0, -1, 0, 149.68)" gradientUnits="userSpaceOnUse"><stop offset="0.37" stop-color="#e2a052"/><stop offset="0.41" stop-color="#d59456"/><stop offset="0.67" stop-color="#7d4672"/><stop offset="0.79" stop-color="#59267a"/></linearGradient><linearGradient id="Degradado_sin_nombre_4" x1="40.39" y1="92.3" x2="79.04" y2="65.95" gradientTransform="matrix(1, 0, 0, -1, 0, 149.68)" gradientUnits="userSpaceOnUse"><stop offset="0.22" stop-color="#e2a052"/><stop offset="0.3" stop-color="#be815d"/><stop offset="0.42" stop-color="#945a6b"/><stop offset="0.52" stop-color="#743e75"/><stop offset="0.61" stop-color="#612c7a"/><stop offset="0.67" stop-color="#59267a"/></linearGradient><linearGradient id="Degradado_sin_nombre_5" x1="53.46" y1="88.47" x2="78.17" y2="74.51" gradientTransform="matrix(1, 0, 0, -1, 0, 149.68)" gradientUnits="userSpaceOnUse"><stop offset="0.27" stop-color="#e2a052"/><stop offset="0.33" stop-color="#be815d"/><stop offset="0.41" stop-color="#945a6b"/><stop offset="0.49" stop-color="#743e75"/><stop offset="0.55" stop-color="#612c7a"/><stop offset="0.59" stop-color="#59267a"/></linearGradient></defs><title>logo_font_white_logo</title><g id="Capa_2" data-name="Capa 2"><g id="logo_font"><path class="cls-1" d="M145.9,61.8a10.4,10.4,0,0,1-7.7,3.3,10.2,10.2,0,0,1-7.6-3.3c-3.9-3.8-5.8-9.9-5.8-18.1s2.1-16.4,6.2-20.6a10.6,10.6,0,0,1,7.5-3.2,9.3,9.3,0,0,1,6.9,2.5c3.3,3.3,4.8,7.7,4.6,13.2h-5.1q-.2-7.4-2.7-9.9a5.3,5.3,0,0,0-7.4.2c-3.1,3.1-4.7,8.9-4.7,17.4s1.3,12.4,4,15a5.4,5.4,0,0,0,4.1,1.9,5.6,5.6,0,0,0,4-1.9c1.5-1.5,2.4-5.1,2.5-10.6h5.6C149.8,54.6,148.3,59.3,145.9,61.8Z"/><path class="cls-1" d="M173.1,68.8l1.4-13h-7.9l-1.2,13h-3.7l1.4-13h-4.6V51.4h5.1l1.6-15.1h-6.7V31.9h7.1l1.2-12.7h3.7l-1.4,12.7H177l1.2-12.7h3.7l-1.4,12.7h4.6v4.4H180l-1.6,15.1h6.7v4.4h-7.2l-1.1,13Zm1.8-17.4,1.6-15.1h-7.8L167,51.4Z"/><path class="cls-1" d="M198.6,31.2V65.1H194V19.9h7.4l4.9,29.4h.4l4.9-29.4H219V65.1h-4.6V31.2h-.5l-5.5,33.9h-3.8l-5.5-33.9Z"/><path class="cls-1" d="M229.3,65.1V19.9h24.3v4.4h-19v15H249v4.4H234.6V65.1Z"/><path class="cls-1" d="M269.7,38.9h15.7v4.4H269.7V60.7H288v4.4H264.4V19.9h22.4v4.4H269.7Z"/><path class="cls-1" d="M318.9,61.8a10.4,10.4,0,0,1-7.7,3.3,10.2,10.2,0,0,1-7.6-3.3c-3.9-3.8-5.8-9.9-5.8-18.1s2.1-16.4,6.2-20.6a10.6,10.6,0,0,1,7.5-3.2,9.3,9.3,0,0,1,6.9,2.5c3.3,3.3,4.8,7.7,4.6,13.2h-5c-.2-4.9-1.1-8.2-2.8-9.9a5.3,5.3,0,0,0-7.4.2c-3.1,3.1-4.7,8.9-4.7,17.4s1.3,12.4,4,15a5.4,5.4,0,0,0,4.1,1.9,5.6,5.6,0,0,0,4-1.9c1.5-1.5,2.4-5.1,2.5-10.6h5.6C322.8,54.6,321.3,59.3,318.9,61.8Z"/><path class="cls-1" d="M357.7,42.3c0,9.8-1.8,16.3-5.1,19.7a10.3,10.3,0,0,1-7.7,3.1A10.5,10.5,0,0,1,337,62c-3.4-3.4-5.1-9.9-5.1-19.7s1.7-16,5.1-19.4a10.8,10.8,0,0,1,7.9-3,10.6,10.6,0,0,1,7.7,3C355.9,26.3,357.7,32.8,357.7,42.3Zm-20.4,0c0,8.9,1,14.3,3,16.3a6.3,6.3,0,0,0,4.6,2.1,6.3,6.3,0,0,0,4.4-2.1c2-2,3-7.4,3-16.3s-1-13.9-3-15.9a6.3,6.3,0,0,0-4.4-2.1,6.3,6.3,0,0,0-4.6,2.1Q337.3,29.4,337.3,42.3Z"/><path class="cls-1" d="M135.2,97.4a3.4,3.4,0,0,1-2.3,1,3.3,3.3,0,0,1-2.3-1c-1.2-1.2-1.8-3-1.8-5.5s.6-5,1.9-6.2a3,3,0,0,1,2.3-1,2.8,2.8,0,0,1,2.1.8,5.6,5.6,0,0,1,1.4,4h-1.6a4.8,4.8,0,0,0-.8-3.1A2.1,2.1,0,0,0,133,86a1.8,1.8,0,0,0-1.2.5c-.9.9-1.4,2.7-1.4,5.3s.4,3.7,1.2,4.5a1.8,1.8,0,0,0,1.3.6,1.7,1.7,0,0,0,1.2-.6c.4-.4.7-1.5.7-3.2h1.7A7,7,0,0,1,135.2,97.4Z"/><path class="cls-1" d="M146.9,91.5q0,4.4-1.5,6a3.2,3.2,0,0,1-2.3.9,3.2,3.2,0,0,1-2.4-.9q-1.5-1.6-1.5-6c0-2.9.5-4.9,1.5-5.9a3.2,3.2,0,0,1,2.4-.9,3.2,3.2,0,0,1,2.3.9C146.4,86.6,146.9,88.6,146.9,91.5Zm-6.1,0c0,2.7.3,4.3.9,4.9a2,2,0,0,0,1.4.6,1.9,1.9,0,0,0,1.3-.6c.6-.6.9-2.2.9-4.9s-.3-4.2-.9-4.9a1.9,1.9,0,0,0-1.3-.6,2,2,0,0,0-1.4.6C141.1,87.3,140.8,88.9,140.8,91.5Z"/><path class="cls-1" d="M151.2,88.1V98.4h-1.4V84.7H152l1.5,8.9h.1l1.5-8.9h2.2V98.4h-1.4V88.1h-.1l-1.7,10.3H153l-1.7-10.3Z"/><path class="cls-1" d="M161.6,88.1V98.4h-1.4V84.7h2.3l1.5,8.9h.1l1.5-8.9h2.2V98.4h-1.4V88.1h-.1l-1.7,10.3h-1.1l-1.7-10.3Z"/><path class="cls-1" d="M170.9,84.7h1.6v10c0,.8.1,1.3.5,1.6a1.6,1.6,0,0,0,1.4.5h.1a1.6,1.6,0,0,0,1.4-.5,2,2,0,0,0,.6-1.6v-10h1.6v10a4,4,0,0,1-1.1,2.9,3.4,3.4,0,0,1-2.5.8h-.1a3.6,3.6,0,0,1-2.5-.8,3.9,3.9,0,0,1-1-2.9Z"/><path class="cls-1" d="M188.6,84.7V98.4h-2l-3.7-10.3h0V98.4h-1.6V84.7h1.9l3.7,10.2h0V84.7Z"/><path class="cls-1" d="M194.7,96.8h.8v1.6h-3.2V96.8h.8V86.2h-.8V84.7h3.2v1.5h-.8Z"/><path class="cls-1" d="M202,98.4V86h-2.7V84.7h7.2V86h-2.9V98.4Z"/><path class="cls-1" d="M210.9,84.7l2.4,5.5h.1l2.5-5.5h1.6l-3.3,7.4v6.3h-1.6V92.1l-3.3-7.4Z"/><path class="cls-1" d="M227.8,98.4V84.7h7.4V86h-5.8v4.6h4.4v1.3h-4.4v6.5Z"/><path class="cls-1" d="M240,90.4h4.8v1.4H240V97h5.6v1.4h-7.2V84.7h6.8V86H240Z"/><path class="cls-1" d="M254.4,91.9a2.9,2.9,0,0,1,1.6,2.7,3.9,3.9,0,0,1-1,2.8,4.1,4.1,0,0,1-2.8,1,3.3,3.3,0,0,1-2.5-.9,3.7,3.7,0,0,1-1.2-2.7v-.7h1.6v.6a2.2,2.2,0,0,0,.6,1.7,1.8,1.8,0,0,0,1.4.6,2.2,2.2,0,0,0,1.7-.6,2.3,2.3,0,0,0,.6-1.6,1.9,1.9,0,0,0-1-1.7,34.3,34.3,0,0,1-3.3-2.4,3.5,3.5,0,0,1-.1-5,3.2,3.2,0,0,1,2.3-1,3.6,3.6,0,0,1,2.4.8,4,4,0,0,1,1,3h-1.6a2,2,0,0,0-.6-1.9,1.7,1.7,0,0,0-1.2-.5,2.1,2.1,0,0,0-1.2.5,2,2,0,0,0-.6,1.5,2.2,2.2,0,0,0,1,1.7A26.4,26.4,0,0,0,254.4,91.9Z"/><path class="cls-1" d="M261.9,98.4V86h-2.8V84.7h7.3V86h-2.9V98.4Z"/><path class="cls-1" d="M278.2,98.4h-1.7L280,84.7h1.5L285,98.4h-1.7l-1-4h-3.1Zm2.6-10h-.1L279.6,93h2.3Z"/><path class="cls-1" d="M294.8,84.7V98.4h-2l-3.6-10.3h-.1V98.4h-1.6V84.7h2l3.6,10.2h.1V84.7Z"/><path class="cls-1" d="M303.9,85.9c1.1,1.1,1.6,3,1.6,5.7S305,96,304,97a4.9,4.9,0,0,1-3.6,1.4h-2.3V84.7h2.3A5,5,0,0,1,303.9,85.9ZM300.4,97a3,3,0,0,0,2.3-1c.7-.7,1-2.1,1-4.4s-.3-3.9-1.1-4.7a2.9,2.9,0,0,0-2.2-.9h-.7V97Z"/><path class="cls-1" d="M322.3,97.4a3.7,3.7,0,0,1-2.4,1,3.4,3.4,0,0,1-2.3-1,7.9,7.9,0,0,1-1.7-5.5c0-2.9.6-5,1.9-6.2a2.8,2.8,0,0,1,2.2-1,2.5,2.5,0,0,1,2.1.8,4.8,4.8,0,0,1,1.4,4H322a5.4,5.4,0,0,0-.9-3.1A1.8,1.8,0,0,0,320,86a1.6,1.6,0,0,0-1.1.5c-1,.9-1.4,2.7-1.4,5.3s.4,3.7,1.2,4.5a1.6,1.6,0,0,0,1.2.6,1.4,1.4,0,0,0,1.2-.6c.5-.4.8-1.5.8-3.2h1.7C323.4,95.2,323,96.6,322.3,97.4Z"/><path class="cls-1" d="M334,91.5c0,2.9-.5,4.9-1.6,6a3,3,0,0,1-2.3.9,3.6,3.6,0,0,1-2.4-.9q-1.5-1.6-1.5-6c0-2.9.5-4.9,1.5-5.9a3.6,3.6,0,0,1,2.4-.9,3,3,0,0,1,2.3.9C333.5,86.6,334,88.6,334,91.5Zm-6.2,0c0,2.7.3,4.3.9,4.9a1.9,1.9,0,0,0,2.8,0c.6-.6.9-2.2.9-4.9s-.3-4.2-.9-4.9a1.9,1.9,0,0,0-2.8,0C328.1,87.3,327.8,88.9,327.8,91.5Z"/><path class="cls-1" d="M342.8,85.9c1.1,1.1,1.6,3,1.6,5.7s-.5,4.4-1.5,5.4a4.9,4.9,0,0,1-3.6,1.4H337V84.7h2.3A5,5,0,0,1,342.8,85.9ZM339.3,97a3,3,0,0,0,2.3-1c.7-.7,1-2.1,1-4.4s-.3-3.9-1.1-4.7a2.9,2.9,0,0,0-2.2-.9h-.7V97Z"/><path class="cls-1" d="M349.3,90.4H354v1.4h-4.7V97h5.5v1.4h-7.2V84.7h6.8V86h-5.1Z"/><rect class="cls-1" x="124.8" y="73.4" width="232.9" height="3.2" transform="translate(482.4 149.9) rotate(180)"/><g id="Capa_2-2" data-name="Capa 2"><g id="Capa_2-2-2" data-name="Capa 2-2"><circle class="cls-1" cx="56.9" cy="57" r="52.2"/><path class="cls-2" d="M57,0a57,57,0,1,0,57,57A57,57,0,0,0,57,0Zm0,109.2A52.2,52.2,0,1,1,109.2,57,52.2,52.2,0,0,1,57,109.2Z"/><polygon class="cls-3" points="60 34.2 60.4 20 26 42.1 26 52.3 59.7 74.3 59.6 60.6 53.6 57 53.6 65.3 32.2 51.5 32.3 44.1 53.6 31.1 53.5 38 60 34.2"/><polygon class="cls-4" points="50.6 41.7 50.6 35.8 35.3 45.2 35.3 50 50.6 60.4 50.6 53.7 40.1 48.1 50.6 41.7"/><polygon class="cls-5" points="53.7 53.4 59.7 57 59.7 48.5 81.4 63.2 81.4 69.7 59.8 83.4 59.8 76.6 53.7 80.7 53.7 94 87.7 71.8 87.7 62.1 53.7 40.1 53.7 53.4"/><polygon class="cls-6" points="62.8 54.5 62.8 60.6 73.8 66.9 62.8 73.5 62.8 78.5 78.3 68.9 78.3 64.3 62.8 54.5"/></g></g></g></g></svg>