<svg xmlns="http://www.w3.org/2000/svg" xmlns:xlink="http://www.w3.org/1999/xlink" viewBox="0 0 123.9 124"><defs><style>.cls-1,.cls-10,.cls-11,.cls-12,.cls-13,.cls-14,.cls-15,.cls-16,.cls-17,.cls-18,.cls-19,.cls-2,.cls-20,.cls-3,.cls-4,.cls-5,.cls-6,.cls-7,.cls-8,.cls-9{stroke:#000;stroke-miterlimit:10;}.cls-1{fill:url(#Degradado_sin_nombre_33);}.cls-2{fill:url(#Degradado_sin_nombre_33-2);}.cls-3{fill:url(#Degradado_sin_nombre_33-3);}.cls-4{fill:url(#Degradado_sin_nombre_33-4);}.cls-5{fill:url(#Degradado_sin_nombre_33-5);}.cls-6{fill:url(#Degradado_sin_nombre_34);}.cls-7{fill:url(#Degradado_sin_nombre_36);}.cls-8{fill:url(#Degradado_sin_nombre_39);}.cls-9{fill:url(#Degradado_sin_nombre_40);}.cls-10{fill:url(#Degradado_sin_nombre_32);}.cls-11{fill:url(#Degradado_sin_nombre_31);}.cls-12{fill:url(#Degradado_sin_nombre_30);}.cls-13{fill:url(#Degradado_sin_nombre_30-2);}.cls-14{fill:url(#Degradado_sin_nombre_30-3);}.cls-15{fill:url(#Degradado_sin_nombre_37);}.cls-16{fill:url(#Degradado_sin_nombre_38);}.cls-17{fill:url(#Degradado_sin_nombre_39-2);}.cls-18{fill:url(#Degradado_sin_nombre_41);}.cls-19{fill:url(#Degradado_sin_nombre_15);}.cls-20{fill:url(#Degradado_sin_nombre_58);}</style><linearGradient id="Degradado_sin_nombre_33" x1="75.78" y1="116.25" x2="72.23" y2="93.61" gradientUnits="userSpaceOnUse"><stop offset="0.16" stop-color="#ebbc49"/><stop offset="0.31" stop-color="#f2f2f0"/><stop offset="0.7" stop-color="#77592c"/><stop offset="0.86" stop-color="#9e7126"/><stop offset="0.97" stop-color="#efab11"/></linearGradient><linearGradient id="Degradado_sin_nombre_33-2" x1="92.95" y1="107.75" x2="71.58" y2="90.78" xlink:href="#Degradado_sin_nombre_33"/><linearGradient id="Degradado_sin_nombre_33-3" x1="103.74" y1="96" x2="85.18" y2="81.33" xlink:href="#Degradado_sin_nombre_33"/><linearGradient id="Degradado_sin_nombre_33-4" x1="110.98" y1="87.71" x2="89.59" y2="66.58" xlink:href="#Degradado_sin_nombre_33"/><linearGradient id="Degradado_sin_nombre_33-5" x1="118.93" y1="73.85" x2="94.12" y2="57.07" xlink:href="#Degradado_sin_nombre_33"/><linearGradient id="Degradado_sin_nombre_34" x1="114.65" y1="54.83" x2="91.68" y2="45.87" gradientUnits="userSpaceOnUse"><stop offset="0" stop-color="#ebbc49"/><stop offset="0.15" stop-color="#f2f2f0"/><stop offset="0.41" stop-color="#77592c"/><stop offset="0.61" stop-color="#9e7126"/><stop offset="0.97" stop-color="#efab11"/></linearGradient><linearGradient id="Degradado_sin_nombre_36" x1="113.85" y1="43.8" x2="92.35" y2="31.66" gradientUnits="userSpaceOnUse"><stop offset="0.01" stop-color="#ebbc49"/><stop offset="0.15" stop-color="#f2f2f0"/><stop offset="0.41" stop-color="#77592c"/><stop offset="0.61" stop-color="#9e7126"/><stop offset="0.97" stop-color="#efab11"/></linearGradient><linearGradient id="Degradado_sin_nombre_39" x1="107.89" y1="24.48" x2="96.97" y2="25.85" gradientUnits="userSpaceOnUse"><stop offset="0.02" stop-color="#ebbc49"/><stop offset="0.17" stop-color="#d3d3c9"/><stop offset="0.45" stop-color="#77592c"/><stop offset="0.73" stop-color="#9e7126"/><stop offset="0.97" stop-color="#efab11"/></linearGradient><linearGradient id="Degradado_sin_nombre_40" x1="79.83" y1="7.4" x2="96.47" y2="22.92" gradientUnits="userSpaceOnUse"><stop offset="0.02" stop-color="#ebbc49"/><stop offset="0.32" stop-color="#d3a679"/><stop offset="0.57" stop-color="#77592c"/><stop offset="0.73" stop-color="#9e7126"/><stop offset="0.97" stop-color="#efab11"/></linearGradient><linearGradient id="Degradado_sin_nombre_32" x1="50.33" y1="119.35" x2="54.99" y2="96.33" gradientUnits="userSpaceOnUse"><stop offset="0.11" stop-color="#ebbc49"/><stop offset="0.44" stop-color="#f2f2f0"/><stop offset="0.87" stop-color="#77592c"/><stop offset="0.89" stop-color="#9e7126"/><stop offset="1" stop-color="#efab11"/></linearGradient><linearGradient id="Degradado_sin_nombre_31" x1="27.15" y1="113.04" x2="48.97" y2="95.54" gradientUnits="userSpaceOnUse"><stop offset="0.19" stop-color="#ebbc49"/><stop offset="0.5" stop-color="#f2f2f0"/><stop offset="0.76" stop-color="#77592c"/><stop offset="0.89" stop-color="#9e7126"/><stop offset="1" stop-color="#efab11"/></linearGradient><linearGradient id="Degradado_sin_nombre_30" x1="14.69" y1="98.76" x2="35.89" y2="87.15" gradientUnits="userSpaceOnUse"><stop offset="0.22" stop-color="#ebbc49"/><stop offset="0.46" stop-color="#f2f2f0"/><stop offset="0.7" stop-color="#77592c"/><stop offset="0.86" stop-color="#9e7126"/><stop offset="0.97" stop-color="#efab11"/></linearGradient><linearGradient id="Degradado_sin_nombre_30-2" x1="4.23" y1="79.69" x2="35.05" y2="79.69" xlink:href="#Degradado_sin_nombre_30"/><linearGradient id="Degradado_sin_nombre_30-3" x1="-1.29" y1="70.99" x2="28.64" y2="64.15" xlink:href="#Degradado_sin_nombre_30"/><linearGradient id="Degradado_sin_nombre_37" x1="3.65" y1="55.85" x2="28.21" y2="49.81" gradientUnits="userSpaceOnUse"><stop offset="0.06" stop-color="#ebbc49"/><stop offset="0.34" stop-color="#f2f2f0"/><stop offset="0.7" stop-color="#77592c"/><stop offset="0.86" stop-color="#9e7126"/><stop offset="0.97" stop-color="#efab11"/></linearGradient><linearGradient id="Degradado_sin_nombre_38" x1="10.28" y1="45.36" x2="31.06" y2="30.11" gradientUnits="userSpaceOnUse"><stop offset="0.06" stop-color="#ebbc49"/><stop offset="0.21" stop-color="#f2f2f0"/><stop offset="0.4" stop-color="#77592c"/><stop offset="0.61" stop-color="#9e7126"/><stop offset="0.97" stop-color="#efab11"/></linearGradient><linearGradient id="Degradado_sin_nombre_39-2" x1="15.19" y1="24.32" x2="28.15" y2="25.93" xlink:href="#Degradado_sin_nombre_39"/><linearGradient id="Degradado_sin_nombre_41" x1="44.2" y1="7.16" x2="28" y2="23.87" gradientUnits="userSpaceOnUse"><stop offset="0.02" stop-color="#ebbc49"/><stop offset="0.26" stop-color="#d3a679"/><stop offset="0.44" stop-color="#77592c"/><stop offset="0.62" stop-color="#9e7126"/><stop offset="0.97" stop-color="#efab11"/></linearGradient><linearGradient id="Degradado_sin_nombre_15" x1="62.38" y1="15.96" x2="62.38" y2="107.16" gradientUnits="userSpaceOnUse"><stop offset="0" stop-color="#b58d28"/><stop offset="0.29" stop-color="#f2f2f0"/><stop offset="0.53" stop-color="#77592c"/><stop offset="0.64" stop-color="#9e7126"/><stop offset="1" stop-color="#efab11"/></linearGradient><linearGradient id="Degradado_sin_nombre_58" x1="29.9" y1="58.22" x2="96.16" y2="58.22" gradientUnits="userSpaceOnUse"><stop offset="0.02" stop-color="#634193"/><stop offset="0.27" stop-color="#8f3f8f"/><stop offset="0.45" stop-color="#b16fab"/><stop offset="0.65" stop-color="#8f3f8f"/><stop offset="0.97" stop-color="#944393"/></linearGradient></defs><title>medal_question</title><g id="Capa_2" data-name="Capa 2"><g id="medal_question"><path class="cls-1" d="M68.4,102.4s1.1,2.6,7.8,5,16.5,8,6.3,14.7c0,0,2.5-4.5.5-6.4s-13.3.6-14.1-7.6l.3,2.8s3.1,5-1.2,5.6-4.7-5.4-3.3-7.5a10,10,0,0,0,1.4-6.3Z"/><path class="cls-2" d="M78.3,99.5s2,1.4,1.1,6.2,7,4.6,7,4.6,2.1-4.1-3.1-7.5l2.3,1.4s1.9,4.8,7.1.7,5.2,5.1,6.6,5.9,5.4-.2,6.3,4.5c0,0,.8-3.8-4.1-6.2,0,0-1.2-1.4-1-4.9s-8.9-6.8-14.7-5.7c0,0-1.8-.7-.2-3.9A59,59,0,0,1,78.3,99.5Z"/><path class="cls-3" d="M87.6,91.8s3.6-1,5.2,5.4c0,0,.9,3.5,6.3,2.2,0,0,2.4-2.1-3.3-4.6,0,0,3.3,3,8.1-.9s6.1-2.3,7,2.7c0,0,2.1-6.1-3.9-7.9s-13.3,1.8-14.1.9a39.5,39.5,0,0,0-3.5-2.9Z"/><path class="cls-4" d="M89.7,85.6s3.2-3.8,7.3-2.8,6,5.4,8,5,4.2-1.4,1.3-3.9l-2.4-1.3s5.1,2.2,6.5-2.2,7.6-3.9,9.4-.2c0,0,.1-9-10.6-4.5s-8.3,4.9-13.3,4.9c0,0,.8-4.2-2.9-9C93,71.6,90.8,83.9,89.7,85.6Z"/><path class="cls-5" d="M93.1,69.8s5.6,10.1,7.5,3.5c0,0,2.8-4.2,8.3-.9,0,0,5.6,1.8,5.6-1.7s-4.6-.9-4.6-.9,5.3-2,5.2-4.9,6.3-6.2,8-3.1c0,0-2.3-5.2-8.4-1.9s-6.4,9.3-13.7,10.4c0,0,3.1-6.3-5.8-9.6L95,57.2,94.1,63s5.5-1.5,3.9,4,.7,4.6.7,4.6-2.7,1.3-5.4-3.4Z"/><path class="cls-6" d="M96.2,50.6s.7,4.9,5.5,5.3c0,0-3.8,1.8.4,4.4,0,0-5-4.4-4.2,0s9.9,7,7.3,1.6c0,0-1.3-3.6,6.3-3.7s4.8-4.9,4.8-4.9-.8-2.2-4.5,2.1l1.6-2.2a10.5,10.5,0,0,0,1.4-6.1c-.3-3.5,6-4.5,6-4.5s-7.9-1.4-10,6.7-6.7,9.3-6.7,9.3a5.1,5.1,0,0,0-.2-4.1c-1.2-2-4.8,1.6-7.4-5.2Z"/><path class="cls-7" d="M98.1,43.6s2.6.3,2.3,3.5,3.2,2.6,3.2,2.6-1.6,1.4-5.5-2.2c0,0-.2,3.9,2.4,3.9s5.8-1.1,6.2,3.7c0,0,.8-1.9-.7-5.8s1.5-5.2,5.7-6.7,1.2-5.5-.7-4.3a4.9,4.9,0,0,0-2.3,3.2l.9-2.6a5.4,5.4,0,0,0-.7-4.1c-1.3-1.9.1-5.8,2.9-7.6a8.4,8.4,0,0,0-6.7,9c.3,7.8-.8,9.8-.8,9.8s-1.2-3.8-3.9-3.6a2.1,2.1,0,0,1-1-2.7s4.7-.5,4.6,2.5c0,0-.3-5.3-3.5-5.6A38.6,38.6,0,0,0,98.1,43.6Z"/><path class="cls-8" d="M101,35.4s2,1,2.6-2.9a7.6,7.6,0,0,1,3.2-5.3s-1.4-4.6-3.9-1.4c0,0,.3-3.1-3.3-3.6,0,0-2.6-1.1,1-3.3,0,0,1.8-1,.9-3.9a3.1,3.1,0,0,1-3.4,3.2c-3.5-.1-1.9,7.1-1.9,7.1s5,3.5,7.2,3.8Z"/><path class="cls-9" d="M93.4,22.4s.3-2.6,1.4-3.2,2.9-5.5-2.2-5.1a3,3,0,0,1-.6,4.7s1.2-3.8-1.5-4.7S88,8.6,88,8.6s-2.3.1-3,3.7c0,0,.4-6.2-2.6-5.5s-1.4,2-1.4,2,2,1.6.7,2.8a3.9,3.9,0,0,0-3.9-3.7c-3.8-.1-3.9-5.8-3.9-5.8a7.5,7.5,0,0,0,3.2,9.6s4.2,1.6,3.3,2.6l5.1-.6A35.1,35.1,0,0,0,93.4,22.4Z"/><path class="cls-10" d="M58.5,102.8s-1.1,2.6-8,4.9-16.9,8.1-6.4,14.8c0,0-2.6-4.5-.6-6.5s13.7.6,14.6-7.5l-.4,2.8s-3.1,5,1.2,5.6,4.8-5.4,3.4-7.6a9.9,9.9,0,0,1-1.4-6.3Z"/><path class="cls-11" d="M48.6,99.5s-2.1,1.4-1,6.2-7.3,4.6-7.3,4.6-2.1-4.1,3.2-7.5l-2.3,1.4s-2,4.8-7.3.7-5.3,5.1-6.8,5.9-5.5-.2-6.4,4.5c0,0-.8-3.8,4.1-6.2,0,0,1.4-1.4,1-4.9S35,97.4,41,98.5c0,0,1.8-.7.2-3.9A63.7,63.7,0,0,0,48.6,99.5Z"/><path class="cls-12" d="M37.2,91.8s-3.7-1-5.3,5.4c0,0-1,3.5-6.5,2.2,0,0-2.5-2.1,3.4-4.6,0,0-3.4,3-8.3-.9s-6.2-2.3-7.1,2.7c0,0-2.2-6.1,3.9-7.9s13.7,1.8,14.5.9a37.7,37.7,0,0,1,3.6-2.9Z"/><path class="cls-13" d="M35,85.6s-3.2-3.8-7.4-2.8-6.2,5.4-8.3,5-4.2-1.4-1.2-3.9l2.4-1.3s-5.2,2.2-6.7-2.2-7.7-3.9-9.6-.2c0,0-.1-9,10.9-4.5s8.5,4.9,13.6,4.9c0,0-.8-4.2,2.9-9C31.6,71.6,33.9,83.9,35,85.6Z"/><path class="cls-14" d="M31.5,69.8s-5.7,10.1-7.6,3.5c0,0-2.9-4.2-8.5-.9,0,0-5.8,1.8-5.8-1.7s4.7-.9,4.7-.9-5.4-2-5.3-4.9S2.6,58.7.8,61.8c0,0,2.3-5.2,8.6-1.9S16,69.2,23.5,70.3c0,0-3.2-6.3,5.9-9.6l.2-3.5.9,5.8s-5.6-1.5-4,4-.7,4.6-.7,4.6,2.8,1.3,5.6-3.4Z"/><path class="cls-15" d="M28.4,50.6s-.8,4.9-5.6,5.3c0,0,3.9,1.8-.4,4.4,0,0,5-4.4,4.3,0s-10.2,7-7.6,1.6c0,0,1.4-3.6-6.3-3.7s-5-4.9-5-4.9.8-2.2,4.6,2.1l-1.7-2.2a10.5,10.5,0,0,1-1.4-6.1c.3-3.5-6.2-4.5-6.2-4.5s8.2-1.4,10.4,6.7,6.8,9.3,6.8,9.3a5.1,5.1,0,0,1,.2-4.1c1.2-2,4.9,1.6,7.6-5.2Z"/><path class="cls-16" d="M26.5,43.6a2.8,2.8,0,0,0-2.4,3.5c.3,3.2-3.3,2.6-3.3,2.6s1.6,1.4,5.7-2.2c0,0,.1,3.9-2.6,3.9s-5.9-1.1-6.2,3.7c0,0-.9-1.9.7-5.8s-1.6-5.2-5.9-6.7-1.3-5.5.8-4.3a4.9,4.9,0,0,1,2.3,3.2l-1-2.6a5.1,5.1,0,0,1,.8-4.1c1.3-1.9-.1-5.8-3-7.6a8.5,8.5,0,0,1,6.9,9c-.4,7.8.8,9.8.8,9.8s1.2-3.8,4-3.6a2.1,2.1,0,0,0,1-2.7s-4.8-.5-4.7,2.5c0,0,.3-5.3,3.5-5.6A33.9,33.9,0,0,1,26.5,43.6Z"/><path class="cls-17" d="M23.5,35.4s-2.1,1-2.7-2.9a7.5,7.5,0,0,0-3.3-5.3s1.4-4.6,4-1.4c0,0-.3-3.1,3.4-3.6,0,0,2.6-1.1-1.1-3.3,0,0-1.7-1-.9-3.9a3.2,3.2,0,0,0,3.6,3.2c3.5-.1,1.9,7.1,1.9,7.1s-5.1,3.5-7.4,3.8Z"/><path class="cls-18" d="M31.7,23.5S31,19.6,29.9,19s-3.8-5.3,1.5-4.9a2.9,2.9,0,0,0,.6,4.7s-1.2-3.8,1.6-4.7,2.6-5.5,2.6-5.5,2.4.1,3.1,3.7c0,0-.4-6.2,2.7-5.5s1.5,2,1.5,2-2.1,1.6-.7,2.8a3.8,3.8,0,0,1,4-3.7c3.9-.1,4-5.8,4-5.8s3,5.8-3.3,9.6c0,0-4.3,1.6-3.5,2.6l-5.2-.6A28.6,28.6,0,0,1,31.7,23.5Z"/><path class="cls-19" d="M85.5,13.7c-17.3,2.4-33.1,2.8-46.3,0C35,21.6,29.1,27,21.2,29.3c3.7,7.8,6.8,15.4,7.7,22.2,1.5,12,4,35,9,39.9,8.4,7.5,16.7,11.6,25.4,11.4s15.2-2.6,22.9-8.8c4.6-5.6,7.6-29.8,9.6-41.6,1.4-7.2,4.2-15,7.8-23.2A39.6,39.6,0,0,1,85.5,13.7Zm3.2,39.6c-1.5,10-4,30.4-7.5,35.2-6.1,5.2-11.9,7.4-18.1,7.4s-13.4-3.3-20-9.6c-4-4.2-5.9-23.6-7.1-33.8-.7-5.7-3.1-13.3-6.1-19.9,6.3-2,10.9-5.3,14.2-12,10.4,2.4,24.3,2,38,0A29.5,29.5,0,0,0,96.2,33.1C93.3,40,89.8,47.2,88.7,53.3Z"/><path class="cls-20" d="M82.1,20.6c-13.7,2-27.6,2.4-38,0-3.3,6.7-7.9,10-14.2,12,3,6.6,5.4,14.2,6.1,19.9,1.2,10.2,3.1,29.6,7.1,33.8,6.6,6.3,13.1,9.7,20,9.6s12-2.2,18.1-7.4c3.5-4.8,6-25.2,7.5-35.2,1.1-6.1,4.6-13.3,7.5-20.2A29.5,29.5,0,0,1,82.1,20.6Zm-20.2,64a5.7,5.7,0,0,1-5.8-5.7,5.8,5.8,0,0,1,11.5,0A5.7,5.7,0,0,1,61.9,84.6Zm3.8-23.2s-1.8,3-.8,8.4H57.1S55.5,62,59.4,56.3s9.2-10.6,7.1-15.8-10.9-2.9-14-.3L50,33.9s16.6-10.7,24,2.4S67.9,54,65.7,61.4Z"/></g></g></svg>