<svg xmlns="http://www.w3.org/2000/svg" xmlns:xlink="http://www.w3.org/1999/xlink" viewBox="0 0 436.7 148.7"><defs><style>.cls-1{fill:url(#Degradado_sin_nombre_274);}.cls-2{fill:url(#Degradado_sin_nombre_274-2);}.cls-3{fill:url(#Degradado_sin_nombre_146);}.cls-4,.cls-5,.cls-6{opacity:0.8;}.cls-4{fill:url(#Degradado_sin_nombre_282);}.cls-5{fill:url(#Degradado_sin_nombre_300);}.cls-6{fill:url(#Degradado_sin_nombre_296);}.cls-7{fill:#fff;}</style><linearGradient id="Degradado_sin_nombre_274" x1="365.01" y1="85.08" x2="425.05" y2="152.01" gradientUnits="userSpaceOnUse"><stop offset="0.02" stop-color="#5f1317"/><stop offset="0.32" stop-color="#5c1b0d"/><stop offset="0.56" stop-color="#732410"/><stop offset="0.59" stop-color="#762510"/><stop offset="0.88" stop-color="#7c2511"/></linearGradient><linearGradient id="Degradado_sin_nombre_274-2" x1="78.53" y1="85.32" x2="3" y2="136.42" xlink:href="#Degradado_sin_nombre_274"/><radialGradient id="Degradado_sin_nombre_146" cx="217.81" cy="48.86" fx="241.31022772648018" fy="162.49267763247843" r="233.83" gradientUnits="userSpaceOnUse"><stop offset="0.02" stop-color="#e95f1f" stop-opacity="0.58"/><stop offset="0.11" stop-color="#e2581f" stop-opacity="0.65"/><stop offset="0.26" stop-color="#d0471e" stop-opacity="0.85"/><stop offset="0.35" stop-color="#c2391d"/><stop offset="0.55" stop-color="#d65017"/><stop offset="0.58" stop-color="#d34e17" stop-opacity="0.97"/><stop offset="0.63" stop-color="#ca4717" stop-opacity="0.91"/><stop offset="0.7" stop-color="#bb3d17" stop-opacity="0.79"/><stop offset="0.77" stop-color="#a62f17" stop-opacity="0.63"/><stop offset="0.79" stop-color="#9f2a17" stop-opacity="0.58"/><stop offset="1" stop-color="#73160e" stop-opacity="0.58"/></radialGradient><linearGradient id="Degradado_sin_nombre_282" x1="25.22" y1="48.86" x2="427.9" y2="48.86" gradientUnits="userSpaceOnUse"><stop offset="0" stop-color="#f5a577"/><stop offset="0.01" stop-color="#ed9b70"/><stop offset="0.02" stop-color="#d87f5c"/><stop offset="0.04" stop-color="#b5533c"/><stop offset="0.05" stop-color="#881a13"/><stop offset="0.09" stop-color="#7c1911"/><stop offset="0.1" stop-color="#74190f"/><stop offset="0.13" stop-color="#851e12"/><stop offset="0.17" stop-color="#9f2616"/><stop offset="0.2" stop-color="#9c2616"/><stop offset="0.24" stop-color="#ae2b17"/><stop offset="0.33" stop-color="#e94730"/><stop offset="0.42" stop-color="#ef7a34"/><stop offset="0.5" stop-color="#f49d71"/><stop offset="0.57" stop-color="#ed6d2f"/><stop offset="0.66" stop-color="#ed6a2f"/><stop offset="0.77" stop-color="#c02e18"/><stop offset="0.85" stop-color="#861811"/><stop offset="0.9" stop-color="#761611"/><stop offset="1" stop-color="#fff"/></linearGradient><linearGradient id="Degradado_sin_nombre_300" x1="73.4" y1="74.31" x2="59.31" y2="101.27" gradientUnits="userSpaceOnUse"><stop offset="0.21" stop-color="#7a1912"/><stop offset="0.25" stop-color="#9b322d"/><stop offset="0.3" stop-color="#be4c49"/><stop offset="0.34" stop-color="#d75f5d"/><stop offset="0.38" stop-color="#e66a69"/><stop offset="0.42" stop-color="#eb6e6d"/></linearGradient><linearGradient id="Degradado_sin_nombre_296" x1="363.16" y1="76.45" x2="369.59" y2="88.69" gradientUnits="userSpaceOnUse"><stop offset="0.36" stop-color="#7a1912"/><stop offset="0.41" stop-color="#99302b" stop-opacity="0.94"/><stop offset="0.51" stop-color="#c5524f" stop-opacity="0.87"/><stop offset="0.59" stop-color="#e06764" stop-opacity="0.82"/><stop offset="0.65" stop-color="#e96e6c" stop-opacity="0.8"/></linearGradient></defs><title>medal_headband_proactive</title><g id="Capa_2" data-name="Capa 2"><g id="medal_headband_proactive"><path class="cls-1" d="M436.7,126.2s-7-7.2-8.7-11.9-8.5-8.3-19-11.6-22-12-26.1-19.7c0,0,3.2,0,2.5-6.4l7.7-6.8a1,1,0,0,1,.1-.4L342.9,97.7h.3l-1.9,1.7s8.1,25.9,39,38.8c0,0,19.4,8.7,28.5,10.4,0,0-1.1-17.9-10.3-25.9C398.5,122.8,418.6,118,436.7,126.2Z"/><path class="cls-2" d="M43.9,69.8,55.8,80s-8,15-19.6,20.6S3.5,107,0,127.4c0,0,19.1-12.9,38.7-6.2,0,0-9.8,11.1-12.3,25.4,0,0,46.4-2.6,67.4-45.1a5.2,5.2,0,0,0-.1-4.2Z"/><path class="cls-3" d="M393.2,69.3C394.1,23.1,257.3.5,229.9.6,135.4-5.4,41,36.1,42.5,68.5,45.4,71.4,91,95.3,93.6,97.2c-.1-.1-.1-.2-.3-.3s118.5-45,249.5.8Z"/><path class="cls-4" d="M393.2,69.3C394.1,23.1,257.3.5,229.9.6,135.4-5.4,41,36.1,42.5,68.5,45.4,71.4,91,95.3,93.6,97.2c-.1-.1-.1-.2-.3-.3s118.5-45,249.5.8Z"/><path class="cls-5" d="M98.3,95.2,42.8,64.5a13.8,13.8,0,0,0-.3,4C45.4,71.4,91,95.3,93.6,97.2c-.1-.1-.1-.2-.3-.3Z"/><path class="cls-6" d="M337.7,96l5.1,1.7,50.4-28.4a29.7,29.7,0,0,0-.3-4.2Z"/><path class="cls-7" d="M115.8,38.6l7.2-1.9a21,21,0,0,1,4.6-.8,5.5,5.5,0,0,1,2.8.8,4.7,4.7,0,0,1,1.6,1.8,20.9,20.9,0,0,1,1.3,3.7l.6,2.4a10.4,10.4,0,0,1,.4,4,3.5,3.5,0,0,1-1.5,2.4,8.6,8.6,0,0,1-3.6,1.6l-1.9.5,2.9,11.1L123,66.1Zm8.4,2.8,1.8,7h.6a1.9,1.9,0,0,0,1.2-.9,3.9,3.9,0,0,0-.1-2.1l-.6-2.2a3.6,3.6,0,0,0-.9-1.8A2.8,2.8,0,0,0,124.2,41.4Z"/><path class="cls-7" d="M142,32.2l5.2-1a35.1,35.1,0,0,1,7-.8,4.6,4.6,0,0,1,3.4,1.5c.9.9,1.6,2.6,2.1,5s.4,3.7,0,4.5a4.6,4.6,0,0,1-3,1.9,5.8,5.8,0,0,1,3.2.9,4.9,4.9,0,0,1,1.2,1.5,31.5,31.5,0,0,1,.9,4.1l1.3,7.4-6.7,1.2-1.7-9.3a6.6,6.6,0,0,0-.9-2.7c-.3-.3-.9-.4-1.9-.2l2.3,12.6-7.3,1.4Zm8.2,3.4,1.1,6.3a3.9,3.9,0,0,0,1.7-.7c.3-.3.3-1,.1-2.3l-.3-1.5c-.2-.9-.4-1.5-.8-1.7A3.3,3.3,0,0,0,150.2,35.6Z"/><path class="cls-7" d="M188.5,42.4c.3,2.9.4,4.9.4,6.1a6.9,6.9,0,0,1-.9,3.4,6.6,6.6,0,0,1-2.7,2.5,9.9,9.9,0,0,1-4.1,1.2,9.2,9.2,0,0,1-4.1-.3,7.4,7.4,0,0,1-3.2-1.9,6.6,6.6,0,0,1-1.6-3.1,49,49,0,0,1-.9-6.1l-.5-4.9a60,60,0,0,1-.4-6,6.7,6.7,0,0,1,.9-3.4,6.8,6.8,0,0,1,2.7-2.6,11.7,11.7,0,0,1,4.1-1.2,13.4,13.4,0,0,1,4.1.3,7.6,7.6,0,0,1,3.2,2,6.2,6.2,0,0,1,1.6,3.1,46,46,0,0,1,.9,6.1Zm-8.3-8.5a10.2,10.2,0,0,0-.5-2.5c-.2-.4-.5-.5-1-.5a.9.9,0,0,0-.8.5,6.8,6.8,0,0,0-.1,2.7l1.4,13.2a14.4,14.4,0,0,0,.5,3.1.9.9,0,0,0,1,.4.9.9,0,0,0,.9-.7,12.1,12.1,0,0,0-.1-3.2Z"/><path class="cls-7" d="M211.1,24.7,216.2,53l-7.6.3-.5-5.1h-2.7l-.3,5.2-7.6.2L200.4,25Zm-3.4,18.4c-.5-3.2-1-7.2-1.5-11.9-.6,5.5-.9,9.5-1,12Z"/><path class="cls-7" d="M242.1,37.7l-7.4-.3.2-4.9a7.6,7.6,0,0,0-.2-2.7.9.9,0,0,0-1-.6,1.2,1.2,0,0,0-1.2.6,8.1,8.1,0,0,0-.3,2.8l-.6,13.2a8.3,8.3,0,0,0,.2,2.7,1,1,0,0,0,1.1.7,1.1,1.1,0,0,0,1.1-.6,8.8,8.8,0,0,0,.3-3l.2-3.5,7.4.2v1.2a24.4,24.4,0,0,1-.8,6.2,6.6,6.6,0,0,1-2.9,3.1,9.1,9.1,0,0,1-5.3,1.2,10.1,10.1,0,0,1-5.3-1.4,5.5,5.5,0,0,1-2.7-3.3,19,19,0,0,1-.4-6.3l.3-8.3a35.4,35.4,0,0,1,.4-4.6,6.1,6.1,0,0,1,1.3-3,8.1,8.1,0,0,1,3-2.1,10,10,0,0,1,4.3-.6,10.8,10.8,0,0,1,5.4,1.4,6.3,6.3,0,0,1,2.6,3.3,18.5,18.5,0,0,1,.5,5.9Z"/><path class="cls-7" d="M268.8,27.8l-.7,5.7-4.3-.5-2.5,22.6-7.4-.8,2.5-22.6-4.3-.5.6-5.6Z"/><path class="cls-7" d="M286.1,30.6l-4.8,28-7.2-1.2,4.7-28Z"/><path class="cls-7" d="M314.6,36.8,304.4,63.6,293.5,61l2.4-28.6,7.5,1.7c-.9,7.9-1.8,14.5-2.6,19.9,1.6-5.3,3.1-9.9,4.5-14l1.7-5Z"/><path class="cls-7" d="M335.4,60.7c-.9,2.7-1.5,4.6-2,5.7a6.7,6.7,0,0,1-2.3,2.7,6.3,6.3,0,0,1-3.4,1.2,9,9,0,0,1-4.2-.5,10.1,10.1,0,0,1-3.7-2,6.3,6.3,0,0,1-2.1-3,7.1,7.1,0,0,1-.3-3.5c.3-1.2.8-3.1,1.7-5.9l1.5-4.7q1.3-4.1,2.1-5.7a6.4,6.4,0,0,1,2.2-2.7,7.7,7.7,0,0,1,3.5-1.3,10.7,10.7,0,0,1,4.2.6,10.1,10.1,0,0,1,3.7,2,6.3,6.3,0,0,1,2.1,3,6,6,0,0,1,.2,3.5,52.3,52.3,0,0,1-1.7,5.9Zm-4.1-11.2a6.4,6.4,0,0,0,.5-2.5.8.8,0,0,0-.6-.8,1.1,1.1,0,0,0-1,.1,6.6,6.6,0,0,0-1.1,2.5L325,61.4a16.7,16.7,0,0,0-.8,3,.8.8,0,0,0,.7.8.9.9,0,0,0,1.2-.3,23.8,23.8,0,0,0,1.1-3Z"/></g></g></svg>