<svg xmlns="http://www.w3.org/2000/svg" xmlns:xlink="http://www.w3.org/1999/xlink" viewBox="0 0 436.7 148.7"><defs><style>.cls-1{fill:url(#Degradado_sin_nombre_274);}.cls-2{fill:url(#Degradado_sin_nombre_274-2);}.cls-3{fill:url(#Degradado_sin_nombre_146);}.cls-4,.cls-5,.cls-6{opacity:0.8;}.cls-4{fill:url(#Degradado_sin_nombre_282);}.cls-5{fill:url(#Degradado_sin_nombre_300);}.cls-6{fill:url(#Degradado_sin_nombre_296);}.cls-7{fill:#fff;}</style><linearGradient id="Degradado_sin_nombre_274" x1="365.01" y1="85.08" x2="425.05" y2="152.01" gradientUnits="userSpaceOnUse"><stop offset="0.02" stop-color="#5f1317"/><stop offset="0.32" stop-color="#5c1b0d"/><stop offset="0.56" stop-color="#732410"/><stop offset="0.59" stop-color="#762510"/><stop offset="0.88" stop-color="#7c2511"/></linearGradient><linearGradient id="Degradado_sin_nombre_274-2" x1="78.53" y1="85.32" x2="3" y2="136.42" xlink:href="#Degradado_sin_nombre_274"/><radialGradient id="Degradado_sin_nombre_146" cx="217.81" cy="48.86" fx="241.31022772648018" fy="162.49267763247843" r="233.83" gradientUnits="userSpaceOnUse"><stop offset="0.02" stop-color="#e95f1f" stop-opacity="0.58"/><stop offset="0.11" stop-color="#e2581f" stop-opacity="0.65"/><stop offset="0.26" stop-color="#d0471e" stop-opacity="0.85"/><stop offset="0.35" stop-color="#c2391d"/><stop offset="0.55" stop-color="#d65017"/><stop offset="0.58" stop-color="#d34e17" stop-opacity="0.97"/><stop offset="0.63" stop-color="#ca4717" stop-opacity="0.91"/><stop offset="0.7" stop-color="#bb3d17" stop-opacity="0.79"/><stop offset="0.77" stop-color="#a62f17" stop-opacity="0.63"/><stop offset="0.79" stop-color="#9f2a17" stop-opacity="0.58"/><stop offset="1" stop-color="#73160e" stop-opacity="0.58"/></radialGradient><linearGradient id="Degradado_sin_nombre_282" x1="25.22" y1="48.86" x2="427.9" y2="48.86" gradientUnits="userSpaceOnUse"><stop offset="0" stop-color="#f5a577"/><stop offset="0.01" stop-color="#ed9b70"/><stop offset="0.02" stop-color="#d87f5c"/><stop offset="0.04" stop-color="#b5533c"/><stop offset="0.05" stop-color="#881a13"/><stop offset="0.09" stop-color="#7c1911"/><stop offset="0.1" stop-color="#74190f"/><stop offset="0.13" stop-color="#851e12"/><stop offset="0.17" stop-color="#9f2616"/><stop offset="0.2" stop-color="#9c2616"/><stop offset="0.24" stop-color="#ae2b17"/><stop offset="0.33" stop-color="#e94730"/><stop offset="0.42" stop-color="#ef7a34"/><stop offset="0.5" stop-color="#f49d71"/><stop offset="0.57" stop-color="#ed6d2f"/><stop offset="0.66" stop-color="#ed6a2f"/><stop offset="0.77" stop-color="#c02e18"/><stop offset="0.85" stop-color="#861811"/><stop offset="0.9" stop-color="#761611"/><stop offset="1" stop-color="#fff"/></linearGradient><linearGradient id="Degradado_sin_nombre_300" x1="73.4" y1="74.31" x2="59.31" y2="101.27" gradientUnits="userSpaceOnUse"><stop offset="0.21" stop-color="#7a1912"/><stop offset="0.25" stop-color="#9b322d"/><stop offset="0.3" stop-color="#be4c49"/><stop offset="0.34" stop-color="#d75f5d"/><stop offset="0.38" stop-color="#e66a69"/><stop offset="0.42" stop-color="#eb6e6d"/></linearGradient><linearGradient id="Degradado_sin_nombre_296" x1="363.16" y1="76.45" x2="369.59" y2="88.69" gradientUnits="userSpaceOnUse"><stop offset="0.36" stop-color="#7a1912"/><stop offset="0.41" stop-color="#99302b" stop-opacity="0.94"/><stop offset="0.51" stop-color="#c5524f" stop-opacity="0.87"/><stop offset="0.59" stop-color="#e06764" stop-opacity="0.82"/><stop offset="0.65" stop-color="#e96e6c" stop-opacity="0.8"/></linearGradient></defs><title>medal_headband_dynamic</title><g id="Capa_2" data-name="Capa 2"><g id="medal_headband_dynamic"><path class="cls-1" d="M436.7,126.2s-7-7.2-8.7-11.9-8.5-8.3-19-11.6-22-12-26.1-19.7c0,0,3.2,0,2.5-6.4l7.7-6.8a1,1,0,0,1,.1-.4L342.9,97.7h.3l-1.9,1.7s8.1,25.9,39,38.8c0,0,19.4,8.7,28.5,10.4,0,0-1.1-17.9-10.3-25.9C398.5,122.8,418.6,118,436.7,126.2Z"/><path class="cls-2" d="M43.9,69.8,55.8,80s-8,15-19.6,20.6S3.5,107,0,127.4c0,0,19.1-12.9,38.7-6.2,0,0-9.8,11.1-12.3,25.4,0,0,46.4-2.6,67.4-45.1a5.2,5.2,0,0,0-.1-4.2Z"/><path class="cls-3" d="M393.2,69.3C394.1,23.1,257.3.5,229.9.6,135.4-5.4,41,36.1,42.5,68.5,45.4,71.4,91,95.3,93.6,97.2c-.1-.1-.1-.2-.3-.3s118.5-45,249.5.8Z"/><path class="cls-4" d="M393.2,69.3C394.1,23.1,257.3.5,229.9.6,135.4-5.4,41,36.1,42.5,68.5,45.4,71.4,91,95.3,93.6,97.2c-.1-.1-.1-.2-.3-.3s118.5-45,249.5.8Z"/><path class="cls-5" d="M98.3,95.2,42.8,64.5a13.8,13.8,0,0,0-.3,4C45.4,71.4,91,95.3,93.6,97.2c-.1-.1-.1-.2-.3-.3Z"/><path class="cls-6" d="M337.7,96l5.1,1.7,50.4-28.4a29.7,29.7,0,0,0-.3-4.2Z"/><path class="cls-7" d="M126.5,35.7l5.4-1.2a37.4,37.4,0,0,1,7.1-1.2,6.1,6.1,0,0,1,3.2,1,5.5,5.5,0,0,1,1.8,2.2,50.8,50.8,0,0,1,1.4,5.2l2.2,9.7a34.1,34.1,0,0,1,.8,5.1,3.9,3.9,0,0,1-.8,2.2,4.4,4.4,0,0,1-2,1.5,17.1,17.1,0,0,1-3.8,1.2l-9.1,2Zm8.2,3.1,4.2,18.3c1-.3,1.6-.6,1.8-1.1a9.6,9.6,0,0,0-.5-3.5l-2.4-10.8a15.4,15.4,0,0,0-.7-2.4,1.1,1.1,0,0,0-.7-.6A3.4,3.4,0,0,0,134.7,38.8Z"/><path class="cls-7" d="M161.7,28.8l4.5,28.1L158.8,58l-4.4-28.1Z"/><path class="cls-7" d="M189.6,25.6,192.3,54l-6.5.6-5-12.5L182,54.9l-6.2.6-2.6-28.3,6.1-.6L184.7,39l-1.2-12.8Z"/><path class="cls-7" d="M214.1,24.7,219,53l-7.5.2-.6-5.1h-2.6l-.3,5.2h-7.7l3.1-28.5Zm.7-5.7-5.6,4.9h-3.6l3-4.9Zm-4.2,24c-.4-3.2-.9-7.1-1.4-11.9-.6,5.5-1,9.5-1.1,12Z"/><path class="cls-7" d="M251.4,25.9l-1.6,28.4-6.5-.4,1.1-19.1-3.6,19-4.6-.2-1.7-18.9-1,18.7L227,53l1.6-28.4,9.5.6q.3,2.6.6,6l.6,7.3,2.4-13.1Z"/><path class="cls-7" d="M270.3,28.1l-3.5,28.3-7.3-1L263,27.2Z"/><path class="cls-7" d="M296.5,45.2l-7.3-1.4.9-4.9a7.9,7.9,0,0,0,.3-2.7,1.1,1.1,0,0,0-.9-.7c-.6-.1-1.1,0-1.3.4a12.7,12.7,0,0,0-.8,2.8L285,51.6a7.9,7.9,0,0,0-.3,2.7,1.1,1.1,0,0,0,1,.9,1,1,0,0,0,1.1-.4,7.3,7.3,0,0,0,.8-2.9l.7-3.5,7.3,1.3-.2,1.1a27.1,27.1,0,0,1-1.8,6.1,6.3,6.3,0,0,1-3.3,2.6,9.1,9.1,0,0,1-5.5.4,11,11,0,0,1-5-2.1,6.1,6.1,0,0,1-2.1-3.8,18.9,18.9,0,0,1,.5-6.3l1.5-8.1c.4-2,.8-3.5,1.1-4.5a5.9,5.9,0,0,1,1.8-2.7,6.4,6.4,0,0,1,3.3-1.6,10.4,10.4,0,0,1,4.3,0,10.9,10.9,0,0,1,5.1,2.2,6.2,6.2,0,0,1,2.1,3.6,18.7,18.7,0,0,1-.4,5.9Z"/><path class="cls-7" d="M322,56.2c-.8,2.8-1.4,4.7-1.8,5.8a7.4,7.4,0,0,1-2.1,2.8,6.1,6.1,0,0,1-3.4,1.4,10.8,10.8,0,0,1-4.3-.3,10.6,10.6,0,0,1-3.7-1.8,5.9,5.9,0,0,1-2.2-3,6,6,0,0,1-.4-3.5,40.4,40.4,0,0,1,1.4-5.9l1.3-4.7c.8-2.8,1.4-4.7,1.8-5.8a6.5,6.5,0,0,1,2.1-2.8,6.6,6.6,0,0,1,3.4-1.5,12.5,12.5,0,0,1,4.2.4,10.3,10.3,0,0,1,3.8,1.8,6.5,6.5,0,0,1,2.2,3,5.7,5.7,0,0,1,.4,3.4,38.1,38.1,0,0,1-1.4,6Zm-4.6-11a7.5,7.5,0,0,0,.4-2.5c0-.4-.3-.6-.7-.7a.9.9,0,0,0-1,.2,5.5,5.5,0,0,0-1,2.4l-3.5,12.8a8,8,0,0,0-.6,3,.8.8,0,0,0,.7.8.9.9,0,0,0,1.1-.3,13.4,13.4,0,0,0,1.1-3.1Z"/></g></g></svg>