<svg xmlns="http://www.w3.org/2000/svg" viewBox="0 0 137.7 122.1"><defs><style>.cls-1{fill:#822684;}.cls-2{fill:#9ca3af;}.cls-3{fill:#8463a7;}</style></defs><title>tecnology_question</title><g id="Capa_2" data-name="Capa 2"><g id="tecnology_question"><path class="cls-1" d="M109.6,15.4,65.4,0,23.3,20.4,7.9,64.6l20.4,42.1,44.2,15.4,42.1-20.4L130,57.5Zm1.5,83.2L72.2,117.4,31.4,103.2,12.6,64.3,26.8,23.5,65.7,4.7l40.8,14.2,18.8,38.9Z"/><path class="cls-2" d="M68.9,17.8A43.2,43.2,0,1,0,112.1,61,43.2,43.2,0,0,0,68.9,17.8Zm0,81.4A38.2,38.2,0,1,1,107.1,61,38.2,38.2,0,0,1,68.9,99.2Z"/><circle class="cls-2" cx="67" cy="82.3" r="5.7"/><path class="cls-2" d="M55.1,37.3l2.5,6.3c3-2.6,11.8-4.9,14,.3s-3.1,10.2-7.1,15.8-2.3,13.5-2.3,13.5H70c-1-5.5.8-8.4.8-8.4C73,57.4,86.2,52,79.1,39.7S55.1,37.3,55.1,37.3Z"/><polygon class="cls-2" points="134.8 57 128.9 74 131.7 74 137.7 56.8 129.8 40.4 126.8 40.4 134.8 57"/><polygon class="cls-1" points="2.9 65.7 8.8 48.7 6 48.7 0 65.9 7.9 82.3 10.9 82.3 2.9 65.7"/><path class="cls-3" d="M106.5,18.9,65.7,4.7,26.8,23.5,12.6,64.3l18.8,38.9,40.8,14.2,38.9-18.8,14.2-40.8Zm2.2,77.5L72,114.2,33.5,100.8,15.8,64.1,29.2,25.6,65.9,7.9l38.5,13.4L122.1,58Z"/></g></g></svg>