<svg xmlns="http://www.w3.org/2000/svg" viewBox="0 0 183.9 215"><defs><style>.cls-1{fill:#9ca3af;}.cls-2{fill:#e5e7eb;}</style></defs><title>user_question_card</title><g id="Capa_2" data-name="Capa 2"><g id="user_question_card"><rect class="cls-1" width="183.9" height="214.96"/><path class="cls-2" d="M165,129.4c-2.7-6.6-4.7-10.7-4.7-10.7h0c-5.1-6.8-13.6-10.8-17.1-12.6-9.5-5.2-16.2-6.5-23-10.1-8.3,7.9-17.8,12.6-27.1,12.6S74.4,103.9,66.2,96c-6.7,3.6-13.4,4.9-22.8,10.1-3.5,1.8-12,5.9-17.1,12.8h0a56.7,56.7,0,0,0-6,8.8C9.2,147.4,6.1,174.5,6.1,174.5c58.5,23.6,115.4,22.1,170.9-.1C175.5,157.6,169.4,140.2,165,129.4Z"/><path class="cls-2" d="M127.1,54.6v-.3a34.1,34.1,0,0,0-68.2,0v1.1a50.3,50.3,0,0,0,1.9,14.7A46.2,46.2,0,0,0,77,94.5a24.6,24.6,0,0,0,16,6.1,25,25,0,0,0,15.6-5.7,46.7,46.7,0,0,0,16.6-24.8A49.2,49.2,0,0,0,127.1,54.6ZM92.8,87.9a5.8,5.8,0,1,1,5.7-5.8A5.8,5.8,0,0,1,92.8,87.9Zm3.8-23.3s-1.8,3-.8,8.4H88s-1.6-7.8,2.3-13.4,9.2-10.7,7.1-15.9-10.9-2.9-14-.2l-2.5-6.4s16.6-10.7,24,2.4S98.8,57.3,96.6,64.6Z"/></g></g></svg>